<?xml version="1.0" encoding="UTF-8"?><svg id="Layer_1" xmlns="http://www.w3.org/2000/svg" width="179.12" height="50" viewBox="0 0 179.12 50"><path d="m104.28,31.47c-.32-2.34-.73-4.68-.62-7.04.1-1.96.54-3.87.78-5.81.3-2.47.23-4.97.02-7.44-.17-2.03-.45-4.1-.01-6.09.18-.82.48-1.64.64-2.47.19-1.01-.41-2.04-1.37-2.3-.99-.26-2.02-.36-3.04-.29-.48.04-.97.12-1.34.41-1.05.83-.62,2.54-.71,3.91-.15,2.02-1.65,3.6-2.72,5.29-.84,1.31-1.47,2.76-1.83,4.29-.42,1.72-.51,3.51-.82,5.25-.67,3.77-2.34,7.32-2.72,11.13-.3,3.05.26,6.18-.42,9.2-.32,1.42-1.11,2.74-1.68,4.06-.65,1.52-1.29,3.04-1.9,4.57-.13.3-.24.64-.18.95.15.72,1.04.87,1.75.86,1.64-.01,3.28-.02,4.91-.04.38,0,.78-.01,1.09-.22.3-.21.47-.57.59-.92.49-1.32.62-2.75.73-4.16.61-7.33.75-14.71.43-22.05-.02-.57.01-1.25.49-1.51.19-.11.43-.11.65-.12.83,0,1.78.04,2.29.73.29.38.37.89.44,1.37,1.01,8.23-1.58,16.47-1.43,24.77.01.39.03.8.23,1.13.39.64,1.26.66,1.97.6.77-.04,1.53-.1,2.29-.15.57-.04,1.17-.09,1.63-.45.72-.56.82-1.64.83-2.59.06-4.97-.24-9.96-.94-14.88Zm-4.2-15.4c-.13,1.69.03,2.98-1.86,3.27-1.1.16-1.83-.59-1.85-1.74-.03-1.46.65-3.16,1.04-4.56.46-1.59.96-3.16,1.52-4.72.09-.23.21-.5.45-.54.2-.02.38.15.5.32.41.65.44,1.49.43,2.27-.01,1.9-.09,3.79-.22,5.69Z" style="fill:#77afaf;"/><path d="m68.45,3.81c.05,1.28.92,2.76,2.13,2.56.67-.11,1.16-.7,1.68-1.16,1.05-.94,2.43-1.46,3.81-1.43.26,0,.55.04.74.22.22.21.27.54.29.85.42,4.71-.86,9.52-.01,14.17.24,1.32.65,2.6.84,3.93.6,4.09-.87,8.19-.98,12.32-.09,3.62.85,7.31-.02,10.82-.16.65-.38,1.29-.39,1.95s.27,1.39.85,1.67c.29.14.63.16.95.17.77.02,1.55.05,2.32.07.49.01,1.01.02,1.42-.26.68-.46.76-1.45.75-2.3-.05-6.75-.94-13.45-1.36-20.19-.09-1.47-.16-2.96,0-4.43.11-1,.32-1.99.43-3,.22-1.95.08-3.93-.07-5.89-.2-2.62-.39-5.24-.59-7.86-.08-1.1.08-2.57,1.11-2.77.65-.13,1.24.36,1.77.77,1.67,1.32,3.65,2.2,5.71,2.53.26.04.55.07.77-.1.27-.2.29-.6.3-.95.01-1.28.02-2.56.03-3.84,0-.34,0-.73-.24-.97-.19-.2-.47-.25-.74-.27-1.43-.12-2.86.27-4.29.33-2.25.09-4.48-.66-6.74-.55-2.17.1-4.33.98-6.46.54-.92-.19-2.82-1.28-3.61-.45-.57.6-.45,2.75-.42,3.51Z" style="fill:#77afaf;"/><path d="m127.77,3.81c.05,1.28.92,2.76,2.13,2.56.67-.11,1.16-.7,1.68-1.16,1.05-.94,2.43-1.46,3.81-1.43.26,0,.55.04.74.22.22.21.27.54.29.85.42,4.71-.86,9.52-.01,14.17.24,1.32.65,2.6.84,3.93.6,4.09-.87,8.19-.98,12.32-.09,3.62.85,7.31-.02,10.82-.16.65-.38,1.29-.39,1.95s.27,1.39.85,1.67c.29.14.63.16.95.17.77.02,1.55.05,2.32.07.49.01,1.01.02,1.42-.26.68-.46.76-1.45.75-2.3-.05-6.75-.94-13.45-1.36-20.19-.09-1.47-.16-2.96,0-4.43.11-1,.32-1.99.43-3,.22-1.95.08-3.93-.07-5.89-.2-2.62-.39-5.24-.59-7.86-.08-1.1.08-2.57,1.11-2.77.65-.13,1.24.36,1.77.77,1.67,1.32,3.65,2.2,5.71,2.53.26.04.55.07.77-.1.27-.2.29-.6.3-.95.01-1.28.02-2.56.03-3.84,0-.34,0-.73-.24-.97-.19-.2-.47-.25-.74-.27-1.43-.12-2.86.27-4.29.33-2.25.09-4.48-.66-6.74-.55-2.17.1-4.33.98-6.46.54-.92-.19-2.82-1.28-3.61-.45-.57.6-.45,2.75-.42,3.51Z" style="fill:#77afaf;"/><path d="m50.19,1.42c-.19.35-.23.76-.25,1.16-.06,1.43.13,2.86.23,4.28.33,4.8-.45,9.65.16,14.42.23,1.79.66,3.57.68,5.38.02,1.55-.27,3.09-.39,4.64-.4,4.92.79,10.02-.58,14.75-.18.64-.41,1.34-.15,1.95.24.56.82.85,1.37,1.05,1.43.51,2.97.67,4.46.46.23-.03.47-.08.66-.21.57-.39.49-1.27.36-1.97-.82-4.77-.4-9.67-.67-14.5-.19-3.44-.73-6.85-.86-10.29-.01-.25-.01-.53.13-.74.13-.19.35-.27.57-.34,1.07-.33,2.21-.38,3.3-.15.37.08.76.2,1.03.47.43.43.48,1.12.49,1.74.11,5.64-.75,11.28-.52,16.91.11,2.63.44,5.34-.34,7.84-.12.38-.25.84,0,1.14.12.14.3.2.47.25,1.19.35,2.46.44,3.69.27.58-.08,1.18-.24,1.59-.67.52-.55.61-1.4.62-2.18.05-4.76-1.61-9.46-1.18-14.2.2-2.16.82-4.26.93-6.42.19-3.74-1.18-7.39-1.36-11.13-.21-4.49,1.29-8.92,1.17-13.42,0-.38-.04-.77-.23-1.09-.38-.62-1.21-.67-1.91-.66-1.2.02-2.57.13-3.32,1.13-.64.86-.57,2.08-.46,3.17.42,4.3.84,8.6,1.26,12.89.04.4.07.86-.18,1.17-.2.26-.53.35-.84.42-.87.19-1.74.33-2.63.39-.58.04-1.22.04-1.69-.33-.68-.54-.69-1.59-.64-2.49.19-3.18.37-6.36.56-9.54.09-1.58.19-3.17.58-4.7.1-.37.21-.76.13-1.13-.4-1.91-5.58-.9-6.25.3Z" style="fill:#77afaf;"/><path d="m169.61,27.72c-.44-3.2-1.44-6.72-4.15-8.23-1.63-.91-3.56-.91-5.32-1.43-.45-.12-.92-.31-1.21-.69-.22-.29-.33-.64-.4-1-.95-4.18.25-8.51.56-12.8.08-1.04.07-2.18-.55-2.99-1.14-1.5-4.75.23-5.24,1.75-.41,1.22-.13,2.56.09,3.82.55,3.27.6,6.61.65,9.93.04,3,.1,6.02.15,9.03.09,6.52.2,13.06-.61,19.51-.15,1.19-.32,2.46.22,3.5.72,1.4,2.43,1.86,3.94,1.83,4.58-.13,8.63-3.7,10.53-8.07,1.91-4.38,1.98-9.41,1.34-14.16Zm-4.8,9.1c-.55,3.04-1.84,6.03-4.08,8.01-.45.41-1.04.8-1.64.63-.92-.25-1.06-1.54-1-2.54.21-4.36.42-8.72.63-13.08.1-1.98-.87-9.51,2.67-7.55,1.41.79,2.94,1.71,3.48,3.3.21.63.23,1.31.25,1.97.12,3.09.23,6.21-.32,9.24Z" style="fill:#77afaf;"/><path d="m46.45,15.86c-.76-4.24-2.64-8.16-4.51-12.01-.39-.81-.79-1.62-1.41-2.24-.72-.72-1.68-1.11-2.65-1.34-2.34-.55-4.76-.19-7.06.39-1.76.45-4.67.87-5.97,2.33-.97,1.09-1.31,3.13-1.89,4.47-.96,2.2-1.99,4.39-2.65,6.72-.54,1.95-.81,3.97-1.09,5.99-.71,5.34-1.43,10.79-.51,16.09.32,1.8.82,3.57,1.32,5.33.55,1.95,1.15,3.98,2.53,5.42,1.34,1.4,3.24,2.04,5.1,2.29,1.86.26,3.76.2,5.64.44,1.01.12,2.04.35,3.06.25,1.92-.2,3.57-1.5,4.86-3,1.08-1.24,1.97-2.67,2.58-4.23.78-1.99,1.08-4.14,1.36-6.27.27-1.95.54-3.88.81-5.83.67-4.9,1.35-9.92.48-14.78Zm-6.46,23.65c-.45,1.19-.99,2.37-1.86,3.26-1.72,1.71-4.33,1.91-6.67,1.6-2.98-.4-6-1.58-8.02-3.92-1.66-1.9-2.55-4.43-2.86-6.98-.31-2.55-.09-5.15.25-7.7,1.08-8.24,2.87-20.46,12.97-20.62,3.77-.07,7.65,2.48,8.62,6.32.3,1.21.32,2.47.33,3.73.1,8.21.15,16.68-2.75,24.31Z" style="fill:#77afaf;"/><path d="m1.02.81C.32,1.26,0,2.18,0,3.04s.25,1.7.43,2.54c.83,3.75.36,7.67.67,11.5.24,3.05.98,6.07.9,9.13-.11,4.07-1.66,8.2-.6,12.12.42,1.55,1.25,3.05,1.09,4.65-.09.9-.49,1.72-.76,2.58-.26.83-.41,1.71-.43,2.58-.01.51.06,1.11.49,1.37.24.15.52.14.8.14,1.2-.03,2.4-.12,3.6-.26.24-.03.48-.06.67-.21.28-.22.37-.62.39-.99.08-1.39-.46-2.72-.67-4.1-.24-1.59-.03-3.21.04-4.82.2-4.79-.88-9.54-.99-14.33-.01-.47.02-1.02.39-1.29.37-.27.9-.1,1.2.25s.42.82.52,1.28c.64,2.91,1.01,5.88,1.11,8.87.04,1.38.03,2.78.4,4.11.41,1.49,1.27,2.79,1.76,4.25.47,1.4.59,2.91.58,4.39,0,.84,0,1.82.62,2.36.4.35.95.42,1.47.47.97.1,1.93.19,2.9.29.9.09,1.99.09,2.49-.71.5-.81.04-1.88-.43-2.71-2.78-4.87-6.09-9.8-6.28-15.47-.05-1.64.16-3.31-.18-4.91-.44-2.11-1.88-3.97-3.77-4.85-.51-.24-1.15-.6-1.05-1.17.09-.48.64-.65,1.07-.84,1.28-.56,2.02-1.99,2.39-3.39s.51-2.88,1.06-4.22c.45-1.08,1.17-2.02,1.75-3.03.74-1.3,1.25-2.72,1.76-4.14.34-.94.68-1.88,1.01-2.82.09-.26.19-.54.12-.8-.13-.54-.79-.69-1.32-.73-2.03-.16-4.43-.15-5.63,1.57-.74,1.06-.78,2.47-.83,3.79-.14,3.73-.6,7.44-1.37,11.08-.2.96-.56,2.07-1.46,2.36-.14.05-.31.06-.43-.03-.11-.09-.14-.24-.16-.38-.29-1.75.2-3.52.48-5.26.35-2.24.36-4.53.37-6.8,0-1.3,0-2.6.01-3.9,0-1.6-.25-1.68-1.58-1.72-1.16-.03-2.49-.69-3.58,0Z" style="fill:#77afaf;"/><path d="m110.49.81c-.7.45-1.02,1.37-1.02,2.23s.25,1.7.43,2.54c.83,3.75.36,7.67.67,11.5.24,3.05.98,6.07.9,9.13-.11,4.07-1.66,8.2-.6,12.12.42,1.55,1.25,3.05,1.09,4.65-.09.9-.49,1.72-.76,2.58-.26.83-.41,1.71-.43,2.58-.01.51.06,1.11.49,1.37.24.15.52.14.8.14,1.2-.03,2.4-.12,3.6-.26.24-.03.48-.06.67-.21.28-.22.37-.62.39-.99.08-1.39-.46-2.72-.67-4.1-.24-1.59-.03-3.21.04-4.82.2-4.79-.88-9.54-.99-14.33-.01-.47.02-1.02.39-1.29.37-.27.9-.1,1.2.25s.42.82.52,1.28c.64,2.91,1.01,5.88,1.11,8.87.04,1.38.03,2.78.4,4.11.41,1.49,1.27,2.79,1.76,4.25.47,1.4.59,2.91.58,4.39,0,.84,0,1.82.62,2.36.4.35.95.42,1.47.47.97.1,1.93.19,2.9.29.9.09,1.99.09,2.49-.71.5-.81.04-1.88-.43-2.71-2.78-4.87-6.09-9.8-6.28-15.47-.05-1.64.16-3.31-.18-4.91-.44-2.11-1.88-3.97-3.77-4.85-.51-.24-1.15-.6-1.05-1.17.09-.48.64-.65,1.07-.84,1.28-.56,2.02-1.99,2.39-3.39s.51-2.88,1.06-4.22c.45-1.08,1.17-2.02,1.75-3.03.74-1.3,1.25-2.72,1.76-4.14.34-.94.68-1.88,1.01-2.82.09-.26.19-.54.12-.8-.13-.54-.79-.69-1.32-.73-2.03-.16-4.43-.15-5.63,1.57-.74,1.06-.78,2.47-.83,3.79-.14,3.73-.6,7.44-1.37,11.08-.2.96-.56,2.07-1.46,2.36-.14.05-.31.06-.43-.03-.11-.09-.14-.24-.16-.38-.29-1.75.2-3.52.48-5.26.35-2.24.36-4.53.37-6.8,0-1.3,0-2.6.01-3.9,0-1.6-.25-1.68-1.58-1.72-1.16-.03-2.49-.69-3.58,0Z" style="fill:#77afaf;"/><path d="m172.41.49c-.18-.02-.37-.03-.51.07-.14.11-.18.3-.2.48-.11.8-.14,1.61-.08,2.41.08,1.13.31,2.25.45,3.38.15,1.2.2,2.42.25,3.63.1,2.47.19,4.95.29,7.42.24,6.14.48,12.28.72,18.42.05,1.17.09,2.36-.05,3.52-.13,1.13-.44,2.24-.64,3.36-.26,1.42-.35,2.87-.44,4.32-.04.61-.06,1.27.29,1.76.51.72,1.53.75,2.41.72.88-.03,1.75-.07,2.63-.1.23,0,.47-.02.68-.13.43-.22.58-.77.65-1.25,1.14-7.18-1.73-14.4-1.73-21.68,0-4.25.98-8.46.89-12.71-.06-2.92-.63-5.85-.21-8.74.12-.78.31-1.56.31-2.36s-.22-1.63-.8-2.17c-.72-.67-1.28-.35-2.07-.23-.94.14-1.87-.03-2.83-.14Z" style="fill:#77afaf;"/></svg>