<?xml version="1.0" encoding="UTF-8"?><svg id="Layer_1" xmlns="http://www.w3.org/2000/svg" width="110" height="110" xmlns:xlink="http://www.w3.org/1999/xlink" viewBox="0 0 110 110"><defs><linearGradient id="linear-gradient" x1="7243.16" y1="-153.61" x2="7222.74" y2="-185.36" gradientTransform="translate(7293.54 -250.08) rotate(176.33) scale(1 -1)" gradientUnits="userSpaceOnUse"><stop offset=".21" stop-color="#1c3740"/><stop offset=".37" stop-color="#1d3d42"/><stop offset=".59" stop-color="#214e4a"/><stop offset=".83" stop-color="#276a57"/><stop offset="1" stop-color="#2d8263"/></linearGradient><linearGradient id="linear-gradient-2" x1="7244.22" y1="-152.38" x2="7266.07" y2="-181.02" gradientTransform="translate(7293.54 -250.08) rotate(176.33) scale(1 -1)" gradientUnits="userSpaceOnUse"><stop offset=".22" stop-color="#1c3740"/><stop offset=".38" stop-color="#1d3c42"/><stop offset=".58" stop-color="#204c49"/><stop offset=".81" stop-color="#266555"/><stop offset="1" stop-color="#2d8263"/></linearGradient><linearGradient id="linear-gradient-3" x1="7242.94" y1="-138.03" x2="7272.73" y2="-180.48" gradientTransform="translate(7293.54 -250.08) rotate(176.33) scale(1 -1)" gradientUnits="userSpaceOnUse"><stop offset=".43" stop-color="#10603d"/><stop offset=".51" stop-color="#1a673f"/><stop offset=".65" stop-color="#357c47"/><stop offset=".83" stop-color="#619d52"/><stop offset="1" stop-color="#93c360"/></linearGradient><linearGradient id="linear-gradient-4" x1="7254.2" y1="-132.89" x2="7288.12" y2="-169.31" gradientTransform="translate(7293.54 -250.08) rotate(176.33) scale(1 -1)" gradientUnits="userSpaceOnUse"><stop offset=".19" stop-color="#2d8263"/><stop offset=".31" stop-color="#489d80"/><stop offset=".5" stop-color="#6cc1a7"/><stop offset=".67" stop-color="#87dcc3"/><stop offset=".82" stop-color="#97ecd4"/><stop offset=".93" stop-color="#9df2db"/></linearGradient><linearGradient id="linear-gradient-5" x1="7001.23" y1="497.72" x2="6974.97" y2="449.66" gradientTransform="translate(7061.64 391.01) rotate(-173.36) scale(1 -1)" gradientUnits="userSpaceOnUse"><stop offset="0" stop-color="#10603d"/><stop offset=".22" stop-color="#277143"/><stop offset=".67" stop-color="#639e53"/><stop offset="1" stop-color="#93c360"/></linearGradient><linearGradient id="linear-gradient-6" x1="62.05" y1="84.14" x2="96.63" y2="37.56" gradientUnits="userSpaceOnUse"><stop offset=".11" stop-color="#2d8263"/><stop offset=".23" stop-color="#368b6d"/><stop offset=".43" stop-color="#51a68a"/><stop offset=".7" stop-color="#7cd1b8"/><stop offset=".88" stop-color="#9df2db"/></linearGradient></defs><circle cx="55" cy="55" r="55" style="fill:#004445;"/><path d="m56.47,87.03c-3.1-.11-5.46-3.32-6.88-6.58-2.6-5.95-3.44-12.81-3.27-19.51.16-6.7,1.27-13.31,2.37-19.88,1.2-7.19,2.59-14.85,7.03-19.96,2.66-3.07,6.24-4.92,9.92-5.51,3.68-.59,7.46.04,10.98,1.46-3.43-1.24-7.27-.84-10.46,1.11s-5.69,5.41-6.82,9.44c2.34-4.42,7.18-6.76,11.46-5.54-4.01,2.05-7.36,5.87-9.22,10.54,1.59-2.39,3.88-4.13,6.38-4.85-1.16,1.87-1.94,4.06-2.27,6.35l1.43-1.84c-1.25,14.19-.59,28.51-1.11,42.76-.08,2.23-.2,4.5-.82,6.61-.62,2.11-1.82,4.08-3.55,4.99-.45-.56-.91-1.12-1.36-1.67.11.11,2.64-1.92,2.9-2.11-1.72,2.11-4.09,4.27-6.7,4.17Z" style="fill:url(#linear-gradient);"/><path d="m57.12,63.81c-.98-5.89-2.88-11.51-4.76-17.08-1.81-5.36-3.63-10.72-5.44-16.08-.46-1.35-.93-2.74-1.8-3.77-.87-1.03-2.24-1.61-3.36-1.01-1.12.6-1.58,2.65-.63,3.58-.81-1.11-1.72-2.3-2.95-2.53-1.23-.23-2.66,1.17-2.19,2.53-2.43-1.81-5.44-2.5-8.26-1.89-1.08.24-2.31.87-2.5,2.15-.09.6.07,1.21.26,1.78.91,2.81,2.33,5.38,4.13,7.49,1.79,2.09,3.93,3.71,5.68,5.85,2.63,3.23,4.2,7.44,5.72,11.56,1.61,4.38,3.23,8.76,4.84,13.14,1.38,3.75,2.77,7.52,4.72,10.89s4.5,6.37,7.66,8.01c.73.38,1.53.68,2.31.48,2.53-.65.75-3.36.14-4.89-.82-2.04-1.35-4.21-1.75-6.41-.83-4.56-1.06-9.24-1.82-13.81Z" style="fill:url(#linear-gradient-2);"/><path d="m54.72,70.32c-.77-5.72-1.17-11.61-3.05-16.96-2.9-8.25-8.99-14.29-15.24-19.31-.55-.44-1.11-.88-1.76-1.03s-1.4.06-1.77.7-.14,1.72.5,1.9c-1.84-2.23-4.54-3.42-7.17-3.16-.66.07-1.38.26-1.8.87-.42.61-.31,1.74.33,1.96-1.96-1.4-4.55-1.07-6.57.21-2.02,1.28-3.58,3.37-5.02,5.48,1.92-2.56,5.43-2.74,8-1.16s4.33,4.54,5.65,7.59c1.31,3.05,2.29,6.31,3.82,9.22,2.26,4.3,5.62,7.61,8.93,10.83,4.16,4.07,8.33,8.14,12.49,12.2,1.63,1.59,3.25,3.18,4.88,4.76,2.08,2.03,1.8.13.92-1.75-1.67-3.59-2.93-8.25-3.16-12.35Z" style="fill:url(#linear-gradient-3);"/><path d="m48.2,69.66c-.55-2.02-1.6-3.45-2.54-5.25-.95-1.8-2.9-2.8-4.65-3.24-2.56-.63-4.55-.08-6.65-1.93-1.53-1.35-1.52-3.96-2.4-6.06-1.47-3.52-4.83-1.28-6.15-1.04-1.45.27-2.81-1.04-3.54-2.54-.73-1.5-1.06-3.24-1.77-4.77-.7-1.53-1.98-2.9-3.45-2.76-1.14.11-2.13,1.2-2.45,2.5s-.03,2.75.62,3.86c.3.52.69.98.91,1.55s.24,1.32-.13,1.76c-.44.52-1.19.39-1.72.01-.53-.37-.96-.93-1.52-1.25-1.42-.82-3.26.35-3.79,2.1s.06,3.78,1.13,5.14,2.57,2.16,4.06,2.74c1.5.58,3.05.97,4.5,1.7.67.34,1.43,1.02,1.23,1.85-.24,1.02-1.47.86-2.36.99-2.05.3-2.05,3.29-1.28,5.56.77,2.27,3.91,4.81,7.51,6.13,3.81,1.4,2.72.9,5.67,1.05,2.95.15,3.66-.12,6.15,2.64.78.87,1.46,1.58,1.9,2.74.84,2.26,2.52,3.91,4.14,5.47,1.23,1.19,2.5,2.4,4.01,2.98,1.49.58,3.09.5,4.65.37,1.44-.12,5.56.31,6.15-1.73.5-1.74-2.13-4.55-2.87-5.95-2.38-4.54-4.02-9.57-5.41-14.63Z" style="fill:url(#linear-gradient-4);"/><path d="m53.76,89.89c1.95-1.69,3.25-4.25,4.23-6.87s1.7-5.38,2.78-7.94c3.59-8.49,10.75-13.99,15.65-21.51,3.44-5.29,5.74-11.61,6.62-18.21.09-.67.14-1.44-.24-1.94s-1.32-.24-1.23.43c.29-1.04.58-2.11.52-3.21s-.57-2.22-1.45-2.59-2.03.39-2,1.48c-1.22-3.12-4.29-5.05-7.16-4.52.72,1.34.65,3.11.14,4.58-.51,1.47-1.39,2.7-2.28,3.89-4.47,5.98-9.38,11.61-12.82,18.47-2.85,5.7-4.6,12.06-6.32,18.37-1.57,5.74-3.13,11.48-4.7,17.23-.72,2.65-.14,4.14,2.18,4.03,2.27-.11,4.13,0,6.08-1.7Z" style="fill:url(#linear-gradient-5);"/><path d="m98.29,61.58c-.45,1.17-1.38,1.98-2.35,2.57-1.93,1.19-4.16,1.71-6.33,1.47-1.07-.11-2.14-.41-3.2-.26-1.07.14-2.17.87-2.47,2.08-.52,2.15,1.61,3.83,2.24,5.94.01.04.02.07.03.11.09.33.14.66.15.99.07,1.89-1.05,3.77-2.49,4.72-1.7,1.11-3.72,1.23-5.66,1.25-1.91.03-3.89,0-5.66.87-.02.01-.05.02-.07.03-.83.42-1.56,1-2.25,1.68-.85.85-1.62,1.85-2.39,2.85-.09.11-.17.22-.26.34-.25.32-.5.65-.76.97-.3.37-.61.74-.93,1.09-.53.57-1.09,1.1-1.67,1.58-.48.39-.99.75-1.5,1.08-.72.45-1.47.84-2.24,1.15-.54.22-1.1.41-1.66.56-.19.05-.38.1-.57.14-.01,0-.03,0-.04.01-.05.01-.1.02-.15.03-.36.02-.71.07-1.06.13-1.59.3-3.14.92-4.74,1.1-.45.05-.91.06-1.36.03-.57-.51-.98-1.24-1.22-2.05-.05-.18-.1-.35-.14-.54-.02-.09-.03-.17-.05-.26-.09-.53-.11-1.08-.06-1.61.15-1.8.94-3.45,1.88-4.88.13-.2.27-.4.41-.6.17-.25.36-.5.54-.74.05-.06.09-.13.14-.19.13-.18.27-.35.4-.53.04-.06.09-.11.13-.17.15-.2.3-.39.44-.59.14-.19.28-.38.42-.58.17-.24.34-.49.5-.74.27-.41.52-.85.76-1.29.33-.61.63-1.25.9-1.91.35-.85.64-1.74.87-2.65.25-.98.44-1.98.55-2.99.05-.4.08-.8.1-1.2,0-.12.01-.23.02-.35.01-.28.02-.56.02-.84v-.08c0-.5-.02-1-.03-1.5,0-.16,0-.32,0-.47,0-.28,0-.56.01-.84,0-.03,0-.06,0-.09.02-.44.06-.88.14-1.32.03-.14.06-.28.1-.42.06-.21.12-.42.2-.62.03-.08.06-.15.1-.23.17-.39.39-.74.64-1.05.05-.06.1-.11.15-.17.3-.31.65-.53,1.04-.64.2-.06.4-.08.6-.08.33,0,.66.07.99.18.36.12.72.29,1.09.46.36.17.72.36,1.08.51.69.29,1.39.47,2.09.25.18-.06.36-.14.51-.24,1.26-.81,1.73-2.93,1.57-4.7-.04-.41-.1-.83-.17-1.24-.02-.11-.04-.22-.06-.32-.01-.08-.03-.15-.04-.23-.02-.12-.05-.24-.07-.36-.25-1.25-.52-2.5-.46-3.78.1-2,1.55-4.17,3.19-3.67,1.42.43,2.16,2.56,3.6,2.82,1.32.24,2.44-1.31,2.71-2.86.27-1.55,0-3.16.07-4.74.08-1.58.71-3.33,1.99-3.77,1.13-.39,2.22.38,3.33.96.66.34,1.33.63,2.02.57,1.4-.11,2.46-1.58,3.01-3.1.54-1.53.75-3.21,1.36-4.7.61-1.49,1.84-2.83,3.24-2.67,1.81.21,2.77,2.79,2.58,4.93-.19,2.14-1.13,4.1-1.47,6.21-.13.79-.17,1.64.13,2.37.3.72,1.02,1.25,1.67.99.62-.25.94-1.07,1.49-1.49,1.02-.78,2.51.21,2.81,1.6.31,1.39-.27,2.87-1.1,3.93-.82,1.06-1.87,1.84-2.77,2.79-1,1.07-1.83,2.96-.94,4.15.89,1.19,2.64.53,3.75,1.41.9.71,1.08,2.29.63,3.46Z" style="fill:url(#linear-gradient-6);"/><path d="m76.44,81.95c1,.21,1.98.48,2.95.81-.94-.12-1.89-.16-2.83-.14-4.84.1-9.6,1.85-14.19,3.78-.46.2-.93.39-1.39.59.43-.11.86-.2,1.3-.27,1.63-.26,3.25-.4,4.89-.21,2.04.24,5.8,1.17,8.34,4.03-2.1-.6-3.58-1.08-5.76-1.04-5.72.11-6.71,1.97-10.98,4.01-.45.21-1.27.59-2.36.86-2.77.77-4.29.6-4.29.6v-.02c-3.18-.21-6.57-2.37-8.02-3.96-.03-.04-.07-.07-.1-.11-1.92-2.06-4.67-2.36-5.25-2.41-.07,0-.11,0-.11,0-3.4-.14-7.37.46-9.74.96,2.65-1.37,7.24-3.96,15.6-2.96-6.5-3.21-11.37-3.83-16.34-3.37,4.4-1.82,12.67-2.61,18.7,1.36-4.48-6.37-10.39-7.31-14.87-7.15,2.76-1.4,9.74-2.39,15.13,2.61-1.91-4.43-5.43-8.27-9.8-10.71,2.62.54,10.28,4.65,11.13,7.18-1.39-4.7-2.77-7.1-5.45-11.37,4.47,3.19,7.52,8.13,8.23,13.31-.02-5.49-.06-11.1-2.02-16.33,1.26,2.06,2.29,4.23,3.07,6.48,1.19,3.41,1.81,6.98,1.84,10.53,1.72-5,3.82-11.5,4.12-14.38,0,0-.15,5.48-.71,11.57.05-.05.1-.1.16-.15.11-.11.23-.22.35-.32.32-.3.64-.58.96-.87,1.25-1.09,2.55-2.09,3.92-2.98.26-.17.53-.34.8-.51.41-.25.82-.49,1.24-.72-2.68,2.9-5.02,6.65-6.38,9.02.23-.16.46-.32.69-.47,1.16-.76,2.37-1.44,3.61-2.02.19-.09.38-.17.57-.26,5.21-2.3,11.04-3.01,16.58-1.85-3.65-.29-7.31.73-10.62,2.41-2.35,1.2-4.54,2.73-6.63,4.42-.84.68-1.67,1.38-2.48,2.09.8-.4,1.61-.75,2.45-1.05,4.37-1.61,9.15-1.96,13.69-1.01Z" style="fill:#93c360;"/></svg>