<?xml version="1.0" encoding="UTF-8"?><svg id="Layer_1" xmlns="http://www.w3.org/2000/svg" width="123.59" height="50" viewBox="0 0 123.59 50"><path d="m47.96,15.86c-.76-4.24-2.64-8.16-4.51-12.01-.39-.81-.79-1.62-1.41-2.24-.72-.72-1.68-1.11-2.65-1.34-2.34-.55-4.76-.19-7.06.39-1.76.45-4.67.87-5.97,2.33-.97,1.09-1.31,3.13-1.89,4.47-.96,2.2-1.99,4.39-2.65,6.72-.54,1.95-.81,3.97-1.09,5.99-.71,5.34-1.43,10.79-.51,16.09.32,1.8.82,3.57,1.32,5.33.55,1.95,1.15,3.98,2.53,5.42,1.34,1.4,3.24,2.04,5.1,2.29,1.86.26,3.76.2,5.64.44,1.01.12,2.04.35,3.06.25,1.92-.2,3.57-1.5,4.86-3,1.08-1.24,1.97-2.67,2.58-4.23.78-1.99,1.08-4.14,1.36-6.27.27-1.95.54-3.88.81-5.83.67-4.9,1.35-9.92.48-14.78Zm-6.46,23.65c-.45,1.19-.99,2.37-1.86,3.26-1.72,1.71-4.33,1.91-6.67,1.6-2.98-.4-6-1.58-8.02-3.92-1.66-1.9-2.55-4.43-2.86-6.98-.31-2.55-.09-5.15.25-7.7,1.08-8.24,2.87-20.46,12.97-20.62,3.77-.07,7.65,2.48,8.62,6.32.3,1.21.32,2.47.33,3.73.1,8.21.15,16.68-2.75,24.31Z" style="fill:#77afaf;"/><path d="m51.6.91c-.4.53-.4,1.27-.38,1.95.38,14.1,1.23,28.28-.52,42.26-.18,1.48-.3,3.24.81,4.17.72.61,1.72.63,2.64.62,1.53-.02,3.05-.07,4.58-.15.34-.02.71-.04.98-.26.4-.3.48-.88.53-1.4.72-7.6.37-15.35,2.06-22.77.34-1.51.97-3.22,2.39-3.67.4-.13.85-.13,1.21.08.65.38.82,1.27.9,2.06.73,7.75-.82,15.51-1.16,23.29-.02.39-.02.81.17,1.14.24.41.72.59,1.16.69.82.19,1.68.24,2.52.15.36-.04.74-.12,1.03-.36.75-.63.43-1.85.22-2.83-.52-2.43.04-4.95.21-7.43.21-3.23-.25-6.46-.55-9.69-.86-9.34-.29-18.77.84-28.08-1.47-.81-3.28-.93-4.83-.32-.44.17-.88.41-1.15.82-.35.52-.37,1.21-.35,1.85.12,4.37,1.1,8.67,1.21,13.04,0,.39.01.78-.1,1.15-.32,1.06-1.43,1.57-2.38,2.06-.99.51-1.93,1.15-2.68,2-.9,1.01-1.49,2.28-1.9,3.59-.76,2.42-.95,4.99-1.17,7.52-.33,3.73-.75,7.45-1.26,11.16-.04.29-.15.65-.43.67-.31.02-.44-.4-.46-.72-.12-1.58.06-3.17.18-4.75.28-3.71.27-7.44-.04-11.15-.28-3.32-.8-6.67-.35-9.97.46-3.42,1.95-6.77,1.5-10.19-.17-1.33-.63-2.71-.21-3.99.18-.55.52-1.05.57-1.63.12-1.41-1.41-1.8-2.42-1.66s-2.6-.24-3.33.73Z" style="fill:#77afaf;"/><path d="m98.05,9.38c.49.86,1.46,1.7,2.3,1.22.52-.3.71-1.02.6-1.63s-.46-1.14-.8-1.65c-.71-1.07-1.43-2.15-2.14-3.22-.78-1.18-1.59-2.38-2.75-3.15-2.01-1.34-4.5-.24-6.88-.29-2.95-.06-6.2-1.46-8.77.07-1.66.99-2.8,2.75-3.47,4.62s-.92,3.88-1.17,5.87c-.36,2.88-.71,5.76-1.07,8.64-.41,3.31-.81,6.73.06,9.94.22.83.53,1.63.64,2.48.12.87.03,1.76,0,2.64-.14,4.59,1.51,9.34,4.87,12.27s8.51,3.65,12.21,1.21c.85-.56,1.6-1.26,2.46-1.81.81-.52,1.71-.89,2.45-1.51.65-.55,1.15-1.27,1.58-2.02,2.02-3.49,2.64-7.65,3.23-11.69.43-2.96.75-4.64.93-7.63.15-2.45-1.34-2.75-2.35-2.78-1.22-.03-2.61.23-2.68,2.68-.13,4.75-1.23,9.37-2.67,13.87-.42,1.3-.86,2.64-1.75,3.64-1.37,1.55-3.5,1.98-5.49,2.34-1,.18-2.02.35-3.01.17-.76-.14-1.48-.48-2.17-.85-2.56-1.38-3.73-2.65-4.22-5.63-.26-1.59-.21-3.84,0-5.44.58-4.39-1.07-9.07-.84-13.49s1.44-9.14,4.73-11.91c1-.84,2.15-1.47,3.35-1.94,1.96-.77,4.1-1.12,6.16-.71,3.05.6,5.11,2.99,6.63,5.67Z" style="fill:#77afaf;"/><path d="m105.34.78c-.7.45-1.02,1.37-1.02,2.23s.25,1.7.43,2.54c.83,3.75.36,7.67.67,11.5.24,3.05.98,6.07.9,9.13-.11,4.07-1.66,8.2-.6,12.12.42,1.55,1.25,3.05,1.09,4.65-.09.9-.49,1.72-.76,2.58-.26.83-.41,1.71-.43,2.58-.01.51.06,1.11.49,1.37.24.15.52.14.8.14,1.2-.03,2.4-.12,3.6-.26.24-.03.48-.06.67-.21.28-.22.37-.62.39-.99.08-1.39-.46-2.72-.67-4.1-.24-1.59-.03-3.21.04-4.82.2-4.79-.88-9.54-.99-14.33-.01-.47.02-1.02.39-1.29.37-.27.9-.1,1.2.25s.42.82.52,1.28c.64,2.91,1.01,5.88,1.11,8.87.04,1.38.03,2.78.4,4.11.41,1.49,1.27,2.79,1.76,4.25.47,1.4.59,2.91.58,4.39,0,.84,0,1.82.62,2.36.4.35.95.42,1.47.47.97.1,1.93.19,2.9.29.9.09,1.99.09,2.49-.71.5-.81.04-1.88-.43-2.71-2.78-4.87-6.09-9.8-6.28-15.47-.05-1.64.16-3.31-.18-4.91-.44-2.11-1.88-3.97-3.77-4.85-.51-.24-1.15-.6-1.05-1.17.09-.48.64-.65,1.07-.84,1.28-.56,2.02-1.99,2.39-3.39s.51-2.88,1.06-4.22c.45-1.08,1.17-2.02,1.75-3.03.74-1.3,1.25-2.72,1.76-4.14.34-.94.68-1.88,1.01-2.82.09-.26.19-.54.12-.8-.13-.54-.79-.69-1.32-.73-2.03-.16-4.43-.15-5.63,1.57-.74,1.06-.78,2.47-.83,3.79-.14,3.73-.6,7.44-1.37,11.08-.2.96-.56,2.07-1.46,2.36-.14.05-.31.06-.43-.03-.11-.09-.14-.24-.16-.38-.29-1.75.2-3.52.48-5.26.35-2.24.36-4.53.37-6.8,0-1.3,0-2.6.01-3.9,0-1.6-.25-1.68-1.58-1.72-1.16-.03-2.49-.69-3.58,0Z" style="fill:#77afaf;"/><path d="m.26,49.17c-.01.22-.01.46.14.62.13.14.34.16.53.18,1.51.1,3.03-.02,4.5-.36.24-.06.5-.13.67-.31.19-.21.21-.53.22-.81.06-3.29-.99-6.58-.56-9.84.1-.76.28-1.51.34-2.28.11-1.46-.23-2.91-.47-4.36-.6-3.63-.55-7.33-.5-11.01.08-5.69.16-11.39.23-17.08,0-.47.04-1.01.41-1.3.24-.19.57-.23.88-.25,1.03-.06,2.07-.05,3.09.05.39.04.8.09,1.12.32.48.34.64.97.74,1.55.32,1.82.4,3.69.24,5.53-.12,1.36-.37,2.7-.37,4.06,0,1.71.41,3.4.65,5.1.89,6.3-.56,12.69-.26,19.05.05,1.06.15,2.13.02,3.18-.11.93-.39,1.82-.56,2.74-.26,1.34-.3,2.72-.11,4.07.06.44.16.91.46,1.23.47.5,1.25.5,1.93.47.87-.05,1.74-.09,2.61-.14.55-.03,1.19-.1,1.51-.56.21-.3.22-.69.22-1.05-.04-2.19-.65-4.31-.98-6.47-.28-1.82-.37-3.66-.46-5.5-.11-2.26-.21-4.51-.32-6.77-.07-1.52-.15-3.05-.1-4.58.05-1.49.21-2.98.21-4.48,0-3.29-.81-6.56-.58-9.84.22-3.1,1.36-6.24.55-9.24-.08-.3-.19-.62-.44-.82-.27-.21-.63-.24-.97-.25-1.81-.06-3.62.02-5.43.09-1.95.08-3.9.16-5.85.25C2.22.42.57.69.11,1.97c-.26.73,0,1.54.19,2.29,1.29,4.84.25,9.98.56,14.98.18,2.95.83,5.86.77,8.81-.06,2.85-.77,5.62-.97,8.46-.1,1.42.2,2.77.18,4.16-.01,1.09-.27,2.21-.32,3.31l-.26,5.19Z" style="fill:#77afaf;"/></svg>
