<?xml version="1.0" encoding="UTF-8"?><svg id="Layer_1" xmlns="http://www.w3.org/2000/svg" width="20" height="20" viewBox="0 0 20 20"><path d="m10.07,20c-2.79,0-5.4-1.11-7.28-3.07-.37-.38-.7-.8-1.01-1.23-.2-.29-.39-.59-.56-.91-.24-.44-.44-.89-.61-1.35-.14-.39-.26-.78-.35-1.18-.06-.25-.1-.49-.14-.74-.02-.17-.05-.33-.06-.5-.04-.36-.06-.72-.05-1.08.02-1.66.41-3.22,1.2-4.68.29-.54.63-1.04,1.01-1.52.15-.19.31-.37.47-.55.13-.15.27-.29.42-.43.14-.13.28-.25.42-.37.17-.15.35-.29.53-.43.09-.07.19-.13.28-.2.16-.12.34-.22.51-.33.15-.09.29-.17.45-.25.1-.05.2-.11.31-.16.19-.09.38-.17.57-.25.26-.11.53-.21.8-.3.2-.06.39-.12.59-.17.09-.02.18-.04.27-.06.19-.04.38-.08.58-.12.29-.05.59-.08.88-.1.34-.03.69-.03,1.03-.02.48.01.96.06,1.44.15.83.15,1.63.4,2.4.75.58.26,1.13.58,1.65.95.11.08.21.16.32.24.2.15.39.31.57.48.09.08.18.17.28.25.05.04.09.09.13.14.17.18.34.36.5.54.17.19.32.4.48.61.12.17.24.34.35.51.08.13.16.26.23.39.05.09.11.18.16.28.07.13.12.26.19.38.06.11.11.23.16.34.08.2.17.39.23.6.05.13.09.27.14.4.07.21.13.43.18.65.02.08.06.15.05.24.1.37.15.76.19,1.14.05.48.06.97.03,1.46-.04.82-.18,1.62-.42,2.4-.59,1.91-1.64,3.51-3.17,4.79-1.2,1-2.57,1.68-4.09,2.05-.41.1-.82.17-1.23.21-.36.04-.72.06-1.01.06Zm4.57-13.32c0-.09,0-.18-.02-.27-.03-.15-.09-.27-.24-.33-.13-.06-.27-.07-.41-.05-.14.02-.28.05-.41.09-.15.05-.3.1-.45.15-.26.1-.52.2-.79.3-.18.07-.35.14-.53.21-.14.06-.28.11-.42.17-.18.08-.36.15-.55.23-.24.1-.49.19-.73.3-.23.1-.46.2-.69.3-1.54.66-3.08,1.33-4.61,2-.2.09-.41.16-.6.26-.14.07-.26.15-.36.27-.05.06-.07.13-.07.2,0,.09.05.17.12.23.09.08.2.13.31.17.21.08.43.15.65.22.15.05.3.09.44.13.16.05.32.09.48.13.13.03.26.05.39.07.27.05.54.02.8-.08.2-.08.38-.18.55-.3,1.16-.78,2.33-1.57,3.5-2.34.21-.14.42-.28.64-.41.06-.03.11-.05.18-.04.07,0,.12.04.13.12.01.06,0,.11-.03.16-.06.07-.11.13-.17.2-.3.32-.62.61-.93.92-.63.6-1.28,1.18-1.9,1.8-.12.11-.23.23-.33.36-.05.07-.1.15-.11.24-.01.1,0,.19.05.27.04.07.09.13.14.19.09.09.19.16.29.23.95.64,1.9,1.27,2.84,1.92.14.1.28.18.43.25.17.07.35.11.54.1.13,0,.24-.06.33-.15.08-.07.13-.16.18-.26.08-.16.13-.33.17-.5.09-.47.17-.93.26-1.4.08-.44.15-.87.23-1.31.07-.43.14-.86.21-1.29.06-.37.12-.74.17-1.12.05-.34.1-.68.15-1.02.04-.29.08-.57.11-.86.02-.15.04-.29.04-.44Z" style="fill:#77afaf;"/></svg>