<?xml version="1.0" encoding="UTF-8"?><svg id="Layer_1" xmlns="http://www.w3.org/2000/svg" width="20" height="20" viewBox="0 0 20 20"><path d="m5.04.07C5.57.02,6.13,0,6.68,0c2.4,0,4.8,0,7.19.01.45,0,.9.04,1.35.08.5.05.99.11,1.47.24.77.2,1.48.52,2.02,1.11.36.39.6.84.77,1.35.21.61.32,1.24.39,1.88.05.52.08,1.04.09,1.56.05,1.76,0,3.52.02,5.28,0,.59,0,1.18,0,1.77,0,.49-.02.99-.06,1.48-.05.65-.12,1.31-.29,1.94-.16.59-.38,1.15-.76,1.64-.45.57-1.05.93-1.73,1.17-.55.19-1.11.3-1.68.36-.41.05-.82.09-1.23.1-2.56.06-5.12,0-7.67.03-.39,0-.79-.02-1.18-.04-.44-.02-.88-.07-1.32-.15-.41-.07-.82-.15-1.21-.29-1.02-.35-1.8-.98-2.24-1.99-.22-.51-.36-1.04-.45-1.59-.07-.42-.11-.85-.14-1.27C0,14.1,0,13.53,0,12.95c0-2.47,0-4.94.02-7.4,0-.6.09-1.2.21-1.79.12-.59.29-1.15.58-1.67.46-.81,1.16-1.32,2.03-1.61.6-.2,1.23-.32,1.86-.37.1,0,.2-.04.33-.03Zm6.11,8.26h0c0-.5.01-.99,0-1.49-.02-.44-.15-.52-.53-.52-.67,0-1.34,0-2.01,0-.2,0-.4-.01-.5.2-.1.21.03.36.15.51.28.33.38.72.39,1.13.01.69,0,1.37,0,2.06,0,.13,0,.26-.05.38-.06.17-.18.23-.34.15-.21-.11-.37-.28-.51-.46-.41-.5-.73-1.07-1.03-1.64-.32-.62-.57-1.26-.81-1.91-.07-.19-.18-.36-.41-.38-.58-.06-1.16-.04-1.74-.02-.32.01-.46.23-.39.53.08.36.18.71.31,1.05.51,1.36,1.24,2.6,2.08,3.77.75,1.05,1.71,1.84,2.92,2.3.62.24,1.27.3,1.93.22.37-.05.57-.11.56-.63,0-.43,0-.86,0-1.3,0-.09,0-.17.03-.26.04-.1.1-.14.21-.15.26-.02.5.05.71.2.35.24.66.51.95.81.33.35.66.7.99,1.05.16.16.34.3.57.31.54,0,1.08.01,1.62,0,.36,0,.5-.24.42-.58-.06-.25-.2-.45-.34-.65-.49-.68-1.05-1.29-1.64-1.87-.12-.11-.23-.23-.31-.37-.08-.13-.11-.25-.01-.39.08-.12.15-.24.22-.36.54-.8,1.08-1.6,1.52-2.46.12-.23.23-.46.29-.72.08-.34-.04-.5-.39-.51-.52,0-1.05,0-1.57,0-.18,0-.33.07-.44.2-.07.08-.12.18-.16.28-.29.66-.62,1.3-1.02,1.91-.3.47-.62.93-1.06,1.28-.12.1-.26.21-.42.14-.17-.08-.16-.26-.16-.41,0-.47,0-.94,0-1.41Z" style="fill:#77afaf;"/></svg>