<?xml version="1.0" encoding="UTF-8"?><svg id="Layer_1" xmlns="http://www.w3.org/2000/svg" width="29.92" height="20" viewBox="0 0 29.92 20"><path d="m29.88,8.32c0,.25-.02.5,0,.75.05.55.03,1.1.02,1.65-.02.56-.02,1.12-.05,1.68-.02.33-.04.67-.06,1-.02.3-.04.6-.07.9-.02.22-.06.45-.08.67-.03.22-.05.43-.08.65-.02.16-.05.33-.08.49-.05.23-.11.45-.16.68-.07.32-.2.61-.36.89-.26.46-.61.83-1.05,1.14-.18.13-.37.24-.57.34-.27.12-.55.23-.85.28-.1.01-.19.04-.28.06-.53.09-1.06.15-1.59.19-.41.03-.82.07-1.23.1-.09,0-.19,0-.28.01-.22.01-.45.03-.67.04-.2,0-.4.01-.59.02-.35.01-.71.03-1.06.04-.32.01-.64.01-.97.02-.27,0-.54.02-.81.03-.01,0-.02,0-.03,0-.39,0-.78.02-1.18.02-.56,0-1.12,0-1.68.01-.66,0-1.32.01-1.98,0-.8,0-1.59,0-2.39-.02-.68-.01-1.36-.04-2.04-.06-.36-.01-.72-.02-1.08-.03-.36-.01-.72-.02-1.08-.05-.31-.03-.63-.03-.94-.05-.38-.02-.77-.06-1.15-.09-.09,0-.17,0-.26-.02-.3-.03-.6-.07-.9-.1-.19-.02-.38-.05-.58-.08-.46-.07-.9-.21-1.3-.43-.68-.37-1.19-.9-1.53-1.57-.18-.36-.28-.73-.36-1.12-.07-.35-.13-.7-.18-1.06-.08-.56-.14-1.13-.17-1.69-.01-.28-.04-.55-.06-.83-.02-.39-.04-.77-.05-1.16,0-.24,0-.48-.02-.72-.05-.54-.02-1.08-.02-1.62,0-.23.02-.46.03-.7,0-.17,0-.33.01-.5.01-.3.03-.6.04-.89,0-.1,0-.19.01-.29.02-.21.03-.42.05-.63.03-.32.05-.64.08-.96,0-.01,0-.02,0-.03.04-.33.09-.67.14-1,.04-.23.08-.47.13-.7.05-.24.11-.48.19-.72.07-.2.17-.4.28-.59.23-.4.54-.74.91-1.03.33-.26.7-.45,1.11-.6.25-.09.52-.13.78-.18.21-.04.42-.07.63-.1.28-.03.57-.05.86-.08.05,0,.11,0,.16-.01.15-.01.29-.03.44-.04.31-.02.62-.04.93-.06.15,0,.3-.01.45-.02.28-.01.55-.03.83-.04.22-.01.44-.02.66-.02.5-.02,1-.03,1.5-.04.44-.01.88-.03,1.32-.04.66-.01,1.32-.02,1.98-.02C14.26.01,14.99,0,15.72,0c.82,0,1.63.01,2.45.02.26,0,.52.01.78.02.51.01,1.02.03,1.54.04.34.01.67.03,1.01.04.28.01.55.02.83.03.1,0,.2.02.3.02.19.01.37.02.56.03.38.02.77.04,1.15.07.33.03.66.06.98.1.37.04.73.08,1.09.17.19.04.39.08.57.15.31.12.62.26.89.45.25.18.49.38.69.61.17.19.31.39.43.62.08.15.17.31.22.47.05.19.11.38.16.58.04.17.08.34.11.51.07.45.14.9.19,1.35.04.36.07.73.1,1.09.02.3.05.6.07.89.02.26.03.52.04.78,0,.09,0,.18,0,.28,0,0,.01,0,.02,0Zm-17.94,5.9s.09-.04.13-.06c.14-.07.27-.15.41-.23.48-.26.96-.52,1.45-.78.47-.25.94-.51,1.42-.76.37-.2.75-.4,1.12-.61.19-.1.38-.21.57-.32.33-.18.66-.35.99-.53.27-.15.54-.3.81-.44.25-.13.49-.26.74-.4.13-.07.13-.12,0-.2-.26-.14-.52-.29-.79-.43-.28-.15-.57-.31-.85-.46-.42-.23-.84-.45-1.26-.68-.31-.17-.62-.34-.93-.51-.5-.27-.99-.53-1.49-.8-.27-.15-.55-.3-.82-.44-.46-.25-.92-.5-1.38-.75-.04-.02-.09-.04-.13-.06-.05.08-.03.15-.03.23,0,2.47,0,4.93,0,7.4,0,.22,0,.44,0,.66,0,.05-.01.1.05.14Z" style="fill:#77afaf;"/></svg>