<?xml version="1.0" encoding="UTF-8"?>
<svg id="_Слой_1" data-name="Слой 1" xmlns="http://www.w3.org/2000/svg" xmlns:xlink="http://www.w3.org/1999/xlink" viewBox="0 0 116.18 134.43">
  <defs>
    <linearGradient id="linear-gradient" x1="5993.39" y1="3069.57" x2="6003.8" y2="2899.62" gradientTransform="translate(1552.5 -6483.01) rotate(76.19)" gradientUnits="userSpaceOnUse">
      <stop offset=".1" stop-color="#004445"/>
      <stop offset=".41" stop-color="#1e6d59"/>
      <stop offset=".6" stop-color="#2d8263"/>
    </linearGradient>
    <linearGradient id="linear-gradient-2" x1="9285.19" y1="121.66" x2="9285.19" y2="121.25" gradientTransform="translate(9337.9) rotate(-180) scale(1 -1)" gradientUnits="userSpaceOnUse">
      <stop offset="0" stop-color="#004445"/>
      <stop offset=".19" stop-color="#005254"/>
      <stop offset=".46" stop-color="#006365"/>
      <stop offset=".67" stop-color="#01696c"/>
      <stop offset="1" stop-color="#01696c"/>
    </linearGradient>
  </defs>
  <path d="M0,116.49v7.18h13.42c-6.42-2.15-12.57-4.19-13.42-7.18ZM98.53,21.73c-3.74,6.85-14.91,13.38-20.7,13.9-3.56.33-5.09-1.6-1.63-7.11.99-1.59,2.33-3.13,3.88-4.64,7.91-7.75,21.54-14.84,25.58-23.88h-30.59c-1.42,3.08-2.73,6.47-3.88,10.12-.2.65-.41,1.27-.64,1.87-7.32,20.12-21.82,8.65-15.28.68.41-.49.82-1.02,1.23-1.57,2.38-3.2,4.67-7.23,5.94-11.1H24.93c-.81,2.23-.96,4.74-.2,7.51,4.21,15.18,6.28,37.79-5.15,35.81-11.44-2.04-13.43-13.73-8.96-22.27C15.09,12.55,14.3-1.27,4.21,3.88c-1.47.74-2.88,1.69-4.21,2.8v46.06c1.98,5.6,2.67,10.63,0,13.37v48.87c.34-1.16,1.42-2.46,3.46-3.95,5.86-4.31,18.57,5.61,29.12,12.64h36.62c5.77-3.17,9.92-7.15,9.33-11.05-.82-5.24-20.79-9.31-35.88-13.54-11.47-3.21-20.13-6.52-15.44-10.51,2.83-2.41,7.51-2.89,13.21-2.75,11.8.31,27.97,3.26,40.99-2.9.59-.28,1.17-.57,1.75-.89,2.52-1.39,4.9-3.15,7.08-5.39.61-.61,1.19-1.26,1.76-1.95.66-.79,1.29-1.62,1.9-2.51,4.64-9.08,2.74-12.44-4.21-12.47-1.54,0-3.33.14-5.36.45-2.06.29-4.36.73-6.88,1.29-.33.07-.65.14-.99.21h-.01c-1.31.3-2.68.63-4.11.98-1.4.34-2.74.61-4.02.8-2.84.43-5.39.51-7.58.35-10.44-.82-12.92-7.42-.35-10.49.54-.14,1.1-.26,1.7-.38.74-.15,1.5-.28,2.28-.39,3.69-.58,7.67-.84,11.73-1.06.09-.01.19-.01.28-.02,1.92-.1,3.86-.2,5.8-.32,2.74-.17,5.48-.38,8.14-.73,2.36-.3,4.65-.7,6.85-1.24,2.52-.63,4.91-1.46,7.12-2.58,1.29-.64,2.51-1.39,3.65-2.24,3.55-2.65,6.38-6.38,8.12-11.67,1.49-13.43-11.5-22.06-17.53-10.94ZM37.13,8.44c5.34-4.54,10.05-.09,11.78,10.24.48,2.81.73,6.05.71,9.67-.07,13.01-8.2,9.54-12.46,5.01-1.27-1.35-2.2-2.81-2.46-3.94-1.49-6.34-4.38-15.28,2.43-20.98ZM54.11,66.9h.01c6.47,2.86,10.56,8.38-.05,11.85-6.42,2.1-12.23,1.22-16.59-.75-5.35-2.41-8.51-6.46-7.87-8.62,1.12-3.75,3.28-5.02,6.25-5.26,3-.24,6.84.57,11.29.95,2.27.17,4.75.84,6.96,1.83Z" style="fill: url(#linear-gradient); stroke-width: 0px;"/>
  <g>
    <path d="M30.54,57.76c.96,3.84,4.19,6.18,8.01,7.55,3.78,1.36,8.11,1.79,11.4,1.82,18.85.19,10.77-13.91,7.75-18.84-2.27-3.71-1.7-6.99-.52-9.09.39-.7.84-1.26,1.28-1.67,1.76-1.67,2.48-7.36.87-8.97-1.63-1.6-.72-4.11.21-4.9.93-.79,2.55-.38,3.22,1.53.66,1.91,1.76,2.49,5.35,2.54,3.6.04,6.61-2.29,7.84-3.2.67,1.29,0,3.44-1.29,4.59-1.28,1.15-1.24,3.83-1,5.89.24,2.06-2.15,1.19-2.15,1.19,0,0-1.16,2.2-3.07,4.45s-5.88-1.48-5.88-1.48c0,0-1.39,1.34-1.52,3.11-.01.06-.01.12-.01.18-.1,3.11,3.1,9.81,5.07,13.59,1.96,3.78,2.59,10.05,2.59,10.05,15.49-4.79,7.07-13.59,5.07-19.99-2.01-6.41,7.64-12.15,7.64-17.51,0-5.35-9.46-19.41-18.07-19.41-8.61,0-13.87,8.51-15.5,11.18-1.62,2.69-2.87,6.99-8.61,11.1-5.73,4.11-5.07,10.71-4.88,15.01.19,4.3-4.69,7.17-3.82,11.28Z" style="fill: #1c3740; stroke-width: 0px;"/>
    <path d="M57.18,39.21l3.88,3.07c.12-1.78,1.52-3.11,1.52-3.11,0,0,3.97,3.73,5.88,1.48s3.07-4.45,3.07-4.45c0,0,2.38.87,2.15-1.19-.24-2.06-.28-4.74,1-5.89,1.29-1.15,1.97-3.29,1.29-4.59-1.24.91-4.25,3.25-7.84,3.2-3.59-.04-4.69-.63-5.35-2.54-.67-1.91-2.29-2.32-3.22-1.53-.93.79-1.84,3.3-.21,4.9,1.62,1.61.9,7.29-.87,8.97-.44.42-.89.98-1.28,1.67Z" style="fill: #f7e9de; stroke-width: 0px;"/>
    <path d="M44.79,89.76c2.84,1.66,6.71,2.7,11.9,2.7,3.42,0,6.82-.35,9.97-.91,8.29-1.48,14.76-4.45,14.76-6.43v-6.46c0-.48-.15-.95-.46-1.32-.97-1.16-3.9-3.06-12.53-2.13.57-6.42.28-9.11.28-9.11,0,0-.63-6.27-2.59-10.05-1.97-3.78-5.17-10.47-5.07-13.59,0-.06,0-.12.01-.18l-3.88-3.07c-1.18,2.1-1.75,5.38.52,9.09,3.01,4.92,11.09,19.03-7.75,18.84-3.28-.03-7.62-.46-11.4-1.82,0,0-5.54,17.6,6.24,24.44Z" style="fill: #fc8ea7; stroke-width: 0px;"/>
    <path d="M44.52,118.73c.2-.02.4-.01.61.01,2.56.33,2.88,1.84,4.8,2.37.15.03.28.06.43.09.08.02.16.03.25.04h.01c1.54.27,3.05.38,4.2.42h.12c1.24.03,2.05-.01,2.05-.01v7.84s.24,7.55,36.15-2.67c14.21-4.73,18.85-8.27,18.85-14.78,0-6.51-10.53-11.19-18.49-13.21-7.97-2-26.84-1.75-26.84-7.29-3.15.56-6.55.91-9.97.91-5.19,0-9.06-1.03-11.9-2.7h-.02s-1.06,6.57-2.71,11.09c-1.45,4-2.35,13.6,2.46,17.88Z" style="fill: #1c3740; stroke-width: 0px;"/>
    <path d="M25.61,134.04c1.6,1.52,9.04-1.71,14.53-3.47,5.51-1.78,16.84-1.07,16.84-1.07v-7.84c-.51.06-1.21.06-2.05.01h-.12c-1.16-.03-2.66-.15-4.2-.42h-.01c-.09-.01-.17-.02-.25-.04-.15-.02-.29-.04-.43-.09-1.92-.53-2.24-2.05-4.8-2.37-.2-.02-.4-.03-.61-.01-2.93.2-5.79,4.5-8.79,6.36-.29.18-.62.33-.93.45-3.39,1.29-5.41,2.34-7.87,4.36-2.05,1.69-2.01,3.48-1.31,4.14Z" style="fill: #f7e9de; stroke-width: 0px;"/>
    <path d="M50.61,121.25c1.54.27,3.05.38,4.2.42-1.24-.07-2.72-.22-4.2-.42Z" style="fill: url(#linear-gradient-2); opacity: .58; stroke-width: 0px;"/>
    <path d="M86.29,91.31l11.91.43s5.65-4.63,3.3-16.71l-17.32-.62c-3.21,11.87,2.11,16.9,2.11,16.9Z" style="fill: #77afaf; stroke-width: 0px;"/>
    <path d="M80.61,66.57c3.42,4.31,5.58,6.67,6.92,7.96l9.61.35c.04-.62.09-1.61.18-2.78,12.5-5.38,16.72-19.97,11.81-21.87-.12-.04-.25-.09-.38-.12-1.03-.25-1.82-.25-2.45-.06-2.8.85-2.2,5.54-3.06,9.87-.76,3.85-3.74,6.1-5.32,7.05.26-1.56.58-3.12,1.02-4.44,1.43-4.43,1.57-12.32-3.06-14.1-.55-.22-1.18-.35-1.87-.37-.57-.02-1.09.05-1.53.21-4.65,1.63-2.89,12.14-1.74,18.13.55,2.88.65,5.18.59,6.84-2-2.2-5.16-6.17-6.39-10.26-1.23-4.12-1.29-12.29-4.52-13.7-.3-.14-.61-.21-.96-.22-.52,0-.99.11-1.42.35-3.06,1.71-3.59,9.41,2.57,17.18Z" style="fill: #93c360; stroke-width: 0px;"/>
    <path d="M75.26,46.16c.4,1.96,2.78,3.23,2.78,3.23.43-.24.9-.35,1.42-.35.35.01.67.08.96.22h.03c2.56-2.04,2.12-5.65.9-5.85-.85-.14-1.3.38-1.98,1.53-.68,1.17-1.27-1.9-2.55-1.94s-1.92,1.31-1.57,3.16Z" style="fill: #fc8ea7; stroke-width: 0px;"/>
    <path d="M104.27,46.18c-.04,1.92,1.6,3.48,2.04,3.85.63-.19,1.42-.19,2.45.06.13.03.27.08.38.12,2.99-1.93,3.11-5.25,1.88-5.6-.7-.2-1.25.11-1.69.39-1.42.87-1.36-1.87-2.69-2.09-1.32-.22-2.31,1.19-2.37,3.27Z" style="fill: #fc8ea7; stroke-width: 0px;"/>
    <path d="M90.46,44.18c-.1,1.94,1.46,3.57,2.03,4.08.44-.16.96-.23,1.53-.21.69.02,1.32.15,1.87.37,3.04-2.01,3.23-5.44,1.97-5.85-.93-.31-1.68.16-2.41.89-1.2,1.17-.9-2.44-2.35-2.72-1.43-.26-2.54,1.22-2.64,3.43Z" style="fill: #fc8ea7; stroke-width: 0px;"/>
    <path d="M81.41,84.64s11.32,3.35,14.42,1.03c1.15-.79,2.09-1.78,2.22-2.73.23-1.62-.68-3.13-1.55-3.25-1.39-.19-4.36,1.3-6.42.68-1.15-.24-.36-1.08.5-1.61,1.92-1.18,3.68-.95,3.36-2.1-.62-1-4.3-.14-6.84,1.29-2.34.96-5.7.72-5.7.72v5.98Z" style="fill: #f7e9de; stroke-width: 0px;"/>
  </g>
</svg>