<?xml version="1.0" encoding="UTF-8"?><svg id="Layer_1" xmlns="http://www.w3.org/2000/svg" width="433.68" height="217" xmlns:xlink="http://www.w3.org/1999/xlink" viewBox="0 0 433.68 217.4"><defs><linearGradient id="linear-gradient" x1="6620.43" y1="3942.27" x2="6641.01" y2="3606.25" gradientTransform="translate(2257.33 -7249.44) rotate(76.19)" gradientUnits="userSpaceOnUse"><stop offset=".1" stop-color="#004445"/><stop offset=".41" stop-color="#1e6d59"/><stop offset=".6" stop-color="#2d8263"/></linearGradient><linearGradient id="linear-gradient-2" x1="10852.06" y1="196.75" x2="10852.06" y2="196.08" gradientTransform="translate(11020.35) rotate(-180) scale(1 -1)" gradientUnits="userSpaceOnUse"><stop offset="0" stop-color="#004445"/><stop offset=".19" stop-color="#005254"/><stop offset=".46" stop-color="#006365"/><stop offset=".67" stop-color="#01696c"/><stop offset="1" stop-color="#01696c"/></linearGradient></defs><path d="m207.36,35.14c-9.76,17.89-50.83,34.4-36.12,10.98,9.82-15.64,39.83-28.63,47.64-46.12h-49.46c-2.3,4.99-4.42,10.47-6.27,16.37-11.45,36.66-36.64,17.41-25.75,4.12,4.52-5.46,9.19-13.16,11.6-20.49h-60.66c-1.32,3.62-1.55,7.67-.33,12.16,6.81,24.54,10.16,61.1-8.33,57.9-18.5-3.3-21.71-22.2-14.49-36.02,7.24-13.73,5.95-36.09-10.36-27.76-16.35,8.21-28.74,32.49-20.21,50.09,8.66,17.67,24.67,45.48,10.78,52.43-13.78,6.92-27.09-6.73-23.6-24.51,3.35-17.86,3.77-50.36-12.34-35.79-3.5,3.13-6.71,7.44-9.46,12.43v62.21c10.28,14.84,14.49,33.51,2.64,30.78-.96-.23-1.84-.66-2.64-1.26v47.34h69.72c-15.7-5.26-30.32-10.1-16.1-20.45,9.48-6.96,30.02,9.08,47.08,20.45h59.22c9.33-5.13,16.05-11.57,15.1-17.88-2.34-14.91-100.56-23.95-82.99-38.89,17.46-14.9,78.68,15.95,107.84-26.5,11.95-23.4-2.95-23.28-34.87-15.43-31.91,7.84-46.85-9.72-16.58-15.72,30.26-6.01,75.13,4.2,87.29-32.74,2.41-21.72-18.61-35.68-28.35-17.7ZM33.61,145.87c-17.59,8.97-28.74-28.77-28.74-28.77-3.29-45.75,46.31,19.69,28.74,28.77ZM108.07,13.65c10.97-9.33,20.32,4.85,20.19,32.2-.14,27.35-22.29,9.68-24.13,1.73-2.41-10.25-7.07-24.7,3.94-33.93Zm27.39,113.71c-23.13,7.57-41.43-8.84-39.56-15.16,3.64-12.18,14.02-8.2,28.37-6.97,14.43,1.1,34.22,14.59,11.19,22.13Z" style="fill:url(#linear-gradient);"/><path d="m132.43,93.42c1.54,6.22,6.78,10,12.96,12.21,6.11,2.2,13.12,2.89,18.43,2.94,30.48.31,17.41-22.5,12.54-30.46-3.67-6-2.74-11.3-.84-14.7.64-1.13,1.36-2.04,2.07-2.71,2.85-2.71,4.02-11.9,1.4-14.5-2.63-2.58-1.16-6.65.35-7.92,1.51-1.27,4.12-.62,5.22,2.47,1.07,3.09,2.85,4.03,8.65,4.11,5.81.07,10.69-3.71,12.69-5.18,1.09,2.09,0,5.56-2.09,7.41-2.07,1.85-2,6.2-1.62,9.52.38,3.33-3.47,1.93-3.47,1.93,0,0-1.87,3.56-4.96,7.2-3.09,3.63-9.5-2.4-9.5-2.4,0,0-2.25,2.16-2.45,5.03-.02.09-.02.2-.02.29-.16,5.03,5.02,15.87,8.2,21.97,3.16,6.11,4.18,16.25,4.18,16.25,25.04-7.74,11.43-21.97,8.2-32.33-3.25-10.36,12.36-19.65,12.36-28.31s-15.3-31.39-29.22-31.39c-13.92,0-22.43,13.76-25.06,18.08-2.62,4.34-4.63,11.3-13.92,17.96-9.27,6.65-8.2,17.32-7.89,24.28.31,6.96-7.58,11.59-6.18,18.25Z" style="fill:#1c3740;"/><path d="m175.52,63.41l6.27,4.96c.2-2.87,2.45-5.03,2.45-5.03,0,0,6.41,6.03,9.5,2.4,3.09-3.63,4.96-7.2,4.96-7.2,0,0,3.85,1.4,3.47-1.93-.38-3.33-.45-7.67,1.62-9.52,2.09-1.85,3.18-5.32,2.09-7.41-2,1.47-6.87,5.25-12.69,5.18-5.8-.07-7.58-1.02-8.65-4.11-1.09-3.09-3.71-3.74-5.22-2.47-1.51,1.27-2.98,5.34-.35,7.92,2.62,2.6,1.45,11.79-1.4,14.5-.71.67-1.43,1.58-2.07,2.71Z" style="fill:#f7e9de;"/><path d="m155.47,145.16c4.6,2.69,10.85,4.36,19.25,4.36,5.52,0,11.03-.56,16.12-1.47,13.41-2.4,23.86-7.2,23.86-10.4v-10.44c0-.78-.25-1.54-.75-2.14-1.57-1.87-6.31-4.95-20.26-3.45.93-10.38.45-14.74.45-14.74,0,0-1.02-10.14-4.18-16.25-3.18-6.11-8.36-16.94-8.2-21.97,0-.09,0-.2.02-.29l-6.27-4.96c-1.91,3.4-2.84,8.7.84,14.7,4.87,7.96,17.94,30.77-12.54,30.46-5.31-.05-12.32-.74-18.43-2.94,0,0-8.96,28.46,10.09,39.53Z" style="fill:#fc8ea7;"/><path d="m155.04,192.01c.33-.04.65-.02.98.02,4.14.53,4.65,2.98,7.76,3.83.24.05.45.09.69.15.13.04.25.05.4.07h.02c2.49.44,4.92.62,6.8.67h.2c2,.05,3.31-.02,3.31-.02v12.69s.38,12.21,58.46-4.33c22.97-7.65,30.48-13.38,30.48-23.9,0-10.52-17.03-18.1-29.89-21.35-12.89-3.23-43.4-2.83-43.4-11.79-5.09.91-10.59,1.47-16.12,1.47-8.4,0-14.65-1.67-19.25-4.36h-.04s-1.71,10.63-4.38,17.94c-2.34,6.47-3.8,21.99,3.98,28.91Z" style="fill:#1c3740;"/><path d="m124.47,216.76c2.58,2.45,14.61-2.76,23.5-5.62,8.9-2.87,27.22-1.73,27.22-1.73v-12.69c-.82.09-1.96.09-3.31.02h-.2c-1.87-.05-4.31-.24-6.8-.67h-.02c-.14-.02-.27-.04-.4-.07-.24-.04-.47-.07-.69-.15-3.11-.85-3.62-3.31-7.76-3.83-.33-.04-.65-.05-.98-.02-4.74.33-9.36,7.27-14.21,10.29-.47.29-1,.53-1.51.73-5.49,2.09-8.74,3.78-12.72,7.05-3.31,2.73-3.25,5.63-2.13,6.69Z" style="fill:#f7e9de;"/><path d="m164.89,196.08c2.49.44,4.92.62,6.8.67-2-.11-4.4-.36-6.8-.67Z" style="fill:url(#linear-gradient-2); opacity:.58;"/><path d="m222.59,147.67l19.26.69s9.14-7.49,5.34-27.02l-28.01-1.01c-5.19,19.2,3.41,27.33,3.41,27.33Z" style="fill:#77afaf;"/><path d="m213.4,107.66c5.52,6.98,9.02,10.78,11.2,12.87l15.55.56c.06-1,.15-2.6.3-4.5,20.22-8.7,27.04-32.29,19.09-35.37-.19-.07-.4-.14-.62-.19-1.67-.4-2.94-.41-3.96-.1-4.53,1.38-3.55,8.96-4.94,15.96-1.23,6.22-6.05,9.87-8.6,11.4.42-2.53.94-5.05,1.64-7.19,2.32-7.16,2.53-19.92-4.95-22.79-.88-.35-1.91-.56-3.02-.6-.92-.03-1.77.09-2.48.34-7.53,2.64-4.67,19.63-2.82,29.31.89,4.65,1.05,8.37.96,11.06-3.24-3.56-8.35-9.98-10.33-16.6-1.98-6.66-2.08-19.87-7.31-22.15-.48-.23-.99-.34-1.56-.36-.84,0-1.61.18-2.3.56-4.95,2.77-5.81,15.22,4.15,27.79Z" style="fill:#93c360;"/><path d="m204.75,74.65c.64,3.17,4.5,5.23,4.5,5.23.69-.38,1.46-.57,2.3-.56.57.02,1.08.12,1.56.36h.05c4.13-3.29,3.42-9.13,1.45-9.46-1.37-.22-2.11.61-3.21,2.47-1.1,1.88-2.06-3.07-4.12-3.14s-3.11,2.11-2.54,5.1Z" style="fill:#fc8ea7;"/><path d="m251.66,74.69c-.06,3.1,2.59,5.63,3.3,6.23,1.01-.31,2.29-.3,3.96.1.22.05.43.12.62.19,4.83-3.12,5.02-8.5,3.04-9.06-1.13-.32-2.01.18-2.73.63-2.3,1.41-2.2-3.03-4.35-3.38-2.13-.35-3.73,1.92-3.83,5.29Z" style="fill:#fc8ea7;"/><path d="m229.33,71.45c-.17,3.14,2.37,5.77,3.29,6.6.71-.25,1.56-.37,2.48-.34,1.11.04,2.13.25,3.02.6,4.92-3.24,5.22-8.79,3.19-9.46-1.5-.5-2.72.27-3.9,1.44-1.94,1.9-1.46-3.94-3.8-4.39-2.32-.43-4.11,1.97-4.27,5.55Z" style="fill:#fc8ea7;"/><path d="m214.7,136.88s18.3,5.41,23.32,1.66c1.86-1.28,3.37-2.87,3.6-4.41.38-2.62-1.1-5.06-2.51-5.26-2.24-.31-7.06,2.11-10.38,1.1-1.86-.39-.58-1.75.81-2.61,3.1-1.91,5.95-1.54,5.43-3.4-1.01-1.62-6.96-.23-11.06,2.09-3.79,1.55-9.21,1.16-9.21,1.16v9.67Z" style="fill:#f7e9de;"/><path d="m313.76,169.83c-.48-1.66-11.69-40.91,4.83-56.23l.71.76c-16.05,14.88-4.65,54.77-4.53,55.17l-1,.29Z" style="fill:#2d8263;"/><path d="m306.01,169.73c-.1-1.23-2.36-30.14,8.3-40.99,2.86-2.91,6.4-4.25,10.56-3.99l-.07,1.04c-3.83-.25-7.11.99-9.75,3.68-10.33,10.52-8.03,39.88-8.01,40.18l-1.04.09Z" style="fill:#2d8263;"/><path d="m326.29,144.93c-.05-.09-5.32-8.9-10.69-8.44-2.84.24-5.3,3.06-7.31,8.36l-.97-.37c2.16-5.71,4.92-8.75,8.19-9.03,6.03-.51,11.45,8.56,11.67,8.95l-.9.53Z" style="fill:#2d8263;"/><path d="m294.87,158.95s33.53-14.6,14.82-28.51c-7.07-4.79-20.3,2.96-14.82,28.51Z" style="fill:#2d8263;"/><path d="m338.64,165.41s1.21-31.79-14.32-23.3c-15.53,8.49.73,16.5,14.32,23.3Z" style="fill:#2d8263;"/><path d="m271.96,130.67s39.72,4.23,31.73-11.52c-3.06-6.35-10.11-15.04-31.73,11.52Z" style="fill:#2d8263;"/><path d="m348.1,140.67s-8.74-36.39-23.78-19.05c-7.04,9.33-9.47,12.03,23.78,19.05Z" style="fill:#2d8263;"/><path d="m338.66,93.49s-3.46,36.49-22.14,25.09c-10.24-7.07-13.89-23.04,22.14-25.09Z" style="fill:#2d8263;"/><polygon points="293.58 165.81 330.24 165.81 326.72 200 296.75 200 293.58 165.81" style="fill:#e3c8bf;"/><rect x="383.6" y="157.74" width="44.41" height="42.26" style="fill:#77afaf;"/><path d="m420.44,157.74h-30.05c-15.98-18.48-4.65-66.49-4.65-66.49,0,0,1.74,3.28,2.43,14.96.69,11.69,5.5,11.2,5.5,3.96-.53-19.45,12.13-60.06,12.13-60.06l1.13,35.95,3.28-7.56s2.55,5.34,2.55,17.19,7.08-14.8,8.98-22c2.06,8.94-.53,47.16-2.95,74.5,7.24-3.96,10.15-45.78,13.1-50.59,6.55,38.22-6.63,55.33-11.45,60.14Z" style="fill:#004445;"/></svg>
