<?xml version="1.0" encoding="UTF-8"?><svg id="Layer_1" xmlns="http://www.w3.org/2000/svg" width="50" height="50" xmlns:xlink="http://www.w3.org/1999/xlink" viewBox="0 0 50 50"><defs><linearGradient id="linear-gradient" x1="7252.15" y1="-187.77" x2="7242.87" y2="-202.2" gradientTransform="translate(7274.48 -249.47) rotate(176.33) scale(1 -1)" gradientUnits="userSpaceOnUse"><stop offset=".21" stop-color="#1c3740"/><stop offset=".37" stop-color="#1d3d42"/><stop offset=".59" stop-color="#214e4a"/><stop offset=".83" stop-color="#276a57"/><stop offset="1" stop-color="#2d8263"/></linearGradient><linearGradient id="linear-gradient-2" x1="7252.64" y1="-187.21" x2="7262.57" y2="-200.22" gradientTransform="translate(7274.48 -249.47) rotate(176.33) scale(1 -1)" gradientUnits="userSpaceOnUse"><stop offset=".22" stop-color="#1c3740"/><stop offset=".38" stop-color="#1d3c42"/><stop offset=".58" stop-color="#204c49"/><stop offset=".81" stop-color="#266555"/><stop offset="1" stop-color="#2d8263"/></linearGradient><linearGradient id="linear-gradient-3" x1="7252.05" y1="-180.68" x2="7265.6" y2="-199.98" gradientTransform="translate(7274.48 -249.47) rotate(176.33) scale(1 -1)" gradientUnits="userSpaceOnUse"><stop offset=".43" stop-color="#10603d"/><stop offset=".51" stop-color="#1a673f"/><stop offset=".65" stop-color="#357c47"/><stop offset=".83" stop-color="#619d52"/><stop offset="1" stop-color="#93c360"/></linearGradient><linearGradient id="linear-gradient-4" x1="7257.17" y1="-178.35" x2="7272.59" y2="-194.9" gradientTransform="translate(7274.48 -249.47) rotate(176.33) scale(1 -1)" gradientUnits="userSpaceOnUse"><stop offset=".19" stop-color="#2d8263"/><stop offset=".31" stop-color="#489d80"/><stop offset=".5" stop-color="#6cc1a7"/><stop offset=".67" stop-color="#87dcc3"/><stop offset=".82" stop-color="#97ecd4"/><stop offset=".93" stop-color="#9df2db"/></linearGradient><linearGradient id="linear-gradient-5" x1="7008.6" y1="458.39" x2="6996.67" y2="436.55" gradientTransform="translate(7037.24 389.6) rotate(-173.36) scale(1 -1)" gradientUnits="userSpaceOnUse"><stop offset="0" stop-color="#10603d"/><stop offset=".22" stop-color="#277143"/><stop offset=".67" stop-color="#639e53"/><stop offset="1" stop-color="#93c360"/></linearGradient><linearGradient id="linear-gradient-6" x1="28.2" y1="38.25" x2="43.92" y2="17.07" gradientUnits="userSpaceOnUse"><stop offset=".11" stop-color="#2d8263"/><stop offset=".23" stop-color="#368b6d"/><stop offset=".43" stop-color="#51a68a"/><stop offset=".7" stop-color="#7cd1b8"/><stop offset=".88" stop-color="#9df2db"/></linearGradient></defs><circle cx="25" cy="25" r="25" style="fill:#004445;"/><path d="m25.67,39.56c-1.41-.05-2.48-1.51-3.13-2.99-1.18-2.71-1.56-5.82-1.49-8.87s.58-6.05,1.08-9.04c.55-3.27,1.18-6.75,3.19-9.07,1.21-1.39,2.84-2.24,4.51-2.5s3.39.02,4.99.66c-1.56-.57-3.3-.38-4.75.5s-2.59,2.46-3.1,4.29c1.06-2.01,3.26-3.07,5.21-2.52-1.82.93-3.34,2.67-4.19,4.79.72-1.09,1.76-1.88,2.9-2.2-.53.85-.88,1.85-1.03,2.89l.65-.84c-.57,6.45-.27,12.96-.5,19.44-.04,1.02-.09,2.05-.37,3.01s-.83,1.86-1.61,2.27c-.21-.25-.41-.51-.62-.76.05.05,1.2-.87,1.32-.96-.78.96-1.86,1.94-3.05,1.9Z" style="fill:url(#linear-gradient);"/><path d="m25.96,29c-.45-2.68-1.31-5.23-2.16-7.76-.82-2.44-1.65-4.87-2.47-7.31-.21-.61-.42-1.24-.82-1.71s-1.02-.73-1.53-.46-.72,1.2-.29,1.63c-.37-.51-.78-1.05-1.34-1.15s-1.21.53-1,1.15c-1.1-.82-2.47-1.14-3.75-.86-.49.11-1.05.4-1.14.98-.04.27.03.55.12.81.41,1.28,1.06,2.45,1.88,3.4.81.95,1.79,1.69,2.58,2.66,1.2,1.47,1.91,3.38,2.6,5.25.73,1.99,1.47,3.98,2.2,5.97.63,1.7,1.26,3.42,2.14,4.95s2.04,2.9,3.48,3.64c.33.17.7.31,1.05.22,1.15-.3.34-1.53.06-2.22-.37-.93-.62-1.91-.8-2.91-.38-2.07-.48-4.2-.83-6.28Z" style="fill:url(#linear-gradient-2);"/><path d="m24.87,31.96c-.35-2.6-.53-5.28-1.39-7.71-1.32-3.75-4.09-6.5-6.93-8.78-.25-.2-.51-.4-.8-.47s-.64.03-.8.32-.06.78.23.86c-.84-1.01-2.07-1.56-3.26-1.44-.3.03-.63.12-.82.39s-.14.79.15.89c-.89-.64-2.07-.48-2.99.1-.92.58-1.63,1.53-2.28,2.49.87-1.16,2.47-1.24,3.64-.53s1.97,2.06,2.57,3.45,1.04,2.87,1.73,4.19c1.03,1.96,2.56,3.46,4.06,4.92,1.89,1.85,3.79,3.7,5.68,5.55.74.72,1.48,1.44,2.22,2.17.95.92.82.06.42-.79-.76-1.63-1.33-3.75-1.43-5.62Z" style="fill:url(#linear-gradient-3);"/><path d="m21.91,31.66c-.25-.92-.73-1.57-1.16-2.39s-1.32-1.27-2.11-1.47c-1.16-.29-2.07-.03-3.02-.88-.7-.61-.69-1.8-1.09-2.75-.67-1.6-2.2-.58-2.79-.47-.66.12-1.28-.47-1.61-1.16s-.48-1.47-.8-2.17-.9-1.32-1.57-1.25c-.52.05-.97.54-1.11,1.14s-.01,1.25.28,1.75c.14.23.31.44.41.7s.11.6-.06.8c-.2.24-.54.18-.78,0s-.44-.42-.69-.57c-.64-.37-1.48.16-1.72.96s.03,1.72.52,2.34,1.17.98,1.85,1.24,1.39.44,2.05.77c.3.15.65.46.56.84-.11.46-.67.39-1.07.45-.93.13-.93,1.5-.58,2.53s1.78,2.19,3.42,2.79c1.73.63,1.24.41,2.58.48s1.66-.05,2.79,1.2c.36.39.67.72.86,1.25.38,1.03,1.15,1.78,1.88,2.49.56.54,1.14,1.09,1.82,1.36.68.26,1.4.23,2.11.17.66-.05,2.53.14,2.8-.79.23-.79-.97-2.07-1.3-2.71-1.08-2.06-1.83-4.35-2.46-6.65Z" style="fill:url(#linear-gradient-4);"/><path d="m24.44,40.86c.89-.77,1.48-1.93,1.92-3.12s.77-2.45,1.26-3.61c1.63-3.86,4.89-6.36,7.11-9.78,1.57-2.4,2.61-5.28,3.01-8.28.04-.3.06-.65-.11-.88s-.6-.11-.56.19c.13-.47.27-.96.24-1.46s-.26-1.01-.66-1.18-.92.18-.91.67c-.55-1.42-1.95-2.3-3.26-2.05.33.61.29,1.41.06,2.08s-.63,1.23-1.04,1.77c-2.03,2.72-4.26,5.28-5.83,8.4-1.3,2.59-2.09,5.48-2.87,8.35-.71,2.61-1.42,5.22-2.14,7.83-.33,1.21-.06,1.88.99,1.83s1.88,0,2.76-.77Z" style="fill:url(#linear-gradient-5);"/><path d="m44.68,27.99c-.21.53-.63.9-1.07,1.17-.88.54-1.89.78-2.88.67-.49-.05-.97-.19-1.45-.12-.48.07-.99.39-1.12.95-.24.98.73,1.74,1.02,2.7,0,.02.01.03.01.05.04.15.06.3.07.45.03.86-.48,1.72-1.13,2.14-.77.5-1.69.56-2.57.57-.87.01-1.77,0-2.57.39-.01,0-.02.01-.03.02-.38.19-.71.45-1.02.76-.39.39-.74.84-1.09,1.29-.04.05-.08.1-.12.15-.11.15-.23.29-.35.44-.14.17-.28.34-.42.49-.24.26-.49.5-.76.72-.22.18-.45.34-.68.49-.33.21-.67.38-1.02.52-.25.1-.5.19-.76.26-.09.02-.17.04-.26.06,0,0-.01,0-.02,0-.02,0-.04,0-.07.01-.16,0-.32.03-.48.06-.72.14-1.43.42-2.16.5-.21.02-.41.03-.62.01-.26-.23-.44-.56-.56-.93-.02-.08-.04-.16-.06-.24,0-.04-.02-.08-.02-.12-.04-.24-.05-.49-.03-.73.07-.82.43-1.57.86-2.22.06-.09.12-.18.19-.27.08-.11.16-.23.24-.34.02-.03.04-.06.06-.09.06-.08.12-.16.18-.24.02-.03.04-.05.06-.08.07-.09.14-.18.2-.27.06-.09.13-.17.19-.26.08-.11.15-.22.23-.34.12-.19.24-.38.35-.58.15-.28.29-.57.41-.87.16-.39.29-.79.4-1.2.12-.44.2-.9.25-1.36.02-.18.04-.36.05-.55,0-.05,0-.11,0-.16,0-.13,0-.25,0-.38v-.04c0-.23,0-.45-.01-.68,0-.07,0-.14,0-.22,0-.13,0-.25,0-.38,0-.01,0-.03,0-.04,0-.2.03-.4.07-.6.01-.06.03-.13.04-.19.03-.1.05-.19.09-.28.01-.04.03-.07.04-.1.08-.18.18-.34.29-.48.02-.03.05-.05.07-.08.14-.14.29-.24.47-.29.09-.03.18-.04.27-.04.15,0,.3.03.45.08.16.05.33.13.49.21.16.08.33.16.49.23.32.13.63.22.95.12.08-.03.16-.06.23-.11.57-.37.79-1.33.71-2.13-.02-.19-.05-.38-.08-.56,0-.05-.02-.1-.03-.15,0-.04-.01-.07-.02-.1-.01-.05-.02-.11-.03-.16-.11-.57-.24-1.14-.21-1.72.04-.91.7-1.89,1.45-1.67.64.19.98,1.17,1.64,1.28.6.11,1.11-.6,1.23-1.3.12-.7,0-1.43.03-2.15.04-.72.32-1.52.91-1.72.51-.18,1.01.17,1.51.44.3.16.6.28.92.26.64-.05,1.12-.72,1.37-1.41.25-.69.34-1.46.62-2.14.28-.68.84-1.29,1.47-1.21.82.09,1.26,1.27,1.17,2.24-.09.97-.51,1.86-.67,2.82-.06.36-.08.75.06,1.08.14.33.47.57.76.45.28-.11.43-.49.68-.68.46-.36,1.14.1,1.28.73.14.63-.12,1.3-.5,1.78-.37.48-.85.83-1.26,1.27-.46.48-.83,1.34-.43,1.89.4.54,1.2.24,1.71.64.41.32.49,1.04.28,1.57Z" style="fill:url(#linear-gradient-6);"/><path d="m34.74,37.25c.45.09.9.22,1.34.37-.43-.05-.86-.07-1.28-.06-2.2.04-4.37.84-6.45,1.72-.21.09-.42.18-.63.27.2-.05.39-.09.59-.12.74-.12,1.48-.18,2.22-.09.93.11,2.64.53,3.79,1.83-.95-.27-1.63-.49-2.62-.47-2.6.05-3.05.89-4.99,1.82-.2.1-.58.27-1.07.39-1.26.35-1.95.27-1.95.27h0c-1.45-.1-2.99-1.09-3.65-1.81-.02-.02-.03-.03-.05-.05-.87-.93-2.12-1.07-2.39-1.09-.03,0-.05,0-.05,0-1.54-.07-3.35.21-4.43.44,1.21-.62,3.29-1.8,7.09-1.35-2.95-1.46-5.17-1.74-7.43-1.53,2-.83,5.76-1.18,8.5.62-2.04-2.9-4.72-3.32-6.76-3.25,1.25-.63,4.43-1.09,6.88,1.19-.87-2.01-2.47-3.76-4.46-4.87,1.19.25,4.67,2.11,5.06,3.26-.63-2.14-1.26-3.23-2.48-5.17,2.03,1.45,3.42,3.69,3.74,6.05,0-2.49-.03-5.04-.92-7.42.57.93,1.04,1.92,1.4,2.95.54,1.55.82,3.17.84,4.79.78-2.27,1.74-5.23,1.87-6.53,0,0-.07,2.49-.32,5.26.02-.02.05-.05.07-.07.05-.05.11-.1.16-.15.14-.13.29-.27.44-.39.57-.49,1.16-.95,1.78-1.36.12-.08.24-.16.36-.23.19-.11.37-.22.56-.33-1.22,1.32-2.28,3.02-2.9,4.1.1-.07.21-.14.31-.21.53-.35,1.08-.65,1.64-.92.09-.04.17-.08.26-.12,2.37-1.04,5.02-1.37,7.54-.84-1.66-.13-3.32.33-4.83,1.1-1.07.55-2.06,1.24-3.01,2.01-.38.31-.76.63-1.13.95.36-.18.73-.34,1.11-.48,1.99-.73,4.16-.89,6.22-.46Z" style="fill:#93c360;"/></svg>