<?xml version="1.0" encoding="UTF-8"?><svg id="Layer_1" xmlns="http://www.w3.org/2000/svg" width="479.01" height="270" xmlns:xlink="http://www.w3.org/1999/xlink" viewBox="0 0 479.01 270.56"><defs><linearGradient id="linear-gradient" x1="11033.3" y1="-6277.52" x2="11413.42" y2="-6250.09" gradientTransform="translate(12846.39 -2785.53) rotate(-163.78)" gradientUnits="userSpaceOnUse"><stop offset=".23" stop-color="#004445"/><stop offset=".45" stop-color="#1e6d59"/><stop offset=".58" stop-color="#2d8263"/></linearGradient></defs><path d="m446.02.12c5.84,6.05,6.45,11.44-5.28,15.67-7.86,2.88-17.49-4.93-27.33-15.67h-79.21c29.29,17.95,66.19,37.41,50.52,44.44-24.93,11.24-84.7-44.41-132.18-5.56-21.45,22.79-4.37,27.6,34.75,29.25,39.12,1.65,50.36,26.7,13.74,23.5-36.62-3.2-84.55-29.8-110.74,8.41-9.98,24.04,9.42,47.01,26.54,29.67,17.12-17.21,69.58-22.43,44.97-.54-23.97,21.32-95.18,21.94-70.63,70.83h38.81c10.25-7.54,21.19-19.09,31.17-34.1,25.3-38.13,47.71-7.73,30.83,3.85-10.27,6.98-22.53,19.38-25.3,30.25h78.62c.24-1.36.37-2.79.4-4.3.38-30.33,8.72-73.27,28.8-63.45,20.07,9.93,17.45,32.61,4.59,46.03-5.77,5.96-10.15,14.5-11.29,21.72h38.9c10.32-9.83,17.08-23.58,14.78-37.1-4.02-23.09-13.08-60.22,5.11-63.56,18.07-3.33,28.75,16.71,18.86,35.89-9.78,19.31-21.07,56.35,2.2,45.04,11.57-5.54,23.47-18.71,31.36-33.23V.12h-32.99Zm-106.97,149.83c-.65,12.53-.13,30.61-15.79,37.5-15.66,7.03-21.64-12.31-12.39-43.55,9.26-31.24,28.72-3.65,28.18,6.05Zm30.91-71.18c-8.22,12.72-18.77,4.72-34.77-1.46-16.14-6.06-34.29-28.08-5.44-29.05,28.99-.95,44.46,23.9,40.21,30.51Zm82.45-17.79c23.11-4.4,23.32,42.47,23.32,42.47-11.47,53.43-46.43-37.93-23.32-42.47Z" style="fill:url(#linear-gradient);"/><polyline points="286.45 99.83 262.23 .12 237.63 99.83" style="fill:none; stroke:#1c3740; stroke-linejoin:bevel;"/><path d="m87.66,162.36c0,38.35-6.65,37.75-6.65,37.75h-41.76s-6.7,1.46-6.7-37.75h55.1Z" style="fill:#e3c8bf;"/><path d="m78.72,138.9c-.89,5.55,12.24,20.04,8.27,21.14-4.03,1.1-10.05-14.29-15.8-15.8-4.76-1.31-7.27,12.93-8.01,18h-7.33c-.42-3.56-1.73-11.72-5.6-15.8-5.13-5.34-14.08,6.91-18.26,7.12-4.24.26-8.48,10.47-13.4,8.69-4.87-1.78-1.99-6.23,2.46-8.9,4.45-2.67-3.35-6.91-11.36-7.12-8.01-.21-10.26-5.81-9.58-13.14.68-7.33,8.27-3.35,12.72,2.46,4.45,5.76,5.13-9.16,9.1-8.01,4.03,1.1,4.24,6.86,2.67,11.77-1.57,4.92,8.27,9.58,15.8,3.77,7.59-5.76-2.88-13.55-7.33-14.23-4.45-.68-13.34-6.7-16.48-11.36-3.14-4.66,5.13-3.35,10.68-1.78,5.6,1.57-.68-10.68-5.55-16.69-4.92-6.02,1.31-18.94,6.23-18.94s2.25,21.61,6.02,25.85c3.77,4.24,1.99-7.8,6.91-7.8s1.31,5.55,1.1,11.15c-.21,5.55,7.12,5.08,12.72,5.76,5.54.68-.47-12.04-5.13-14.44-4.71-2.46,3.77-11.83,10.26-14.02,6.44-2.25,4.19,23.13,8.9,25.8,4.66,2.67,6.23-18.94,10.89-16.69,4.71,2.25,1.57,7.12-3.77,13.34-5.34,6.28,1.78,5.34,4.92,6.49,3.09,1.1,3.98,7.54-3.14,7.12-7.12-.47-5.34,5.13-.89,8.22,4.45,3.14,15.39-6.23,15.59,0,.21,6.28-12.71,2.46-13.6,8.06Z" style="fill:#004445;"/><polyline points="156.35 101.93 138.16 .12 119.29 101.93" style="fill:none; stroke:#1c3740; stroke-linejoin:bevel;"/><path d="m138.37,98.09h20.41s-3.13,22.82-20.41,22.82-20.24-22.82-20.24-22.82h20.24Z" style="fill:#77afaf;"/><ellipse cx="147.86" cy="67.48" rx="3.79" ry="2.33" transform="translate(-14.34 57.19) rotate(-20.9)" style="fill:#2d8263;"/><ellipse cx="145" cy="73.95" rx="3.79" ry="2.33" transform="translate(-16.84 56.59) rotate(-20.9)" style="fill:#2d8263;"/><ellipse cx="143.34" cy="79.83" rx="3.79" ry="2.67" transform="translate(-10.18 21.94) rotate(-8.46)" style="fill:#2d8263;"/><ellipse cx="142.69" cy="84.98" rx="3.79" ry="2.67" style="fill:#2d8263;"/><ellipse cx="142.87" cy="90.57" rx="3.79" ry="2.67" transform="translate(-25.11 70.64) rotate(-25.61)" style="fill:#2d8263;"/><ellipse cx="150.09" cy="89.4" rx="3.95" ry="3" transform="translate(-22.9 113.78) rotate(-38.8)" style="fill:#2d8263;"/><ellipse cx="148.98" cy="95.6" rx="3" ry="3.95" transform="translate(-24.3 59.44) rotate(-20.9)" style="fill:#2d8263;"/><ellipse cx="156.17" cy="98.09" rx="3" ry="3.95" transform="translate(-22.98 54.3) rotate(-18.4)" style="fill:#2d8263;"/><ellipse cx="162.13" cy="101.02" rx="2.64" ry="3.48" transform="translate(-5.04 8.58) rotate(-2.98)" style="fill:#2d8263;"/><ellipse cx="167.54" cy="102.39" rx="2.47" ry="3.26" transform="translate(-23.75 58.11) rotate(-18.4)" style="fill:#2d8263;"/><ellipse cx="128.78" cy="96.98" rx="3.26" ry="2.47" transform="translate(26.47 221.58) rotate(-87.59)" style="fill:#2d8263;"/><ellipse cx="124.5" cy="92.23" rx="2.67" ry="3.51" transform="translate(14.62 201.47) rotate(-81.36)" style="fill:#2d8263;"/><ellipse cx="120.07" cy="96.98" rx="3.51" ry="2.67" transform="translate(-12.95 18.71) rotate(-8.46)" style="fill:#2d8263;"/><ellipse cx="123.84" cy="100.42" rx="3.51" ry="2.67" transform="translate(18.3 219.93) rotate(-87.59)" style="fill:#2d8263;"/><ellipse cx="116.56" cy="102.39" rx="2.67" ry="3.51" transform="translate(9.36 214.54) rotate(-87.59)" style="fill:#2d8263;"/><ellipse cx="112.37" cy="107.44" rx="2.89" ry="2.19" transform="translate(-30.94 47.16) rotate(-20.9)" style="fill:#2d8263;"/><ellipse cx="109.56" cy="114.79" rx="2.89" ry="2.19" transform="translate(-49.08 111.09) rotate(-45)" style="fill:#2d8263;"/><ellipse cx="114.97" cy="111.61" rx="2.34" ry="3.33" transform="translate(-22.72 29.65) rotate(-13.39)" style="fill:#2d8263;"/><ellipse cx="118.65" cy="106.62" rx="2.34" ry="3.33" transform="translate(-5.39 6.32) rotate(-2.98)" style="fill:#2d8263;"/><ellipse cx="119.46" cy="87.49" rx="2.73" ry="3.33" transform="translate(-27.74 71.45) rotate(-30)" style="fill:#2d8263;"/><ellipse cx="117.34" cy="92.23" rx="2.9" ry="2.38" transform="translate(-31.45 80.55) rotate(-33.68)" style="fill:#2d8263;"/><ellipse cx="113.09" cy="87.65" rx="2.13" ry="2.6" transform="translate(-27.95 63.54) rotate(-28.08)" style="fill:#2d8263;"/><ellipse cx="111.27" cy="92.81" rx="2.6" ry="2.13" transform="translate(-29.37 127.69) rotate(-53.76)" style="fill:#2d8263;"/><ellipse cx="108.03" cy="87.19" rx="2.13" ry="2.6" transform="translate(-24 44.27) rotate(-20.9)" style="fill:#2d8263;"/><ellipse cx="104.68" cy="91.32" rx="2.6" ry="2.13" transform="translate(-33.07 73.38) rotate(-33.68)" style="fill:#2d8263;"/><ellipse cx="102.94" cy="85.83" rx="2.13" ry="2.6" transform="translate(-30.54 97.93) rotate(-45)" style="fill:#2d8263;"/><ellipse cx="156.76" cy="92.58" rx="3.95" ry="3" transform="translate(-24.62 76.84) rotate(-25.61)" style="fill:#2d8263;"/><ellipse cx="163.57" cy="95.82" rx="3.95" ry="3" transform="translate(-21.88 56.52) rotate(-18.4)" style="fill:#2d8263;"/><ellipse cx="170.02" cy="99.48" rx="3.78" ry="2.75" transform="translate(-22.71 58.74) rotate(-18.4)" style="fill:#2d8263;"/><ellipse cx="174.94" cy="104.13" rx="2.5" ry="3.44" transform="translate(23.76 240.48) rotate(-72.81)" style="fill:#2d8263;"/><ellipse cx="141.26" cy="96.27" rx="3.79" ry="2.67" transform="translate(-18.45 35.32) rotate(-13.39)" style="fill:#2d8263;"/><ellipse cx="135.3" cy="95.82" rx="2.67" ry="3.79" transform="translate(-9.14 177.22) rotate(-64.71)" style="fill:#2d8263;"/><ellipse cx="136.89" cy="83.96" rx="2.67" ry="3.79" transform="translate(-11.75 144.73) rotate(-53.76)" style="fill:#2d8263;"/><ellipse cx="135.84" cy="89.77" rx="2.67" ry="3.79" transform="translate(9.94 193.02) rotate(-72.81)" style="fill:#2d8263;"/><ellipse cx="130.44" cy="86.8" rx="3.56" ry="2.51" transform="translate(-11.34 20.12) rotate(-8.46)" style="fill:#2d8263;"/><ellipse cx="126.31" cy="82.36" rx="3.56" ry="2.51" transform="translate(-10.74 19.47) rotate(-8.46)" style="fill:#2d8263;"/><ellipse cx="123.84" cy="78.01" rx="2.51" ry="3.56" transform="translate(6.38 165.33) rotate(-68.83)" style="fill:#2d8263;"/><ellipse cx="123.56" cy="72.43" rx="2.51" ry="3.56" transform="translate(11.41 161.51) rotate(-68.83)" style="fill:#2d8263;"/><ellipse cx="123.56" cy="67.09" rx="2.12" ry="3.01" transform="translate(16.38 158.1) rotate(-68.83)" style="fill:#2d8263;"/><ellipse cx="128.23" cy="66.67" rx="2.69" ry="1.9" transform="translate(-13.48 95.06) rotate(-38.8)" style="fill:#2d8263;"/><ellipse cx="128.23" cy="71.8" rx="3.07" ry="2.17" transform="translate(-16.69 96.19) rotate(-38.8)" style="fill:#2d8263;"/><ellipse cx="131.05" cy="80.8" rx="3.2" ry="2.26" transform="translate(-15 129.52) rotate(-50.1)" style="fill:#2d8263;"/><ellipse cx="128.56" cy="76.51" rx="3.07" ry="2.17" transform="translate(-19.58 97.44) rotate(-38.8)" style="fill:#2d8263;"/><ellipse cx="125.55" cy="62.41" rx="2.62" ry="1.85" transform="translate(58.88 185.75) rotate(-88.04)" style="fill:#2d8263;"/><ellipse cx="143.29" cy="60.42" rx="2.33" ry="3.79" transform="translate(-.76 119.02) rotate(-45)" style="fill:#2d8263;"/><ellipse cx="141.55" cy="66.01" rx="2.63" ry="3.79" transform="translate(-5.22 119.42) rotate(-45)" style="fill:#2d8263;"/><ellipse cx="140.39" cy="72.43" rx="2.63" ry="3.79" transform="translate(-10.09 120.49) rotate(-45)" style="fill:#2d8263;"/><ellipse cx="137.87" cy="78.19" rx="2.63" ry="3.79" transform="translate(-14.91 120.39) rotate(-45)" style="fill:#2d8263;"/><path d="m148.03,85.69c-1.45,0-2.63-1.69-2.63-3.79,0-2.09,1.18-3.79,2.63-3.79,1.45,0,2.63,1.69,2.63,3.79,0,2.09-1.18,3.79-2.63,3.79Z" style="fill:#2d8263;"/><path d="m152.05,80.3c-1.45,0-2.63-1.69-2.63-3.79,0-2.09,1.18-3.79,2.63-3.79,1.45,0,2.63,1.69,2.63,3.79,0,2.09-1.18,3.79-2.63,3.79Z" style="fill:#2d8263;"/><path d="m157.31,74.66c-1.45,0-2.63-1.69-2.63-3.79s1.18-3.79,2.63-3.79,2.63,1.69,2.63,3.79c0,2.09-1.18,3.79-2.63,3.79Z" style="fill:#2d8263;"/><path d="m162.57,69.41c-1.45,0-2.63-1.69-2.63-3.79,0-2.09,1.18-3.79,2.63-3.79s2.63,1.69,2.63,3.79c0,2.09-1.18,3.79-2.63,3.79Z" style="fill:#2d8263;"/><ellipse cx="170.02" cy="63.52" rx="3.79" ry="2.63" transform="translate(4.88 138.83) rotate(-45)" style="fill:#2d8263;"/><ellipse cx="167.54" cy="70.04" rx="3.79" ry="2.63" transform="translate(-3.42 8.82) rotate(-2.98)" style="fill:#2d8263;"/><ellipse cx="162.13" cy="74.66" rx="2.63" ry="3.79" transform="translate(63.97 223.74) rotate(-81.36)" style="fill:#2d8263;"/><ellipse cx="156.46" cy="79.83" rx="2.63" ry="3.79" transform="translate(54.04 222.52) rotate(-81.36)" style="fill:#2d8263;"/><ellipse cx="152.05" cy="84.84" rx="2.63" ry="3.79" transform="translate(45.34 222.43) rotate(-81.36)" style="fill:#2d8263;"/><ellipse cx="147.59" cy="61.84" rx="3.18" ry="2.18" style="fill:#2d8263;"/><ellipse cx="146.48" cy="54.88" rx="2.15" ry="3.79" style="fill:#2d8263;"/><path d="m236.03,99.83s-11.68,48.98,26.6,48.98,27.25-48.98,27.25-48.98h-53.85Z" style="fill:#e3c8bf;"/><ellipse cx="225.48" cy="173.2" rx="3.12" ry="10.79" transform="translate(-53.26 229.3) rotate(-48.91)" style="fill:#004445;"/><ellipse cx="225.48" cy="194.77" rx="3.12" ry="9.44" transform="translate(-71.68 216.49) rotate(-45)" style="fill:#004445;"/><ellipse cx="222.89" cy="219.1" rx="3.12" ry="9.44" transform="translate(-89.65 221.78) rotate(-45)" style="fill:#004445;"/><ellipse cx="224.81" cy="239.77" rx="3.12" ry="9.44" transform="translate(-91 330.82) rotate(-62.93)" style="fill:#004445;"/><ellipse cx="233.36" cy="256.09" rx="3.12" ry="9.44" transform="translate(-35.76 474.29) rotate(-86.69)" style="fill:#004445;"/><path d="m226.98,261.12c0,5.22-1.4,9.44-3.12,9.44-1.72,0-3.12-4.23-3.12-9.44,0-5.22,1.4-9.44,3.12-9.44s3.12,4.23,3.12,9.44Z" style="fill:#004445;"/><ellipse cx="214.62" cy="243.26" rx="10.48" ry="3.12" transform="translate(-67.06 404.19) rotate(-78.32)" style="fill:#004445;"/><ellipse cx="212.99" cy="220.23" rx="10.48" ry="3.12" transform="translate(-88.79 273.12) rotate(-55.9)" style="fill:#004445;"/><ellipse cx="212.99" cy="197.53" rx="10.48" ry="3.12" transform="translate(-69.99 263.14) rotate(-55.9)" style="fill:#004445;"/><ellipse cx="212.99" cy="173.2" rx="10.48" ry="3.12" transform="translate(-30.24 300.5) rotate(-66.74)" style="fill:#004445;"/><ellipse cx="208.61" cy="150.17" rx="10.48" ry="3.12" transform="translate(-11.73 282.54) rotate(-66.74)" style="fill:#004445;"/><ellipse cx="206.34" cy="134.02" rx="10.48" ry="3.12" transform="translate(-33.25 190.02) rotate(-46.16)" style="fill:#004445;"/><ellipse cx="206.01" cy="115.83" rx="12.98" ry="3.12" transform="translate(-22.25 54.57) rotate(-14.32)" style="fill:#004445;"/><ellipse cx="214.15" cy="98.88" rx="3.12" ry="12.78" transform="translate(87.76 298.04) rotate(-82.39)" style="fill:#004445;"/><ellipse cx="227.04" cy="89.27" rx="3.12" ry="10.43" transform="translate(36.23 241.29) rotate(-60.01)" style="fill:#004445;"/><ellipse cx="244.54" cy="86.27" rx="3.12" ry="9.56" transform="translate(18.8 213.87) rotate(-48.91)" style="fill:#004445;"/><ellipse cx="256.82" cy="85.6" rx="3.12" ry="8.8" transform="translate(-9.19 135.83) rotate(-29.13)" style="fill:#004445;"/><ellipse cx="283.52" cy="94.19" rx="8.8" ry="3.12" transform="translate(62.46 295.16) rotate(-60.65)" style="fill:#004445;"/><ellipse cx="292.93" cy="95.86" rx="8.8" ry="3.12" transform="translate(12.35 223.43) rotate(-42.57)" style="fill:#004445;"/><ellipse cx="300.14" cy="99.83" rx="8.8" ry="3.12" transform="translate(-3.6 11.57) rotate(-2.2)" style="fill:#004445;"/><ellipse cx="272.93" cy="94.48" rx="3.12" ry="8.8" transform="translate(-14.26 125.13) rotate(-25.19)" style="fill:#004445;"/><ellipse cx="260.65" cy="93.44" rx="8.8" ry="3.12" transform="translate(18.91 228.46) rotate(-48.91)" style="fill:#004445;"/><ellipse cx="283.52" cy="117.55" rx="8.8" ry="3.12" transform="translate(38.4 302.26) rotate(-59.52)" style="fill:#004445;"/><ellipse cx="293.47" cy="117.06" rx="3.12" ry="8.8" transform="translate(-3.65 224.52) rotate(-41.63)" style="fill:#004445;"/><ellipse cx="282.06" cy="140.47" rx="8.8" ry="3.12" transform="translate(17.93 312.29) rotate(-59.52)" style="fill:#004445;"/><ellipse cx="292.93" cy="141.89" rx="3.12" ry="8.8" transform="translate(-28.99 189.9) rotate(-34.33)" style="fill:#004445;"/><ellipse cx="289.62" cy="164.75" rx="3.68" ry="10.36" transform="translate(-40.84 122.09) rotate(-22.28)" style="fill:#004445;"/><ellipse cx="278.42" cy="160.61" rx="10.36" ry="3.68" transform="translate(-25.62 264.88) rotate(-48.91)" style="fill:#004445;"/><ellipse cx="274.67" cy="187.7" rx="10.36" ry="3.68" transform="translate(-32.45 315.59) rotate(-56.95)" style="fill:#004445;"/><ellipse cx="284.14" cy="188.28" rx="3.34" ry="7.9" transform="translate(-56.33 204.45) rotate(-36.25)" style="fill:#004445;"/><ellipse cx="276.02" cy="216.76" rx="8.65" ry="3.66" transform="translate(-6.23 425.33) rotate(-74.61)" style="fill:#004445;"/><ellipse cx="285.78" cy="206.72" rx="3.66" ry="8.65" transform="translate(-45.15 328.75) rotate(-56.12)" style="fill:#004445;"/><ellipse cx="293.95" cy="224.01" rx="3.66" ry="9.5" transform="translate(-23.7 412.93) rotate(-68.05)" style="fill:#004445;"/><ellipse cx="283.52" cy="234.52" rx="9.5" ry="3.66" transform="translate(1.04 470.28) rotate(-79.44)" style="fill:#004445;"/><ellipse cx="305.89" cy="109.81" rx="3.36" ry="8.71" transform="translate(95.46 357.49) rotate(-69.4)" style="fill:#004445;"/><ellipse cx="307.07" cy="120.46" rx="3.36" ry="8.71" transform="translate(14.46 272.71) rotate(-48.91)" style="fill:#004445;"/><ellipse cx="298.52" cy="122.47" rx="7.06" ry="2.72" transform="translate(45.97 323.31) rotate(-60.8)" style="fill:#004445;"/><ellipse cx="300.14" cy="135.18" rx="7.06" ry="2.72" transform="translate(35.71 331.23) rotate(-60.8)" style="fill:#004445;"/><ellipse cx="297.65" cy="155.06" rx="7.06" ry="2.72" transform="translate(17.08 339.23) rotate(-60.8)" style="fill:#004445;"/><ellipse cx="297.65" cy="181.61" rx="7.06" ry="2.72" transform="translate(-6.09 352.83) rotate(-60.8)" style="fill:#004445;"/><ellipse cx="307.01" cy="136.07" rx="3.66" ry="8.8" transform="translate(-23.33 196.44) rotate(-34.26)" style="fill:#004445;"/><ellipse cx="304.33" cy="151.19" rx="3.66" ry="8.8" transform="translate(-32.31 197.56) rotate(-34.26)" style="fill:#004445;"/><ellipse cx="304.14" cy="166.55" rx="3.31" ry="7.96" transform="translate(-40.99 200.12) rotate(-34.26)" style="fill:#004445;"/><ellipse cx="303.78" cy="181.85" rx="3.16" ry="7.61" transform="translate(-49.66 202.58) rotate(-34.26)" style="fill:#004445;"/><ellipse cx="301.2" cy="197.53" rx="3.16" ry="7.61" transform="translate(-53.11 132.68) rotate(-22.89)" style="fill:#004445;"/><ellipse cx="221.96" cy="117.55" rx="3.12" ry="8.8" transform="translate(-29.15 122.9) rotate(-29.13)" style="fill:#004445;"/><ellipse cx="232.28" cy="102.95" rx="8.8" ry="3.12" transform="translate(66.66 295.63) rotate(-73.22)" style="fill:#004445;"/><ellipse cx="244.54" cy="102.95" rx="8.8" ry="3.12" transform="translate(119.38 336.91) rotate(-84.68)" style="fill:#004445;"/><ellipse cx="272.93" cy="109.72" rx="3.12" ry="8.8" transform="translate(-4.89 13.04) rotate(-2.71)" style="fill:#004445;"/><ellipse cx="250.13" cy="110.43" rx="3.12" ry="8.8" transform="translate(-18.79 159.85) rotate(-34.23)" style="fill:#004445;"/><ellipse cx="249.48" cy="124.32" rx="3.12" ry="8.8" transform="translate(-26.71 161.89) rotate(-34.23)" style="fill:#004445;"/><ellipse cx="249.43" cy="138.14" rx="3.12" ry="7.56" transform="translate(-34.5 164.26) rotate(-34.23)" style="fill:#004445;"/><ellipse cx="252.56" cy="152.98" rx="3.12" ry="7.4" transform="translate(-42.31 168.59) rotate(-34.23)" style="fill:#004445;"/><ellipse cx="252.56" cy="164.75" rx="3.12" ry="7.4" transform="translate(-37.61 246.8) rotate(-48.91)" style="fill:#004445;"/><ellipse cx="251.75" cy="180.48" rx="3.12" ry="7.4" transform="translate(-57.94 187.33) rotate(-36.9)" style="fill:#004445;"/><ellipse cx="254.24" cy="194.47" rx="2.75" ry="7.4" transform="translate(-49.22 296.29) rotate(-55.96)" style="fill:#004445;"/><ellipse cx="250.13" cy="208.66" rx="7.4" ry="2.75" transform="translate(18.14 437.32) rotate(-84.42)" style="fill:#004445;"/><ellipse cx="245.67" cy="194.81" rx="6.7" ry="2.5" transform="translate(-55.82 280.9) rotate(-54.35)" style="fill:#004445;"/><ellipse cx="245.07" cy="180.48" rx="6.7" ry="2.5" transform="translate(-44.42 274.43) rotate(-54.35)" style="fill:#004445;"/><ellipse cx="244.46" cy="166.25" rx="6.7" ry="2.5" transform="translate(-33.12 267.99) rotate(-54.35)" style="fill:#004445;"/><ellipse cx="244.46" cy="150.17" rx="6.7" ry="2.5" transform="translate(-20.05 261.29) rotate(-54.35)" style="fill:#004445;"/><ellipse cx="241.33" cy="134.02" rx="6.7" ry="2.5" transform="translate(-8.23 252.01) rotate(-54.35)" style="fill:#004445;"/><ellipse cx="240.05" cy="122.47" rx="6.7" ry="2.5" transform="translate(.62 246.15) rotate(-54.35)" style="fill:#004445;"/><ellipse cx="238.76" cy="111.42" rx="6.7" ry="2.5" transform="translate(9.06 240.49) rotate(-54.35)" style="fill:#004445;"/><ellipse cx="260.65" cy="204.16" rx="2.37" ry="6.37" transform="translate(16.59 427.89) rotate(-80.58)" style="fill:#004445;"/><ellipse cx="219.37" cy="136.44" rx="3.12" ry="11.56" transform="translate(-38.67 124.03) rotate(-29.13)" style="fill:#004445;"/><ellipse cx="218.61" cy="149.61" rx="3.12" ry="11.56" transform="translate(-41.76 198.4) rotate(-45)" style="fill:#004445;"/><path d="m242.76,270.15c-.31-.14-31.03-14.12-29.14-51.1,1.29-25.34.1-52.55-.68-70.56-.36-8.28-.65-14.82-.61-18.86.12-12.52,3.82-22.09,10.99-28.43,8.06-7.13,20.34-9.83,36.47-8,3.93.4,7.66.58,11.28.75,19.77.95,34.05,1.63,32.65,38.81-1.64,43.46-3.95,70.49-5.08,75.81l-1.96-.41c1.08-5.1,3.42-32.61,5.03-75.47,1.33-35.2-10.75-35.78-30.74-36.74-3.64-.17-7.4-.35-11.39-.76-15.57-1.76-27.31.77-34.93,7.51-6.73,5.95-10.2,15.02-10.32,26.95-.04,3.98.25,10.5.61,18.75.79,18.05,1.98,45.32.68,70.75-1.82,35.57,27.66,49.03,27.95,49.17l-.81,1.83Z" style="fill:#004445;"/><path d="m298.16,246.8c-13.06-13.98-24.29-42.85-19.67-65.1,3.62-17.41,9.61-49.48,9.13-68.69-.19-7.42-6.48-12.2-11.73-14.9-10.05-5.17-23.47-6.32-27.42-3.65-4.42,3-2.92,28.67-1.6,51.33.67,11.48,1.36,23.35,1.41,33.15.14,29.42,15.44,34.38,15.6,34.42l-.57,1.92c-.69-.2-16.88-5.31-17.03-36.33-.05-9.75-.74-21.59-1.41-33.05-1.8-30.78-2.53-49.71,2.47-53.1,5.01-3.4,19.32-1.68,29.45,3.52,5.73,2.95,12.6,8.22,12.81,16.63.48,19.41-5.54,51.66-9.17,69.15-4.49,21.62,6.46,49.71,19.17,63.33l-1.46,1.37Z" style="fill:#004445;"/></svg>
