<?xml version="1.0" encoding="UTF-8"?><svg id="Layer_1" xmlns="http://www.w3.org/2000/svg" width="50" height="50" viewBox="0 0 50 50"><path d="m50,25c0,7.98-3.74,15.08-9.56,19.66-4.25,3.34-9.61,5.34-15.44,5.34s-11.34-2.05-15.62-5.48C3.66,39.94,0,32.9,0,25,0,11.19,11.19,0,25,0s25,11.19,25,25Z" style="fill:#01696c;"/><circle cx="24.88" cy="23.05" r="9.05" style="fill:#77afaf;"/><path d="m40.44,44.66c-4.25,3.34-9.61,5.34-15.44,5.34s-11.34-2.05-15.62-5.48c2.85-5.66,8.72-9.55,15.49-9.55s12.74,3.95,15.56,9.69Z" style="fill:#77afaf;"/></svg>