<?xml version="1.0" encoding="UTF-8"?><svg id="Layer_1" xmlns="http://www.w3.org/2000/svg" width="960" height="305" xmlns:xlink="http://www.w3.org/1999/xlink" viewBox="0 0 960 305"><defs><linearGradient id="linear-gradient" x1="292.15" y1="481.85" x2="209.03" y2="304.86" gradientTransform="translate(-60.82 -342.22) rotate(9.19)" gradientUnits="userSpaceOnUse"><stop offset=".21" stop-color="#1c3740"/><stop offset=".37" stop-color="#1d3d42"/><stop offset=".59" stop-color="#214e4a"/><stop offset=".83" stop-color="#276a57"/><stop offset="1" stop-color="#2d8263"/></linearGradient><linearGradient id="linear-gradient-2" x1="3732.69" y1="-2284.58" x2="3632.89" y2="-2467.28" gradientTransform="translate(4243.52 -2803.67) rotate(106.44) scale(1.09 -1.31)" gradientUnits="userSpaceOnUse"><stop offset=".35" stop-color="#10603d"/><stop offset=".49" stop-color="#277143"/><stop offset=".78" stop-color="#639e53"/><stop offset="1" stop-color="#93c360"/></linearGradient><linearGradient id="linear-gradient-3" x1="-257.07" y1="-374.3" x2="-388.04" y2="-510.7" gradientTransform="translate(542.94 542.54) rotate(-17.51)" gradientUnits="userSpaceOnUse"><stop offset=".07" stop-color="#2d8263"/><stop offset=".2" stop-color="#34896b"/><stop offset=".39" stop-color="#499e81"/><stop offset=".64" stop-color="#6bc0a6"/><stop offset=".92" stop-color="#9aefd8"/><stop offset=".93" stop-color="#9df2db"/></linearGradient><linearGradient id="linear-gradient-4" x1="774.4" y1="261.76" x2="880.06" y2="123.28" gradientTransform="translate(-20.48 -144.53) rotate(3.05)" gradientUnits="userSpaceOnUse"><stop offset=".22" stop-color="#1c3740"/><stop offset=".38" stop-color="#1d3c42"/><stop offset=".58" stop-color="#204c49"/><stop offset=".81" stop-color="#266555"/><stop offset="1" stop-color="#2d8263"/></linearGradient><linearGradient id="linear-gradient-5" x1="903.52" y1="500.3" x2="1039.85" y2="306.09" gradientTransform="translate(-91.81 -341.58) rotate(7.15)" gradientUnits="userSpaceOnUse"><stop offset=".38" stop-color="#10603d"/><stop offset=".47" stop-color="#1a673f"/><stop offset=".62" stop-color="#357c47"/><stop offset=".81" stop-color="#619d52"/><stop offset="1" stop-color="#93c360"/></linearGradient><linearGradient id="linear-gradient-6" x1="1100.92" y1="711.02" x2="1256.53" y2="544" gradientTransform="translate(-160.66 -685.71) rotate(13.92)" gradientUnits="userSpaceOnUse"><stop offset=".24" stop-color="#2d8263"/><stop offset=".68" stop-color="#75cab1"/><stop offset=".93" stop-color="#9df2db"/></linearGradient></defs><path d="m188.26,163.31c-1.28-21.47,3.53-42.53-6.09-64.51-7.04-16.08-21.51-31.91-35.84-47.53-12.31-13.43-24.63-26.85-36.94-40.28-3.03-3.3-8.51-7.42-14.56-6.96-5.74.43-5.52,4.55-4.29,7.76,2.59,6.78,5.19,13.57,7.78,20.35-6.16-.79-10.95-4.33-12.43-7.54s-.61-6.27-.75-9.4c-.14-3.13-1.63-6.7-6.48-9.24-4.85-2.53-13.66-2.95-15.16-.12-.84,1.59.75,3.52,2.3,5.28,8.87,10.04,17.75,20.09,26.62,30.13-9.95-.41-18.29-6.39-21.34-11.64-3.05-5.25-3.27-10.67-8.45-15.7-3.39-3.3-10.28-6.54-16.39-6.04-8.88.72-6.89,7.57-3.12,12.51,17.98,23.56,41,46.58,60.39,70,19.4,23.42,35.33,47.67,37.77,71.09,2.04,19.5-5.32,37.87-2.1,57.48,3.23,19.61,20.53,42.28,55.57,54.31,9.64,3.31,20.87,5.69,30.58,4.92,31.56-2.53.61-26.61-6.92-37.21-11.68-16.46-20.1-33.15-25.07-49.68-2.82-9.4-4.53-18.75-5.08-27.97Z" style="fill:url(#linear-gradient);"/><path d="m285.79,255.84c-6.46-10.63-17.31-18.98-28.68-25.91-11.37-6.93-23.55-12.76-34.59-20.12-36.57-24.37-56.94-62.68-88.15-92.28-21.95-20.82-49.42-37.25-79.1-47.31-3.01-1.02-6.5-1.96-9.07-.63-2.57,1.33-2,5.92,1.13,6.11-4.58-2.29-9.3-4.63-14.36-5.32-5.06-.69-10.59.66-12.86,4.39-2.26,3.73.42,9.78,5.46,10.66C10.45,88.29-.52,100.84.02,114.67c6.64-2.12,14.7-.2,21.11,3.49,6.4,3.68,11.46,8.93,16.32,14.14,24.43,26.21,46.94,54.16,76.13,76.37,24.23,18.44,52.26,32.31,80.04,46.02,25.3,12.49,50.59,24.97,75.89,37.46,11.69,5.77,18.92,4.41,19.96-6.49,1.02-10.67,2.78-19.2-3.67-29.82Z" style="fill:url(#linear-gradient-2);"/><path d="m179.7,296.42c-10.26-5.65-19.35-14.45-30.88-16.24-7.56-1.18-15.19.86-22.61,2.68-7.43,1.82-15.24,3.44-22.64,1.46-7.4-1.98-14.15-8.68-13.69-16.44.46-7.69,7.5-15.45,3.66-22.11-2.14-3.72-6.96-4.99-11.15-4.42s-8.02,2.59-12.01,4.02c-8.09,2.91-17.02,3.4-25.39,1.4-4.17-1-8.39-2.74-11.09-6.13-2.7-3.39-3.34-8.75-.49-11.99,3.52-3.99,10.77-3.55,13.17-8.33,2.42-4.81-2.32-10.2-7.04-12.71-4.25-2.26-8.89-3.78-12.91-6.46-4.01-2.68-7.46-6.95-7.44-11.82.02-4.87,4.88-9.62,9.42-8.05,2.45.85,4.34,3.24,6.93,3.44,2.67.2,5.01-2.24,5.55-4.91s-.32-5.43-1.47-7.9c-3.07-6.61-8.25-12.11-10.77-18.95-2.51-6.85-.98-16.28,5.76-18.75,5.2-1.9,11,1.3,14.58,5.59s5.75,9.62,9.1,14.1c3.35,4.48,8.63,8.25,14.06,7.24,7.25-1.36,11.8-10.56,19.18-10.31,5.27.18,9.11,5.33,10.73,10.44,1.62,5.11,1.88,10.67,4.2,15.49,2.32,4.82,7.89,8.8,12.74,6.72,5.31-2.27,6.36-10.02,11.41-12.82,5.87-3.26,13.19,2.42,15.23,8.91,2.04,6.49.9,13.54,1.84,20.28.93,6.74,5.35,14.11,12.05,14.18,7.97.09,13.25-10.02,21.21-10.1,4.79-.05,8.92,3.74,11.08,8.09s2.85,9.27,4.05,13.99c3.36,13.22,11.09,25.27,21.64,33.73,4.75,3.81,10.03,6.9,14.82,10.68s9.17,8.42,11.24,14.2c2.07,5.78,1.38,12.87-2.89,17.21-4.02,4.08-9.2,3.51-14.15,2.12-4.97-1.4-8.74-.59-13.89-.25-11.42.75-23.07-1.74-33.16-7.29Z" style="fill:url(#linear-gradient-3);"/><path d="m190.96,275.58c-11.11-9.58-21.45-20.81-35.03-26.12-14.48-5.66-31.61-4.13-44.41-13.05-13.09-9.13-17.95-26.69-29.88-37.35-8.61-7.69-20.72-11.14-31.98-9.11,12-4.3,26.29-1.15,35.5,7.83,10.86,10.59,14.86,28.12,28.14,35.31,7.97,4.32,17.5,3.83,26.37,5.51,17.8,3.38,32.35,15.33,46.22,26.43,7.15,5.72,14.33,11.47,22.14,16.23,3.8,2.31,7.74,4.38,11.85,6.04.98.39,5.82,1.37,6.23,2.19,1.03,2.03-1.98,2.41-3.32,2.42-11.5.12-23.56-9.19-31.85-16.34Z" style="fill:#9df2db;"/><path d="m140.05,260.58c-7.38.47-13.98,4.7-20.97,7.13-6.99,2.43-15.1,3.53-21.49-.27,7.37,1.95,15.17-.16,22.27-2.93,7.1-2.77,14.05-7.82,21.64-7.13,7.21.65,18.02,5.9,38.22,21.15-6.69-3.16-27.36-18.73-39.66-17.95Z" style="fill:#9df2db;"/><path d="m60.83,230.11c-8.12,2.82-16.14,7.07-24.71,6.47,5.76-.5,11.18-2.88,16.41-5.36,5.23-2.49,10.4-5.55,16.13-6.31,6.74-.89,24.18,1.83,35.42,19.42-16.33-16.7-29.12-19.13-43.26-14.21Z" style="fill:#9df2db;"/><path d="m60.79,203.13c-6.76-.94-13.72-.14-20.39-1.65s-13.41-6.33-14.04-13.24c2.88,5.94,9.59,8.93,16.01,10s13.04.7,19.36,2.26c4.57,1.13,11.16,4.12,12.77,9.1-3.95-3.53-8.41-5.72-13.72-6.46Z" style="fill:#9df2db;"/><path d="m88.57,179.17c-1.31-6.97-.33-14.36,2.75-20.71.71,4.13-.38,8.32-.77,12.49-.39,4.16-.04,8.38.98,12.42.81,3.21,4.23,10.23,7.99,18.44-3.45-3.65-10.04-17.74-10.96-22.64Z" style="fill:#9df2db;"/><path d="m38.75,139.84c6.28,14.16,19.55,24.63,22.84,40.34-3.97-5.37-7.15-11.68-10.74-17.35-4.63-7.32-8.68-15.02-12.1-22.99Z" style="fill:#9df2db;"/><path d="m715.96,168.2c5.3-25.88,15.86-50.61,26.36-75.15,10.1-23.6,20.19-47.21,30.29-70.81,2.54-5.94,5.2-12.06,10.12-16.62,4.92-4.56,12.73-7.18,19.17-4.6,6.44,2.58,9.16,11.53,3.79,15.65,4.57-4.93,9.74-10.19,16.75-11.26,7.01-1.07,15.31,4.99,12.7,10.98,13.79-8.09,31-11.27,47.2-8.73,6.2.97,13.25,3.7,14.44,9.3.56,2.63-.36,5.32-1.38,7.83-5.05,12.35-13.04,23.71-23.28,33.07-10.13,9.25-22.33,16.5-32.2,25.98-14.92,14.32-23.68,32.87-32.15,51-9.01,19.3-18.03,38.59-27.04,57.89-7.71,16.49-15.48,33.1-26.43,48.01-10.96,14.91-25.42,28.19-43.46,35.53-4.15,1.69-8.73,3.07-13.18,2.24-14.54-2.72-4.47-14.7-1.05-21.42,4.57-8.98,7.53-18.54,9.7-28.21,4.5-20.04,5.55-40.56,9.67-60.66Z" style="fill:url(#linear-gradient-4);"/><path d="m733.13,230.6c5.61-22.88,9.29-46.52,20.65-67.57,17.52-32.44,51.26-55.05,85.56-73.48,2.99-1.61,6.1-3.23,9.55-3.65,3.45-.42,7.36.64,9.13,3.34,1.78,2.71.26,6.98-3.17,7.5,10.31-8.46,24.88-12.49,38.66-10.68,3.48.46,7.19,1.43,9.24,4.02s1.14,7.1-2.29,7.79c10.72-5.09,24.27-2.98,34.58,2.77s17.97,14.63,24.96,23.59c-9.45-10.89-27.91-12.63-41.88-7-13.97,5.64-24.06,17.04-31.82,28.97-7.75,11.93-13.76,24.82-22.61,36.11-13.09,16.7-31.71,29.06-49.99,41.12-23.05,15.2-46.1,30.41-69.16,45.61-9,5.94-18,11.87-27,17.81-11.52,7.6-9.51.02-4.4-7.32,9.75-14,17.69-32.43,19.97-48.93Z" style="fill:url(#linear-gradient-5);"/><path d="m717.07,217.59c4.36-7.35,8.63-14.87,14.82-21.05,6.18-6.18,14.66-10.99,23.87-11.21,13.45-.33,27.37,8.82,39.42,3.4,8.81-3.97,11.86-14.07,11.72-22.98-.1-6.42-.44-14.44,5.84-17.41,6.07-2.87,13.24,1.72,17.26,6.75,4.01,5.02,7.43,11.2,13.9,13.24,7.13,2.26,15-1.7,19.88-6.92,4.88-5.22,7.89-11.68,12.63-17.01,4.74-5.33,12.28-9.6,19.58-7.83,5.69,1.38,9.84,6.4,10.45,11.71.61,5.3-1.97,10.67-6.15,14.43-1.94,1.75-4.22,3.21-5.79,5.24-1.57,2.03-2.26,4.91-.7,6.95,1.81,2.37,5.71,2.48,8.7,1.48s5.59-2.82,8.65-3.6c7.8-2,16.24,4.06,17.56,11.3s-3.22,14.6-9.72,18.98c-6.5,4.38-14.66,6.23-22.69,7.22-8.03.99-16.19,1.22-24.1,2.83-3.65.74-8.02,2.76-7.67,6.13.43,4.16,6.78,4.56,11.18,5.8,10.15,2.85,13.25,15.89,7.58,24.02-5.67,8.14-16.98,11.68-27.6,12-15.18.45-29.88-4.44-44.92-6.32-15.05-1.88-32.43.18-41.67,11.09-3.35,3.96-5.31,8.74-8.4,12.88-6.02,8.07-15.79,13.05-25.2,17.76-7.16,3.57-14.52,7.21-22.61,8.22-7.96,1-16.02-.63-23.81-2.42-7.22-1.66-28.39-3.43-29.8-11.82-1.2-7.14,14.29-15.86,19.11-20.69,15.58-15.6,27.73-33.73,38.69-52.18Z" style="fill:url(#linear-gradient-6);"/><path d="m709.69,271.19c12.33-9.92,22.44-21.75,33.56-32.72,11.12-10.97,23.66-21.32,39.07-27.09,16.22-6.07,34.38-6.65,51.71-9.72,17.32-3.07,35.36-9.71,43.68-23.36-7.36,12.68-20.36,22.68-35.65,27.42-18.71,5.81-39.91,3.87-58.26,10.47-20.3,7.31-33.95,23.79-46.95,39.28-13,15.49-27.7,31.55-48.68,37.25-2.87.78-15.26,3.45-17.54.51-2.45-3.16,7.72-4.99,9.82-5.67,10.94-3.55,20.7-9.51,29.24-16.37Z" style="fill:#9df2db;"/><path d="m822.04,239.06c7.72.39,15.39,1.55,23.12,1.51s15.74-1.43,21.96-5.58c-5.12,5.38-13.11,7.91-20.93,8.46-7.82.55-15.64-.66-23.42-1.57-7.77-.91-15.13-1.05-22.84,0,6.84-2.87,14.7-3.18,22.11-2.8Z" style="fill:#9df2db;"/><path d="m808.7,187.08c7.67-8.84,11.48-20.36,10.44-31.57,4.29,12.81-.44,27.7-11.59,36.49-4.07,3.21-8.63,5.78-12.52,9.19-.05-2.18,4.23-4.94,5.88-6.44,2.7-2.47,5.41-4.93,7.79-7.67Z" style="fill:#9df2db;"/><path d="m862.8,174.22c6.17-3.88,12.08-8.2,16.88-13.43,4.81-5.23,8.49-11.43,9.77-18.14-.28,7.74-4.3,15.07-9.77,21.03-5.46,5.96-12.32,10.72-19.18,15.34-2.94,1.98-5.89,3.94-8.76,5.99-2.74,1.96-5.35,4.68-8.27,6.28-3.06-4.75,15.93-14.93,19.33-17.07Z" style="fill:#9df2db;"/><path d="m889.39,196.01c5.27-.28,10.44.37,15.73-.15,5.29-.52,10.97-2.44,14.86-6.78-2.87,5.2-8.59,8.24-13.99,9.23s-10.69.29-16.01.14c-5.53-.17-10.12,1.05-15.5,2.89,3.68-4.02,10.28-5.08,14.9-5.33Z" style="fill:#9df2db;"/></svg>