<?xml version="1.0" encoding="UTF-8"?>
<svg id="_Слой_1" data-name="Слой 1" xmlns="http://www.w3.org/2000/svg" xmlns:xlink="http://www.w3.org/1999/xlink" viewBox="0 0 532.34 726.84">
  <defs>
    <linearGradient id="linear-gradient" x1="1392.94" y1="760.9" x2="1213.51" y2="378.84" gradientTransform="translate(-694.33 -834.25) rotate(23.32)" gradientUnits="userSpaceOnUse">
      <stop offset=".21" stop-color="#1c3740"/>
      <stop offset=".37" stop-color="#1d3d42"/>
      <stop offset=".59" stop-color="#214e4a"/>
      <stop offset=".83" stop-color="#276a57"/>
      <stop offset="1" stop-color="#2d8263"/>
    </linearGradient>
    <linearGradient id="linear-gradient-2" x1="3600.65" y1="-1091.78" x2="3384.61" y2="-1487.27" gradientTransform="translate(3627.12 -2043.49) rotate(120.57) scale(1.09 -1.31)" gradientUnits="userSpaceOnUse">
      <stop offset=".35" stop-color="#10603d"/>
      <stop offset=".49" stop-color="#277143"/>
      <stop offset=".78" stop-color="#639e53"/>
      <stop offset="1" stop-color="#93c360"/>
    </linearGradient>
    <linearGradient id="linear-gradient-3" x1="651.35" y1="564.74" x2="367.24" y2="268.86" gradientTransform="translate(-371.28 82.62) rotate(-3.37)" gradientUnits="userSpaceOnUse">
      <stop offset=".07" stop-color="#2d8263"/>
      <stop offset=".2" stop-color="#34896b"/>
      <stop offset=".39" stop-color="#499e81"/>
      <stop offset=".64" stop-color="#6bc0a6"/>
      <stop offset=".92" stop-color="#9aefd8"/>
      <stop offset=".93" stop-color="#9df2db"/>
    </linearGradient>
  </defs>
  <path d="M372.05,400.69c8.69-45.6,30.04-87.12,21.38-138.18-6.34-37.35-28.52-78.12-50.52-118.39-18.9-34.6-37.8-69.2-56.7-103.79-4.64-8.5-14.04-20.02-27.08-22.26-12.36-2.13-14.09,6.6-13.2,13.97,1.88,15.56,3.76,31.13,5.64,46.69-12.61-4.9-20.84-14.85-22.27-22.35s2.04-13.44,3.41-20.07c1.37-6.62.11-14.89-8.8-22.75-8.91-7.86-27.3-13.38-31.98-8.25-2.63,2.87-.28,7.77,2.07,12.26,13.42,25.7,26.84,51.4,40.26,77.1-20.82-6.12-35.27-23.03-38.93-35.63-3.66-12.6-1.26-24.05-9.52-37.32-5.41-8.69-18.25-19.11-31.44-21.31-19.15-3.19-18.59,12.19-13.24,24.52,25.49,58.8,61.92,119.11,90.49,178.36,28.57,59.25,49.36,118.4,42.1,168.7-6.05,41.87-31.36,76.42-34.95,119.15-3.58,42.73,20.95,99.3,88.62,142.98,18.63,12.02,41.08,22.94,62.03,26.44,68.05,11.39,15.41-55.36,5.14-81.5-15.95-40.6-24.89-79.98-26.61-117.19-.98-21.16.38-41.62,4.11-61.2Z" style="fill: url(#linear-gradient); stroke-width: 0px;"/>
  <path d="M529.07,645.79c-8.01-25.65-26.5-48.85-46.86-69.36-20.36-20.51-42.99-39.13-62.42-60.36-64.35-70.31-87.07-161.21-137.33-239.64-35.34-55.15-84.68-104.04-142.07-140.76-5.82-3.73-12.71-7.53-18.85-6.12-6.14,1.42-7.37,11.33-.85,13.39-8.46-7.21-17.21-14.6-27.53-18.72-10.32-4.12-22.74-4.23-29.5,2.39s-4.31,20.69,5.88,25.19c-33.49-2.02-63.34,18.44-69.55,47.66,15.16-.92,31.18,7.36,42.76,18.44,11.58,11.09,19.49,24.74,26.99,38.2,37.72,67.74,70.46,138.1,120.37,200.01,41.43,51.39,93.31,95.21,144.74,138.57,46.84,39.49,93.67,78.98,140.51,118.47,21.64,18.24,37.65,19.23,45.64-3.04,7.82-21.78,16.07-38.71,8.07-64.33Z" style="fill: url(#linear-gradient-2); stroke-width: 0px;"/>
  <g>
    <path d="M283.3,674.65c-18.7-17.25-33.22-40.45-56.64-50.3-15.35-6.45-32.56-6.23-49.22-6.34-16.66-.11-34.04-.86-48.62-8.91-14.58-8.05-25.3-25.64-20.21-41.63,5.05-15.86,24.05-28.37,19.48-44.33-2.55-8.9-12.07-14.12-21.23-15.13-9.16-1.01-18.34,1.18-27.51,2.07-18.65,1.81-37.77-1.88-54.4-10.49-8.28-4.29-16.28-10.17-20.19-18.68s-2.41-20.07,5.33-25.34c9.55-6.49,24.64-1.75,32.25-10.47,7.66-8.78.5-22.56-8.14-30.31-7.78-6.98-16.79-12.6-23.85-20.33-7.06-7.73-12.07-18.48-9.45-28.67,2.62-10.19,15.41-17.55,24.18-11.86,4.74,3.07,7.46,9.08,12.81,10.85,5.55,1.83,11.78-2.03,14.33-7.33s2.21-11.53,1.09-17.3c-2.99-15.45-11.02-29.69-12.69-45.34-1.67-15.65,6.56-34.59,22.14-36.18,11.99-1.23,22.56,8.54,27.85,19.41,5.3,10.87,7.05,23.17,11.75,34.31,4.7,11.15,13.85,21.82,25.87,22.57,16.05.99,30.55-15.86,46-11.44,11.05,3.16,16.43,15.97,17.14,27.52.71,11.55-1.69,23.32.66,34.64,2.35,11.32,12,22.58,23.37,20.8,12.42-1.95,18.76-17.6,30.93-20.79,14.13-3.71,26.6,12.04,27.47,26.7.87,14.66-5.28,28.8-6.89,43.4-1.61,14.6,3.83,32.34,17.94,36.03,16.8,4.39,33.32-13.97,50.2-9.93,10.14,2.43,16.86,12.54,19.13,22.79,2.27,10.24,1.1,20.9,1.13,31.4.08,29.44,10.02,58.72,27.82,82,8.02,10.49,17.54,19.75,25.65,30.17,8.11,10.43,14.91,22.45,16.22,35.65,1.31,13.19-3.91,27.67-15.24,34.48-10.66,6.41-21.31,2.49-31.03-3.04-9.76-5.55-18.17-5.85-29.23-7.87-24.53-4.47-47.85-15.82-66.22-32.78Z" style="fill: url(#linear-gradient-3); stroke-width: 0px;"/>
    <path d="M318.16,637c-18.39-25.91-34.28-54.86-60.18-73.15-27.6-19.49-64.63-25.33-86.94-50.76-22.82-26.01-23.77-65.33-43.32-93.93-14.11-20.64-37.88-34.26-62.76-35.95,27.65-2.65,56.18,11.49,70.88,35.15,17.34,27.9,16.49,66.68,40.73,88.75,14.55,13.25,34.96,17.25,52.82,25.47,35.83,16.48,60.24,49.17,83.66,79.71,12.07,15.74,24.19,31.57,38.19,45.65,6.8,6.84,14.03,13.26,21.85,18.9,1.86,1.34,11.57,5.95,12.01,7.87,1.09,4.8-5.47,3.99-8.29,3.31-24.37-5.83-44.92-31.68-58.64-51.02Z" style="fill: #9df2db; stroke-width: 0px;"/>
    <path d="M218.52,578.72c-15.84-2.92-32.04,2.45-48.11,3.84-16.06,1.38-33.78-.59-45.28-11.92,14.55,7.98,32.14,7.67,48.62,5.63,16.48-2.04,33.85-8.94,49.52-3.49,14.9,5.18,34.94,21.87,69.54,64.45-12.47-10.15-47.89-53.64-74.29-58.5Z" style="fill: #9df2db; stroke-width: 0px;"/>
    <path d="M67.25,473.12c-18.66,1.62-37.86,6.26-55.66.48,12.44,1.99,25.16-.11,37.54-2.55,12.38-2.44,24.93-6.11,37.45-4.67,14.73,1.69,50.12,16.61,64.56,59.34-25.64-43.56-51.4-55.41-83.9-52.59Z" style="fill: #9df2db; stroke-width: 0px;"/>
    <path d="M81.49,416.64c-13.8-5.54-28.93-7.54-42.22-14.22-13.29-6.68-24.98-20.34-22.64-35.13,2.92,13.94,15.52,23.75,28.53,29.37,13,5.62,27.2,8.35,39.73,14.96,9.06,4.78,21.41,14.52,22.16,25.78-6.47-9.48-14.74-16.41-25.56-20.76Z" style="fill: #9df2db; stroke-width: 0px;"/>
    <path d="M152.92,381.2c.93-15.28,6.93-30.22,16.81-41.88-.69,9.02-5.23,17.21-8.26,25.73-3.02,8.49-4.52,17.51-4.52,26.51,0,7.13,3.52,23.64,7.11,42.8-5.36-9.47-11.79-42.42-11.14-53.17Z" style="fill: #9df2db; stroke-width: 0px;"/>
    <path d="M68.51,272.59c5.76,32.94,28.24,61.85,26.85,96.46-5.53-13.33-8.92-28.21-13.49-41.96-5.9-17.76-10.37-36-13.36-54.5Z" style="fill: #9df2db; stroke-width: 0px;"/>
  </g>
</svg>