<?xml version="1.0" encoding="UTF-8"?><svg id="Layer_1" xmlns="http://www.w3.org/2000/svg" width="1310" height="730" xmlns:xlink="http://www.w3.org/1999/xlink" viewBox="0 0 1310 730"><defs><linearGradient id="linear-gradient" x1="1424.94" y1="916.98" x2="1245.51" y2="534.92" gradientTransform="translate(-661.92 -987.08) rotate(23.32)" gradientUnits="userSpaceOnUse"><stop offset=".21" stop-color="#1c3740"/><stop offset=".37" stop-color="#1d3d42"/><stop offset=".59" stop-color="#214e4a"/><stop offset=".83" stop-color="#276a57"/><stop offset="1" stop-color="#2d8263"/></linearGradient><linearGradient id="linear-gradient-2" x1="4168.28" y1="-1343.6" x2="3952.24" y2="-1739.09" gradientTransform="translate(4225.49 -2405.49) rotate(120.57) scale(1.09 -1.31)" gradientUnits="userSpaceOnUse"><stop offset=".35" stop-color="#10603d"/><stop offset=".49" stop-color="#277143"/><stop offset=".78" stop-color="#639e53"/><stop offset="1" stop-color="#93c360"/></linearGradient><linearGradient id="linear-gradient-3" x1="651.96" y1="545.17" x2="367.84" y2="249.29" gradientTransform="translate(-370.73 105.36) rotate(-3.37)" gradientUnits="userSpaceOnUse"><stop offset=".07" stop-color="#2d8263"/><stop offset=".2" stop-color="#34896b"/><stop offset=".39" stop-color="#499e81"/><stop offset=".64" stop-color="#6bc0a6"/><stop offset=".92" stop-color="#9aefd8"/><stop offset=".93" stop-color="#9df2db"/></linearGradient><linearGradient id="linear-gradient-4" x1="334.13" y1="233.39" x2="566.41" y2="-71.01" gradientTransform="translate(528.02 171.43) rotate(-3.63)" gradientUnits="userSpaceOnUse"><stop offset=".22" stop-color="#1c3740"/><stop offset=".38" stop-color="#1d3c42"/><stop offset=".58" stop-color="#204c49"/><stop offset=".81" stop-color="#266555"/><stop offset="1" stop-color="#2d8263"/></linearGradient><linearGradient id="linear-gradient-5" x1="456.2" y1="642.1" x2="749.16" y2="224.76" gradientTransform="translate(443.42 -31.6) rotate(.47)" gradientUnits="userSpaceOnUse"><stop offset=".38" stop-color="#10603d"/><stop offset=".47" stop-color="#1a673f"/><stop offset=".62" stop-color="#357c47"/><stop offset=".81" stop-color="#619d52"/><stop offset="1" stop-color="#93c360"/></linearGradient><linearGradient id="linear-gradient-6" x1="672.88" y1="937.32" x2="997.75" y2="588.61" gradientTransform="translate(352.52 -389.67) rotate(7.24)" gradientUnits="userSpaceOnUse"><stop offset=".24" stop-color="#2d8263"/><stop offset=".68" stop-color="#75cab1"/><stop offset=".93" stop-color="#9df2db"/></linearGradient></defs><path d="m372.05,403.85c8.69-45.6,30.04-87.12,21.38-138.18-6.34-37.35-28.52-78.12-50.52-118.39-18.9-34.6-37.8-69.2-56.7-103.79-4.64-8.5-14.04-20.02-27.08-22.26-12.36-2.13-14.09,6.6-13.2,13.97,1.88,15.56,3.76,31.13,5.64,46.69-12.61-4.9-20.84-14.85-22.27-22.35-1.43-7.5,2.04-13.44,3.41-20.07,1.37-6.62.11-14.89-8.8-22.75-8.91-7.86-27.3-13.38-31.98-8.25-2.63,2.87-.28,7.77,2.07,12.26,13.42,25.7,26.84,51.4,40.26,77.1-20.82-6.12-35.27-23.03-38.93-35.63-3.66-12.6-1.26-24.05-9.52-37.32-5.41-8.69-18.25-19.11-31.44-21.31-19.15-3.19-18.59,12.19-13.24,24.52,25.49,58.8,61.92,119.11,90.49,178.36,28.57,59.25,49.36,118.4,42.1,168.7-6.05,41.87-31.36,76.42-34.95,119.15-3.58,42.73,20.95,99.3,88.62,142.98,18.63,12.02,41.08,22.94,62.03,26.44,68.05,11.39,15.41-55.36,5.14-81.5-15.95-40.6-24.89-79.98-26.61-117.19-.98-21.16.38-41.62,4.11-61.2Z" style="fill:url(#linear-gradient);"/><path d="m529.07,648.95c-8.01-25.65-26.5-48.85-46.86-69.36-20.36-20.51-42.99-39.13-62.42-60.36-64.35-70.31-87.07-161.21-137.33-239.64-35.34-55.15-84.68-104.04-142.07-140.76-5.82-3.73-12.71-7.53-18.85-6.12-6.14,1.42-7.37,11.33-.85,13.39-8.46-7.21-17.21-14.6-27.53-18.72-10.32-4.12-22.74-4.23-29.5,2.39s-4.31,20.69,5.88,25.19c-33.49-2.02-63.34,18.44-69.55,47.66,15.16-.92,31.18,7.36,42.76,18.44,11.58,11.09,19.49,24.74,26.99,38.2,37.72,67.74,70.46,138.1,120.37,200.01,41.43,51.39,93.31,95.21,144.74,138.57,46.84,39.49,93.67,78.98,140.51,118.47,21.64,18.24,37.65,19.23,45.64-3.04,7.82-21.78,16.07-38.71,8.07-64.33Z" style="fill:url(#linear-gradient-2);"/><path d="m283.3,677.81c-18.7-17.25-33.22-40.45-56.64-50.3-15.35-6.45-32.56-6.23-49.22-6.34-16.66-.11-34.04-.86-48.62-8.91-14.58-8.05-25.3-25.64-20.21-41.63,5.05-15.86,24.05-28.37,19.48-44.33-2.55-8.9-12.07-14.12-21.23-15.13-9.16-1.01-18.34,1.18-27.51,2.07-18.65,1.81-37.77-1.88-54.4-10.49-8.28-4.29-16.28-10.17-20.19-18.68s-2.41-20.07,5.33-25.34c9.55-6.49,24.64-1.75,32.25-10.47,7.66-8.78.5-22.56-8.14-30.31-7.78-6.98-16.79-12.6-23.85-20.33-7.06-7.73-12.07-18.48-9.45-28.67,2.62-10.19,15.41-17.55,24.18-11.86,4.74,3.07,7.46,9.08,12.81,10.85,5.55,1.83,11.78-2.03,14.33-7.33,2.56-5.3,2.21-11.53,1.09-17.3-2.99-15.45-11.02-29.69-12.69-45.34-1.67-15.65,6.56-34.59,22.14-36.18,11.99-1.23,22.56,8.54,27.85,19.41,5.3,10.87,7.05,23.17,11.75,34.31,4.7,11.15,13.85,21.82,25.87,22.57,16.05.99,30.55-15.86,46-11.44,11.05,3.16,16.43,15.97,17.14,27.52.71,11.55-1.69,23.32.66,34.64,2.35,11.32,12,22.58,23.37,20.8,12.42-1.95,18.76-17.6,30.93-20.79,14.13-3.71,26.6,12.04,27.47,26.7.87,14.66-5.28,28.8-6.89,43.4-1.61,14.6,3.83,32.34,17.94,36.03,16.8,4.39,33.32-13.97,50.2-9.93,10.14,2.43,16.86,12.54,19.13,22.79,2.27,10.24,1.1,20.9,1.13,31.4.08,29.44,10.02,58.72,27.82,82,8.02,10.49,17.54,19.75,25.65,30.17s14.91,22.45,16.22,35.65c1.31,13.19-3.91,27.67-15.24,34.48-10.66,6.41-21.31,2.49-31.03-3.04-9.76-5.55-18.17-5.85-29.23-7.87-24.53-4.47-47.85-15.82-66.22-32.78Z" style="fill:url(#linear-gradient-3);"/><path d="m318.16,640.16c-18.39-25.91-34.28-54.86-60.18-73.15-27.6-19.49-64.63-25.33-86.94-50.76-22.82-26.01-23.77-65.33-43.32-93.93-14.11-20.64-37.88-34.26-62.76-35.95,27.65-2.65,56.18,11.49,70.88,35.15,17.34,27.9,16.49,66.68,40.73,88.75,14.55,13.25,34.96,17.25,52.82,25.47,35.83,16.48,60.24,49.17,83.66,79.71,12.07,15.74,24.19,31.57,38.19,45.65,6.8,6.84,14.03,13.26,21.85,18.9,1.86,1.34,11.57,5.95,12.01,7.87,1.09,4.8-5.47,3.99-8.29,3.31-24.37-5.83-44.92-31.68-58.64-51.02Z" style="fill:#9df2db;"/><path d="m218.52,581.88c-15.84-2.92-32.04,2.45-48.11,3.84-16.06,1.38-33.78-.59-45.28-11.92,14.55,7.98,32.14,7.67,48.62,5.63,16.48-2.04,33.85-8.94,49.52-3.49,14.9,5.18,34.94,21.87,69.54,64.45-12.47-10.15-47.89-53.64-74.29-58.5Z" style="fill:#9df2db;"/><path d="m67.25,476.28c-18.66,1.62-37.86,6.26-55.66.48,12.44,1.99,25.16-.11,37.54-2.55,12.38-2.44,24.93-6.11,37.45-4.67,14.73,1.69,50.12,16.61,64.56,59.34-25.64-43.56-51.4-55.41-83.9-52.59Z" style="fill:#9df2db;"/><path d="m81.49,419.8c-13.8-5.54-28.93-7.54-42.22-14.22-13.29-6.68-24.98-20.34-22.64-35.13,2.92,13.94,15.52,23.75,28.53,29.37,13,5.62,27.2,8.35,39.73,14.96,9.06,4.78,21.41,14.52,22.16,25.78-6.47-9.48-14.74-16.41-25.56-20.76Z" style="fill:#9df2db;"/><path d="m152.92,384.36c.93-15.28,6.93-30.22,16.81-41.88-.69,9.02-5.23,17.21-8.26,25.73-3.02,8.49-4.52,17.51-4.52,26.51,0,7.13,3.52,23.64,7.11,42.8-5.36-9.47-11.79-42.42-11.14-53.17Z" style="fill:#9df2db;"/><path d="m68.51,275.75c5.76,32.94,28.24,61.85,26.85,96.46-5.53-13.33-8.92-28.21-13.49-41.96-5.9-17.76-10.37-36-13.36-54.5Z" style="fill:#9df2db;"/><path d="m842.29,410.71c3.78-60.96,18.17-120.52,32.48-179.67,13.77-56.87,27.54-113.74,41.31-170.61,3.47-14.32,7.13-29.07,15.61-40.76,8.49-11.7,23.15-19.64,36.45-15.26,13.3,4.38,20.93,24.35,11.46,35.15,7.7-12.48,16.5-25.85,29.99-30.03,13.49-4.18,31.33,7.79,27.73,22.23,25-21.99,57.96-33.5,90.4-31.57,12.43.74,26.95,5.33,30.72,17.94,1.77,5.92.66,12.34-.71,18.38-6.74,29.71-19.52,57.83-37.22,81.88-17.5,23.78-39.6,43.46-56.55,67.7-25.61,36.63-38.07,81.52-50.05,125.38-12.75,46.67-25.5,93.35-38.25,140.02-10.9,39.9-21.9,80.07-39.59,117.1-17.69,37.03-42.67,71.15-76.2,92.47-7.7,4.9-16.34,9.2-25.29,8.36-29.24-2.75-12.54-32.82-7.55-49.14,6.67-21.8,10.03-44.58,11.81-67.39,3.7-47.3.51-94.86,3.44-142.2Z" style="fill:url(#linear-gradient-4);"/><path d="m891.96,550.42c5.16-54.11,6.31-109.5,23.23-160.79,26.07-79.05,86.51-139.35,149.1-190.17,5.46-4.43,11.14-8.92,17.8-10.73,6.66-1.81,14.6-.32,18.78,5.5,4.18,5.82,2.3,16.03-4.3,18.07,18.07-22.01,45.64-34.82,73.14-34,6.94.21,14.48,1.56,19.16,7.03,4.68,5.47,4.06,16.09-2.49,18.52,19.74-14.34,46.88-12.76,68.59-1.99,21.71,10.76,39.02,29.37,55.03,48.33-21.33-22.82-58.02-22.36-83.99-5.98-25.97,16.38-42.86,45.12-55.02,74.51-12.16,29.39-20.65,60.55-35.12,88.73-21.41,41.68-54.79,74.69-87.58,106.92-41.35,40.65-82.7,81.29-124.05,121.94-16.14,15.87-32.28,31.73-48.43,47.6-20.67,20.32-18.66,2.35-10.5-15.81,15.55-34.64,26.41-79.05,26.66-117.67Z" style="fill:url(#linear-gradient-5);"/><path d="m857.1,524.32c6.68-18,13.13-36.37,23.69-52.12,10.55-15.76,25.95-28.89,43.98-31.64,26.31-4.02,55.98,13.69,78.24-1.73,16.28-11.28,19.67-35.32,17.12-55.83-1.84-14.78-4.57-33.19,7.01-41.56,11.18-8.08,26.44.76,35.6,11.37s17.45,24.01,30.67,27.16c14.58,3.47,29.01-7.55,37.25-20.77,8.24-13.22,12.5-28.85,20.43-42.28,7.93-13.43,21.65-25.11,36.43-22.79,11.52,1.81,20.94,12.38,23.51,24.46,2.56,12.08-1.14,25.09-8.37,34.77-3.36,4.5-7.47,8.43-10.02,13.48s-3.17,11.87.41,16.18c4.16,5.02,11.85,4.33,17.45,1.31,5.6-3.02,10.25-7.85,16.06-10.4,14.79-6.49,32.92,5.42,37.36,21.79,4.44,16.38-2.58,34.45-14.22,46.12-11.64,11.67-27.17,17.93-42.68,22.16-15.51,4.23-31.46,6.75-46.57,12.38-6.97,2.6-15.03,8.31-13.48,16,1.9,9.48,14.47,8.88,23.43,10.66,20.66,4.1,30.07,33.41,21.03,53.55-9.04,20.14-30.33,31.06-51.1,34.35-29.68,4.71-59.78-3-89.79-3.67-30.01-.68-63.61,8.29-78.95,35.68-5.57,9.94-8.19,21.44-13.19,31.72-9.75,20.06-27.65,33.93-44.92,47.05-13.13,9.97-26.65,20.15-42.28,24.44-15.37,4.23-31.6,2.44-47.36.2-14.59-2.07-56.6-1.03-61.51-20.03-4.19-16.18,23.99-40.04,32.22-52.33,26.58-39.74,45.79-84.48,62.57-129.69Z" style="fill:url(#linear-gradient-6);"/><path d="m856.35,649.68c21.67-25.86,38.47-55.6,57.49-83.59,19.02-27.99,40.97-54.88,69.74-71.93,30.27-17.93,65.78-23.67,98.99-34.95,33.22-11.28,66.92-30.96,79.75-64.44-11.2,31.01-34.16,57.23-62.95,71.87-35.23,17.92-77.34,18.6-111.66,38.27-37.98,21.77-60.53,63.08-82.08,101.95-21.55,38.86-46.28,79.45-86.01,97.68-5.42,2.49-29.07,11.65-34.3,5.44-5.62-6.68,13.87-13.38,17.82-15.46,20.57-10.83,38.19-26.94,53.19-44.84Z" style="fill:#9df2db;"/><path d="m1068.64,548.36c15.25-.96,30.61-.15,45.77-2.14,15.16-1.99,30.52-7.11,41.67-18.19-8.67,13.64-23.71,21.42-38.92,24.57-15.21,3.16-30.86,2.27-46.36,2.05-15.47-.22-29.97,1.24-44.84,5.53,12.69-8.26,28.04-10.9,42.68-11.83Z" style="fill:#9df2db;"/><path d="m1029.13,431.75c12.79-22.25,17.31-49.73,12.4-75.31,11.7,28.49,6.23,63.98-13.4,86.93-7.16,8.38-15.46,15.42-22.21,24.22-.67-5.01,7.05-12.41,9.89-16.27,4.67-6.34,9.36-12.69,13.32-19.57Z" style="fill:#9df2db;"/><path d="m1132.02,388.99c11.12-10.45,21.6-21.84,29.69-35.07,8.09-13.23,13.73-28.42,14.54-44.19,1.44,17.92-4.58,35.79-13.78,50.85-9.2,15.06-21.44,27.7-33.72,40.02-5.26,5.27-10.54,10.51-15.66,15.94-4.87,5.17-9.31,12.08-14.63,16.48-7.22-10.2,27.45-38.29,33.56-44.03Z" style="fill:#9df2db;"/><path d="m1189.8,432.78c10.28-1.93,20.59-1.68,30.84-4.16,10.25-2.48,20.91-8.28,27.43-19.23-4.3,12.68-14.75,21.09-25.09,24.67-10.34,3.58-20.91,3.27-31.38,4.19-10.9.96-19.6,4.88-29.68,10.42,6.19-10.17,18.89-14.2,27.89-15.89Z" style="fill:#9df2db;"/></svg>