<?xml version="1.0" encoding="UTF-8"?>
<svg id="_Слой_1" data-name="Слой 1" xmlns="http://www.w3.org/2000/svg" xmlns:xlink="http://www.w3.org/1999/xlink" viewBox="0 0 548.11 728.73">
  <defs>
    <linearGradient id="linear-gradient" x1="-427.16" y1="209.33" x2="-194.88" y2="-95.07" gradientTransform="translate(527.42 147.25) rotate(-3.63)" gradientUnits="userSpaceOnUse">
      <stop offset=".22" stop-color="#1c3740"/>
      <stop offset=".38" stop-color="#1d3c42"/>
      <stop offset=".58" stop-color="#204c49"/>
      <stop offset=".81" stop-color="#266555"/>
      <stop offset="1" stop-color="#2d8263"/>
    </linearGradient>
    <linearGradient id="linear-gradient-2" x1="-305.65" y1="645.2" x2="-12.7" y2="227.86" gradientTransform="translate(443.38 -28.49) rotate(.47)" gradientUnits="userSpaceOnUse">
      <stop offset=".38" stop-color="#10603d"/>
      <stop offset=".47" stop-color="#1a673f"/>
      <stop offset=".62" stop-color="#357c47"/>
      <stop offset=".81" stop-color="#619d52"/>
      <stop offset="1" stop-color="#93c360"/>
    </linearGradient>
    <linearGradient id="linear-gradient-3" x1="-85.65" y1="985.2" x2="239.22" y2="636.48" gradientTransform="translate(349.15 -341.54) rotate(7.24)" gradientUnits="userSpaceOnUse">
      <stop offset=".24" stop-color="#2d8263"/>
      <stop offset=".68" stop-color="#75cab1"/>
      <stop offset=".93" stop-color="#9df2db"/>
    </linearGradient>
  </defs>
  <path d="M80.4,410.71c3.78-60.96,18.17-120.52,32.48-179.67,13.77-56.87,27.54-113.74,41.31-170.61,3.47-14.32,7.13-29.07,15.61-40.76C178.29,7.98,192.96.03,206.25,4.42c13.3,4.38,20.93,24.35,11.46,35.15,7.7-12.48,16.5-25.85,29.99-30.03,13.49-4.18,31.33,7.79,27.73,22.23C300.43,9.78,333.39-1.72,365.83.21c12.43.74,26.95,5.33,30.72,17.94,1.77,5.92.66,12.34-.71,18.38-6.74,29.71-19.52,57.83-37.22,81.88-17.5,23.78-39.6,43.46-56.55,67.7-25.61,36.63-38.07,81.52-50.05,125.38-12.75,46.67-25.5,93.35-38.25,140.02-10.9,39.9-21.9,80.07-39.59,117.1-17.69,37.03-42.67,71.15-76.2,92.47-7.7,4.9-16.34,9.2-25.29,8.36-29.24-2.75-12.54-32.82-7.55-49.14,6.67-21.8,10.03-44.58,11.81-67.39,3.7-47.3.51-94.86,3.44-142.2Z" style="fill: url(#linear-gradient); stroke-width: 0px;"/>
  <path d="M130.07,550.42c5.16-54.11,6.31-109.5,23.23-160.79,26.07-79.05,86.51-139.35,149.1-190.17,5.46-4.43,11.14-8.92,17.8-10.73,6.66-1.81,14.6-.32,18.78,5.5s2.3,16.03-4.3,18.07c18.07-22.01,45.64-34.82,73.14-34,6.94.21,14.48,1.56,19.16,7.03,4.68,5.47,4.06,16.09-2.49,18.52,19.74-14.34,46.88-12.76,68.59-1.99,21.71,10.76,39.02,29.37,55.03,48.33-21.33-22.82-58.02-22.36-83.99-5.98-25.97,16.38-42.86,45.12-55.02,74.51-12.16,29.39-20.65,60.55-35.12,88.73-21.41,41.68-54.79,74.69-87.58,106.92-41.35,40.65-82.7,81.29-124.05,121.94-16.14,15.87-32.28,31.73-48.43,47.6-20.67,20.32-18.66,2.35-10.5-15.81,15.55-34.64,26.41-79.05,26.66-117.67Z" style="fill: url(#linear-gradient-2); stroke-width: 0px;"/>
  <g>
    <path d="M95.21,524.32c6.68-18,13.13-36.37,23.69-52.12,10.55-15.76,25.95-28.89,43.98-31.64,26.31-4.02,55.98,13.69,78.24-1.73,16.28-11.28,19.67-35.32,17.12-55.83-1.84-14.78-4.57-33.19,7.01-41.56,11.18-8.08,26.44.76,35.6,11.37s17.45,24.01,30.67,27.16c14.58,3.47,29.01-7.55,37.25-20.77,8.24-13.22,12.5-28.85,20.43-42.28,7.93-13.43,21.65-25.11,36.43-22.79,11.52,1.81,20.94,12.38,23.51,24.46,2.56,12.08-1.14,25.09-8.37,34.77-3.36,4.5-7.47,8.43-10.02,13.48s-3.17,11.87.41,16.18c4.16,5.02,11.85,4.33,17.45,1.31,5.6-3.02,10.25-7.85,16.06-10.4,14.79-6.49,32.92,5.42,37.36,21.79,4.44,16.38-2.58,34.45-14.22,46.12s-27.17,17.93-42.68,22.16c-15.51,4.23-31.46,6.75-46.57,12.38-6.97,2.6-15.03,8.31-13.48,16,1.9,9.48,14.47,8.88,23.43,10.66,20.66,4.1,30.07,33.41,21.03,53.55-9.04,20.14-30.33,31.06-51.1,34.35-29.68,4.71-59.78-3-89.79-3.67-30.01-.68-63.61,8.29-78.95,35.68-5.57,9.94-8.19,21.44-13.19,31.72-9.75,20.06-27.65,33.93-44.92,47.05-13.13,9.97-26.65,20.15-42.28,24.44-15.37,4.23-31.6,2.44-47.36.2-14.59-2.07-56.6-1.03-61.51-20.03-4.19-16.18,23.99-40.04,32.22-52.33,26.58-39.74,45.79-84.48,62.57-129.69Z" style="fill: url(#linear-gradient-3); stroke-width: 0px;"/>
    <path d="M94.46,649.68c21.67-25.86,38.47-55.6,57.49-83.59,19.02-27.99,40.97-54.88,69.74-71.93,30.27-17.93,65.78-23.67,98.99-34.95,33.22-11.28,66.92-30.96,79.75-64.44-11.2,31.01-34.16,57.23-62.95,71.87-35.23,17.92-77.34,18.6-111.66,38.27-37.98,21.77-60.53,63.08-82.08,101.95s-46.28,79.45-86.01,97.68c-5.42,2.49-29.07,11.65-34.3,5.44-5.62-6.68,13.87-13.38,17.82-15.46,20.57-10.83,38.19-26.94,53.19-44.84Z" style="fill: #9df2db; stroke-width: 0px;"/>
    <path d="M306.75,548.36c15.25-.96,30.61-.15,45.77-2.14,15.16-1.99,30.52-7.11,41.67-18.19-8.67,13.64-23.71,21.42-38.92,24.57-15.21,3.16-30.86,2.27-46.36,2.05-15.47-.22-29.97,1.24-44.84,5.53,12.69-8.26,28.04-10.9,42.68-11.83Z" style="fill: #9df2db; stroke-width: 0px;"/>
    <path d="M267.24,431.75c12.79-22.25,17.31-49.73,12.4-75.31,11.7,28.49,6.23,63.98-13.4,86.93-7.16,8.38-15.46,15.42-22.21,24.22-.67-5.01,7.05-12.41,9.89-16.27,4.67-6.34,9.36-12.69,13.32-19.57Z" style="fill: #9df2db; stroke-width: 0px;"/>
    <path d="M370.13,388.99c11.12-10.45,21.6-21.84,29.69-35.07,8.09-13.23,13.73-28.42,14.54-44.19,1.44,17.92-4.58,35.79-13.78,50.85-9.2,15.06-21.44,27.7-33.72,40.02-5.26,5.27-10.54,10.51-15.66,15.94-4.87,5.17-9.31,12.08-14.63,16.48-7.22-10.2,27.45-38.29,33.56-44.03Z" style="fill: #9df2db; stroke-width: 0px;"/>
    <path d="M427.91,432.78c10.28-1.93,20.59-1.68,30.84-4.16,10.25-2.48,20.91-8.28,27.43-19.23-4.3,12.68-14.75,21.09-25.09,24.67-10.34,3.58-20.91,3.27-31.38,4.19-10.9.96-19.6,4.88-29.68,10.42,6.19-10.17,18.89-14.2,27.89-15.89Z" style="fill: #9df2db; stroke-width: 0px;"/>
  </g>
</svg>