<?xml version="1.0" encoding="UTF-8"?><svg id="Layer_1" xmlns="http://www.w3.org/2000/svg" width="1064.78" height="420.2" xmlns:xlink="http://www.w3.org/1999/xlink" viewBox="0 0 1064.78 420.2"><defs><linearGradient id="linear-gradient" x1="631.72" y1="699.21" x2="521.75" y2="465.05" gradientTransform="translate(-232.55 -599.16) rotate(15.53)" gradientUnits="userSpaceOnUse"><stop offset=".21" stop-color="#1c3740"/><stop offset=".37" stop-color="#1d3d42"/><stop offset=".59" stop-color="#214e4a"/><stop offset=".83" stop-color="#276a57"/><stop offset="1" stop-color="#2d8263"/></linearGradient><linearGradient id="linear-gradient-2" x1="3931.4" y1="-1985.89" x2="3799.24" y2="-2227.82" gradientTransform="translate(4331.32 -2594.37) rotate(112.78) scale(1.09 -1.31)" gradientUnits="userSpaceOnUse"><stop offset=".35" stop-color="#10603d"/><stop offset=".49" stop-color="#277143"/><stop offset=".78" stop-color="#639e53"/><stop offset="1" stop-color="#93c360"/></linearGradient><linearGradient id="linear-gradient-3" x1="-18.43" y1="-22.4" x2="-191.96" y2="-203.12" gradientTransform="translate(244.71 376.06) rotate(-11.17)" gradientUnits="userSpaceOnUse"><stop offset=".07" stop-color="#2d8263"/><stop offset=".2" stop-color="#34896b"/><stop offset=".39" stop-color="#499e81"/><stop offset=".64" stop-color="#6bc0a6"/><stop offset=".92" stop-color="#9aefd8"/><stop offset=".93" stop-color="#9df2db"/></linearGradient><linearGradient id="linear-gradient-4" x1="882.08" y1="366.84" x2="1022.68" y2="182.58" gradientTransform="translate(-65.88 -217.04) rotate(4.48)" gradientUnits="userSpaceOnUse"><stop offset=".22" stop-color="#1c3740"/><stop offset=".38" stop-color="#1d3c42"/><stop offset=".58" stop-color="#204c49"/><stop offset=".81" stop-color="#266555"/><stop offset="1" stop-color="#2d8263"/></linearGradient><linearGradient id="linear-gradient-5" x1="1013.99" y1="635.77" x2="1192.58" y2="381.36" gradientTransform="translate(-128.07 -420.01) rotate(8.58)" gradientUnits="userSpaceOnUse"><stop offset=".38" stop-color="#10603d"/><stop offset=".47" stop-color="#1a673f"/><stop offset=".62" stop-color="#357c47"/><stop offset=".81" stop-color="#619d52"/><stop offset="1" stop-color="#93c360"/></linearGradient><linearGradient id="linear-gradient-6" x1="1228.08" y1="843.3" x2="1428.09" y2="628.62" gradientTransform="translate(-180.75 -772.02) rotate(15.35)" gradientUnits="userSpaceOnUse"><stop offset=".24" stop-color="#2d8263"/><stop offset=".68" stop-color="#75cab1"/><stop offset=".93" stop-color="#9df2db"/></linearGradient></defs><path d="m240.97,227.1c1.45-28.41,10.87-55.38,1.4-85.67-6.93-22.16-23.68-45.09-40.29-67.73-14.27-19.45-28.53-38.9-42.8-58.36-3.51-4.78-10.13-11-18.17-11.29-7.63-.27-7.94,5.17-6.79,9.57,2.43,9.3,4.85,18.59,7.28,27.89-8-1.94-13.79-7.3-15.28-11.73-1.49-4.44.11-8.33.39-12.47.27-4.14-1.17-9.05-7.19-13.09s-17.57-5.87-19.96-2.37c-1.34,1.96.48,4.74,2.26,7.28,10.23,14.5,20.45,29,30.68,43.5-13.06-2-23.17-11.08-26.43-18.42-3.25-7.35-2.75-14.5-8.84-21.88-3.99-4.83-12.59-10.1-20.72-10.35-11.81-.36-10.19,8.94-5.95,15.98,20.25,33.6,47.22,67.23,69.36,100.85,22.14,33.63,39.59,67.83,39.39,98.97-.16,25.92-12.55,49-11.16,75.24,1.39,26.24,20.88,58.58,65.3,79.52,12.23,5.76,26.67,10.54,39.58,10.94,41.96,1.3,4.69-34.89-3.68-49.92-12.99-23.34-21.65-46.52-25.78-68.97-2.35-12.77-3.23-25.3-2.61-37.5Z" style="fill:url(#linear-gradient);"/><path d="m355.98,362.99c-6.96-14.92-20.03-27.48-34.01-38.25-13.97-10.78-29.16-20.22-42.64-31.51-44.63-37.39-65.88-90.72-102.69-134.2-25.89-30.58-59.69-56.19-97.32-73.76-3.82-1.78-8.28-3.53-11.87-2.16-3.58,1.37-3.5,7.49.6,8.2-5.7-3.68-11.58-7.44-18.15-9.09-6.56-1.65-14.05-.69-17.58,3.88-3.53,4.57-.88,12.92,5.64,14.81C17.6,102.44,1.31,117.33,0,135.59c9.06-1.81,19.41,1.9,27.31,7.67,7.9,5.78,13.8,13.41,19.44,20.97,28.36,38.02,53.95,78.06,89.17,111.53,29.24,27.79,64.15,50.12,98.75,72.21,31.51,20.12,63.02,40.24,94.53,60.35,14.56,9.29,24.29,8.57,27.26-5.61,2.9-13.87,6.47-24.83-.49-39.73Z" style="fill:url(#linear-gradient-2);"/><path d="m210.24,400.79c-12.7-8.93-23.38-21.83-38.32-25.87-9.79-2.65-20.14-1.1-30.19.21-10.05,1.31-20.59,2.29-30.05-1.4-9.46-3.69-17.38-13.48-15.64-23.61,1.72-10.05,12.14-19.21,8.06-28.53-2.28-5.2-8.45-7.58-14.05-7.44-5.6.14-10.95,2.23-16.41,3.53-11.09,2.64-22.92,1.98-33.66-1.88-5.35-1.92-10.66-4.83-13.72-9.68s-3.12-11.99,1.11-15.83c5.22-4.73,14.71-3.09,18.57-9.02,3.89-5.96-1.57-13.74-7.42-17.73-5.27-3.6-11.17-6.27-16.06-10.38-4.9-4.11-8.81-10.23-8.08-16.63.74-6.4,7.83-11.93,13.59-9.2,3.11,1.47,5.25,4.9,8.63,5.53,3.5.66,6.93-2.21,8.03-5.64,1.1-3.43.37-7.19-.78-10.6-3.09-9.13-9.11-17.12-11.42-26.49-2.31-9.37,1.08-21.55,10.34-23.8,7.13-1.73,14.31,3.32,18.4,9.49,4.1,6.16,6.17,13.49,9.93,19.87,3.76,6.38,10.16,12.11,17.47,11.57,9.75-.72,17.1-12.15,26.78-10.74,6.92,1.01,11.23,8.35,12.62,15.3,1.39,6.95.92,14.3,3.28,20.98,2.36,6.68,9.11,12.72,15.81,10.7,7.33-2.21,9.85-12.23,16.92-15.18,8.21-3.42,17.03,5.12,18.77,13.95,1.74,8.83-.79,17.92-.54,26.92s4.99,19.32,13.81,20.4c10.49,1.28,18.92-11.23,29.43-10.17,6.32.64,11.21,6.23,13.42,12.26,2.22,6.03,2.4,12.6,3.29,18.98,2.5,17.87,10.92,34.83,23.59,47.5,5.71,5.71,12.22,10.54,17.97,16.21,5.75,5.66,10.85,12.4,12.74,20.31,1.88,7.9-.06,17.12-6.32,22.2-5.89,4.77-12.64,3.27-18.96.71-6.34-2.57-11.44-2.06-18.27-2.37-15.16-.69-30.15-5.66-42.64-14.44Z" style="fill:url(#linear-gradient-3);"/><path d="m228.12,375.05c-13.24-14.22-25.22-30.49-42.35-39.46-18.25-9.56-41.06-10.05-56.62-23.66-15.92-13.91-19.76-37.71-33.92-53.47-10.22-11.37-25.68-17.68-40.81-16.65,16.45-3.89,34.82,2.35,45.64,15.5,12.77,15.51,15.48,39.13,31.93,50.54,9.87,6.85,22.51,7.59,33.95,11.11,22.97,7.05,40.39,24.89,57.05,41.51,8.59,8.56,17.2,17.18,26.81,24.57,4.66,3.59,9.56,6.89,14.74,9.67,1.23.66,7.47,2.66,7.89,3.79,1.06,2.82-2.97,2.87-4.72,2.7-15.17-1.53-29.71-15.53-39.59-26.14Z" style="fill:#9df2db;"/><path d="m163.23,347.87c-9.79-.47-19.11,4.13-28.68,6.3-9.57,2.16-20.41,2.43-28.28-3.5,9.43,3.64,20.01,2.01,29.77-.59,9.76-2.6,19.66-8.22,29.56-6.21,9.41,1.92,22.88,10.4,47.27,33.4-8.36-5.13-33.32-28.62-49.64-29.4Z" style="fill:#9df2db;"/><path d="m63.27,296.22c-11.11,2.52-22.3,6.93-33.51,4.88,7.67.18,15.16-2.14,22.42-4.65,7.26-2.51,14.52-5.77,22.18-5.93,9.02-.19,31.59,5.95,43.84,30.71-19.08-24.34-35.59-29.41-54.94-25.02Z" style="fill:#9df2db;"/><path d="m67.16,260.75c-8.78-2.23-18.06-2.19-26.63-5.15-8.56-2.96-16.75-10.29-16.57-19.46,2.92,8.23,11.33,13.14,19.64,15.48,8.3,2.34,17.09,2.83,25.19,5.81,5.86,2.15,14.11,7.05,15.5,13.83-4.69-5.22-10.25-8.75-17.13-10.5Z" style="fill:#9df2db;"/><path d="m107.27,233.34c-.71-9.35,1.66-18.92,6.65-26.82.34,5.53-1.72,10.88-2.84,16.31-1.12,5.41-1.27,11-.52,16.47.6,4.33,4.09,14.07,7.84,25.4-4.02-5.31-10.63-24.79-11.13-31.37Z" style="fill:#9df2db;"/><path d="m47.37,174.34c6.21,19.53,22.16,35.23,24.2,56.36-4.44-7.64-7.72-16.4-11.62-24.37-5.03-10.3-9.25-21.01-12.58-31.99Z" style="fill:#9df2db;"/><path d="m759.61,230.84c7.49-35.71,21.48-69.65,35.39-103.35,13.38-32.4,26.75-64.8,40.13-97.21,3.37-8.16,6.89-16.55,13.17-22.71,6.28-6.16,16.09-9.56,24.01-5.78s11,16.26,4.18,21.8c5.85-6.69,12.47-13.82,21.23-15.09,8.76-1.27,18.88,7.39,15.42,15.61,17.44-10.78,38.96-14.66,59.03-10.63,7.69,1.54,16.36,5.54,17.64,13.34.6,3.66-.63,7.36-1.99,10.8-6.7,16.97-17.05,32.46-30.11,45.11-12.92,12.51-28.36,22.18-40.96,35-19.06,19.38-30.6,44.82-41.77,69.69-11.88,26.46-23.76,52.93-35.65,79.39-10.16,22.62-20.4,45.4-34.55,65.72-14.15,20.32-32.6,38.28-55.3,47.9-5.22,2.21-10.96,3.99-16.47,2.7-18-4.22-5.06-20.52-.57-29.72,5.99-12.3,10.01-25.47,13.04-38.8,6.29-27.64,8.31-56.04,14.12-83.77Z" style="fill:url(#linear-gradient-4);"/><path d="m778.82,317.85c7.77-31.53,13.16-64.18,28.03-93.01,22.91-44.42,65.68-74.71,108.99-99.2,3.78-2.14,7.7-4.28,12.01-4.77,4.31-.48,9.13,1.11,11.25,4.92s.08,9.68-4.2,10.3c13.12-11.41,31.39-16.54,48.47-13.61,4.31.74,8.9,2.21,11.36,5.86,2.46,3.65,1.17,9.87-3.12,10.73,13.52-6.72,30.3-3.38,42.94,4.91,12.63,8.29,21.86,20.83,30.24,33.46-11.38-15.39-34.3-18.38-51.87-11-17.57,7.38-30.53,22.87-40.59,39.17-10.06,16.3-17.97,33.97-29.38,49.34-16.86,22.74-40.45,39.29-63.62,55.44-29.21,20.36-58.42,40.72-87.63,61.08-11.4,7.95-22.8,15.89-34.21,23.84-14.6,10.18-11.83-.27-5.22-10.28,12.61-19.1,23.13-44.4,26.54-67.2Z" style="fill:url(#linear-gradient-5);"/><path d="m759.28,299.32c5.68-10.05,11.25-20.34,19.16-28.71,7.91-8.38,18.62-14.77,30.09-14.8,16.75-.04,33.75,13.07,48.93,5.93,11.1-5.22,15.24-19.14,15.38-31.49.1-8.9-.05-20.03,7.87-23.95,7.65-3.79,16.42,2.8,21.24,9.89,4.82,7.09,8.86,15.75,16.83,18.78,8.8,3.35,18.72-1.89,24.98-8.97,6.25-7.08,10.22-15.95,16.3-23.19,6.08-7.24,15.61-12.93,24.63-10.24,7.03,2.09,12.02,9.18,12.6,16.55.58,7.37-2.82,14.73-8.15,19.82-2.47,2.36-5.36,4.32-7.38,7.08-2.02,2.76-2.98,6.73-1.11,9.6,2.17,3.34,7.03,3.61,10.77,2.32,3.75-1.29,7.05-3.73,10.89-4.72,9.77-2.52,20.07,6.13,21.46,16.2,1.39,10.08-4.51,20.14-12.75,26.01s-18.45,8.19-28.48,9.31c-10.03,1.12-20.19,1.2-30.08,3.18-4.57.92-10.07,3.58-9.75,8.26.39,5.77,8.27,6.54,13.71,8.38,12.54,4.26,15.94,22.43,8.6,33.53-7.33,11.1-21.53,15.67-34.76,15.77-18.9.15-37.02-7.08-55.68-10.15-18.66-3.07-40.36-.75-52.23,14.08-4.31,5.38-6.91,11.95-10.89,17.59-7.77,10.99-20.1,17.6-31.97,23.83-9.03,4.73-18.31,9.54-28.42,10.7-9.94,1.13-19.91-1.37-29.55-4.09-8.92-2.52-35.21-5.63-36.67-17.3-1.25-9.94,18.33-21.54,24.5-28.08,19.92-21.14,35.67-45.88,49.94-71.13Z" style="fill:url(#linear-gradient-6);"/><path d="m748.25,373.38c15.69-13.37,28.67-29.45,42.89-44.31,14.22-14.86,30.17-28.81,49.55-36.33,20.39-7.91,43.01-8.15,64.67-11.87,21.66-3.72,44.34-12.36,55.16-31.02-9.59,17.34-26.12,30.8-45.31,36.91-23.48,7.47-49.79,4.13-72.85,12.71-25.52,9.5-43.06,31.92-59.77,52.99s-35.55,42.87-61.86,50.12c-3.59.99-19.11,4.31-21.85.17-2.94-4.45,9.77-6.68,12.42-7.56,13.74-4.58,26.08-12.54,36.94-21.79Z" style="fill:#9df2db;"/><path d="m889.16,332.33c9.59.79,19.1,2.63,28.72,2.8,9.62.17,19.63-1.49,27.51-7.06-6.55,7.29-16.59,10.56-26.34,11.07-9.75.52-19.44-1.4-29.08-2.9-9.63-1.51-18.8-1.93-28.43-.71,8.61-3.76,18.4-3.96,27.61-3.2Z" style="fill:#9df2db;"/><path d="m874.34,259.87c9.85-12.02,14.98-27.86,14.08-43.43,4.89,17.88-1.51,38.38-15.68,50.21-5.17,4.32-10.94,7.74-15.89,12.34,0-3.02,5.44-6.71,7.54-8.74,3.45-3.33,6.91-6.67,9.95-10.39Z" style="fill:#9df2db;"/><path d="m942.1,243.73c7.81-5.19,15.31-10.99,21.47-18.1,6.16-7.1,10.96-15.58,12.79-24.84-.61,10.72-5.87,20.75-12.88,28.84-7.01,8.09-15.7,14.47-24.4,20.67-3.72,2.65-7.46,5.28-11.11,8.03-3.47,2.63-6.82,6.32-10.51,8.44-3.64-6.67,20.34-20.2,24.64-23.05Z" style="fill:#9df2db;"/><path d="m974.44,274.75c6.57-.23,12.98.84,19.58.28,6.6-.56,13.73-3.04,18.72-8.93-3.75,7.11-10.97,11.16-17.72,12.36-6.75,1.2-13.31.08-19.92-.31-6.88-.4-12.63,1.15-19.39,3.52,4.72-5.46,12.97-6.72,18.73-6.92Z" style="fill:#9df2db;"/></svg>