<?xml version="1.0" encoding="UTF-8"?>
<svg id="_Слой_1" data-name="Слой 1" xmlns="http://www.w3.org/2000/svg" xmlns:xlink="http://www.w3.org/1999/xlink" viewBox="0 0 737.06 400">
  <defs>
    <linearGradient id="linear-gradient" x1="432.69" y1="243.86" x2="573.89" y2="58.81" gradientUnits="userSpaceOnUse">
      <stop offset=".22" stop-color="#004445"/>
      <stop offset=".4" stop-color="#034947"/>
      <stop offset=".63" stop-color="#0f594f"/>
      <stop offset=".88" stop-color="#21725b"/>
      <stop offset="1" stop-color="#2d8263"/>
    </linearGradient>
    <linearGradient id="linear-gradient-2" x1="480.21" y1="335.54" x2="660.11" y2="79.26" gradientUnits="userSpaceOnUse">
      <stop offset=".24" stop-color="#10603d"/>
      <stop offset=".35" stop-color="#2b7444"/>
      <stop offset=".56" stop-color="#579650"/>
      <stop offset=".74" stop-color="#78ae58"/>
      <stop offset=".89" stop-color="#8bbd5e"/>
      <stop offset="1" stop-color="#93c360"/>
    </linearGradient>
    <linearGradient id="linear-gradient-3" x1="459.89" y1="415.42" x2="698.11" y2="159.71" gradientUnits="userSpaceOnUse">
      <stop offset=".08" stop-color="#10603d"/>
      <stop offset=".44" stop-color="#2d8263"/>
      <stop offset=".73" stop-color="#72c7ad"/>
      <stop offset=".91" stop-color="#9df2db"/>
    </linearGradient>
    <linearGradient id="linear-gradient-4" x1="329.14" y1="261.71" x2="216.54" y2="21.95" gradientUnits="userSpaceOnUse">
      <stop offset=".43" stop-color="#004445"/>
      <stop offset=".55" stop-color="#044a47"/>
      <stop offset=".72" stop-color="#105b50"/>
      <stop offset=".9" stop-color="#25775d"/>
      <stop offset=".96" stop-color="#2d8263"/>
    </linearGradient>
    <linearGradient id="linear-gradient-5" x1="305.42" y1="325.44" x2="149.52" y2="40.04" gradientUnits="userSpaceOnUse">
      <stop offset=".35" stop-color="#10603d"/>
      <stop offset=".42" stop-color="#216c41"/>
      <stop offset=".69" stop-color="#5e9b51"/>
      <stop offset=".89" stop-color="#84b85c"/>
      <stop offset="1" stop-color="#93c360"/>
    </linearGradient>
    <linearGradient id="linear-gradient-6" x1="269.38" y1="372.92" x2="9.12" y2="101.88" gradientUnits="userSpaceOnUse">
      <stop offset="0" stop-color="#10603d"/>
      <stop offset=".34" stop-color="#2d8263"/>
      <stop offset=".88" stop-color="#9df2db"/>
    </linearGradient>
  </defs>
  <path d="M615.38,42.87c-3.64,11.71-8.97,22.89-15.75,33.11-1.19,1.8-2.41,3.56-3.69,5.28h0c-2.31,3.14-4.77,6.17-7.37,9.09-12.05,13.52-26.86,24.41-38.56,38.23-12.74,15.03-21.31,32.89-28.58,51.31-.9,2.29-1.79,4.59-2.65,6.89-.28.74-.56,1.48-.83,2.22-1.57,4.18-3.08,8.37-4.6,12.55-1.14,3.16-2.28,6.31-3.43,9.48h0c-2.61,7.23-5.22,14.44-7.84,21.67h0c-2.17,6.04-4.36,12.06-6.54,18.09-.34.96-.69,1.92-1.04,2.88h0c-.48,1.33-.95,2.64-1.43,3.96l-4.19,11.59s0,0,0,0c-.03.09-.06.17-.09.26-.16.46-.33.92-.5,1.38-1.19,3.3-2.39,6.6-3.58,9.9-.36,1-.72,1.99-1.08,2.98-3.52,9.74-7.05,19.51-10.9,29.13-.95,2.39-1.91,4.76-2.91,7.13-.17.39-.33.77-.49,1.16,0,0,0,0,0,0-.57,1.34-1.14,2.68-1.72,4.01-4.05,9.24-8.52,18.3-13.66,26.99-2.09,3.54-3.61,7.42-4.77,11.48-3.43,11.9-3.89,25.33-7.29,36.36h-69.59c-4.79-7.81-3.93-18.95-1.45-25.16,1.59-3.97,4.1-7.63,6.89-11.2.96-1.23,1.95-2.44,2.94-3.66,5.4-6.61,10.92-13.15,12.09-21.05.69-4.68,1.27-9.36,1.76-14.05.17-1.63.33-3.25.48-4.88.23-2.52.45-5.03.65-7.54.41-5.15.76-10.31,1.11-15.47.32-4.83.63-9.66.97-14.49.65-9.25,1.43-18.49,2.62-27.68.03-.25.06-.5.09-.76,3.55-27.1,10.84-53.49,19.04-79.61,2.78-8.86,5.67-17.69,8.55-26.49,10.95-33.45,21.9-66.9,32.84-100.36.21-.65.43-1.32.65-1.97,2.58-7.79,5.46-15.64,10.85-21.77,5.85-6.66,15.48-10.83,23.76-7.68,7.25,2.76,11.29,12.47,7.86,18.93,4.92-6.33,10.57-12.49,18.28-14.23,8.73-1.96,19.61,5.9,16.77,14.39,16.74-12.16,38.14-17.73,58.68-15.29,7.87.94,16.93,4.25,18.84,11.94.89,3.61-.06,7.4-1.16,10.96Z" style="fill: url(#linear-gradient); stroke-width: 0px;"/>
  <path d="M472.08,293.47c3.06-32.44,3.56-65.63,14.12-96.45,16.27-47.51,54.51-83.98,94.16-114.8,3.46-2.69,7.06-5.41,11.29-6.54s9.3-.28,11.98,3.18c2.69,3.46,1.53,9.59-2.66,10.85,11.42-13.29,28.92-21.13,46.44-20.8,4.42.08,9.23.85,12.23,4.1,3,3.25,2.65,9.61-1.51,11.11,12.51-8.7,29.8-7.92,43.67-1.6,13.87,6.32,24.97,17.36,35.25,28.62-13.68-13.54-37.05-13.05-53.52-3.08-16.47,9.97-27.11,27.28-34.73,44.96-7.62,17.68-12.9,36.39-22,53.36-13.46,25.09-34.58,45.06-55.33,64.57-26.16,24.59-52.33,49.19-78.49,73.78-10.21,9.6-20.43,19.2-30.64,28.8-13.08,12.3-11.87,1.52-6.76-9.41,9.76-20.84,16.49-47.51,16.49-70.64Z" style="fill: url(#linear-gradient-2); stroke-width: 0px;"/>
  <path d="M706.61,228.5c-6.47,7.88-15.82,12.86-25.29,16.63-9.48,3.77-19.37,6.56-28.49,11.13-4.21,2.11-8.87,6.15-7.32,10.6,1.91,5.48,9.81,4.11,15.6,4.44,13.36.76,21.5,17.42,17.29,30.12-4.21,12.71-16.84,20.92-29.72,24.56-18.39,5.21-37.99,3.06-56.99,5.09-4.71.5-9.52,1.37-14.2,2.68-14.21,3.93-27.26,11.75-33.01,24.93-.71,1.61-1.28,3.27-1.79,4.96-1.49,4.95-2.39,10.1-4.17,14.96-2.99,8.15-8.28,15.07-14.32,21.4h-95.02c2.39-3.29,4.56-6.25,5.78-8.52,4.84-9.03,9.06-18.34,12.81-27.85,4.92-12.47,9.04-25.28,12.69-38.19.51-1.82,1.01-3.63,1.51-5.45.47-1.72.93-3.44,1.38-5.16h0c.49-1.84.96-3.67,1.43-5.51.71-2.75,1.4-5.51,2.12-8.25.63-2.36,1.27-4.71,1.97-7.05,1.19-3.99,2.54-7.93,4.17-11.74h0c.85-1.99,1.78-3.95,2.81-5.86.98-1.83,2.07-3.63,3.27-5.36.69-1.01,1.43-2,2.19-2.96,3.31-4.17,7.25-7.83,11.75-10.49,1-.6,2.01-1.14,3.06-1.63.04-.02.09-.04.15-.07,1.31-.6,2.66-1.13,4.05-1.56.32-.1.64-.2.96-.28,11.24-3.12,24.26-.24,35.49-1.72,5.08-.68,9.78-2.24,13.8-5.65,5.83-4.95,8.2-12.41,8.4-20.21.13-4.65-.51-9.44-1.64-13.89-.04-.15-.07-.31-.12-.47-.15-.55-.3-1.12-.44-1.69-2.18-8.31-4.49-18.04,1.76-23.58,6.46-5.71,16.76-1.69,23.35,3.87,6.58,5.56,12.82,12.86,21.4,13.66,5.48.51,10.57-1.87,14.71-5.61,3-2.72,5.49-6.16,7.27-9.75,4.22-8.52,5.74-18.16,9.75-26.79,3.37-7.25,9.41-14.1,16.91-15.99,1.42-.36,2.89-.54,4.4-.51,7.41.14,14.15,5.66,16.68,12.63,2.52,6.97,1.16,15-2.68,21.35-1.78,2.95-4.09,5.61-5.32,8.83-1.24,3.21-1.11,7.31,1.47,9.58,3,2.65,7.81,1.61,11.12-.63,3.31-2.25,5.89-5.5,9.37-7.48,8.86-5.06,21.2.55,25.23,9.92,4.03,9.37.95,20.69-5.53,28.57Z" style="fill: url(#linear-gradient-3); stroke-width: 0px;"/>
  <path d="M403.23,400h-72.28c-3.62-6.15-6.63-12.75-9.03-19.54-1.96-5.52-3.51-11.17-4.68-16.82-.31-1.52-.6-3.04-.86-4.55-2.01-11.81-2.74-23.74-3.1-35.7-.04-1.13-.07-2.25-.09-3.38-.06-2.18-.1-4.36-.15-6.54t0,0c-.04-2.96-.09-5.93-.14-8.89-.13-7.63-.28-15.27-.71-22.87-.29-5.39-.72-10.77-1.36-16.13-.13-1.11-.27-2.22-.42-3.33-1.06-7.76-2.6-15.43-4.53-23-2.26-8.87-5.08-17.61-8.33-26.22-5.19-13.73-11.48-27.13-18.41-40.19,0,0,0-.01-.01-.02-3.43-6.46-7.02-12.84-10.7-19.13-9.48-16.19-19.64-31.99-29.72-47.85-10.97-17.27-21.83-34.62-31.52-52.59-3.7-6.87-6.26-17.07-.06-21.21.33-.23.68-.43,1.05-.61,5.18-2.52,11.52.99,14.87,5.57,5.12,6.99,6.04,16,9.37,23.94,3.32,7.95,11.28,15.64,19.87,13.56-8.96-14.36-17.93-28.71-26.89-43.06-1.57-2.51-3.2-5.31-2.69-8.2.91-5.16,8.52-6.92,13.02-4.02,4.49,2.9,6.26,8.47,6.8,13.67.55,5.21.21,10.57,1.91,15.53,1.19,3.45,3.75,6.71,7.01,8.26,1.44.69,3.02,1.04,4.67.92-.91-3.08-1.82-6.16-2.73-9.24-2.23-7.56-4.47-15.12-6.69-22.68-1.49-5.05-2.23-11.88,2.63-14.2,5.13-2.44,10.39,2.93,13.42,7.61,4.47,6.89,8.94,13.78,13.41,20.67,7.9,12.17,15.8,24.35,23.7,36.52,14.4,22.19,28.95,44.68,37.15,69.64,3.48,10.58,5.75,21.4,7.35,32.35v.07c3.04,20.7,3.67,41.88,5.48,62.84.07.84.15,1.67.23,2.52.25,2.73.52,5.47.82,8.2l.04.37c1.06,9.45,2.51,18.86,4.33,28.2.97,4.96,2.04,9.91,3.22,14.83.19.8.39,1.59.58,2.39.13.52.26,1.05.39,1.58.54,2.13,1.09,4.25,1.67,6.37h0c1.3,4.82,2.71,9.6,4.22,14.36.46,1.45.93,2.92,1.41,4.37,3.99,12.09,8.62,23.98,13.86,35.61.55,1.23,1.11,2.44,1.68,3.66,1.6,3.45,3.26,6.88,4.97,10.28,3.35,6.67,10.69,16.26,15.93,26.08Z" style="fill: url(#linear-gradient-4); stroke-width: 0px;"/>
  <path d="M352.54,400h-76.56c-1.92-4.14-3.61-8.4-5.11-12.71-.65-1.87-1.27-3.75-1.86-5.62-1.88-5.96-3.49-11.99-5.06-18.04-2.84-10.89-5.56-21.82-9.43-32.39-.24-.66-.49-1.32-.75-1.97-1.19-3.14-2.48-6.24-3.86-9.28-.2-.45-.4-.89-.6-1.33-.6-1.29-1.21-2.57-1.83-3.84-.37-.76-.74-1.51-1.13-2.25-1.05-2.1-2.16-4.19-3.3-6.25-1.56-2.81-3.18-5.6-4.87-8.35-1.68-2.77-3.43-5.5-5.22-8.2h0c-2.14-3.23-4.34-6.41-6.6-9.56-4.5-6.28-9.23-12.45-14.08-18.57-.79-1-1.59-2-2.39-3-4.94-6.17-9.99-12.31-15.01-18.47-2.41-2.95-4.83-5.91-7.22-8.87-11.26-13.96-22.16-28.15-31.4-43.32-7.64-12.55-14.11-25.8-19.33-39.51-.79-2.05-1.55-4.12-2.27-6.19-3.1-8.81-5.69-17.81-7.75-26.92-3.21-14.18-5.16-28.64-5.75-43.16-.17-4.12,0-8.82,3.15-11.55,2.29-1.99,6.43-1.27,8.06.81-1.12-5.65-1.97-11.4-.9-17.03,1.24-6.57,5.75-12.99,12.36-14.47,6.6-1.48,14.44,4.04,13.48,10.65,11.1-17.85,34.81-27.03,55.26-21.37-3,3.67-4.73,8.12-5.39,12.79-.71,4.89-.25,10.04,1.08,14.81,2.62,9.32,8.18,17.53,13.78,25.47,7.41,10.49,15.06,20.87,22.68,31.28,21.35,29.16,42.44,58.51,57.23,91.27,2.44,5.42,4.71,10.91,6.81,16.45,1.68,4.43,3.27,8.9,4.76,13.4,1.14,3.42,2.23,6.85,3.26,10.3,2.52,8.3,4.76,16.68,6.84,25.13,1.09,4.44,2.14,8.9,3.14,13.37,2.37,10.48,4.54,21.02,6.67,31.54.38,1.88.76,3.75,1.13,5.62.05.23.09.44.14.67.58,2.89,1.16,5.77,1.75,8.66.25,1.27.52,2.55.77,3.83,2.68,13.27,5.35,26.54,8.03,39.81,2.44,12.12,4.89,24.24,7.33,36.36Z" style="fill: url(#linear-gradient-5); stroke-width: 0px;"/>
  <path d="M335.93,400h-118.47c-11.31-13.5-21.56-28.27-37.18-35.93-12.55-6.15-26.96-6.84-40.91-7.78-13.94-.94-28.45-2.44-40.28-9.89-11.83-7.44-19.97-22.62-14.95-35.67,4.98-12.94,21.48-22.38,18.41-35.89-1.71-7.54-9.44-12.36-17.05-13.67-7.62-1.31-15.4.05-23.13.32-15.69.56-31.53-3.48-45.04-11.5-6.73-3.99-13.15-9.29-16.01-16.57-2.87-7.28-1.07-16.83,5.67-20.81,8.31-4.91,20.71-.2,27.5-7.06,6.83-6.92,1.48-18.75-5.37-25.63-6.19-6.21-13.46-11.35-19-18.13-5.54-6.79-9.23-15.99-6.55-24.33,2.68-8.34,13.73-13.81,20.8-8.64,3.82,2.8,5.82,7.93,10.22,9.68,4.55,1.81,9.95-1.09,12.34-5.37,2.39-4.28,2.4-9.49,1.74-14.34-1.77-13-7.82-25.27-8.48-38.38-.65-13.11,7.13-28.44,20.25-28.97,10.09-.41,18.48,8.25,22.4,17.56,3.91,9.32,4.8,19.64,8.2,29.15,3.41,9.51,10.56,18.87,20.59,20.09,5.16.63,10.25-.95,15.28-2.87,6.46-2.47,12.83-5.51,19.14-5.19,1.55.07,3.09.36,4.63.89,9.11,3.19,13,14.13,13.05,23.77.01,2.7-.18,5.4-.43,8.1-.65,6.95-1.69,13.88-.66,20.75,1.43,9.54,8.97,19.4,18.57,18.49,10.47-.99,16.5-13.61,26.79-15.71.03,0,.07-.01.09-.02,9.28-1.83,17.17,5.96,20.3,15.24.92,2.73,1.43,5.59,1.43,8.37,0,3.41-.44,6.76-1.13,10.08-.95,4.59-2.38,9.12-3.72,13.67-1.15,3.89-2.24,7.8-2.92,11.77-.01.08-.03.15-.04.23-.89,5.22-.69,11,.76,16.17,1.13,4.08,3.05,7.78,5.82,10.55,1.85,1.87,4.09,3.32,6.73,4.17,12.18,3.96,25.02-6.72,37.42-6.48.79.01,1.59.07,2.38.19.73.09,1.47.25,2.2.45.17.04.33.09.5.14,6.86,2.08,11.54,8.32,13.8,15.25.05.15.1.31.15.47.43,1.39.76,2.81,1,4.22.66,4.06.68,8.16.48,12.28-.24,4.63-.78,9.28-1.03,13.91-.02.36-.04.73-.05,1.09-.17,3.84-.14,7.69.09,11.52.2,3.43.57,6.85,1.08,10.25.15,1,.31,2.01.5,3.02,2.57,14.38,7.91,28.27,15.72,40.62.66,1.06,1.35,2.11,2.06,3.15,3.21,4.73,6.79,9.2,10.35,13.67,3.32,4.17,6.65,8.35,9.69,12.74,1.52,2.2,2.97,4.47,4.31,6.8Z" style="fill: url(#linear-gradient-6); stroke-width: 0px;"/>
  <path d="M648.95,209.56c-4.76,19.34-17.29,36.79-34.39,47.82-11.11,7.17-23.81,11.61-36.31,16.37-3.51,1.34-7.02,2.7-10.46,4.15-2.42,1.03-4.81,2.1-7.17,3.24-1,.48-2.01.98-3,1.5-3.45,1.8-6.8,3.77-9.99,6.01-.25.17-.5.35-.75.52-3.46,2.48-6.65,5.2-9.61,8.14h0c-2.3,2.28-4.47,4.68-6.51,7.18-2.45,3-4.73,6.15-6.88,9.42-.94,1.43-1.85,2.87-2.73,4.33-.36.57-.7,1.16-1.05,1.75-1.45,2.48-2.85,5.01-4.18,7.58-4.91,9.38-9.11,19.23-13.26,28.84-1.03,2.4-2.08,4.81-3.16,7.21-5.67,12.71-12.07,25.42-20.41,36.36h-15.43c4.01-4.47,7.69-9.23,11.05-14.14,4.9-7.14,9.22-14.63,13.31-22.23,4.95-9.22,9.57-18.63,14.49-27.88.74-1.42,1.51-2.83,2.27-4.23.8-1.46,1.61-2.92,2.44-4.38,1.36-2.4,2.76-4.79,4.21-7.15,2.21-3.61,4.52-7.16,6.97-10.6.12-.18.25-.36.39-.54,6.96-9.71,14.99-18.59,24.68-25.74,6.32-4.66,13.18-8.46,20.3-11.84,4.5-2.15,9.11-4.12,13.76-6.04,8.65-3.58,17.42-6.97,25.86-10.91,20.14-9.4,39.96-23.83,45.56-44.76Z" style="fill: #9df2db; stroke-width: 0px;"/>
  <path d="M601.25,308.44c9.56-1.81,19.33-2.57,28.75-4.98,9.43-2.41,18.75-6.7,24.96-14.19-4.46,8.81-13.38,14.65-22.75,17.76-9.37,3.11-19.33,3.85-29.13,4.98-9.79,1.12-18.84,3.17-27.91,6.92,7.4-5.94,16.9-8.75,26.08-10.49Z" style="fill: #9df2db; stroke-width: 0px;"/>
  <path d="M567.57,242.34c6.41-14.26,7.22-30.96,2.2-45.77,9.52,15.98,8.72,37.52-1.96,52.75-3.9,5.56-8.61,10.42-12.22,16.19-.8-2.93,3.52-7.94,5.03-10.47,2.48-4.15,4.97-8.3,6.95-12.71Z" style="fill: #9df2db; stroke-width: 0px;"/>
  <path d="M629.37,208.59c6.24-7.11,12.01-14.73,16.13-23.25s6.55-18,5.88-27.44c2.25,10.53-.22,21.64-4.9,31.34s-11.47,18.2-18.31,26.52c-2.93,3.56-5.87,7.1-8.7,10.74-2.69,3.47-4.98,7.94-8.01,10.98-5.32-5.48,14.48-24.98,17.91-28.89Z" style="fill: #9df2db; stroke-width: 0px;"/>
  <path d="M669.14,229.93c6.35-1.98,12.88-2.66,19.17-4.97,6.29-2.31,12.59-6.61,15.89-13.65-1.77,7.88-7.74,13.73-14.01,16.69-6.27,2.97-12.96,3.64-19.51,5.04-6.81,1.45-12.01,4.49-17.97,8.6,3.15-6.55,10.87-9.97,16.43-11.71Z" style="fill: #9df2db; stroke-width: 0px;"/>
  <path d="M195.99,266.46l.14.16c-1.85-.32-3.64-.47-4.66-.58-4.41-.47-8.9-.16-13.2.9,4.46-.1,8.81,1.17,13.16,2.14,3.09.7,7.44,2.25,10.55.86,3.47,2.04,6.9,4.11,10.32,6.21-2.32.15-4.42.48-5.63.75-6.72,1.47-12.91,5.29-17.23,10.65,5.46-3.9,12.73-3.69,19.42-3.38,2.24.11,10.77.82,14.32-1.09.17.09.32.2.48.31,7.73,5.11,15.24,10.52,22.3,16.24-1.69-.49-3.27-.84-4.21-1.05-8.59-1.94-17.92-.8-25.62,3.56,4.28-1.48,8.99-.88,13.35.3,4.37,1.18,8.58,2.93,13.03,3.79,1.67.31,8.62,1.11,10.57-.56,3.82,3.38,7.47,6.88,10.87,10.49,1.83,1.95,3.6,3.92,5.29,5.91-4.32-2.84-9.14-4.9-14.16-6.1-6.08-1.46-12.49-1.65-18.62-.44,4.75-.94,11.19,2.34,15.32,4.31,5.06,2.4,9.93,5.26,15.28,7.01,1.46.48,5.09,2.16,6.13.5.07-.1.11-.19.15-.28,2.8,3.57,5.43,7.18,7.93,10.8,2.55,3.71,4.97,7.44,7.31,11.19,1.43,2.28,3.84,8.2,6.54,9.79,1.62-1.7-1.52-7.69-2.5-10.14-1.81-4.51-4.07-8.83-6.6-12.97-1.33-2.2-3.1-3.97-4.34-6.06l.54.25c-.44-.63-.89-1.26-1.36-1.88-.23-.54-.4-1.11-.53-1.73-2.06-10.3-1.59-21.51.26-31.78-4.27,4.73-6.69,11.1-6.61,17.48.04,3.41.79,6.8,2.13,9.93-3.13-3.83-6.54-7.57-10.18-11.2-.46-.46-.93-.93-1.41-1.39.63-1.35-.09-4.82-.05-6.18.25-7.47,2.35-14.87,6.14-21.31-2.72,2.18-5.08,4.8-6.99,7.71-2.21,3.35-3.82,7.2-3.9,11.2-.02,1.18.12,2.92.56,4.58-2.75-2.51-5.6-4.97-8.55-7.35-.02-.02-.04-.04-.06-.06-.79-5.64-2.68-10.59-2.09-16.62.59-6.12,2.61-12.14,5.98-17.3-5.69,4.03-10.03,10.25-10.94,17.17-.55,4.06.3,9.36,2.68,13.33-3.56-2.75-7.24-5.38-11.02-7.91,1.51-1.99-.98-9.48-1.09-12.07-.2-4.77.18-9.57,1.19-14.24-2.51,3.28-4.91,6.7-6.39,10.55-1.31,3.47-1.89,7.42-.9,11.06-1.66-1.04-3.32-2.06-5-3.05-.81-.5-1.64-.98-2.47-1.47-1.63-.95-3.3-1.9-4.97-2.81-1.66-2.53-2.8-6.7-3.47-8.89-1.19-3.92-1.63-8.17-.55-12.13-2.99,3.68-4.22,8.71-3.27,13.36.33,1.63.93,3.2,1.77,4.66-5.6-2.98-11.29-5.78-17.03-8.42h-.01c-2.14-2.36-4.12-4.95-5.86-7.58-4.44-6.72-7.43-14.38-8.67-22.35-2.54,6.08-2.37,13.22.45,19.17.97,2.06,2.24,3.94,3.77,5.62-1.26-.44-2.55-.77-3.87-1.01-.28-.05-.56-.09-.83-.14-1.99-.32-4.02-.44-6.03-.38-6.12.19-12.11,1.98-17.74,4.41,5.73-.55,11.08-1.04,16.77-.65,4.88.33,9.76.63,14.65.95,3.09,1.75,6.18,3.51,9.25,5.29h.01Z" style="fill: #f7e9de; stroke-width: 0px;"/>
  <path d="M281.21,400h-13.31c-4.72-6.09-8.87-12.37-12.42-18.01-3.79-6.01-7.42-12.2-11.1-18.36-7.53-12.58-15.28-25.02-25.07-35.56-2.64-2.84-5.43-5.55-8.41-8.08-.76-.66-1.55-1.3-2.34-1.93-1.64-1.3-3.32-2.54-5.04-3.73-.17-.12-.35-.25-.53-.36-1.11-.76-2.23-1.5-3.37-2.22-.91-.59-1.83-1.16-2.76-1.71-1.45-.88-2.91-1.73-4.39-2.56-19.29-10.88-40.76-18.83-54.28-36.09-17.88-22.81-16.81-55.57-31.81-80.36-10.83-17.9-30.09-30.44-50.84-33.11,23.28-.8,46.49,12.42,57.67,32.85,13.19,24.1,10.64,56.32,29.89,75.92,11.56,11.77,28.45,16.14,43.01,23.88,3.59,1.91,7.03,4.01,10.33,6.29.07.05.14.1.21.15,2.35,1.63,4.63,3.34,6.84,5.13,2.67,2.15,5.24,4.41,7.72,6.76h0c1.28,1.21,2.52,2.42,3.76,3.67,1.25,1.27,2.48,2.55,3.69,3.86.04.03.07.07.09.09,1.05,1.13,2.09,2.29,3.11,3.45,2.38,2.7,4.68,5.47,6.92,8.29,8.44,10.58,16.07,21.88,23.57,32.88.56.82,1.12,1.64,1.69,2.47,5.45,7.99,10.95,15.96,16.81,23.66,3.31,4.34,6.73,8.6,10.34,12.71Z" style="fill: #9df2db; stroke-width: 0px;"/>
  <path d="M504.82,325.17c7.54-7.99,13.99-16.79,21.37-24.88-.02.16-.02.34,0,.53.23,1.72,2.72,2.33,3.94,3.21,1.77,1.28,3.28,2.92,5.19,4.01,1.96,1.13,4.51,1.64,6.45.48,1.69-1.02,2.52-3.18,2.23-5.13-.31-1.96-1.63-3.66-3.3-4.72-1.67-1.07-3.67-1.53-5.64-1.62-1.35-.07-4.64.07-6.82,1.02,1.97-2.07,4.01-4.08,6.16-6.01,3.35-3.02,6.89-5.88,10.59-8.47.35,2.07,2.06,4.55,3.36,5.85,2.02,2.02,5.33,3,7.82,1.61,1.63-.91,2.68-2.75,2.73-4.63.05-1.87-.88-3.73-2.35-4.9-1.63-1.29-3.8-1.74-5.89-1.63h-.06c4.6-2.82,9.44-5.23,14.47-7.11.09,2.25,3.66,6.52,5.38,7.94,1.99,1.6,4.99,2.52,7.33,1.59,2.52-1.01,3.4-3.93,2.3-6.27-1.12-2.3-3.77-3.94-6.54-4.66-.38-.09-.9-.21-1.5-.33l-.05.02c.06-.09.75-.65.74-.7.01-.02.03-.02.04-.02-1.52.02-3.04.1-4.55.27-.21.02-.41.04-.6.07-3.69.42-7.34,1.24-10.9,2.39,1.31-1.71,1.57-5.08,1.88-6.63.31-1.82.44-3.91-.78-5.32-1.13-1.28-3.15-1.5-4.74-.84-1.58.66-2.77,2.05-3.61,3.55-.86,1.53-1.42,3.41-.75,5.05.59,1.48,3.37,4.43,5.44,5.07-3.37,1.23-6.63,2.76-9.77,4.48-.91.5-1.8,1.02-2.69,1.56,2.35-4.42,3.75-9.36,4.05-14.36.08-1.22.09-2.47-.31-3.62-.39-1.14-1.25-2.2-2.42-2.53-1.62-.47-3.32.54-4.45,1.79-1.79,1.99-2.76,4.71-2.62,7.38.16,3.05,1.65,5.84,2.6,8.73.43,1.32.72,2.76.73,4.13-3.34,2.13-6.53,4.49-9.61,7,1.77-4.47,3.31-9.04,3.52-13.81.13-3.29-.48-6.81-2.69-9.26-2.21-2.43-6.36-3.28-8.84-1.12-2.28,1.98-2.35,5.59-1.23,8.4,1.12,2.8,3.17,5.12,4.71,7.72,1.68,2.82,2.74,5.98,3.12,9.22-2.6,2.14-5.12,4.4-7.6,6.7-1.41,1.32-2.81,2.66-4.16,4.06.46-1.57.7-3.42.82-4.17.56-3.29.41-6.79-1.03-9.8-1.43-3.01-4.3-5.46-7.61-5.82-1.88-.22-3.9.29-5.21,1.65-2.33,2.4-1.7,6.51.24,9.25,1.93,2.73,4.83,4.59,7.21,6.94.84.85,2.21,3.67,3.35,4.33-2.21,2.46-4.26,5.06-5.96,7.89-1.47,2.44-7.2,12.29-3.46,14.46Z" style="fill: #f7e9de; stroke-width: 0px;"/>
  <path d="M174.83,328.43c-13.12-3.24-26.94.41-40.46.74s-28.25-2.22-37.34-12.22c11.8,7.38,26.54,8.02,40.43,7.16,13.89-.86,28.76-5.71,41.62-.38,12.23,5.07,21.61,10.67,42.81,36.26-9.95-9.08-25.19-26.17-47.06-31.56Z" style="fill: #9df2db; stroke-width: 0px;"/>
  <path d="M53.19,232.86c-15.7.4-31.99,3.28-46.62-2.43,10.32,2.29,21.07,1.19,31.55-.21s21.16-3.81,31.57-1.98c12.25,2.16,41.17,16.37,51.24,52.66-19.4-37.55-40.4-48.72-67.74-48.04Z" style="fill: #9df2db; stroke-width: 0px;"/>
  <path d="M67.79,186.59c-11.29-5.32-23.86-7.75-34.67-13.98-10.81-6.23-19.95-18.19-17.29-30.38,1.79,11.75,11.87,20.55,22.49,25.89,10.62,5.34,22.37,8.33,32.55,14.47,7.36,4.44,17.23,13.17,17.33,22.58-4.97-8.22-11.56-14.41-20.41-18.58Z" style="fill: #9df2db; stroke-width: 0px;"/>
  <path d="M129.27,160.74c1.5-12.66,7.23-24.79,16.06-33.99-1,7.47-5.19,14.06-8.14,20.99-2.93,6.91-4.62,14.34-5.04,21.83-.33,5.93,1.82,19.85,3.92,35.97-4.04-8.15-7.86-35.89-6.81-44.81Z" style="fill: #9df2db; stroke-width: 0px;"/>
  <path d="M63.76,66.07c3.26,27.7,20.71,52.9,17.91,81.63-4-11.38-6.13-23.93-9.3-35.6-4.1-15.08-6.98-30.48-8.6-46.02Z" style="fill: #9df2db; stroke-width: 0px;"/>
  <path d="M628.82,115.75c-5.82,9.8-19.64,10.31-30.98,9.11-11.34-1.2-24.68-2.2-32.2,6.37-7.92,9.03-4.01,23.88,4.41,32.44,8.41,8.57,20.06,12.98,30.42,19.06,6.83,4.01,13.5,9.4,17.5,16.04,2.08,3.45,3.44,7.22,3.73,11.31.13,1.88.01,3.74-.33,5.53-.15.81-.35,1.61-.6,2.4-1.56,5.11-4.92,9.67-9.25,13.19-1.11.9-2.28,1.73-3.51,2.49-4.55,2.81-9.81,4.57-15.09,4.87-6.37.36-12.59-.89-18.49-3.22-1.27-.5-2.52-1.05-3.75-1.64-4.12-1.98-8.04-4.45-11.73-7.21-2.2-1.66-4.33-3.41-6.34-5.24-2.09-1.88-4.1-3.85-6.07-5.85-2.05-2.09-4.05-4.23-6.03-6.39-6.29-6.84-12.39-13.87-19.29-20.07-.43-.39-.87-.77-1.31-1.16-.39-.33-.77-.66-1.16-1-1.97-1.65-4.02-3.23-6.15-4.7-5.08-3.53-10.59-6.45-16.35-8.28-.83-.26-1.67-.51-2.5-.72-4.07-1.06-8.25-1.56-12.51-1.34l-.39.02c-5.99.37-11.79,2.15-17.55,4.12-4.7,1.6-9.37,3.32-14.1,4.48-4.17,1.03-8.39,1.61-12.71,1.31-5.83-.41-11.37-2.42-16.79-5.08-.07-.78-.16-1.5-.26-2.14-.04-.22-.07-.42-.11-.62,0-.03,0-.06-.01-.08-.01-.1-.03-.2-.05-.31-.06-.33-.15-.64-.26-.95,0-.01,0-.02-.01-.04,0-.01,0-.02-.01-.04-2.18-6.5-17.64-9.63-22.64-10.49-.15-.05-.3-.09-.44-.15-.44-.15-.83-.3-1.19-.46-.81-.35-1.46-.71-1.97-1.08,0,0-.01-.01-.02-.02-.68-.55-1.25-1.19-1.73-1.91-.4-.57-.73-1.19-1-1.84-.09-.21-.17-.43-.25-.65-.09-.24-.17-.49-.25-.73-1.04-3.36-.99-6.71-.99-6.71.2-.28.38-.56.55-.87.89-1.5,1.56-3.25,1.96-5.18,1.78,1.24,4.6-5.85,3-7.36-1.06-1-2.12-.17-2.78.56-.28-.01-6.95-.4-9.51-5.06-2.97,2.55-6.21,6.76-10.2,5.07-.64-.73-1.72-1.57-2.78-.57-1.59,1.51,1.22,8.6,3,7.36.63,3.08,1.99,5.74,3.77,7.58h0c-.1,1.45-.39,3.72-1.17,5.9h0s-.01.06-.02.08c-.09.25-.2.51-.31.76-.09.21-.18.41-.28.62,0,.01-.01.04-.02.05-.1.21-.21.41-.33.61-.12.22-.25.43-.39.63-.34.52-.74,1-1.19,1.42-.17.17-.36.33-.55.47-.09.07-.2.15-.3.22h0c-.14.11-.28.2-.44.28-.03.02-.06.04-.08.05-.16.09-.32.17-.49.25-.15.07-.29.13-.44.18-.23.09-.47.17-.71.23-.11.03-.22.05-.33.08,0,0,0,0-.01,0-1.56.39-3.51.81-5.61,1.31-.47.12-.96.23-1.45.36-3.52.89-7.31,2.01-10.39,3.56-.14.07-.27.13-.4.2-.13.07-.26.14-.39.21-.65.36-1.27.74-1.84,1.15-.1.07-.2.15-.3.22-.65.49-1.22,1-1.7,1.56-.08.09-.16.19-.23.28-.15.17-.28.36-.4.55-.33.5-.59,1.03-.76,1.59-.03.08-.05.16-.07.24-.04.15-.07.29-.1.44-.02.12-.04.25-.07.39-.04.25-.08.5-.11.78-.02.17-.04.36-.06.54-.03.27-.05.55-.07.84,0,.04,0,.09-.01.14,0,.15-.01.29-.02.44-.01.15-.02.29-.03.44v.15c-.01.16-.02.33-.02.49-.01.15-.02.31-.02.47,0,.04,0,.07,0,.11v.09c-.01.31-.02.63-.03.95v.11c0,.11,0,.22,0,.33,0,.26,0,.53,0,.81-.04,2.33-.04,4.94-.05,7.64-.9,1.18-1.83,2.32-2.78,3.43-4.34,5.04-9.53,9.29-15.24,12.65-4.07,2.39-8.4,4.33-12.89,5.77-1.53.49-3.08.93-4.65,1.3-1.19.29-2.39.55-3.59.76-.03,0-.07,0-.09.01-2.59.47-5.08.78-7.48.94-1.77.13-3.48.17-5.15.13-1.13-.02-2.25-.08-3.35-.18-15.08-1.32-26.6-9.34-37.46-22.92-5.48-6.86-10.68-14.59-16.54-21.61-6.85-8.22-14.62-15.45-24.81-19.15-11.17-4.05-23.45-2.85-35.29-3.98-3.88-.37-7.89-1.13-11.69-2.36-7.77-2.51-14.68-7-17.91-14.3-.09-.2-.17-.4-.25-.6-.11-.25-.2-.51-.29-.76-2.01-5.6-1.31-11.67,1.2-17.11,3.03-6.6,8.71-12.29,15.45-15.14,12.74-5.4,27.52-2.83,40.41,2.23,8.3,3.26,16.34,7.53,25.15,8.92,3.83.6,7.9.52,11.69-.36,2.1-.49,4.12-1.23,5.96-2.23,2.5-1.36,4.68-3.21,6.33-5.61,5.82-8.5,2.86-19.89,1.05-30.04-.63-3.58-.92-7.5-.6-11.27.24-2.95.85-5.81,1.94-8.33,1.47-3.37,3.8-6.14,7.29-7.7,4.79-2.14,10.16-1.21,15.48-.89,1.59.09,3.17.13,4.73.01,15.8-1.16,26.15-17.77,28.55-33.43.32-2.1.55-4.22.71-6.33h140.95c.49,6.55-.7,13.36-1.08,20-.53,9.3,1.46,20.11,9.56,24.71.63.36,1.26.66,1.89.92,14.15,5.77,31.4-11.1,46.44-5.78,10.81,3.82,14.66,16.87,22.29,25.44,8.36,9.39,21.37,13.21,33.88,14.44,6.12.6,12.27.68,18.41.84,4.48.11,8.96.26,13.4.68,1.94.18,3.88.41,5.81.72,1.11.17,2.21.37,3.32.6.85.17,1.7.37,2.55.59,6.41,1.64,12.52,4.41,17.09,9.12,5.95,6.12,8.49,16.12,4.13,23.45Z" style="fill: #1c3740; stroke-width: 0px;"/>
  <path d="M344.41,177.65c-.01.52-.04,1.05-.05,1.61,0-.36.01-.71.03-1.04,0-.04,0-.07,0-.11,0-.16,0-.31.02-.47Z" style="fill: #1c3740; stroke-width: 0px;"/>
  <path d="M344.46,176.56c-.01.18-.02.36-.03.55v-.1c0-.15.01-.3.03-.44Z" style="fill: #1c3740; stroke-width: 0px;"/>
  <path d="M419.33,173.75c-.09-.47-.2-.89-.31-1.25.12.31.2.62.26.95.02.1.04.2.05.31Z" style="fill: #1c3740; stroke-width: 0px;"/>
  <path d="M419.33,173.75c-.09-.47-.2-.89-.31-1.25.12.31.2.62.26.95.02.1.04.2.05.31Z" style="fill: #f7e9de; stroke-width: 0px;"/>
  <path d="M430.11,229.69c-.76-.48-1.59-1.63-2.42-3.18.38.67.74,1.25,1.11,1.74.09.14.19.26.28.39.07.08.12.16.2.23.11.14.22.26.33.37.1.1.2.19.29.27.07.07.15.13.22.18Z" style="fill: #f7e9de; stroke-width: 0px;"/>
  <path d="M344.41,177.65c-.01.52-.04,1.05-.05,1.61,0-.36.01-.71.03-1.04,0-.04,0-.07,0-.11,0-.16,0-.31.02-.47Z" style="fill: #f7e9de; stroke-width: 0px;"/>
  <path d="M344.46,176.56c-.01.18-.02.36-.03.55v-.1c0-.15.01-.3.03-.44Z" style="fill: #f7e9de; stroke-width: 0px;"/>
  <path d="M290.4,256.17c-.07-.24-.13-.49-.2-.76-.01-.06-.03-.1-.04-.16,0,0,.01,0,.01,0,.09.32.16.63.23.91Z" style="fill: #fc8ea7; stroke-width: 0px;"/>
  <path d="M291.42,260.18c-.05-.19-.1-.4-.17-.64.07.25.12.46.17.64Z" style="fill: #fc8ea7; stroke-width: 0px;"/>
  <path d="M293.72,265.75c-.05.01-.11.03-.16.04-.56-.6-.87-1.25-1.04-1.82-.65-2.15-.72-2.31-.98-3.35.22.8.32,1.13.92,3.06.14.47.37.98.75,1.48.07.1.15.2.24.29.09.09.17.2.28.28Z" style="fill: #fc8ea7; stroke-width: 0px;"/>
  <path d="M400.03,254.87c-.65.09-1.34.18-2.04.26.7-.08,1.38-.17,2.04-.26Z" style="fill: #fc8ea7; stroke-width: 0px;"/>
  <path d="M415.75,250.73c-1,.49-5.21,2.41-13.19,3.74,7.61-1.32,11.88-3.15,13.19-3.74Z" style="fill: #fc8ea7; stroke-width: 0px;"/>
  <path d="M415.92,250.33s0,0-.02.01c-.26-.8-1.31-4.04-5.51-17,0-.04-.02-.09-.04-.13.06.15.12.31.17.47,0,0,0,0,0,.01l5.38,16.64Z" style="fill: #fc8ea7; stroke-width: 0px;"/>
  <path d="M430.11,229.69c-.76-.48-1.59-1.63-2.42-3.18.38.67.74,1.25,1.11,1.74.09.14.19.26.28.39.07.08.12.16.2.23.11.14.22.26.33.37.1.1.2.19.29.27.07.07.15.13.22.18Z" style="fill: #fc8ea7; stroke-width: 0px;"/>
  <path d="M344.41,177.65c-.01.52-.04,1.05-.05,1.61,0-.36.01-.71.03-1.04,0-.04,0-.07,0-.11,0-.16,0-.31.02-.47Z" style="fill: #fc8ea7; stroke-width: 0px;"/>
  <path d="M344.46,176.56c-.01.18-.02.36-.03.55v-.1c0-.15.01-.3.03-.44Z" style="fill: #fc8ea7; stroke-width: 0px;"/>
  <path d="M420.77,249.3c-.2-.14-2.65-1.78-5-5.19,1.41,1.98,3.02,3.63,5,5.19Z" style="fill: #fc8ea7; stroke-width: 0px;"/>
  <path d="M400.03,254.87c-.65.09-1.34.18-2.04.26.7-.08,1.38-.17,2.04-.26Z" style="fill: #1c3740; stroke-width: 0px;"/>
  <path d="M415.75,250.73c-1,.49-5.21,2.41-13.19,3.74,7.61-1.32,11.88-3.15,13.19-3.74Z" style="fill: #1c3740; stroke-width: 0px;"/>
  <path d="M482.05,122.87c-15.6,28.56-20.96,61.41-26.07,93.55,8.62-29.62,29.92-55.31,57.43-69.26-18.85,22.39-34.62,47.38-46.72,74.04,5.6-14.11,16.94-25.53,30.31-32.72,13.37-7.18,28.65-10.33,43.82-10.71-26.3,9.65-49.15,28.42-63.72,52.34,9.64-11.94,24.84-18.33,40.04-20.41s30.64-.31,45.89,1.46c-16.49,4.12-33.07,8.26-48.58,15.19-15.52,6.92-30.07,16.84-40.02,30.61,21.79-10.62,47.52-7.03,71.45-3.2-21.24-.4-42.56,5.8-60.28,17.52,9.08-1.61,18.43-1.67,27.54-.18-12.41.5-24.6,5.52-33.76,13.91-3.88,3.55-7.37,7.78-12.19,9.89-7.43,3.25-16.53.44-22.33-5.22-8.08-7.88-8.97-15.96-7.95-26.27,1.18-11.94-.21-24.06,1.16-36.1,2.76-24.26,9.96-48.01,21.15-69.71,6.36-12.33,14.01-24.01,22.84-34.71Z" style="fill: #93c360; stroke-width: 0px;"/>
  <path d="M328.22,248.03c-4.75-28.31-2.66-57.75,6.04-85.11-16.58,17.54-24.25,43.12-20.05,66.89-15-31.45-34.42-61.45-61.25-83.69,18.13,23.9,33.01,50.26,44.11,78.13-28.24-43.97-79.04-72.56-131.28-73.87,20.22,2.97,39.05,12.58,55.15,25.16s29.67,28.1,42.33,44.14c-28.96-22.12-66.37-32.87-102.65-29.5,35.23,3.68,66.3,23.84,95.55,43.82-26.97-13.27-61.03-10.75-85.76,6.34,30.44-1.24,61.03,1.39,90.81,7.79-14.19-2.74-29.49.81-41.01,9.54,16.41-1.58,33.23,1.37,48.11,8.45-5.43.77-10.56,3.48-14.26,7.53,5.66-2.29,12.15-1.08,17.83,1.15s10.96,5.46,16.77,7.33c10.8,3.47,22.95,1.36,32.46-4.63,3.89-2.45,10.54-7.17,11.97-11.83s-3.95-12.15-4.87-17.63Z" style="fill: #93c360; stroke-width: 0px;"/>
  <g>
    <path d="M391.01,142.36c-.39,1.93-1.06,3.68-1.96,5.18-.17.31-.36.59-.55.87-1.48,2.12-3.4,3.59-5.57,4.07-.5.12-1.03.17-1.55.17-.08,0-.16,0-.24,0-1.73-.05-3.35-.73-4.76-1.9-.3-.24-.58-.51-.87-.79h0c-1.78-1.85-3.13-4.5-3.77-7.59-1.78,1.24-4.6-5.85-3-7.36,1.06-1,2.14-.17,2.78.57,3.99,1.69,7.24-2.52,10.2-5.07,2.57,4.66,9.24,5.05,9.51,5.06.65-.73,1.72-1.56,2.78-.56,1.59,1.51-1.22,8.6-3,7.36Z" style="fill: #f7e9de; stroke-width: 0px;"/>
    <path d="M389.74,155.83c-.09.03-.17.07-.25.09-.84.28-1.67.51-2.47.69-.13.03-.27.06-.39.09-.6.12-1.27.24-2,.33-.16.01-.31.04-.48.04-.15.01-.31.03-.47.04-.25.02-.49.04-.75.05-.57.02-1.16.02-1.79,0-.3,0-.61-.03-.92-.05-.17-.01-.36-.03-.53-.05-.16,0-.31-.03-.48-.04-.64-.07-1.31-.18-2-.33-.13-.03-.27-.07-.41-.09-.79-.17-1.61-.4-2.44-.68-.01,0-.02,0-.03-.01,0-.02.01-.05.02-.07h0c.79-2.18,1.07-4.45,1.17-5.9.28.28.57.55.87.79.12.3.39.63.79.98,1.23,1.11,2.6,1.88,3.98,2.39.6.23,1.2.41,1.79.56,3.15.79,5.96.51,6.56.44.07.24.15.49.25.73Z" style="fill: #f7e9de; stroke-width: 0px;"/>
    <path d="M495.25,266.95c4.65,1.86,5.36,3.21,3.78,3.79-1.36.49-18.58-2.6-27.06-4.58-.45-.23-.92-.47-1.4-.69.38-.5.61-1.02.75-1.48,1.16-3.79.47-1.4,2.33-8.56,0,0,13.68-7.98,14.44-7.16.75.81-3.67,4.95-3.27,5.82.41.87.99,1.34,2.92,2.09,1.92.76,4.71.23,3.32-1.57-1.4-1.81-2.92-5.48-1.81-5.76,1.11-.3,6.47,5.93,6.93,7.28.87-2.33,3.2-4.03,3.9-3.15.7.87-.29,6.28-.87,7.16-.58.87,1.8-2.04,2.57-1.28.75.75.35,7.21-6.52,8.09Z" style="fill: #f7e9de; stroke-width: 0px;"/>
    <path d="M293.56,265.8c-7.78,1.95-27.07,5.47-28.52,4.94-1.57-.58-.87-1.93,3.79-3.79-6.87-.87-7.28-7.34-6.52-8.09.76-.76,3.15,2.15,2.57,1.28-.59-.88-1.57-6.29-.87-7.16.69-.88,3.02.81,3.9,3.15.47-1.35,5.82-7.58,6.92-7.28,1.11.28-.41,3.95-1.8,5.76-1.4,1.8,1.4,2.33,3.32,1.57,1.93-.76,2.51-1.22,2.92-2.09.4-.87-4.02-5-3.27-5.82.7-.76,12.22,5.87,14.16,7,.01.06.03.1.04.16.07.27.14.52.2.76,0,.02.01.04.01.07.07.26.13.51.19.73.13.49.24.92.33,1.3.03.11.06.21.08.31.03.11.05.22.08.32.07.24.12.44.16.63.07.24.12.45.17.64,0,.03.01.06.02.09.01.07.04.13.05.2.01.06.03.12.04.17.26,1.03.33,1.2.98,3.35.17.57.48,1.22,1.04,1.82Z" style="fill: #f7e9de; stroke-width: 0px;"/>
    <path d="M389.49,155.11c-.6.07-3.41.36-6.56-.44-.59-.15-1.19-.33-1.79-.56-1.37-.52-2.75-1.29-3.98-2.39-.4-.36-.66-.68-.79-.98,1.41,1.16,3.03,1.85,4.76,1.9.08,0,.16,0,.24,0,.52,0,1.05-.06,1.55-.17,2.17-.47,4.09-1.94,5.57-4.07,0,0-.05,3.35.99,6.71Z" style="fill: #e3c8bf; stroke-width: 0px;"/>
    <path d="M473.65,255.42c-1.86,7.16-1.16,4.77-2.33,8.56-.14.47-.37.98-.75,1.48-.07.1-.15.2-.24.29-2.87,3.26-12.49,5.25-44.43-13.4-1.52-.89-3.09-1.83-4.71-2.81-.13-.08-.27-.16-.4-.24,0,0,0,0-.01,0-1.99-1.56-3.59-3.21-5-5.19-.14-.2-.28-.4-.41-.6-.12-.17-.23-.34-.33-.52-.12-.2-.24-.39-.36-.6-.23-.41-.47-.82-.7-1.24-.12-.21-.23-.42-.34-.64-1.23-2.32-2.31-4.79-3.08-6.83,0,0,0-.01,0-.01-.06-.16-.12-.31-.17-.47.01.04.03.09.04.13,4.2,12.97,5.24,16.2,5.51,17,.02.07.04.13.05.17l.04.1s-.04.02-.07.04c-.01,0-.03.01-.05.03-.04.01-.08.04-.12.06-1.3.59-5.57,2.41-13.19,3.74-.26.04-.52.09-.79.13-.28.04-.56.09-.84.13-.29.04-.59.09-.89.13-.66.09-1.35.18-2.04.26-.36.04-.72.09-1.08.12-.42.04-.85.09-1.29.13-.87.08-1.75.15-2.68.22-.31.02-.61.04-.92.07h-.02c-.4.02-.81.04-1.22.07-.55.03-1.11.05-1.67.07-.07,0-.14,0-.21,0-.49.02-1,.04-1.51.04-.59.01-1.19.02-1.79.03-1.18,0-2.4,0-3.65-.01h-.02c-.92.01-1.81.02-2.68.02-21.82-.04-31.37-5.28-31.37-5.28l4.83-14.92c.07-.31.14-.63.21-.95-1.05,2.6-2.49,5.67-4.07,8.25-2.68,4.33-5.77,6.32-5.77,6.32-.63.38-1.26.76-1.87,1.13-1.31.78-2.58,1.53-3.81,2.24-31.34,18.22-40.91,16.33-43.81,13.12.05-.01.11-.03.16-.04-.1-.09-.19-.19-.28-.28-.09-.09-.17-.19-.24-.29-.38-.5-.61-1.02-.75-1.48-.6-1.93-.7-2.26-.92-3.06-.01-.05-.03-.11-.04-.17-.01-.07-.04-.12-.05-.2,0-.03-.01-.06-.02-.09-.04-.18-.09-.39-.17-.64-.04-.19-.09-.39-.16-.63-.03-.1-.05-.21-.08-.32-.02-.1-.05-.2-.08-.31-.09-.38-.2-.81-.33-1.3-.06-.23-.12-.47-.19-.73,0-.02,0-.04-.01-.07-.07-.28-.15-.59-.23-.91-.01-.04-.02-.09-.04-.13-3.96-13.8,40.58-23.87,43.54-25.73,1.9-1.19,4.23-6.63,6.2-11.96.73-1.92,1.49-4.04,2.3-6.33.2-.56.38-1.16.54-1.79,0,0,0-.01,0-.02,0-.02.01-.04.01-.06.23-.65.39-1.53.52-2.57,0,0,0-.01,0-.03.78-4.63.97-10.34,1.02-15.87,0-.89.01-1.77.01-2.64.01-2.7.01-5.3.05-7.64,0-.28,0-.55,0-.81,0-.11,0-.22,0-.33v-.11c.01-.56.04-1.1.05-1.61,0-.17,0-.33.02-.49v-.05c0-.18.01-.36.03-.55,0-.15.01-.29.02-.44,0-.04,0-.09.01-.14.02-.29.04-.57.07-.84.01-.18.04-.36.06-.54.03-.28.07-.53.11-.78.02-.13.04-.26.07-.39.03-.15.06-.3.1-.44.02-.08.04-.16.07-.24.17-.56.44-1.09.76-1.59.12-.19.25-.37.4-.55.07-.09.15-.19.23-.28.48-.56,1.05-1.08,1.7-1.56.09-.07.2-.15.3-.22.57-.41,1.19-.79,1.84-1.15.13-.07.26-.15.39-.21.13-.07.26-.14.4-.2,3.08-1.55,6.87-2.67,10.39-3.56.49-.12.97-.24,1.45-.36,2.1-.5,4.04-.92,5.61-1.31,0,0,0,0,.01,0,.11-.03.22-.05.33-.08.25-.06.49-.14.71-.23.15-.05.3-.11.44-.18.17-.07.33-.16.49-.25.02-.01.05-.03.08-.05.15-.08.3-.17.44-.28h0c.1-.07.2-.15.3-.22.2-.15.38-.31.55-.47.44-.42.84-.9,1.19-1.42.14-.2.27-.41.39-.63.12-.2.23-.4.33-.61,0-.01.01-.04.02-.05.1-.2.2-.41.28-.62.11-.25.21-.51.31-.76,0,0,.01,0,.03.01.84.28,1.65.51,2.44.68.15.03.28.07.41.09.69.15,1.36.25,2,.33.17.01.32.04.48.04.17.02.36.04.53.05.31.02.63.04.92.05.63.01,1.22.01,1.79,0,.25-.01.5-.03.75-.05.16-.01.31-.03.47-.04.17,0,.32-.03.48-.04.73-.09,1.4-.2,2-.33.12-.03.26-.06.39-.09.8-.18,1.62-.41,2.47-.69.08-.03.17-.07.25-.09.08.22.16.44.25.65.28.65.6,1.27,1,1.84.48.71,1.05,1.36,1.73,1.91,0,0,.01.01.02.02.51.37,1.16.73,1.97,1.08.36.16.76.31,1.19.46.14.06.28.1.44.15,5,.86,20.46,3.99,22.64,10.49,0,.01,0,.02.01.04,0,.01,0,.02.01.04.12.36.22.78.31,1.25,0,.02,0,.05.01.08.15.79.28,1.72.37,2.76.76,8.23-.09,23.21.8,30.35,0,.01,0,.02,0,.03.15.9.32,1.76.52,2.57,0,.02,0,.04.01.06,0,0,0,.01,0,.02.74,2.17,1.73,5.13,2.84,8.12,1.84,4.86,3.44,8.47,4.89,10.52-.36-.49-.73-1.07-1.11-1.74.84,1.55,1.67,2.7,2.42,3.18,2.96,1.86,47.51,11.93,43.54,25.73Z" style="fill: #fc8ea7; stroke-width: 0px;"/>
    <path d="M410.12,300.64s-.01,0-.04-.01c-.36-.13-3.44-1.21-7.93-2.35-.31-.08-.64-.16-.97-.24-.01,0-.03,0-.04,0-4.14-1.01-9.32-2.17-14.7-3.14-3.73-.67-6.32-.92-8.41-.92-4.81-.01-6.92,1.22-14.07,1.38-10.24.23-18.86-1.63-18.86-1.63-3.61,4.42-11.64,5.47-12.57,3.49-.93-1.98-3.03-4.19,4.19-9.55,7.22-5.35,19.21-7.56,28.52-8.96,6.32-.95,10.23-4.73,13.43-7.04,1.52-1.08,2.88-1.85,4.26-1.81,1.25.04,2.33,1.03,3.24,2.44,2.18,3.38,3.32,9.09,3.32,9.09l18.53,2.52,2.07,16.45h0s.04.28.04.28Z" style="fill: #f7e9de; stroke-width: 0px;"/>
    <path d="M468.72,300.36c-9.78,4.13-30.56,7.63-50.82,2.39-2.73-.71-5.33-1.42-7.78-2.11l-.04-.28h0s3.37-15.72,3.37-15.72l-5.43-.74-18.53-2.52s-1.13-5.71-3.32-9.09c-.91-1.4-1.99-2.4-3.24-2.44-1.38-.04-2.74.73-4.26,1.81-3.2,2.31-7.11,6.09-13.43,7.04-9.31,1.4-21.3,3.61-28.52,8.96-7.21,5.36-5.12,7.57-4.19,9.55.94,1.98,8.97.93,12.57-3.49,0,0,8.62,1.86,18.86,1.63,7.15-.16,9.26-1.4,14.07-1.38-7.37,1.71-17.45,5.24-31.12,8.78-20.25,5.24-41.04,1.75-50.81-2.39-9.78-4.14-18.69-15.78-11.53-27.83,1.4-2.35,4.65-4.62,8.99-6.74,2.9,3.21,12.47,5.1,43.81-13.12,6.26-1.32,10.49-2.07,10.49-2.07,0,0,9.56,5.24,31.37,5.28.87,0,1.77,0,2.68-.02h.02c1.25.02,2.47.02,3.65.01.6,0,1.2-.01,1.79-.03.51,0,1.02-.02,1.51-.04.07,0,.15,0,.21,0,.57-.02,1.13-.04,1.67-.07.41-.02.82-.04,1.22-.07h.02c.31-.02.61-.04.92-.07.92-.07,1.81-.14,2.68-.22.44-.04.87-.09,1.29-.13.36-.04.73-.08,1.08-.12.71-.08,1.39-.17,2.04-.26.31-.04.6-.09.89-.13.28-.04.57-.09.84-.13.27-.04.53-.09.79-.13,7.97-1.33,12.19-3.24,13.19-3.74.04-.02.08-.04.12-.06.02-.01.04-.02.05-.03.02-.01.04-.03.07-.04,0,0,4.51.63,9.92,1.75,31.94,18.65,41.56,16.65,44.43,13.4.09-.09.17-.19.24-.29.48.23.95.46,1.4.69,3.99,2.02,6.96,4.17,8.28,6.39,7.16,12.04-1.75,23.69-11.53,27.83Z" style="fill: #1c3740; stroke-width: 0px;"/>
    <polygon points="413.45 284.65 410.12 300.64 408.02 283.91 413.45 284.65" style="fill: #e3c8bf; stroke-width: 0px;"/>
  </g>
</svg>