<?xml version="1.0" encoding="UTF-8"?><svg id="Layer_1" xmlns="http://www.w3.org/2000/svg" width="1013.45" height="550" xmlns:xlink="http://www.w3.org/1999/xlink" viewBox="0 0 1013.45 550"><defs><style>.cls-1{fill:#fc8ea7;}.cls-2{fill:url(#linear-gradient-2);}.cls-3{fill:#e3c8bf;}.cls-4{fill:#93c360;}.cls-5{fill:url(#linear-gradient-6);}.cls-6{fill:url(#linear-gradient-5);}.cls-7{fill:#1c3740;}.cls-8{fill:url(#linear-gradient-3);}.cls-9{fill:url(#linear-gradient);}.cls-10{fill:#f7e9de;}.cls-11{fill:#9df2db;}.cls-12{fill:url(#linear-gradient-4);}</style><linearGradient id="linear-gradient" x1="594.95" y1="335.3" x2="789.09" y2="80.87" gradientUnits="userSpaceOnUse"><stop offset=".22" stop-color="#004445"/><stop offset=".4" stop-color="#034947"/><stop offset=".63" stop-color="#0f594f"/><stop offset=".88" stop-color="#21725b"/><stop offset="1" stop-color="#2d8263"/></linearGradient><linearGradient id="linear-gradient-2" x1="660.29" y1="461.37" x2="907.66" y2="108.98" gradientUnits="userSpaceOnUse"><stop offset=".24" stop-color="#10603d"/><stop offset=".35" stop-color="#2b7444"/><stop offset=".56" stop-color="#579650"/><stop offset=".74" stop-color="#78ae58"/><stop offset=".89" stop-color="#8bbd5e"/><stop offset="1" stop-color="#93c360"/></linearGradient><linearGradient id="linear-gradient-3" x1="632.34" y1="571.2" x2="959.9" y2="219.6" gradientUnits="userSpaceOnUse"><stop offset=".08" stop-color="#10603d"/><stop offset=".44" stop-color="#2d8263"/><stop offset=".73" stop-color="#72c7ad"/><stop offset=".91" stop-color="#9df2db"/></linearGradient><linearGradient id="linear-gradient-4" x1="452.57" y1="359.85" x2="297.74" y2="30.18" gradientUnits="userSpaceOnUse"><stop offset=".43" stop-color="#004445"/><stop offset=".55" stop-color="#044a47"/><stop offset=".72" stop-color="#105b50"/><stop offset=".9" stop-color="#25775d"/><stop offset=".96" stop-color="#2d8263"/></linearGradient><linearGradient id="linear-gradient-5" x1="419.95" y1="447.48" x2="205.59" y2="55.05" gradientUnits="userSpaceOnUse"><stop offset=".35" stop-color="#10603d"/><stop offset=".42" stop-color="#216c41"/><stop offset=".69" stop-color="#5e9b51"/><stop offset=".89" stop-color="#84b85c"/><stop offset="1" stop-color="#93c360"/></linearGradient><linearGradient id="linear-gradient-6" x1="370.4" y1="512.76" x2="12.54" y2="140.09" gradientUnits="userSpaceOnUse"><stop offset="0" stop-color="#10603d"/><stop offset=".34" stop-color="#2d8263"/><stop offset=".88" stop-color="#9df2db"/></linearGradient></defs><path class="cls-9" d="m846.15,58.95c-5,16.1-12.33,31.48-21.66,45.52-1.63,2.47-3.32,4.89-5.08,7.26h-.01c-3.18,4.32-6.56,8.49-10.13,12.5-16.57,18.59-36.93,33.57-53.02,52.56-17.52,20.67-29.3,45.22-39.3,70.55-1.24,3.15-2.46,6.31-3.65,9.48-.39,1.02-.77,2.04-1.14,3.05-2.16,5.75-4.24,11.51-6.32,17.25-1.57,4.35-3.14,8.68-4.71,13.03h0c-3.59,9.94-7.18,19.86-10.78,29.79h0c-2.99,8.3-5.99,16.58-8.99,24.87-.47,1.32-.95,2.64-1.43,3.96h0c-.66,1.83-1.31,3.63-1.97,5.45l-5.76,15.93s0,.01-.01.01c-.04.12-.08.24-.13.36-.22.63-.45,1.27-.69,1.9-1.63,4.54-3.28,9.07-4.92,13.61-.49,1.37-.99,2.73-1.48,4.1-4.84,13.39-9.7,26.82-14.99,40.06-1.3,3.28-2.63,6.55-4,9.81-.23.53-.45,1.06-.68,1.59,0,0,0,0,0,.01-.78,1.84-1.57,3.68-2.37,5.51-5.57,12.71-11.71,25.16-18.78,37.11-2.88,4.87-4.96,10.2-6.56,15.78-4.72,16.36-5.35,34.83-10.03,50h-95.68c-6.58-10.74-5.4-26.06-2-34.6,2.18-5.46,5.64-10.49,9.47-15.4,1.32-1.69,2.68-3.36,4.04-5.03,7.43-9.09,15.01-18.08,16.62-28.94.95-6.43,1.74-12.87,2.42-19.32.23-2.24.45-4.47.66-6.71.32-3.46.62-6.91.89-10.37.57-7.08,1.05-14.17,1.52-21.27.44-6.64.86-13.28,1.34-19.92.9-12.72,1.97-25.42,3.6-38.06.04-.35.08-.69.13-1.04,4.88-37.26,14.9-73.55,26.18-109.47,3.82-12.18,7.79-24.32,11.76-36.43,15.05-46,30.11-91.99,45.16-137.99.29-.9.59-1.81.89-2.71,3.55-10.71,7.51-21.5,14.92-29.94,8.04-9.16,21.28-14.89,32.67-10.56,9.97,3.79,15.52,17.15,10.81,26.03,6.76-8.71,14.54-17.18,25.14-19.56,12.01-2.7,26.97,8.11,23.06,19.78,23.02-16.72,52.44-24.38,80.69-21.03,10.82,1.29,23.28,5.84,25.9,16.42,1.23,4.97-.08,10.18-1.6,15.07Z"/><path class="cls-2" d="m649.11,403.52c4.21-44.61,4.9-90.24,19.41-132.62,22.37-65.32,74.96-115.48,129.48-157.85,4.76-3.7,9.71-7.44,15.53-8.99,5.82-1.55,12.78-.38,16.48,4.37,3.7,4.76,2.11,13.19-3.66,14.92,15.7-18.27,39.76-29.05,63.85-28.6,6.08.11,12.69,1.17,16.82,5.63,4.13,4.46,3.64,13.22-2.08,15.28,17.2-11.97,40.98-10.89,60.05-2.2,19.07,8.69,34.34,23.87,48.46,39.36-18.81-18.62-50.94-17.94-73.58-4.24s-37.28,37.51-47.76,61.82c-10.48,24.31-17.73,50.04-30.25,73.37-18.51,34.5-47.55,61.96-76.08,88.78-35.98,33.81-71.95,67.63-107.93,101.44-14.04,13.2-28.09,26.4-42.13,39.6-17.99,16.91-16.32,2.09-9.29-12.93,13.42-28.66,22.67-65.33,22.67-97.13Z"/><path class="cls-8" d="m971.6,314.19c-8.9,10.84-21.75,17.68-34.78,22.86-13.04,5.19-26.64,9.02-39.18,15.31-5.79,2.9-12.2,8.46-10.07,14.57,2.63,7.54,13.49,5.65,21.45,6.11,18.37,1.05,29.56,23.95,23.78,41.41-5.79,17.47-23.15,28.76-40.86,33.77-25.29,7.16-52.23,4.21-78.36,7-6.48.69-13.09,1.89-19.52,3.68-19.54,5.4-37.48,16.15-45.39,34.28-.97,2.22-1.76,4.5-2.46,6.82-2.05,6.8-3.28,13.89-5.73,20.57-4.11,11.21-11.39,20.72-19.69,29.43h-130.65c3.29-4.52,6.27-8.59,7.95-11.71,6.65-12.41,12.46-25.22,17.62-38.29,6.77-17.15,12.43-34.76,17.45-52.51.7-2.5,1.39-4.99,2.07-7.49.65-2.36,1.28-4.73,1.9-7.1h0c.67-2.53,1.32-5.05,1.97-7.57.97-3.78,1.92-7.57,2.91-11.35.86-3.25,1.75-6.48,2.71-9.69,1.64-5.49,3.49-10.9,5.73-16.14h0c1.17-2.74,2.45-5.43,3.86-8.06,1.35-2.52,2.85-4.99,4.49-7.37.95-1.39,1.96-2.75,3.01-4.07,4.55-5.74,9.97-10.76,16.15-14.43,1.37-.82,2.77-1.57,4.21-2.24.06-.03.13-.06.2-.1,1.8-.83,3.66-1.56,5.57-2.15.44-.14.88-.27,1.32-.39,15.46-4.29,33.36-.33,48.8-2.37,6.98-.93,13.45-3.08,18.97-7.77,8.02-6.81,11.27-17.06,11.55-27.79.18-6.4-.7-12.98-2.26-19.1-.05-.21-.1-.43-.16-.64-.2-.76-.41-1.54-.61-2.32-3-11.42-6.18-24.81,2.42-32.42,8.88-7.85,23.04-2.33,32.1,5.32,9.05,7.65,17.63,17.68,29.43,18.78,7.54.7,14.54-2.57,20.22-7.72,4.12-3.74,7.55-8.47,9.99-13.4,5.8-11.72,7.89-24.97,13.4-36.83,4.64-9.97,12.94-19.39,23.25-21.98,1.95-.5,3.97-.74,6.05-.7,10.19.19,19.46,7.78,22.93,17.36,3.47,9.59,1.59,20.63-3.69,29.35-2.45,4.05-5.62,7.72-7.32,12.14-1.7,4.41-1.53,10.05,2.02,13.17,4.13,3.64,10.74,2.22,15.29-.87,4.55-3.09,8.1-7.56,12.88-10.28,12.18-6.96,29.15.76,34.69,13.64,5.54,12.89,1.3,28.45-7.61,39.28Z"/><path class="cls-12" d="m554.45,550h-99.38c-4.98-8.46-9.11-17.53-12.41-26.87-2.69-7.59-4.83-15.36-6.43-23.13-.43-2.09-.83-4.18-1.18-6.26-2.76-16.24-3.77-32.64-4.26-49.09-.05-1.55-.09-3.1-.12-4.65-.08-3-.14-5.99-.2-8.99t0-.01c-.06-4.07-.13-8.15-.19-12.22-.18-10.49-.39-20.99-.98-31.45-.4-7.41-.99-14.81-1.87-22.18-.18-1.53-.37-3.05-.58-4.58-1.46-10.67-3.57-21.21-6.23-31.62-3.11-12.19-6.99-24.21-11.46-36.05-7.14-18.88-15.79-37.3-25.31-55.26,0-.01,0-.02-.02-.03-4.72-8.88-9.65-17.65-14.71-26.31-13.03-22.26-27.01-43.99-40.86-65.8-15.09-23.75-30.01-47.6-43.34-72.31-5.09-9.44-8.61-23.47-.08-29.16.45-.31.93-.59,1.44-.84,7.12-3.47,15.84,1.36,20.45,7.66,7.04,9.61,8.31,22,12.88,32.92,4.57,10.93,15.51,21.51,27.32,18.65-12.32-19.74-24.65-39.47-36.97-59.21-2.16-3.45-4.4-7.3-3.7-11.28,1.25-7.09,11.71-9.51,17.9-5.53,6.18,3.99,8.61,11.64,9.35,18.8.75,7.16.29,14.54,2.63,21.36,1.63,4.74,5.16,9.23,9.64,11.36,1.98.95,4.15,1.43,6.42,1.26-1.25-4.24-2.5-8.47-3.75-12.71-3.07-10.39-6.14-20.79-9.2-31.18-2.05-6.94-3.07-16.34,3.62-19.52,7.05-3.36,14.28,4.03,18.45,10.47,6.15,9.47,12.29,18.95,18.44,28.42,10.86,16.74,21.73,33.48,32.59,50.22,19.8,30.51,39.8,61.43,51.08,95.76,4.78,14.55,7.91,29.42,10.11,44.48v.09c4.18,28.46,5.04,57.59,7.54,86.41.1,1.15.2,2.3.31,3.46.34,3.76.72,7.52,1.13,11.27l.06.51c1.46,13,3.45,25.93,5.95,38.78,1.33,6.82,2.81,13.62,4.43,20.39.26,1.1.53,2.19.8,3.29.18.72.36,1.45.54,2.17.74,2.93,1.5,5.85,2.29,8.76h0c1.79,6.63,3.72,13.2,5.8,19.75.63,2,1.28,4.01,1.94,6.01,5.48,16.62,11.85,32.97,19.06,48.96.76,1.69,1.53,3.36,2.31,5.03,2.2,4.75,4.48,9.46,6.84,14.14,4.61,9.17,14.7,22.36,21.91,35.86Z"/><path class="cls-6" d="m484.75,550h-105.27c-2.64-5.69-4.96-11.55-7.03-17.47-.9-2.57-1.75-5.15-2.56-7.73-2.58-8.19-4.8-16.49-6.96-24.8-3.91-14.98-7.65-30-12.97-44.53-.33-.91-.67-1.81-1.03-2.71-1.64-4.32-3.41-8.58-5.31-12.76-.27-.62-.55-1.23-.83-1.83-.82-1.77-1.66-3.53-2.52-5.28-.51-1.04-1.02-2.07-1.56-3.1-1.45-2.89-2.97-5.76-4.54-8.6-2.14-3.87-4.37-7.7-6.69-11.48-2.31-3.81-4.71-7.56-7.18-11.28h0c-2.94-4.44-5.97-8.81-9.08-13.15-6.19-8.64-12.69-17.12-19.36-25.53-1.09-1.38-2.18-2.75-3.29-4.13-6.79-8.49-13.73-16.93-20.64-25.39-3.32-4.06-6.64-8.12-9.93-12.2-15.48-19.19-30.47-38.71-43.17-59.57-10.51-17.26-19.4-35.47-26.58-54.32-1.09-2.82-2.13-5.66-3.12-8.51-4.26-12.12-7.82-24.49-10.65-37.01-4.42-19.5-7.09-39.38-7.9-59.35-.23-5.67.01-12.13,4.33-15.88,3.15-2.74,8.84-1.75,11.08,1.11-1.54-7.77-2.71-15.68-1.24-23.42,1.71-9.03,7.91-17.86,16.99-19.89,9.08-2.04,19.86,5.56,18.53,14.65,15.26-24.55,47.86-37.16,75.98-29.39-4.13,5.05-6.5,11.16-7.41,17.58-.98,6.73-.35,13.81,1.49,20.37,3.6,12.82,11.25,24.1,18.95,35.02,10.19,14.43,20.71,28.7,31.18,43.01,29.36,40.09,58.35,80.45,78.69,125.49,3.36,7.45,6.48,15,9.37,22.62,2.31,6.09,4.49,12.24,6.54,18.43,1.57,4.7,3.06,9.42,4.48,14.16,3.46,11.41,6.55,22.94,9.4,34.55,1.5,6.11,2.94,12.24,4.32,18.39,3.26,14.41,6.24,28.9,9.17,43.37.52,2.58,1.04,5.16,1.55,7.73.07.31.13.61.19.92.8,3.97,1.6,7.94,2.4,11.91.35,1.75.71,3.51,1.06,5.26,3.68,18.25,7.36,36.49,11.04,54.74,3.36,16.67,6.72,33.33,10.08,50Z"/><path class="cls-5" d="m461.91,550h-162.9c-15.55-18.56-29.64-38.87-51.12-49.41-17.25-8.46-37.07-9.4-56.25-10.7-19.17-1.29-39.12-3.36-55.38-13.6-16.26-10.23-27.46-31.1-20.56-49.04,6.85-17.79,29.54-30.77,25.32-49.35-2.35-10.37-12.98-17-23.45-18.8-10.48-1.8-21.18.07-31.81.44-21.58.77-43.35-4.79-61.93-15.81-9.25-5.49-18.08-12.77-22.02-22.78s-1.47-23.14,7.79-28.62c11.42-6.75,28.48-.27,37.81-9.71,9.39-9.51,2.04-25.78-7.39-35.24-8.51-8.54-18.51-15.6-26.13-24.93s-12.69-21.99-9-33.46c3.68-11.47,18.88-18.99,28.6-11.88,5.25,3.85,8,10.91,14.05,13.31,6.26,2.49,13.68-1.5,16.97-7.38,3.29-5.89,3.3-13.05,2.39-19.72-2.44-17.88-10.75-34.75-11.66-52.77-.9-18.02,9.81-39.11,27.84-39.84,13.88-.56,25.41,11.35,30.8,24.15,5.38,12.81,6.6,27,11.28,40.08,4.69,13.08,14.52,25.94,28.31,27.63,7.09.87,14.09-1.3,21.01-3.95,8.88-3.4,17.64-7.58,26.32-7.14,2.13.1,4.25.49,6.37,1.23,12.52,4.39,17.87,19.43,17.94,32.69.02,3.71-.25,7.43-.59,11.14-.89,9.55-2.32,19.08-.91,28.53,1.96,13.12,12.33,26.67,25.54,25.43,14.39-1.36,22.69-18.71,36.83-21.6.04-.01.09-.02.13-.03,12.76-2.52,23.61,8.2,27.91,20.96,1.26,3.75,1.96,7.69,1.97,11.51,0,4.69-.6,9.29-1.56,13.86-1.31,6.31-3.27,12.54-5.12,18.8-1.58,5.35-3.08,10.73-4.02,16.19-.02.11-.04.21-.06.32-1.22,7.18-.95,15.12,1.04,22.24,1.56,5.61,4.19,10.7,8,14.5,2.55,2.57,5.62,4.56,9.26,5.74,16.75,5.45,34.4-9.24,51.45-8.91,1.09.02,2.18.1,3.27.26,1.01.13,2.02.34,3.02.62.23.05.46.12.69.19,9.43,2.86,15.87,11.44,18.97,20.97.07.21.14.43.2.64.59,1.91,1.05,3.86,1.37,5.8.91,5.58.94,11.22.66,16.88-.33,6.37-1.07,12.76-1.41,19.13-.03.5-.05,1-.07,1.5-.24,5.28-.19,10.57.13,15.84.28,4.72.78,9.42,1.49,14.09.21,1.38.43,2.77.69,4.15,3.54,19.77,10.87,38.87,21.61,55.85.91,1.46,1.86,2.9,2.83,4.33,4.42,6.5,9.33,12.65,14.23,18.8,4.57,5.74,9.15,11.48,13.33,17.52,2.09,3.02,4.09,6.14,5.92,9.35Z"/><path class="cls-11" d="m892.31,288.15c-6.54,26.59-23.78,50.58-47.28,65.75-15.28,9.86-32.74,15.97-49.92,22.51-4.83,1.84-9.65,3.71-14.38,5.71-3.33,1.41-6.62,2.89-9.86,4.46-1.38.66-2.76,1.35-4.12,2.06-4.75,2.47-9.35,5.19-13.74,8.26-.35.23-.69.48-1.03.72-4.76,3.41-9.15,7.15-13.22,11.19h-.01c-3.16,3.13-6.14,6.43-8.95,9.87-3.37,4.13-6.51,8.46-9.46,12.95-1.29,1.96-2.54,3.94-3.75,5.96-.49.79-.96,1.6-1.44,2.41-2,3.41-3.92,6.89-5.75,10.42-6.75,12.9-12.53,26.44-18.23,39.66-1.42,3.3-2.86,6.61-4.35,9.92-7.8,17.47-16.6,34.95-28.06,50h-21.21c5.52-6.14,10.57-12.69,15.2-19.44,6.74-9.82,12.68-20.11,18.3-30.56,6.81-12.68,13.16-25.62,19.92-38.33,1.02-1.95,2.07-3.89,3.12-5.82,1.1-2.01,2.22-4.02,3.35-6.02,1.87-3.3,3.8-6.59,5.79-9.83,3.04-4.96,6.22-9.84,9.59-14.58.17-.25.35-.49.53-.74,9.57-13.35,20.61-25.56,33.93-35.39,8.69-6.41,18.12-11.63,27.91-16.28,6.19-2.95,12.53-5.66,18.92-8.31,11.89-4.92,23.95-9.58,35.56-15,27.69-12.92,54.94-32.76,62.64-61.55Z"/><path class="cls-11" d="m826.72,424.1c13.15-2.49,26.57-3.53,39.54-6.85,12.96-3.31,25.78-9.21,34.32-19.51-6.13,12.11-18.39,20.14-31.28,24.42s-26.57,5.3-40.06,6.84c-13.46,1.54-25.91,4.35-38.38,9.52,10.18-8.17,23.23-12.03,35.86-14.42Z"/><path class="cls-11" d="m780.41,333.21c8.82-19.61,9.92-42.56,3.02-62.93,13.09,21.98,11.99,51.59-2.7,72.54-5.36,7.64-11.84,14.32-16.8,22.26-1.09-4.02,4.84-10.92,6.92-14.4,3.41-5.7,6.83-11.41,9.56-17.48Z"/><path class="cls-11" d="m865.38,286.81c8.58-9.78,16.52-20.25,22.19-31.96,5.67-11.71,9-24.75,8.08-37.73,3.1,14.48-.3,29.76-6.74,43.09-6.44,13.33-15.77,25.03-25.18,36.46-4.02,4.89-8.08,9.77-11.96,14.77-3.7,4.77-6.84,10.91-11.01,15.09-7.32-7.53,19.9-34.35,24.62-39.72Z"/><path class="cls-11" d="m920.07,316.15c8.73-2.72,17.71-3.66,26.36-6.83,8.65-3.17,17.31-9.09,21.84-18.77-2.43,10.84-10.64,18.88-19.26,22.95-8.62,4.08-17.82,5-26.83,6.92-9.37,2-16.52,6.17-24.71,11.82,4.33-9,14.94-13.71,22.59-16.1Z"/><path class="cls-10" d="m269.48,366.38l.19.22c-2.54-.44-5.01-.65-6.4-.8-6.06-.65-12.24-.23-18.15,1.24,6.13-.13,12.11,1.61,18.1,2.95,4.25.96,10.24,3.09,14.5,1.18,4.77,2.8,9.49,5.64,14.18,8.54-3.2.21-6.07.66-7.74,1.03-9.24,2.02-17.76,7.27-23.69,14.64,7.51-5.36,17.51-5.07,26.71-4.64,3.08.15,14.81,1.13,19.69-1.5.23.13.43.27.66.42,10.63,7.03,20.96,14.46,30.66,22.33-2.33-.67-4.5-1.15-5.79-1.44-11.82-2.67-24.65-1.11-35.23,4.9,5.88-2.03,12.36-1.21,18.36.41s11.79,4.03,17.91,5.21c2.3.43,11.85,1.53,14.54-.77,5.25,4.65,10.27,9.46,14.95,14.42,2.52,2.68,4.95,5.39,7.28,8.13-5.93-3.91-12.56-6.74-19.47-8.38-8.36-2-17.18-2.27-25.61-.6,6.53-1.29,15.38,3.22,21.06,5.92,6.96,3.3,13.66,7.24,21.02,9.64,2.01.66,6.99,2.97,8.43.69.09-.14.16-.26.21-.39,3.85,4.91,7.47,9.87,10.91,14.85,3.51,5.1,6.84,10.23,10.06,15.38,1.96,3.13,5.28,11.27,9,13.46,2.22-2.34-2.08-10.57-3.44-13.94-2.49-6.2-5.6-12.14-9.08-17.84-1.83-3.02-4.26-5.46-5.97-8.33l.74.34c-.6-.87-1.22-1.74-1.86-2.59-.31-.74-.55-1.53-.72-2.38-2.84-14.16-2.19-29.57.36-43.7-5.88,6.51-9.2,15.27-9.09,24.03.05,4.69,1.08,9.36,2.93,13.65-4.3-5.27-9-10.41-14-15.4-.63-.64-1.28-1.27-1.94-1.91.86-1.85-.12-6.63-.07-8.5.35-10.27,3.23-20.45,8.44-29.31-3.73,3-6.99,6.6-9.61,10.6-3.04,4.6-5.26,9.9-5.36,15.4-.02,1.62.16,4.02.77,6.29-3.78-3.45-7.71-6.83-11.76-10.11-.03-.03-.05-.05-.08-.08-1.08-7.75-3.68-14.57-2.88-22.85.81-8.42,3.59-16.69,8.23-23.79-7.82,5.54-13.79,14.09-15.04,23.61-.76,5.58.41,12.87,3.68,18.33-4.89-3.78-9.96-7.39-15.15-10.88,2.07-2.73-1.34-13.04-1.5-16.6-.27-6.56.25-13.16,1.63-19.58-3.45,4.51-6.75,9.21-8.79,14.51-1.81,4.77-2.59,10.21-1.24,15.2-2.28-1.43-4.57-2.83-6.88-4.2-1.12-.68-2.26-1.35-3.4-2.02-2.25-1.31-4.54-2.61-6.83-3.87-2.28-3.48-3.85-9.21-4.77-12.23-1.64-5.4-2.23-11.23-.76-16.67-4.11,5.06-5.8,11.98-4.49,18.37.46,2.24,1.29,4.41,2.43,6.4-7.7-4.1-15.52-7.95-23.42-11.58h-.02c-2.95-3.25-5.67-6.81-8.06-10.43-6.1-9.24-10.22-19.77-11.92-30.73-3.49,8.36-3.26,18.18.62,26.35,1.34,2.83,3.08,5.42,5.19,7.73-1.73-.6-3.51-1.05-5.32-1.39-.38-.06-.76-.13-1.15-.19-2.74-.45-5.53-.61-8.29-.52-8.42.26-16.65,2.72-24.39,6.07,7.88-.76,15.24-1.43,23.07-.89,6.72.45,13.42.87,20.14,1.3,4.24,2.4,8.5,4.83,12.72,7.27h.02Z"/><path class="cls-11" d="m386.67,550h-18.3c-6.49-8.37-12.2-17.01-17.08-24.76-5.21-8.27-10.2-16.78-15.26-25.24-10.35-17.3-21.01-34.4-34.47-48.89-3.63-3.91-7.47-7.63-11.56-11.11-1.05-.91-2.13-1.79-3.22-2.66-2.25-1.79-4.56-3.49-6.93-5.13-.24-.17-.48-.34-.73-.5-1.53-1.05-3.07-2.06-4.64-3.05-1.25-.81-2.52-1.59-3.8-2.35-1.99-1.21-4-2.38-6.03-3.52-26.53-14.96-56.04-25.89-74.64-49.62-24.58-31.36-23.11-76.41-43.74-110.49-14.89-24.61-41.37-41.85-69.9-45.52,32.01-1.1,63.92,17.08,79.3,45.17,18.14,33.14,14.63,77.44,41.1,104.39,15.89,16.18,39.12,22.19,59.14,32.84,4.94,2.63,9.67,5.52,14.21,8.65.09.07.19.14.29.2,3.23,2.24,6.36,4.59,9.4,7.05,3.67,2.96,7.2,6.06,10.62,9.3h0c1.76,1.66,3.47,3.33,5.17,5.05,1.72,1.74,3.41,3.51,5.07,5.31.05.04.09.09.13.13,1.44,1.56,2.87,3.15,4.28,4.75,3.27,3.71,6.44,7.52,9.52,11.4,11.6,14.55,22.09,30.09,32.41,45.21.77,1.13,1.54,2.26,2.32,3.39,7.49,10.98,15.05,21.95,23.11,32.53,4.55,5.97,9.26,11.82,14.22,17.47Z"/><path class="cls-10" d="m694.13,447.1c10.37-10.98,19.23-23.08,29.39-34.21-.03.22-.03.47,0,.72.31,2.36,3.74,3.2,5.41,4.41,2.44,1.77,4.51,4.01,7.13,5.52,2.7,1.55,6.2,2.25,8.87.66,2.32-1.4,3.47-4.38,3.07-7.06-.42-2.7-2.24-5.04-4.53-6.49-2.3-1.47-5.05-2.1-7.76-2.23-1.85-.09-6.38.1-9.38,1.4,2.71-2.84,5.52-5.61,8.47-8.27,4.61-4.15,9.47-8.08,14.56-11.65.48,2.84,2.84,6.26,4.61,8.04,2.78,2.77,7.32,4.12,10.75,2.21,2.25-1.26,3.69-3.78,3.75-6.37.07-2.57-1.21-5.12-3.24-6.73-2.24-1.77-5.22-2.39-8.09-2.24h-.08c6.33-3.87,12.97-7.2,19.9-9.78.12,3.09,5.04,8.96,7.4,10.91,2.73,2.19,6.86,3.47,10.08,2.19,3.46-1.39,4.67-5.41,3.16-8.62-1.54-3.16-5.18-5.42-9-6.41-.52-.12-1.23-.29-2.06-.45l-.07.03c.08-.13,1.03-.89,1.02-.96.02-.02.04-.02.05-.03-2.09.02-4.18.14-6.26.38-.29.02-.56.06-.83.1-5.08.58-10.1,1.7-14.99,3.29,1.8-2.35,2.16-6.99,2.58-9.12.43-2.5.61-5.38-1.07-7.31-1.56-1.75-4.34-2.06-6.51-1.15-2.18.91-3.8,2.82-4.96,4.88-1.19,2.1-1.96,4.69-1.03,6.95.82,2.03,4.63,6.09,7.47,6.98-4.63,1.69-9.12,3.79-13.44,6.16-1.25.68-2.48,1.41-3.7,2.14,3.23-6.08,5.16-12.86,5.58-19.74.12-1.68.13-3.4-.43-4.98-.53-1.57-1.72-3.02-3.32-3.48-2.22-.64-4.57.74-6.12,2.47-2.47,2.73-3.8,6.48-3.61,10.14.22,4.19,2.27,8.02,3.57,12,.59,1.81.98,3.79,1,5.68-4.59,2.93-8.98,6.17-13.22,9.63,2.43-6.15,4.56-12.43,4.84-18.99.18-4.52-.66-9.37-3.69-12.73-3.03-3.34-8.75-4.51-12.16-1.55-3.13,2.73-3.23,7.69-1.69,11.55,1.54,3.85,4.36,7.05,6.48,10.61,2.31,3.88,3.76,8.22,4.29,12.68-3.57,2.95-7.04,6.06-10.44,9.21-1.93,1.82-3.86,3.65-5.72,5.58.63-2.16.96-4.71,1.13-5.73.77-4.53.56-9.34-1.42-13.48-1.97-4.14-5.91-7.51-10.47-8-2.58-.3-5.36.4-7.17,2.26-3.21,3.31-2.33,8.95.33,12.71,2.66,3.75,6.64,6.31,9.91,9.54,1.16,1.16,3.04,5.04,4.61,5.95-3.04,3.38-5.86,6.96-8.2,10.85-2.03,3.35-9.91,16.9-4.76,19.88Z"/><path class="cls-11" d="m240.39,451.58c-18.05-4.45-37.05.56-55.63,1.02-18.58.46-38.85-3.05-51.34-16.8,16.23,10.14,36.5,11.03,55.6,9.85,19.1-1.18,39.55-7.86,57.23-.53,16.81,6.97,29.72,14.67,58.86,49.86-13.69-12.48-34.64-35.98-64.71-43.39Z"/><path class="cls-11" d="m73.14,320.18c-21.58.54-43.99,4.51-64.1-3.35,14.19,3.15,28.97,1.64,43.38-.29,14.41-1.93,29.1-5.25,43.42-2.72,16.84,2.97,56.62,22.51,70.45,72.41-26.68-51.63-55.55-67-93.15-66.05Z"/><path class="cls-11" d="m93.21,256.56c-15.52-7.31-32.81-10.66-47.67-19.23-14.86-8.57-27.43-25.02-23.78-41.78,2.46,16.16,16.32,28.26,30.92,35.6,14.6,7.34,30.76,11.46,44.76,19.89,10.12,6.1,23.7,18.12,23.83,31.05-6.83-11.3-15.89-19.81-28.07-25.54Z"/><path class="cls-11" d="m177.75,221.02c2.06-17.41,9.94-34.08,22.08-46.73-1.38,10.27-7.14,19.33-11.19,28.86-4.03,9.5-6.35,19.71-6.93,30.01-.46,8.16,2.51,27.3,5.39,49.46-5.55-11.21-10.81-49.35-9.36-61.61Z"/><path class="cls-11" d="m87.66,90.85c4.48,38.09,28.48,72.74,24.62,112.24-5.5-15.64-8.43-32.9-12.79-48.95-5.63-20.73-9.6-41.92-11.83-63.28Z"/><path class="cls-7" d="m864.63,159.15c-8,13.48-27,14.18-42.6,12.53-15.59-1.65-33.93-3.03-44.27,8.76-10.89,12.42-5.51,32.83,6.07,44.61,11.57,11.79,27.58,17.85,41.83,26.21,9.39,5.51,18.56,12.93,24.06,22.05,2.86,4.74,4.73,9.93,5.13,15.55.18,2.59.02,5.14-.45,7.61-.21,1.11-.48,2.22-.82,3.3-2.15,7.03-6.76,13.3-12.72,18.13-1.53,1.24-3.14,2.38-4.82,3.42-6.26,3.87-13.49,6.29-20.75,6.7-8.76.5-17.31-1.22-25.43-4.43-1.74-.69-3.46-1.44-5.15-2.26-5.66-2.72-11.06-6.12-16.13-9.92-3.03-2.28-5.95-4.69-8.72-7.2-2.87-2.59-5.64-5.29-8.35-8.05-2.82-2.87-5.57-5.81-8.29-8.78-8.65-9.41-17.04-19.07-26.52-27.6-.59-.53-1.19-1.06-1.8-1.59-.53-.46-1.06-.91-1.6-1.37-2.71-2.27-5.53-4.44-8.45-6.46-6.99-4.85-14.56-8.87-22.48-11.39-1.14-.36-2.29-.7-3.44-.99-5.6-1.46-11.35-2.15-17.2-1.84l-.54.03c-8.24.51-16.21,2.96-24.13,5.66-6.46,2.2-12.89,4.56-19.39,6.16-5.74,1.41-11.54,2.22-17.48,1.8-8.01-.57-15.64-3.33-23.08-6.98-.1-1.07-.22-2.06-.36-2.94-.05-.3-.1-.58-.15-.85,0-.04,0-.08-.02-.11-.02-.14-.04-.28-.07-.42-.08-.45-.2-.88-.36-1.3,0-.02,0-.03-.02-.05,0-.02,0-.03-.02-.05-3-8.94-24.26-13.24-31.13-14.42-.21-.07-.41-.13-.6-.21-.6-.2-1.14-.41-1.64-.63-1.12-.48-2.01-.98-2.71-1.49,0-.01-.02-.02-.03-.03-.93-.75-1.72-1.64-2.38-2.62-.55-.79-1-1.64-1.38-2.53-.12-.29-.23-.59-.34-.89-.13-.33-.24-.67-.34-1-1.43-4.62-1.36-9.22-1.36-9.22.27-.38.52-.77.76-1.19,1.23-2.06,2.15-4.47,2.69-7.12,2.45,1.7,6.32-8.05,4.13-10.12-1.46-1.38-2.92-.24-3.82.77-.38-.02-9.55-.55-13.08-6.96-4.08,3.51-8.54,9.29-14.03,6.97-.88-1.01-2.36-2.16-3.82-.78-2.19,2.07,1.68,11.82,4.13,10.12.87,4.24,2.73,7.89,5.18,10.42h0c-.14,2-.53,5.12-1.61,8.11h0s-.02.08-.03.11c-.13.35-.27.7-.42,1.05-.12.29-.25.57-.39.85-.01.02-.02.05-.03.07-.14.29-.29.57-.45.84-.17.3-.35.59-.54.87-.47.71-1.02,1.37-1.63,1.95-.24.23-.49.45-.76.65-.13.1-.27.2-.41.3h0c-.19.15-.39.28-.6.39-.04.03-.08.05-.11.07-.22.12-.44.24-.67.34-.2.1-.4.18-.61.25-.31.12-.64.23-.98.31-.15.04-.3.07-.45.11-.01,0-.01.01-.02.01-2.15.53-4.82,1.11-7.71,1.8-.65.16-1.32.32-1.99.49-4.84,1.22-10.05,2.76-14.28,4.89-.19.09-.37.18-.55.28-.18.09-.36.19-.54.29-.9.49-1.75,1.02-2.53,1.58-.14.1-.28.2-.41.3-.89.67-1.68,1.38-2.34,2.15-.11.13-.22.26-.32.39-.2.24-.38.49-.55.75-.45.69-.81,1.42-1.05,2.19-.04.11-.07.22-.1.33-.06.2-.1.4-.14.61-.03.17-.06.35-.09.53-.06.34-.11.69-.15,1.07-.03.24-.06.49-.08.74-.04.37-.07.75-.1,1.15,0,.06,0,.13-.02.19,0,.2-.02.4-.03.6-.02.2-.03.4-.04.61v.21c-.02.22-.03.45-.03.68-.02.21-.03.42-.03.64,0,.05-.01.1,0,.15v.12c-.02.42-.03.86-.04,1.31v.15c0,.15,0,.3,0,.45,0,.36-.01.73-.01,1.11-.05,3.21-.05,6.79-.07,10.5-1.24,1.62-2.51,3.19-3.82,4.71-5.97,6.93-13.1,12.78-20.96,17.4-5.59,3.29-11.55,5.95-17.72,7.94-2.1.68-4.24,1.28-6.39,1.79-1.63.4-3.28.75-4.94,1.05-.04,0-.09.01-.13.02-3.56.64-6.99,1.07-10.29,1.29-2.43.18-4.78.23-7.08.18-1.56-.03-3.1-.11-4.61-.25-20.73-1.81-36.58-12.84-51.51-31.52-7.53-9.43-14.68-20.06-22.74-29.72-9.42-11.3-20.1-21.25-34.11-26.33-15.36-5.57-32.25-3.92-48.52-5.47-5.34-.51-10.85-1.55-16.07-3.25-10.68-3.45-20.18-9.63-24.63-19.66-.12-.27-.24-.55-.34-.82-.15-.35-.28-.7-.4-1.05-2.76-7.7-1.8-16.04,1.65-23.53,4.17-9.08,11.98-16.9,21.24-20.82,17.52-7.42,37.84-3.89,55.56,3.06,11.41,4.48,22.47,10.36,34.58,12.27,5.26.83,10.86.72,16.08-.49,2.89-.68,5.66-1.69,8.2-3.07,3.44-1.87,6.44-4.42,8.7-7.72,8-11.69,3.93-27.35,1.45-41.3-.87-4.92-1.26-10.31-.83-15.49.33-4.06,1.17-7.99,2.67-11.45,2.02-4.64,5.23-8.44,10.02-10.59,6.58-2.94,13.97-1.66,21.29-1.22,2.18.12,4.36.18,6.5.02,21.72-1.59,35.96-24.43,39.25-45.97.44-2.89.75-5.8.97-8.71h193.81c.68,9-.96,18.37-1.48,27.5-.73,12.79,2.01,27.65,13.15,33.98.86.49,1.73.91,2.6,1.26,19.46,7.93,43.17-15.26,63.85-7.95,14.87,5.25,20.16,23.2,30.65,34.98,11.5,12.91,29.39,18.17,46.59,19.86,8.41.82,16.87.93,25.32,1.16,6.16.15,12.32.36,18.43.94,2.67.25,5.34.57,7.99.99,1.52.24,3.04.51,4.56.83,1.17.24,2.34.51,3.5.81,8.81,2.25,17.22,6.07,23.5,12.54,8.18,8.42,11.68,22.16,5.68,32.25Z"/><path class="cls-7" d="m473.57,244.27c-.02.71-.05,1.45-.07,2.22.01-.49.02-.97.04-1.43-.01-.05,0-.1,0-.15,0-.22.01-.43.03-.64Z"/><path class="cls-7" d="m473.64,242.77c-.02.25-.03.5-.04.75v-.14c0-.21.02-.41.04-.61Z"/><path class="cls-7" d="m576.58,238.91c-.13-.65-.27-1.22-.43-1.72.16.42.28.85.36,1.3.03.14.05.28.07.42Z"/><path class="cls-10" d="m576.58,238.91c-.13-.65-.27-1.22-.43-1.72.16.42.28.85.36,1.3.03.14.05.28.07.42Z"/><path class="cls-10" d="m591.4,315.82c-1.04-.66-2.18-2.24-3.33-4.37.52.92,1.02,1.72,1.52,2.39.12.19.26.36.39.53.09.11.17.22.27.32.15.19.3.36.45.51.14.14.27.26.4.37.1.09.2.18.3.25Z"/><path class="cls-10" d="m473.57,244.27c-.02.71-.05,1.45-.07,2.22.01-.49.02-.97.04-1.43-.01-.05,0-.1,0-.15,0-.22.01-.43.03-.64Z"/><path class="cls-10" d="m473.64,242.77c-.02.25-.03.5-.04.75v-.14c0-.21.02-.41.04-.61Z"/><path class="cls-1" d="m399.3,352.24c-.09-.33-.18-.67-.28-1.04-.02-.08-.04-.14-.06-.22.01,0,.02.01.02.01.12.44.22.86.32,1.25Z"/><path class="cls-1" d="m400.71,357.75c-.07-.26-.14-.55-.23-.88.1.34.17.63.23.88Z"/><path class="cls-1" d="m403.87,365.41c-.07.02-.15.04-.22.06-.77-.82-1.19-1.72-1.43-2.5-.9-2.95-.99-3.18-1.35-4.6.3,1.1.44,1.56,1.26,4.21.19.64.51,1.35,1.03,2.04.1.14.21.27.33.4.12.13.24.27.38.39Z"/><path class="cls-1" d="m550.05,350.44c-.9.13-1.84.25-2.81.36.96-.11,1.9-.24,2.81-.36Z"/><path class="cls-1" d="m571.66,344.76c-1.37.68-7.17,3.31-18.13,5.14,10.47-1.82,16.34-4.33,18.13-5.14Z"/><path class="cls-1" d="m571.89,344.2s-.01,0-.03.02c-.36-1.1-1.8-5.55-7.57-23.38-.01-.06-.03-.12-.05-.18.08.21.16.42.24.64,0,0,.01.01.01.02l7.4,22.88Z"/><path class="cls-1" d="m591.4,315.82c-1.04-.66-2.18-2.24-3.33-4.37.52.92,1.02,1.72,1.52,2.39.12.19.26.36.39.53.09.11.17.22.27.32.15.19.3.36.45.51.14.14.27.26.4.37.1.09.2.18.3.25Z"/><path class="cls-1" d="m473.57,244.27c-.02.71-.05,1.45-.07,2.22.01-.49.02-.97.04-1.43-.01-.05,0-.1,0-.15,0-.22.01-.43.03-.64Z"/><path class="cls-1" d="m473.64,242.77c-.02.25-.03.5-.04.75v-.14c0-.21.02-.41.04-.61Z"/><path class="cls-1" d="m578.57,342.79c-.28-.19-3.64-2.45-6.88-7.13,1.94,2.72,4.15,4.99,6.88,7.13Z"/><path class="cls-7" d="m550.05,350.44c-.9.13-1.84.25-2.81.36.96-.11,1.9-.24,2.81-.36Z"/><path class="cls-7" d="m571.66,344.76c-1.37.68-7.17,3.31-18.13,5.14,10.47-1.82,16.34-4.33,18.13-5.14Z"/><path class="cls-4" d="m662.82,168.95c-21.45,39.27-28.81,84.45-35.85,128.63,11.85-40.72,41.14-76.05,78.97-95.23-25.92,30.79-47.6,65.15-64.24,101.8,7.69-19.4,23.3-35.11,41.68-44.99,18.38-9.88,39.39-14.2,60.25-14.73-36.16,13.27-67.58,39.08-87.62,71.97,13.26-16.42,34.15-25.21,55.06-28.07,20.91-2.86,42.14-.43,63.1,2.01-22.67,5.66-45.47,11.36-66.8,20.88-21.34,9.52-41.34,23.16-55.03,42.09,29.97-14.6,65.33-9.66,98.25-4.4-29.21-.55-58.52,7.97-82.89,24.09,12.49-2.22,25.35-2.3,37.86-.25-17.07.68-33.82,7.58-46.42,19.12-5.34,4.89-10.13,10.7-16.76,13.6-10.22,4.47-22.72.61-30.71-7.18-11.11-10.83-12.34-21.94-10.93-36.12,1.63-16.41-.29-33.09,1.59-49.64,3.79-33.36,13.7-66.01,29.08-95.85,8.74-16.96,19.26-33.01,31.41-47.72Z"/><path class="cls-4" d="m451.3,341.04c-6.53-38.93-3.66-79.41,8.31-117.03-22.8,24.12-33.34,59.28-27.58,91.97-20.62-43.25-47.33-84.49-84.21-115.07,24.93,32.86,45.39,69.11,60.65,107.43-38.83-60.46-108.68-99.77-180.51-101.58,27.8,4.09,53.7,17.29,75.83,34.6,22.14,17.31,40.8,38.63,58.21,60.69-39.82-30.41-91.25-45.19-141.14-40.56,48.44,5.06,91.16,32.78,131.38,60.25-37.08-18.24-83.92-14.78-117.91,8.72,41.85-1.7,83.91,1.91,124.86,10.71-19.52-3.77-40.54,1.12-56.39,13.12,22.56-2.18,45.69,1.89,66.15,11.62-7.46,1.06-14.52,4.79-19.61,10.35,7.78-3.15,16.7-1.49,24.51,1.59s15.07,7.51,23.05,10.07c14.85,4.77,31.55,1.87,44.63-6.36,5.35-3.37,14.5-9.86,16.46-16.27,2.02-6.61-5.43-16.71-6.7-24.24Z"/><path class="cls-10" d="m537.65,195.74c-.54,2.65-1.46,5.06-2.69,7.12-.24.42-.49.81-.76,1.19-2.03,2.92-4.68,4.94-7.66,5.59-.69.16-1.41.24-2.13.24-.11,0-.22,0-.33-.01-2.38-.07-4.61-1.01-6.55-2.61-.41-.33-.8-.7-1.19-1.09h0c-2.45-2.54-4.31-6.19-5.18-10.43-2.45,1.7-6.32-8.05-4.13-10.12,1.46-1.38,2.94-.23,3.82.78,5.49,2.32,9.95-3.46,14.03-6.97,3.53,6.41,12.7,6.94,13.08,6.96.9-1.01,2.36-2.15,3.82-.77,2.19,2.07-1.68,11.82-4.13,10.12Z"/><path class="cls-10" d="m535.9,214.27c-.12.04-.24.09-.35.13-1.16.39-2.29.7-3.39.95-.18.04-.37.08-.54.12-.82.17-1.74.33-2.75.45-.22.02-.43.05-.66.06-.21.02-.42.04-.64.06-.34.03-.68.05-1.03.07-.78.03-1.6.03-2.46,0-.41,0-.84-.04-1.27-.07-.24-.02-.49-.04-.73-.07-.22-.01-.43-.04-.66-.06-.88-.1-1.8-.25-2.75-.45-.18-.04-.37-.09-.57-.13-1.09-.24-2.21-.55-3.36-.94-.02-.01-.03-.01-.04-.02,0-.03.02-.07.03-.1h0c1.08-3,1.47-6.12,1.61-8.11.39.39.78.76,1.19,1.09.17.41.53.86,1.08,1.35,1.69,1.52,3.58,2.58,5.47,3.29.82.32,1.65.57,2.46.77,4.33,1.09,8.2.7,9.02.6.1.33.21.67.34,1Z"/><path class="cls-10" d="m680.97,367.05c6.4,2.56,7.37,4.41,5.2,5.21-1.87.68-25.55-3.58-37.21-6.3-.62-.32-1.26-.64-1.92-.95.52-.69.84-1.4,1.03-2.04,1.6-5.21.64-1.93,3.2-11.77,0,0,18.81-10.97,19.86-9.84,1.03,1.12-5.05,6.8-4.49,8,.56,1.2,1.36,1.84,4.01,2.88,2.64,1.04,6.48.32,4.56-2.16-1.92-2.49-4.01-7.53-2.49-7.92,1.53-.41,8.89,8.16,9.53,10.01,1.2-3.21,4.4-5.54,5.36-4.33.96,1.2-.4,8.64-1.2,9.85-.8,1.19,2.48-2.81,3.53-1.76,1.03,1.03.48,9.92-8.97,11.12Z"/><path class="cls-10" d="m403.65,365.47c-10.7,2.68-37.22,7.52-39.21,6.79-2.16-.8-1.2-2.65,5.21-5.21-9.45-1.2-10.01-10.09-8.97-11.12,1.05-1.05,4.33,2.95,3.53,1.76-.81-1.21-2.16-8.65-1.2-9.85.95-1.21,4.15,1.12,5.36,4.33.64-1.85,8-10.42,9.52-10.01,1.53.39-.56,5.43-2.48,7.92-1.92,2.48,1.92,3.2,4.56,2.16,2.65-1.04,3.45-1.68,4.01-2.88.55-1.2-5.53-6.88-4.49-8,.96-1.04,16.8,8.07,19.47,9.62.02.08.04.14.06.22.1.37.19.71.28,1.04,0,.03.02.06.02.09.09.36.18.7.26,1.01.18.68.33,1.27.46,1.79.04.15.08.29.11.43.04.15.07.3.11.44.09.33.16.61.22.87.09.33.16.62.23.88.01.04.02.08.03.12.02.1.05.18.07.27.02.08.04.16.06.23.36,1.42.45,1.65,1.35,4.6.24.78.66,1.68,1.43,2.5Z"/><path class="cls-3" d="m535.56,213.27c-.82.1-4.69.49-9.02-.6-.81-.2-1.64-.45-2.46-.77-1.89-.71-3.78-1.77-5.47-3.29-.55-.49-.91-.94-1.08-1.35,1.94,1.6,4.17,2.54,6.55,2.61.11.01.22.01.33.01.72,0,1.44-.08,2.13-.24,2.98-.65,5.63-2.67,7.66-5.59,0,0-.07,4.6,1.36,9.22Z"/><path class="cls-1" d="m651.27,351.2c-2.56,9.84-1.6,6.56-3.2,11.77-.19.64-.51,1.35-1.03,2.04-.1.14-.21.27-.33.4-3.95,4.48-17.17,7.22-61.09-18.42-2.09-1.22-4.25-2.51-6.48-3.86-.18-.11-.37-.22-.55-.33,0,0-.01,0-.02-.01-2.73-2.14-4.94-4.41-6.88-7.13-.19-.27-.38-.55-.57-.83-.16-.23-.31-.47-.46-.72-.17-.27-.33-.54-.5-.82-.32-.56-.65-1.13-.96-1.7-.16-.29-.32-.58-.47-.88-1.69-3.19-3.17-6.59-4.24-9.39,0-.01-.01-.02-.01-.02-.08-.22-.16-.43-.24-.64.02.06.04.12.05.18,5.77,17.83,7.21,22.28,7.57,23.38.03.1.05.18.07.23l.05.14s-.06.03-.09.05c-.02.01-.04.02-.07.04-.05.02-.11.05-.16.08-1.79.81-7.66,3.32-18.13,5.14-.36.06-.72.12-1.09.18-.38.06-.77.12-1.16.18-.4.06-.81.12-1.23.18-.91.12-1.85.25-2.81.36-.49.06-.99.12-1.49.17-.58.06-1.17.13-1.78.18-1.19.11-2.41.21-3.68.3-.42.03-.84.06-1.26.09h-.03c-.55.03-1.11.06-1.68.09-.75.04-1.52.07-2.3.1-.09.01-.19.01-.29.01-.68.03-1.38.05-2.08.06-.81.02-1.63.03-2.46.04-1.62.01-3.3.01-5.02-.02h-.03c-1.26.02-2.49.03-3.69.03-30-.05-43.14-7.26-43.14-7.26l6.64-20.52c.09-.43.19-.86.29-1.3-1.44,3.57-3.43,7.8-5.6,11.34-3.68,5.96-7.94,8.69-7.94,8.69-.86.52-1.73,1.04-2.57,1.55-1.8,1.07-3.55,2.11-5.24,3.08-43.09,25.05-56.25,22.45-60.24,18.04.07-.02.15-.04.22-.06-.14-.12-.26-.26-.38-.39-.12-.13-.23-.26-.33-.4-.52-.69-.84-1.4-1.03-2.04-.82-2.65-.96-3.11-1.26-4.21-.02-.07-.04-.15-.06-.23-.02-.09-.05-.17-.07-.27-.01-.04-.02-.08-.03-.12-.06-.25-.13-.54-.23-.88-.06-.26-.13-.54-.22-.87-.04-.14-.07-.29-.11-.44-.03-.14-.07-.28-.11-.43-.13-.52-.28-1.11-.46-1.79-.08-.32-.16-.65-.26-1.01,0-.03,0-.06-.02-.09-.1-.39-.2-.81-.32-1.25-.02-.06-.03-.12-.05-.18-5.45-18.97,55.8-32.82,59.87-35.38,2.61-1.64,5.82-9.11,8.53-16.44,1-2.64,2.05-5.55,3.16-8.7.27-.77.52-1.6.74-2.46,0-.01.01-.02.01-.03,0-.03.02-.05.02-.08.31-.9.54-2.1.72-3.53,0-.01,0-.02.01-.04,1.07-6.36,1.33-14.22,1.4-21.82,0-1.22.02-2.43.02-3.63.02-3.71.02-7.29.07-10.5,0-.38.01-.75.01-1.11,0-.15,0-.3,0-.45v-.15c.02-.77.05-1.51.07-2.22,0-.23.01-.46.03-.68v-.07c0-.25.02-.5.04-.75,0-.2.02-.4.03-.6.01-.06.01-.13.02-.19.03-.4.06-.78.1-1.15.02-.25.05-.5.08-.74.04-.38.09-.73.15-1.07.03-.18.06-.36.09-.53.04-.21.08-.41.14-.61.03-.11.06-.22.1-.33.24-.77.6-1.5,1.05-2.19.17-.26.35-.51.55-.75.1-.13.21-.26.32-.39.66-.77,1.45-1.48,2.34-2.15.13-.1.27-.2.41-.3.78-.56,1.63-1.09,2.53-1.58.18-.1.36-.2.54-.29.18-.1.36-.19.55-.28,4.23-2.13,9.44-3.67,14.28-4.89.67-.17,1.34-.33,1.99-.49,2.89-.69,5.56-1.27,7.71-1.8,0,0,0-.01.02-.01.15-.04.3-.07.45-.11.34-.08.67-.19.98-.31.21-.07.41-.15.61-.25.23-.1.45-.22.67-.34.03-.02.07-.04.11-.07.21-.11.41-.24.6-.39h0c.14-.1.28-.2.41-.3.27-.2.52-.42.76-.65.61-.58,1.16-1.24,1.63-1.95.19-.28.37-.57.54-.87.16-.27.31-.55.45-.84.01-.02.02-.05.03-.07.14-.28.27-.56.39-.85.15-.35.29-.7.42-1.05,0,.01.02.01.04.02,1.15.39,2.27.7,3.36.94.2.04.39.09.57.13.95.2,1.87.35,2.75.45.23.02.44.05.66.06.24.03.49.05.73.07.43.03.86.06,1.27.07.86.02,1.68.02,2.46,0,.35-.02.69-.04,1.03-.07.22-.02.43-.04.64-.06.23-.01.44-.04.66-.06,1.01-.12,1.93-.28,2.75-.45.17-.04.36-.08.54-.12,1.1-.25,2.23-.56,3.39-.95.11-.04.23-.09.35-.13.11.3.22.6.34.89.38.89.83,1.74,1.38,2.53.66.98,1.45,1.87,2.38,2.62.01.01.02.02.03.03.7.51,1.59,1.01,2.71,1.49.5.22,1.04.43,1.64.63.19.08.39.14.6.21,6.87,1.18,28.13,5.48,31.13,14.42.01.02.01.03.02.05.01.02.01.03.02.05.16.5.3,1.07.43,1.72.01.03.01.07.02.11.21,1.08.38,2.36.51,3.79,1.05,11.31-.13,31.91,1.1,41.73.01.02.01.03.01.04.2,1.24.44,2.42.72,3.53,0,.03.01.05.02.08,0,.01.01.02.01.03,1.02,2.98,2.38,7.05,3.9,11.16,2.53,6.68,4.73,11.65,6.72,14.46-.5-.67-1-1.47-1.52-2.39,1.15,2.13,2.29,3.71,3.33,4.37,4.07,2.56,65.32,16.41,59.87,35.38Z"/><path class="cls-10" d="m563.92,413.38s-.02-.01-.05-.02c-.5-.18-4.73-1.66-10.9-3.23-.43-.11-.88-.22-1.34-.33-.02-.01-.04-.01-.06-.01-5.69-1.39-12.81-2.99-20.21-4.32-5.13-.92-8.69-1.26-11.56-1.26-6.61-.02-9.51,1.68-19.34,1.9-14.08.32-25.93-2.24-25.93-2.24-4.96,6.08-16,7.52-17.29,4.8-1.28-2.72-4.16-5.76,5.76-13.13,9.93-7.36,26.42-10.4,39.22-12.32,8.69-1.31,14.06-6.51,18.46-9.68,2.09-1.49,3.96-2.54,5.86-2.49,1.72.05,3.2,1.42,4.45,3.35,3,4.65,4.56,12.5,4.56,12.5l25.48,3.47,2.84,22.62h0s.05.39.05.39Z"/><path class="cls-7" d="m644.5,413c-13.45,5.68-42.02,10.49-69.88,3.28-3.76-.98-7.33-1.95-10.7-2.9l-.05-.38h0s4.63-21.61,4.63-21.61l-7.47-1.02-25.48-3.47s-1.56-7.85-4.56-12.5c-1.25-1.93-2.73-3.3-4.45-3.35-1.9-.05-3.77,1-5.86,2.49-4.4,3.17-9.77,8.37-18.46,9.68-12.8,1.92-29.29,4.96-39.22,12.32-9.92,7.37-7.04,10.41-5.76,13.13,1.29,2.72,12.33,1.28,17.29-4.8,0,0,11.85,2.56,25.93,2.24,9.83-.22,12.73-1.92,19.34-1.9-10.13,2.35-23.99,7.21-42.79,12.07-27.85,7.21-56.43,2.4-69.87-3.28-13.45-5.69-25.7-21.7-15.85-38.26,1.92-3.23,6.39-6.35,12.36-9.27,3.99,4.41,17.15,7.01,60.24-18.04,8.61-1.81,14.42-2.84,14.42-2.84,0,0,13.14,7.21,43.14,7.26,1.2,0,2.43-.01,3.69-.03h.03c1.72.03,3.4.03,5.02.02.83-.01,1.65-.02,2.46-.04.7-.01,1.4-.03,2.08-.06.1,0,.2,0,.29-.01.78-.03,1.55-.06,2.3-.1.57-.03,1.13-.06,1.68-.09h.03c.42-.03.84-.06,1.26-.09,1.27-.09,2.49-.19,3.68-.3.61-.05,1.2-.12,1.78-.18.5-.05,1-.11,1.49-.17.97-.11,1.91-.23,2.81-.36.42-.06.83-.12,1.23-.18.39-.06.78-.12,1.16-.18.37-.06.73-.12,1.09-.18,10.96-1.83,16.76-4.46,18.13-5.14.05-.03.11-.06.16-.08.03-.02.05-.03.07-.04.03-.02.06-.04.09-.05,0,0,6.2.86,13.64,2.4,43.92,25.64,57.14,22.9,61.09,18.42.12-.13.23-.26.33-.4.66.31,1.3.63,1.92.95,5.48,2.78,9.57,5.73,11.39,8.78,9.84,16.56-2.4,32.57-15.85,38.26Z"/><polygon class="cls-3" points="568.5 391.39 563.92 413.38 561.03 390.37 568.5 391.39"/><path class="cls-4" d="m763.94,435.49c2.78-6.06,8.61-10.05,14.17-13.73.41,7.09.81,14.17,1.21,21.26-3.96-1.93-8.42-3.02-13.13-3.02h-500c-4.4,0-8.58.95-12.34,2.66.46-5.32,2.05-11.33,3.83-15.6,1.33,2.48,2.66,4.96,3.99,7.44,1.89-9.27,4.82-18.32,8.73-26.93.14,9.23.28,18.45.42,27.68,1.66-4.06,4.16-7.78,7.29-10.85.45,3.26.9,6.53,1.35,9.79,2.34-10.37,1.01-21.54-3.72-31.07,9.41,8.59,15.78,20.44,17.75,33.03,1.21-5.05,3.45-9.84,6.54-14.01.22,4.44.45,8.89.67,13.33,2.2-4.48,3.02-9.62,2.33-14.56,2.9,3.84,4.6,8.58,4.8,13.4.76-15.72-6.44-31.62-18.77-41.4,18.42,6.08,33.61,21.17,39.81,39.55-1.79-5.93-2.13-12.29-.97-18.38,3.6,7.28,7.19,14.56,10.79,21.84-.56-8.18,1.26-16.52,5.18-23.73,1.08,8.51,2.16,17.02,3.24,25.53,1.75-1.44,3.08-3.4,3.76-5.56,2.02.96,5.16,2.02,7.81,3.53-2.03-2.73-4.38-5.2-7.01-7.36,5.43.15,10.76,2.61,14.4,6.65-1.52-16.25,4.87-33.06,16.82-44.19-9.25,12.16-10.98,29.59-4.31,43.32.84-6.2,3.43-12.16,7.39-17.01-.27,6.41,2.14,12.9,6.52,17.6,3.96-3.74,7.92-7.48,11.89-11.21,2.82,3.5,5.65,7.01,8.48,10.52,1.25-3.9.64-8.34-1.6-11.76,5.36,2.99,9.89,7.45,12.96,12.76,3.95-.77,7.29-4.08,8.09-8.04,1.45,2.71,2.9,5.43,4.35,8.14,2.83-1.83,4.7-5.04,4.91-8.4,1.82,2.9,3.65,5.8,5.47,8.7,1.03-2.57,2.07-5.15,3.1-7.72.48,3.17,2.66,6.02,5.59,7.31,1.43-2.63,2.86-5.27,4.29-7.9,3.34,4.63,8.46,7.93,14.06,9.04,1.29-1.41,2.58-2.82,3.88-4.23,1.32,1.22,2.64,2.44,3.96,3.66,7.85-3.5,13.91-10.8,15.9-19.17.49,6.8,3.51,13.38,8.35,18.18,1.9-6.35,1-13.49-2.42-19.18,5.15,6.09,10.3,12.17,15.45,18.25,4.73-3.52,7.41-9.62,6.79-15.48,2.12,5.06,4.24,10.12,6.36,15.18,4.24-2.79,7.44-7.1,8.89-11.96,1.3,3.91,2.6,7.82,3.9,11.73,2.93-.74,5.39-3.11,6.23-6.01,1.03,2.33,2.06,4.65,3.09,6.98,1.72-4.25,1.77-9.15.12-13.44,2.62,4.45,5.24,8.89,7.86,13.33.92-1.67,1.83-3.34,2.74-5.01,1.33,2.4,2.67,4.8,4,7.21,1.33-2.29,2.66-4.58,3.98-6.87,1.1,2.34,2.21,4.68,3.31,7.02,2.32-1.71,3.99-4.29,4.58-7.11,1.26,2.53,2.51,5.06,3.77,7.59,5.23-1.26,9.69-5.32,11.45-10.41,1.17,3.56,2.35,7.11,3.52,10.67,3.21-1.74,5.81-4.58,7.27-7.93,1.25,2.39,2.51,4.78,3.77,7.17,5.83-1.19,10.64-6.31,11.46-12.2.81,3.84,1.62,7.68,2.44,11.53,4.13-3.09,6.84-8.02,7.22-13.17,3.49,3.73,5.5,8.82,5.5,13.93,4.93-4.33,7.45-11.23,6.46-17.7,2.22,4.64,3.28,9.82,3.09,14.95,9.53-10.32,15.85-23.58,17.86-37.49,1.24,12.95.48,26.09-2.25,38.81,5.54-5.01,8.24-12.96,6.91-20.3,1.71,7.23,3.41,14.46,5.12,21.7.6-4.06,3.57-7.67,7.43-9.05-1.71,3.23-2.26,7.02-1.67,10.62,2.32-6.66,12.1-13.64,16.74-16.19-3.29,4.9-2.62,12.09,1.52,16.3,6.49-9.28,9.02-21.24,6.84-32.36,5.56,9.19,8.41,19.99,8.11,30.73,3.01-2.94,4.82-7.08,4.93-11.28,1.48,4.29,2.43,8.77,2.84,13.29,4.74-8.15,11.84-14.92,20.21-19.25-2.86,5.07-5.81,11.04-3.66,16.46,8.5-23.39,30.03-41.54,54.51-45.97-17.08,8.27-28.64,26.85-28.5,45.82Z"/></svg>