<?xml version="1.0" encoding="UTF-8"?><svg id="Layer_1" xmlns="http://www.w3.org/2000/svg" width="550" height="100" viewBox="0 0 560 100"><path d="m12.39,99.11c.94-.18,1.91-.43,2.61-1.11.75-.72,1.06-1.8,1.32-2.83,4.2-16.63,2.79-34.14,2.83-51.33.02-7.59.44-15.57,4.28-22.01.28-.47.65-.98,1.18-1.04,1.03-.12,1.42,1.35,1.42,2.43-.05,12.06-1.59,24.07-1.54,36.13.05,11.41,1.53,22.95-.52,34.16-.28,1.54-.59,3.29.3,4.56,1.07,1.53,3.22,1.5,5.02,1.31,2.89-.29,5.79-.59,8.68-.88,1.33-.13,2.71-.29,3.84-1.02,2.12-1.37,2.7-4.28,2.95-6.87.52-5.57.37-11.18.36-16.77,0-12.37.72-24.74,2.19-37.01.53-4.45,1.17-8.91,2.58-13.15.44-1.32,1.42-2.88,2.72-2.52,1.21.34,1.41,2.02,1.36,3.33-.82,22.65-1.65,45.3-2.47,67.95-.04,1.23-.08,2.52.46,3.61,1.27,2.59,4.79,2.62,7.52,2.04,1.21-.26,2.53-.64,3.22-1.71.61-.95.57-2.19.49-3.33-.17-2.71-.34-5.42-.49-8.13-1.39-24.66-1.47-49.4-.24-74.07.17-3.39,0-7.52-2.85-9.16-.88-.51-1.9-.68-2.89-.84-2.53-.42-5.59-.63-7.17,1.47-1.5,1.98-.77,4.83-.64,7.35.23,4.37-1.57,8.54-3.02,12.64-4.15,11.75-5.66,24.3-7.14,36.73-.99,8.27-1.97,16.54-2.68,24.85-.19,2.19-.65,4.81-2.62,5.59.08-9.74.16-19.49.24-29.23.07-7.86.13-15.73.81-23.55.49-5.64,1.3-11.26,1.32-16.92.02-5.05-.6-10.07-1.21-15.07-.1-.85-.24-1.77-.8-2.4-.48-.54-1.19-.76-1.87-.97-2.06-.63-4.18-1.26-6.32-1.07s-4.34,1.4-5.13,3.48c-.71,1.87-.17,3.96-.15,5.97.05,4.64-2.64,8.74-4.66,12.88-2.67,5.47-4.29,11.49-4.73,17.61-.39,5.5.16,11.04-.15,16.54-.33,5.86-1.63,11.61-3.05,17.3-1.75,7.02-3.2,14.35-6.66,20.68-1.07,1.97-2.01,3.56.5,4.45,3.17,1.12,7.58.58,10.79-.05Z" style="fill:#77afaf;"/><path d="m123.19,31.72c-1.52-8.48-5.32-16.32-9.08-24.02-.79-1.61-1.59-3.25-2.83-4.48-1.46-1.43-3.39-2.22-5.35-2.69-4.72-1.1-9.6-.38-14.23.78-3.54.9-9.4,1.75-12.02,4.66-1.95,2.17-2.64,6.27-3.8,8.93-1.93,4.41-4.01,8.77-5.35,13.43-1.09,3.89-1.63,7.95-2.19,11.98-1.44,10.68-2.88,21.58-1.03,32.19.64,3.6,1.65,7.14,2.66,10.65,1.12,3.89,2.32,7.97,5.09,10.83,2.7,2.8,6.53,4.07,10.28,4.59,3.76.51,7.58.4,11.36.87,2.04.25,4.1.69,6.16.49,3.86-.4,7.19-3,9.79-6,2.17-2.48,3.97-5.35,5.19-8.46,1.57-3.98,2.17-8.28,2.75-12.53.54-3.89,1.09-7.77,1.63-11.66,1.35-9.8,2.73-19.83.97-29.57Zm-13.01,47.3c-.9,2.37-2,4.75-3.76,6.51-3.46,3.42-8.72,3.83-13.44,3.2-6.01-.81-12.09-3.16-16.16-7.83-3.35-3.81-5.13-8.86-5.75-13.97-.62-5.1-.17-10.3.49-15.4,2.17-16.47,5.77-40.92,26.12-41.23,7.6-.13,15.41,4.97,17.37,12.65.6,2.42.64,4.95.67,7.45.19,16.43.3,33.35-5.54,48.62Z" style="fill:#77afaf;"/><path d="m127.41,1.93c-.8,1.07-.81,2.55-.77,3.9.77,28.2,2.48,56.55-1.05,84.53-.37,2.95-.6,6.48,1.63,8.34,1.45,1.21,3.46,1.26,5.32,1.24,3.08-.04,6.15-.14,9.22-.3.69-.03,1.42-.09,1.98-.51.8-.61.98-1.76,1.08-2.79,1.46-15.19.75-30.69,4.15-45.54.69-3.02,1.95-6.44,4.8-7.34.8-.25,1.71-.26,2.44.17,1.32.76,1.65,2.55,1.8,4.11,1.47,15.49-1.66,31.02-2.33,46.58-.03.78-.05,1.61.34,2.28.48.82,1.44,1.17,2.34,1.38,1.66.38,3.38.48,5.07.3.73-.08,1.5-.23,2.07-.71,1.5-1.25.88-3.7.45-5.65-1.05-4.86.08-9.89.41-14.86.43-6.46-.51-12.92-1.1-19.37-1.73-18.69-.58-37.55,1.7-56.17-2.97-1.62-6.6-1.86-9.74-.64-.89.34-1.77.83-2.32,1.63-.71,1.04-.74,2.41-.7,3.69.24,8.73,2.22,17.34,2.43,26.07.02.77.02,1.56-.21,2.3-.65,2.12-2.89,3.13-4.8,4.12-1.99,1.02-3.89,2.3-5.4,3.99-1.81,2.02-3,4.56-3.84,7.18-1.54,4.84-1.92,9.98-2.37,15.05-.66,7.46-1.51,14.9-2.53,22.31-.08.58-.31,1.31-.87,1.34-.62.03-.89-.79-.94-1.44-.24-3.16.11-6.34.36-9.5.57-7.42.54-14.89-.09-22.3-.56-6.64-1.6-13.34-.71-19.94.93-6.85,3.92-13.53,3.03-20.38-.35-2.67-1.27-5.43-.43-7.97.36-1.1,1.05-2.1,1.15-3.25.24-2.82-2.83-3.6-4.88-3.31-2.08.29-5.24-.49-6.71,1.46Z" style="fill:#77afaf;"/><path d="m229.56,12.84c-.19-1.81-.39-3.63-1.13-5.26-1.24-2.72-3.91-4.48-6.69-5.26-3.06-.87-6.12-.51-9.24-.71-3.29-.22-6.61-.89-9.9-1.34-.88-.13-1.82-.27-2.67,0-1.63.45-2.69,2.14-3.01,3.86-.32,1.72-.04,3.5.21,5.24,1.65,11.28,3.97,20.02,2.56,31.35-.43,3.41.75,8.95,1.09,12.38.49,4.77-1.21,9.87-.66,14.65.32,2.74.04,5.53-.21,8.29-.58,5.98-1.15,11.97-1.73,17.95-.15,1.67-.21,3.61.98,4.73.75.71,1.82.91,2.84,1.03,2.05.22,4.15.27,6.22.16.9-.07,1.86-.18,2.54-.8,1.09-1,.94-2.76.73-4.26-1.39-9.48-1.82-19.09-1.28-28.65.02-.65.09-1.32.41-1.85.86-1.43,2.82-1.16,4.43-1.11,3.96.11,7.72-2.27,10.14-5.53,2.42-3.26,3.68-7.31,4.47-11.35,2.12-10.99,1.01-22.34-.09-33.49Zm-14.2,39.96c-.58,1.25-1.24,2.52-2.31,3.37-1.05.87-2.61,1.2-3.74.47-.32-.2-.62-.51-.75-.89-.11-.33-.09-.69-.06-1.05.3-4.46.64-8.94.94-13.4.51-7.76.94-15.52.92-23.3-.02-1.94-1.26-8.12.79-9.08,2.4-1.14,5.62,2.05,6.74,3.88,1.33,2.14,1.9,4.7,2.27,7.22,1.69,11.1-.02,22.72-4.79,32.78Z" style="fill:#77afaf;"/><path d="m257.75,63c-.64-4.67-1.48-9.36-1.24-14.07.19-3.91,1.09-7.73,1.56-11.62.6-4.94.47-9.94.04-14.88-.34-4.07-.9-8.2-.02-12.17.37-1.64.98-3.29,1.29-4.93.39-2.03-.83-4.08-2.75-4.59s-4.08-.73-6.13-.57c-.96.09-1.95.25-2.7.83-2.12,1.65-1.24,5.07-1.44,7.82-.3,4.04-3.32,7.19-5.48,10.57-1.69,2.61-2.96,5.52-3.69,8.58-.84,3.44-1.03,7.01-1.65,10.5-1.35,7.53-4.71,14.63-5.48,22.25-.6,6.1.51,12.35-.84,18.38-.64,2.84-2.23,5.47-3.38,8.11-1.31,3.04-2.59,6.08-3.83,9.14-.26.6-.49,1.27-.36,1.9.3,1.43,2.1,1.74,3.51,1.72,3.3-.02,6.6-.04,9.88-.09.77,0,1.56-.02,2.19-.45.6-.42.94-1.14,1.18-1.83.99-2.64,1.24-5.5,1.48-8.31,1.22-14.65,1.5-29.4.86-44.07-.04-1.14.02-2.5.99-3.02.39-.22.86-.22,1.31-.25,1.67,0,3.58.09,4.61,1.45.58.76.75,1.79.88,2.75,2.04,16.44-3.17,32.93-2.87,49.5.02.78.06,1.61.47,2.26.79,1.27,2.53,1.32,3.96,1.21,1.54-.09,3.09-.2,4.61-.29,1.16-.09,2.36-.18,3.28-.89,1.46-1.12,1.65-3.28,1.67-5.18.13-9.94-.49-19.9-1.89-29.73Zm-8.46-30.78c-.26,3.37.06,5.96-3.75,6.55-2.21.31-3.68-1.18-3.73-3.48-.06-2.93,1.31-6.32,2.1-9.11.92-3.17,1.93-6.32,3.06-9.43.17-.47.43-1.01.9-1.07.41-.04.77.29,1.01.65.84,1.3.88,2.97.86,4.53-.02,3.8-.17,7.57-.45,11.37Z" style="fill:#77afaf;"/><path d="m312.24,18.83c.98,1.72,2.94,3.41,4.63,2.45,1.05-.6,1.43-2.03,1.2-3.25s-.92-2.28-1.61-3.3c-1.44-2.15-2.87-4.29-4.31-6.44-1.58-2.35-3.21-4.77-5.53-6.31-4.05-2.68-9.06-.49-13.86-.59-5.95-.12-12.5-2.92-17.67.15-3.34,1.98-5.64,5.5-6.99,9.25s-1.85,7.76-2.35,11.73c-.72,5.76-1.43,11.52-2.15,17.28-.82,6.62-1.63,13.46.11,19.89.45,1.65,1.06,3.27,1.3,4.97.24,1.75.07,3.52.01,5.28-.28,9.17,3.04,18.69,9.82,24.54,6.78,5.85,17.15,7.3,24.6,2.41,1.7-1.12,3.23-2.52,4.95-3.61,1.63-1.03,3.44-1.78,4.93-3.02,1.31-1.1,2.32-2.53,3.19-4.03,4.06-6.98,5.32-15.3,6.5-23.37.86-5.92,1.52-9.29,1.88-15.27.3-4.89-2.7-5.51-4.73-5.56-2.45-.06-5.26.45-5.39,5.35-.26,9.49-2.47,18.75-5.38,27.75-.84,2.6-1.73,5.28-3.52,7.28-2.76,3.09-7.06,3.96-11.06,4.67-2.01.35-4.06.71-6.07.35-1.54-.28-2.98-.97-4.36-1.71-5.17-2.76-7.51-5.3-8.5-11.27-.53-3.18-.43-7.68,0-10.87,1.18-8.78-2.15-18.13-1.7-26.99.45-8.86,2.9-18.27,9.54-23.82,2.01-1.68,4.33-2.93,6.75-3.87,3.95-1.53,8.27-2.23,12.41-1.42,6.14,1.21,10.3,5.97,13.35,11.34Z" style="fill:#77afaf;"/><path d="m317.73,7.73c.1,2.56,1.86,5.51,4.29,5.12,1.35-.22,2.33-1.39,3.37-2.32,2.11-1.88,4.89-2.92,7.66-2.86.53.01,1.1.08,1.49.44.44.41.54,1.08.59,1.69.84,9.41-1.72,19-.02,28.29.48,2.63,1.3,5.19,1.69,7.84,1.2,8.16-1.76,16.35-1.97,24.61-.19,7.23,1.71,14.6-.04,21.6-.32,1.29-.77,2.57-.78,3.9s.54,2.78,1.7,3.34c.59.29,1.27.31,1.92.33,1.56.05,3.11.09,4.67.14.98.03,2.04.04,2.86-.52,1.36-.92,1.52-2.9,1.51-4.59-.11-13.47-1.89-26.86-2.73-40.3-.18-2.94-.32-5.9-.01-8.84.21-2.01.64-3.98.87-5.98.45-3.9.15-7.84-.14-11.76-.39-5.23-.78-10.47-1.18-15.7-.16-2.2.16-5.13,2.24-5.54,1.3-.26,2.49.72,3.55,1.55,3.35,2.64,7.34,4.39,11.49,5.05.53.08,1.11.14,1.54-.19.53-.41.59-1.2.6-1.89.02-2.55.05-5.11.07-7.66,0-.69-.02-1.45-.48-1.94-.38-.4-.95-.5-1.49-.54-2.88-.24-5.74.55-8.63.66-4.53.17-9.02-1.31-13.55-1.1-4.36.2-8.7,1.97-12.98,1.08-1.85-.38-5.67-2.56-7.26-.9-1.14,1.19-.91,5.49-.85,7Z" style="fill:#77afaf;"/><path d="m369.65.77c-1.1.13-2.34.4-2.92,1.38-.35.58-.38,1.3-.41,1.99-.44,12.21.03,24.46,1.42,36.59.28,2.48.61,4.99.38,7.48-.36,4.05-2.15,7.91-2.16,11.98,0,3.83,1.56,7.47,2.14,11.26,1.24,8.24-2.29,16.56-1.64,24.88.04.55.11,1.11.39,1.58.57.98,1.82,1.21,2.91,1.33,8.6.93,17.31.82,25.89-.32.73-.1,1.51-.22,2.06-.73.63-.58.82-1.5.98-2.36.47-2.57.93-5.13,1.4-7.7.18-.98.34-2.07-.16-2.93-.92-1.56-3.3-1.12-4.61.11-1.3,1.23-2.1,2.99-3.54,4.05-2.45,1.8-5.85.99-8.71,1.95-.67.22-1.32.55-2.02.55-1.2,0-2.24-.97-2.71-2.12s-.51-2.43-.5-3.68c.04-5.67.64-11.34.28-16.99-.55-8.5-3.29-17.11-1.29-25.37.1-.42.23-.86.54-1.14.35-.32.84-.37,1.3-.38,3.45-.05,6.81,1.77,10.22,1.28.72-.1,1.46-.33,1.95-.88.58-.64.71-1.57.82-2.44.32-2.62.64-5.24.96-7.86.11-.87.18-1.86-.37-2.53-.56-.69-1.6-.74-2.4-.41s-1.45.98-2.11,1.56c-1.91,1.66-4.18,2.88-6.59,3.54-.98.27-2.11.42-2.96-.16-1.04-.71-1.24-2.18-1.32-3.48-.4-6.66-.2-13.35.6-19.97.11-.95.25-1.93.72-2.75.88-1.52,2.71-2.16,4.41-2.21,2.35-.07,4.63.72,6.85,1.51,2.54.9,5.09,1.8,7.63,2.7.52.18,1.13.36,1.59.04.33-.23.48-.66.59-1.06.41-1.49.6-3.06.54-4.61-.04-1.26-.3-2.63-1.22-3.46-.93-.84-2.28-.89-3.51-.86-2.85.06-5.7.32-8.52.75-5.75.89-11.08-.79-16.9-.1Z" style="fill:#77afaf;"/><path d="m405.17,2.85c-.39.69-.47,1.52-.51,2.32-.12,2.86.27,5.71.47,8.56.66,9.59-.91,19.29.33,28.81.46,3.59,1.32,7.13,1.36,10.75.03,3.1-.53,6.18-.79,9.27-.8,9.84,1.58,20.03-1.17,29.48-.37,1.27-.83,2.68-.3,3.89.48,1.11,1.65,1.7,2.76,2.09,2.87,1.02,5.97,1.34,8.98.91.46-.06.94-.15,1.33-.42,1.14-.78.98-2.54.73-3.94-1.65-9.53-.81-19.32-1.35-28.98-.38-6.87-1.47-13.69-1.74-20.57-.02-.51-.02-1.06.26-1.47.26-.38.71-.55,1.14-.68,2.15-.65,4.45-.75,6.65-.3.75.15,1.52.39,2.07.95.86.86.96,2.24.98,3.48.22,11.28-1.51,22.54-1.04,33.8.22,5.26.9,10.67-.69,15.66-.24.76-.5,1.68.01,2.27.24.27.6.4.94.5,2.41.7,4.95.89,7.42.54,1.16-.16,2.37-.48,3.2-1.34,1.05-1.1,1.23-2.81,1.24-4.36.11-9.52-3.25-18.91-2.38-28.38.39-4.31,1.66-8.51,1.87-12.83.38-7.48-2.38-14.77-2.74-22.25-.43-8.98,2.59-17.83,2.36-26.82-.02-.75-.07-1.54-.47-2.18-.77-1.24-2.44-1.34-3.85-1.31-2.42.05-5.18.27-6.67,2.25-1.3,1.72-1.15,4.15-.93,6.33.85,8.59,1.69,17.18,2.54,25.77.08.81.13,1.71-.36,2.34-.4.51-1.07.69-1.69.83-1.74.39-3.51.65-5.29.79-1.17.09-2.46.09-3.4-.65-1.37-1.08-1.4-3.18-1.29-4.97.38-6.35.75-12.71,1.13-19.06.19-3.16.38-6.34,1.18-9.4.19-.74.43-1.51.27-2.26-.81-3.82-11.23-1.81-12.57.59Z" style="fill:#77afaf;"/><path d="m475.6,55.52c-.89-6.4-2.89-13.42-8.35-16.45-3.27-1.82-7.16-1.82-10.7-2.86-.91-.24-1.85-.62-2.44-1.37-.45-.58-.66-1.28-.81-1.99-1.91-8.35.51-17.01,1.13-25.58.17-2.08.15-4.36-1.1-5.98-2.29-2.99-9.56.46-10.56,3.5-.83,2.44-.26,5.12.19,7.64,1.1,6.53,1.21,13.2,1.32,19.84.09,6,.19,12.03.3,18.05.19,13.02.4,26.09-1.23,38.98-.3,2.37-.64,4.92.45,7,1.44,2.79,4.88,3.72,7.92,3.65,9.22-.27,17.37-7.4,21.2-16.12,3.84-8.75,3.99-18.8,2.7-28.3Zm-9.66,18.18c-1.1,6.07-3.7,12.05-8.22,16.01-.91.82-2.1,1.59-3.29,1.26-1.85-.51-2.12-3.08-2.02-5.07.42-8.7.85-17.43,1.27-26.13.19-3.96-1.74-19,5.37-15.08,2.85,1.57,5.93,3.41,7.01,6.6.42,1.26.47,2.61.51,3.94.23,6.18.47,12.4-.64,18.47Z" style="fill:#77afaf;"/><path d="m480.73,1.67c-1.42.89-2.05,2.73-2.06,4.46s.5,3.4.87,5.08c1.67,7.49.73,15.33,1.35,23,.49,6.1,1.98,12.13,1.81,18.25-.22,8.14-3.35,16.4-1.21,24.24.85,3.1,2.51,6.1,2.19,9.31-.18,1.8-.98,3.45-1.53,5.16-.53,1.67-.82,3.41-.86,5.17-.02,1.02.13,2.22.98,2.74.47.29,1.06.29,1.61.27,2.42-.07,4.84-.24,7.25-.53.48-.06.97-.13,1.36-.42.57-.43.74-1.24.79-1.97.16-2.78-.93-5.45-1.34-8.2-.48-3.18-.06-6.42.08-9.64.41-9.58-1.77-19.08-1.99-28.67-.02-.94.05-2.04.79-2.58.74-.54,1.82-.19,2.42.5s.84,1.65,1.04,2.56c1.29,5.82,2.04,11.77,2.23,17.73.09,2.76.06,5.57.8,8.22.83,2.97,2.57,5.58,3.55,8.5.95,2.8,1.19,5.81,1.16,8.78-.01,1.69,0,3.63,1.24,4.72.8.7,1.92.83,2.96.93,1.95.19,3.89.38,5.84.57,1.82.18,4.02.18,5.01-1.42,1.01-1.62.08-3.75-.87-5.41-5.6-9.73-12.27-19.6-12.66-30.95-.11-3.28.32-6.62-.36-9.83-.89-4.23-3.79-7.94-7.58-9.7-1.02-.47-2.32-1.2-2.12-2.34.17-.96,1.28-1.3,2.15-1.67,2.58-1.12,4.06-3.98,4.82-6.78.76-2.8,1.02-5.77,2.14-8.44.91-2.17,2.36-4.04,3.53-6.07,1.49-2.6,2.53-5.45,3.55-8.28.68-1.88,1.36-3.76,2.04-5.65.19-.52.38-1.07.24-1.61-.27-1.09-1.59-1.38-2.67-1.46-4.08-.32-8.92-.3-11.34,3.14-1.49,2.12-1.57,4.94-1.67,7.57-.28,7.45-1.21,14.88-2.77,22.15-.41,1.92-1.13,4.14-2.93,4.71-.29.09-.62.12-.86-.06-.22-.17-.29-.47-.33-.75-.58-3.49.4-7.03.96-10.53.71-4.49.73-9.06.75-13.6,0-2.6.02-5.2.03-7.79.01-3.2-.5-3.36-3.18-3.44-2.33-.07-5.02-1.38-7.2,0Z" style="fill:#77afaf;"/><path d="m518.73,3.16c-.56.85-.72,1.92-.78,2.95-.24,4.11.86,8.16,1.69,12.19,1.27,6.15,1.94,12.53.98,18.74-.44,2.85-1.21,5.63-1.62,8.48-1.51,10.61,2.16,21.31,1.83,32.03-.09,2.86-.46,5.7-.43,8.56.03,2.97.48,5.91.94,8.84.16,1,.32,2.04.86,2.89,1.2,1.92,3.76,2.23,5.96,2.1,2.56-.16,5.1-.67,7.54-1.5.68-.23,1.39-.52,1.84-1.11.42-.56.53-1.3.59-2,.29-3.68-.61-7.37-.36-11.06.22-3.31,1.37-6.48,1.87-9.76.56-3.65.31-7.38.47-11.07.3-7.08,2.18-14.23,6.26-19.9.54-.75,1.14-1.49,1.96-1.86.82-.37,1.91-.24,2.43.52.27.41.35.92.4,1.41.62,6.19-1.38,12.34-1.56,18.57-.15,5.38,1.05,10.74.79,16.12-.23,4.7-1.57,9.31-1.64,14.02-.02,1.08.04,2.2.51,3.17,1.35,2.8,5.08,2.89,8.06,2.58.85-.09,1.79-.23,2.3-.94.4-.56.41-1.31.38-2.01-.2-3.92-1.36-7.7-2.08-11.56-.63-3.4-.92-6.88-.84-10.35.09-4.37.74-8.72.96-13.09.45-8.95-.92-17.88-1.21-26.83-.11-3.43-.07-6.88.51-10.26.37-2.19.96-4.33,1.36-6.51.76-4.23.76-8.57.75-12.88,0-.71-.01-1.45-.36-2.06-.63-1.11-2.07-1.29-3.31-1.36-1.5-.08-3.03-.15-4.48.25s-2.84,1.38-3.38,2.83c-.52,1.38-.22,2.93.03,4.39,1.08,6.31,1.08,12.82,0,19.13-.34,1.95-.77,4.01-.11,5.87.35,1,1.01,1.97.82,3.02-.13.72-.65,1.29-1.14,1.82-3.72,3.98-7.44,8.11-9.77,13.1-3.16,6.75-3.55,14.47-4.55,21.91-.57,4.22-1.35,8.41-2.33,12.55-.09.39-.22.83-.57,1.02-.75.4-1.4-.7-1.54-1.57-.51-3.04-.47-6.18.12-9.21.46-2.37,1.25-4.66,1.73-7.02,1.18-5.82.42-11.85-.14-17.77-.67-7.03-1.04-14.09-1.12-21.15-.05-4.18,0-8.38.83-12.47.7-3.46,1.94-6.81,2.3-10.33.38-3.75-1.34-6.41-5.1-5.89-2.5.35-7.03.05-8.64,2.47Z" style="fill:#77afaf;"/></svg>
