<?xml version="1.0" encoding="UTF-8"?><svg id="Layer_1" xmlns="http://www.w3.org/2000/svg" width="260" height="205" xmlns:xlink="http://www.w3.org/1999/xlink" viewBox="0 0 250 200"><defs><linearGradient id="linear-gradient" x1="125" y1="200" x2="125" y2="0" gradientUnits="userSpaceOnUse"><stop offset=".21" stop-color="#004445"/><stop offset=".45" stop-color="#00494b"/><stop offset=".78" stop-color="#00595c"/><stop offset="1" stop-color="#01696c"/></linearGradient><linearGradient id="linear-gradient-2" x1="126.09" y1="83.13" x2="90.91" y2="28.44" gradientUnits="userSpaceOnUse"><stop offset=".21" stop-color="#1c3740"/><stop offset=".37" stop-color="#1d3d42"/><stop offset=".59" stop-color="#214e4a"/><stop offset=".83" stop-color="#276a57"/><stop offset="1" stop-color="#2d8263"/></linearGradient><linearGradient id="linear-gradient-3" x1="132.54" y1="87.31" x2="171.43" y2="36.34" gradientUnits="userSpaceOnUse"><stop offset=".22" stop-color="#1c3740"/><stop offset=".38" stop-color="#1d3c42"/><stop offset=".58" stop-color="#204c49"/><stop offset=".81" stop-color="#266555"/><stop offset="1" stop-color="#2d8263"/></linearGradient><linearGradient id="linear-gradient-4" x1="132.01" y1="113.62" x2="181.48" y2="43.16" gradientUnits="userSpaceOnUse"><stop offset=".43" stop-color="#10603d"/><stop offset=".51" stop-color="#1a673f"/><stop offset=".65" stop-color="#357c47"/><stop offset=".83" stop-color="#619d52"/><stop offset="1" stop-color="#93c360"/></linearGradient><linearGradient id="linear-gradient-5" x1="146.22" y1="120.26" x2="201.7" y2="60.71" gradientUnits="userSpaceOnUse"><stop offset=".24" stop-color="#2d8263"/><stop offset=".68" stop-color="#75cab1"/><stop offset=".93" stop-color="#9df2db"/></linearGradient><linearGradient id="linear-gradient-6" x1="-35.02" y1="-542.77" x2="-81.29" y2="-627.49" gradientTransform="translate(265.54 638.19) rotate(-10.31)" gradientUnits="userSpaceOnUse"><stop offset="0" stop-color="#10603d"/><stop offset=".22" stop-color="#277143"/><stop offset=".67" stop-color="#639e53"/><stop offset="1" stop-color="#93c360"/></linearGradient><linearGradient id="linear-gradient-7" x1="-12.28" y1="-311.29" x2="-77.7" y2="-379.42" gradientTransform="translate(161.74 423.55) rotate(-6.87)" gradientUnits="userSpaceOnUse"><stop offset=".07" stop-color="#2d8263"/><stop offset=".2" stop-color="#34896b"/><stop offset=".39" stop-color="#499e81"/><stop offset=".64" stop-color="#6bc0a6"/><stop offset=".92" stop-color="#9aefd8"/><stop offset=".93" stop-color="#9df2db"/></linearGradient></defs><path d="m250,40v120c0,22.09-17.91,40-40,40H40c-22.1,0-40-17.91-40-40V40C0,17.91,17.9,0,40,0h170c22.09,0,40,17.91,40,40Z" style="fill:url(#linear-gradient);"/><path d="m231.89,119.46c-4.76,6.69-21.8,31.14-26.5,37.17-4.71,6.03-24.38,11.81-38.5,12.11,0,.05-.01.1-.01.15-.39-.13-.8-.26-1.21-.37-16.74-4.65-23.04-6.25-25.16-6.69,5.18-8.37,9.72-15.65,11.64-18.61,5.73-8.81,21.34-9.92,24.81-10.56.66-.13,1.37-.29,2.09-.5h.01c1.35-.4,2.78-.92,4.18-1.53.46-.2.92-.41,1.37-.63.91-.43,1.78-.89,2.59-1.36h.02c.32-.19.63-.38.93-.58,3.13-1.99,6.34-9.31,7.43-11.17.55-.94,1.17-1.6,2.02-1.85.71-.22,1.58-.15,2.7.26.16.06.33.13.5.2.64-2.12,1.22-4.03,1.77-5.74.17-.55.34-1.08.5-1.59.01-.02.01-.04.02-.06,0-.01.01-.01.01-.02,3.18-9.87,4.76-12.44,7.26-11.85,2.59.61,2.02,5.46.49,12.12h-.01c-.26,1.15-.55,2.35-.86,3.59.53-1.93,1.02-3.73,1.48-5.4v-.02s.02-.03.02-.03c4.6-16.63,6.19-21.05,9.37-20.34,3.39.75,1.32,10.41-2.03,33.34h0c-.03.18-.05.34-.07.49-.05.33-.1.67-.15,1.01-.03.21-.06.42-.09.63l-.07.46c12.13-12.15,15.8-15.58,18.08-13.78,2.27,1.8.13,4.47-4.63,11.15Z" style="fill:#f7e9de;"/><path d="m215.26,129.88s-2.22,7.16-9.96,8.36c-6.33.98-13.53,2.73-18.74,6.93-5.21,4.2-15.46,7.86-15.46,7.86,0,0,15.77-3.58,21.59-7.08,6.56-3.94,21.46-4.25,22.58-16.07Z" style="fill:#e3c8bf;"/><path d="m218.44,122.09l-5.25,6.06-.1.11-34.03,3.89c1.8-.52,3.75-1.28,5.55-2.15h0c.91-.43,1.78-.89,2.59-1.36h0s.02,0,.02,0c.64-.06,17.27-1.54,26.42-5.54,2.36-1.03,4.22-2.22,5.18-3.6l-.38,2.6Z" style="fill:#e3c8bf;"/><path d="m140.51,161.83c-.05.08-.1.16-.15.24-.01-.01-.02-.01-.04-.01-.01-.01-.02-.01-.04-.02s-.05-.01-.07-.02c-.46-.18-1.36-.54.3-.19Z" style="fill:#fc8ea7;"/><path d="m108.37,161.94c-2.57.59-9.12,2.28-24.6,6.58-.94.26-1.84.56-2.69.9-13.98-.83-32.42-6.68-36.89-12.58-4.62-6.09-21.32-30.78-25.98-37.54-4.66-6.75-6.77-9.45-4.47-11.22,2.31-1.76,5.93,1.72,17.88,14.05l-.34-2.6c-3.03-22.99-4.95-32.67-1.56-33.37,3.2-.66,4.73,3.77,9.09,20.47v.05c.45,1.68.92,3.49,1.42,5.43-.29-1.25-.57-2.45-.81-3.6h-.01c-1.43-6.69-1.94-11.55.66-12.12,2.51-.56,4.05,2.04,7.1,11.95v.02s.01.04.02.07c.15.51.31,1.04.48,1.59.52,1.72,1.08,3.63,1.69,5.76.17-.07.34-.14.5-.19,1.13-.4,1.99-.45,2.7-.23.85.27,1.46.94,2,1.89,1.06,1.87,4.17,9.24,7.27,11.27.3.2.6.4.92.59h.02c.4.25.81.49,1.24.72.43.23.87.46,1.33.68.45.23.9.44,1.36.65,1.39.63,2.81,1.17,4.16,1.58h.01c.72.22,1.42.4,2.08.53,3.47.7,19.06,2.02,24.66,10.91,1.81,2.86,5.96,9.74,10.76,17.76Z" style="fill:#f7e9de;"/><path d="m34.69,129.96s2.12,7.19,9.84,8.5c6.31,1.07,13.49,2.92,18.64,7.19,5.15,4.27,15.35,8.08,15.35,8.08,0,0-15.71-3.8-21.48-7.38-6.5-4.03-21.4-4.55-22.35-16.39Z" style="fill:#e3c8bf;"/><path d="m31.62,122.13l5.17,6.13.09.11,33.97,4.37c-1.79-.55-3.73-1.33-5.52-2.22h0c-.9-.45-1.77-.92-2.57-1.4h0s-.02,0-.02,0c-.64-.07-17.25-1.78-26.34-5.91-2.34-1.06-4.19-2.28-5.13-3.68l.34,2.6Z" style="fill:#e3c8bf;"/><path d="m128.08,128.24c6.11-.57,10.45-6.25,12.91-11.88,4.51-10.29,5.42-21.86,4.38-33.05-1.04-11.18-3.95-22.1-6.82-32.96-3.14-11.87-6.73-24.5-16.05-32.49-5.59-4.79-12.87-7.44-20.22-7.95-7.35-.52-14.76,1.01-21.56,3.84,6.65-2.52,14.29-2.32,20.81.53,6.52,2.85,11.84,8.33,14.5,14.93-5.1-7.09-14.92-10.39-23.27-7.81,8.16,2.91,15.18,8.88,19.37,16.46-3.41-3.8-8.11-6.42-13.14-7.3,2.49,2.98,4.28,6.55,5.18,10.33-1.01-.96-2.02-1.93-3.03-2.89,3.99,23.57,4.23,47.61,6.79,71.38.4,3.73.87,7.5,2.33,10.96s4.04,6.6,7.55,7.9c.84-.99,1.67-1.98,2.51-2.97-.2.2-5.43-2.87-5.97-3.15,3.63,3.31,8.56,6.61,13.71,6.13Z" style="fill:url(#linear-gradient-2);"/><path d="m125.74,91.52c1.31-9.98,4.45-19.61,7.59-29.18,3.01-9.2,6.02-18.39,9.03-27.59.76-2.32,1.55-4.7,3.16-6.53,1.61-1.83,4.25-2.98,6.53-2.11s3.4,4.23,1.63,5.9c1.48-1.97,3.16-4.07,5.56-4.61s5.39,1.62,4.61,3.96c4.6-3.34,10.49-4.88,16.13-4.2,2.16.26,4.65,1.17,5.18,3.28.25.99-.02,2.04-.32,3.01-1.49,4.81-4.03,9.29-7.38,13.05-3.31,3.72-7.38,6.71-10.6,10.51-4.87,5.74-7.52,12.98-10.08,20.06-2.72,7.53-5.45,15.06-8.17,22.6-2.33,6.44-4.68,12.92-8.16,18.81s-8.21,11.23-14.3,14.37c-1.4.72-2.95,1.33-4.51,1.1-5.08-.77-1.84-5.53-.8-8.16,1.4-3.51,2.23-7.22,2.78-10.95,1.15-7.73,1.1-15.59,2.11-23.33Z" style="fill:url(#linear-gradient-3);"/><path d="m129.78,102.05c.84-8.92.98-18.04,3.88-26.52,4.47-13.06,14.99-23.09,25.89-31.56.95-.74,1.94-1.49,3.11-1.8s2.56-.08,3.29.87.42,2.64-.73,2.98c3.14-3.65,7.95-5.81,12.77-5.72,1.22.02,2.54.23,3.36,1.13s.73,2.64-.42,3.05c3.44-2.39,8.19-2.18,12.01-.44s6.87,4.77,9.69,7.87c-3.76-3.72-10.19-3.59-14.71-.85-4.53,2.74-7.45,7.5-9.55,12.36-2.1,4.86-3.55,10.01-6.05,14.67-3.7,6.9-9.51,12.39-15.21,17.75-7.19,6.76-14.39,13.52-21.58,20.28-2.81,2.64-5.62,5.28-8.42,7.92-3.6,3.38-3.26.42-1.86-2.59,2.68-5.73,4.53-13.06,4.53-19.42Z" style="fill:url(#linear-gradient-4);"/><path d="m143.5,98.75c1.06-3.93,1.62-7.93,2.62-11.87.02.06.05.12.09.17.38.52,1.3.28,1.85.36.8.11,1.58.38,2.4.4.84.02,1.76-.26,2.19-.97.37-.63.26-1.48-.17-2.07-.44-.59-1.17-.91-1.9-.96-.73-.06-1.47.14-2.13.46-.45.21-1.5.84-2.05,1.53.28-1.02.6-2.03.96-3.04.57-1.57,1.22-3.13,1.97-4.62.48.61,1.47,1.13,2.12,1.32,1.01.3,2.26.05,2.83-.84.37-.58.39-1.37.08-1.99-.31-.62-.94-1.06-1.63-1.19-.76-.14-1.54.1-2.21.5h-.02c1.01-1.72,2.16-3.35,3.48-4.85.42.72,2.34,1.49,3.15,1.65.93.17,2.07-.05,2.67-.76.64-.77.42-1.88-.35-2.45-.77-.55-1.92-.63-2.95-.37-.14.04-.33.09-.55.15v.02s.12-.34.1-.36c0,0,0-.01,0-.01-.49.27-.97.57-1.44.89-.07.04-.13.09-.18.13-1.13.79-2.18,1.69-3.14,2.69.13-.79-.38-1.93-.55-2.49-.22-.65-.54-1.36-1.19-1.6-.59-.22-1.29.06-1.69.56-.4.49-.54,1.16-.55,1.79-.01.65.13,1.36.64,1.78.45.38,1.88.86,2.66.7-.88.99-1.68,2.06-2.4,3.17-.21.32-.41.65-.61.98,0-1.86-.41-3.71-1.19-5.4-.19-.41-.4-.82-.74-1.13-.33-.3-.79-.5-1.23-.4-.61.13-.99.76-1.14,1.37-.24.96-.08,2.02.44,2.87.59.97,1.56,1.62,2.38,2.39.37.36.72.77.96,1.22-.72,1.28-1.34,2.61-1.91,3.97-.21-1.77-.5-3.53-1.27-5.13-.53-1.1-1.35-2.14-2.5-2.55-1.15-.41-2.65.04-3.08,1.18-.4,1.05.21,2.24,1.07,2.96.86.72,1.93,1.12,2.89,1.69,1.04.63,1.94,1.47,2.64,2.46-.47,1.15-.9,2.34-1.31,3.52-.23.68-.45,1.36-.65,2.05-.13-.59-.37-1.24-.46-1.5-.39-1.17-1.06-2.29-2.05-3.02-1-.73-2.36-1.03-3.51-.56-.65.26-1.22.78-1.41,1.45-.34,1.19.59,2.42,1.7,2.98,1.11.55,2.38.65,3.57,1,.42.13,1.36.81,1.85.83-.29,1.19-.5,2.4-.56,3.62-.05,1.05-.2,5.27,1.41,5.33Z" style="fill:#93c360;"/><path d="m135.63,103.91c.79-3.09,1.53-6.23,3.04-9.04s3.91-5.3,6.99-6.15c4.49-1.24,10,.99,13.55-2.03,2.6-2.21,2.69-6.21,1.82-9.5-.62-2.37-1.48-5.32.36-6.95,1.78-1.57,4.61-.46,6.42,1.06,1.81,1.53,3.53,3.53,5.88,3.75,2.6.24,4.88-1.88,6.04-4.22,1.16-2.34,1.58-4.99,2.68-7.36,1.1-2.37,3.24-4.59,5.86-4.54,2.04.04,3.89,1.56,4.59,3.47s.32,4.12-.74,5.87c-.49.81-1.12,1.54-1.46,2.43s-.31,2.01.4,2.64c.83.73,2.15.44,3.06-.17s1.62-1.51,2.57-2.06c2.44-1.39,5.83.15,6.94,2.73s.26,5.69-1.52,7.85-4.35,3.53-6.96,4.57-5.33,1.8-7.83,3.06c-1.16.58-2.44,1.69-2.01,2.91.53,1.51,2.7,1.13,4.29,1.22,3.67.21,5.91,4.79,4.75,8.28-1.16,3.49-4.63,5.75-8.17,6.75-5.06,1.43-10.44.84-15.67,1.4s-10.88,2.77-12.98,7.59c-.76,1.75-.98,3.69-1.64,5.48-1.28,3.49-4.1,6.16-6.83,8.69-2.08,1.92-4.21,3.89-6.84,4.94-2.58,1.03-5.44,1.1-8.22,1.09-2.58-.01-9.85,1.09-11.1-1.9-1.06-2.55,3.34-7.08,4.52-9.27,3.8-7.09,6.21-14.82,8.2-22.59Z" style="fill:url(#linear-gradient-5);"/><path d="m130.94,132.67c-4.05-2.59-6.89-6.69-9.11-10.96-2.22-4.26-3.93-8.78-6.35-12.93-8-13.75-22.76-22.03-33.26-33.99-7.38-8.41-12.61-18.69-15.06-29.61-.25-1.11-.43-2.39.27-3.28s2.58-.57,2.48.56c-.68-1.7-1.38-3.46-1.37-5.3,0-1.84.9-3.79,2.58-4.51s4.05.39,4.12,2.23c2.08-5.37,7.95-9,13.68-8.46-1.27,2.33-.95,5.28.21,7.67,1.16,2.39,3.05,4.34,4.93,6.22,9.48,9.43,19.8,18.22,27.34,29.27,6.26,9.17,10.39,19.59,14.47,29.92,3.71,9.41,7.43,18.81,11.14,28.22,1.72,4.35.72,6.91-3.88,7.02-4.5.1-8.16.52-12.21-2.06Z" style="fill:url(#linear-gradient-6);"/><path d="m106.72,131.49c-4.55-3.69-8.23-8.8-13.76-10.73-3.63-1.27-7.58-.98-11.42-.78s-7.85.27-11.32-1.38c-3.47-1.64-6.19-5.52-5.25-9.24.93-3.7,5.13-6.81,3.85-10.4-.71-2-2.98-3.06-5.1-3.17s-4.2.52-6.3.85c-4.27.67-8.72.08-12.67-1.66-1.97-.87-3.89-2.1-4.92-4s-.84-4.56.86-5.87c2.11-1.61,5.65-.74,7.27-2.83,1.64-2.11-.21-5.17-2.31-6.82-1.89-1.49-4.05-2.65-5.78-4.32-1.74-1.67-3.05-4.06-2.59-6.43.46-2.37,3.3-4.22,5.4-3.04,1.13.64,1.85,1.97,3.11,2.31,1.3.34,2.68-.63,3.19-1.87.51-1.25.34-2.67,0-3.97-.91-3.49-2.96-6.64-3.58-10.2s1.01-8,4.57-8.58c2.74-.44,5.32,1.65,6.69,4.06,1.38,2.41,1.96,5.2,3.2,7.69s3.5,4.8,6.28,4.81c3.71,0,6.8-4.04,10.42-3.24,2.59.57,4.01,3.43,4.34,6.06s-.05,5.35.65,7.91,3.09,5,5.68,4.44c2.83-.61,4.07-4.28,6.82-5.18,3.2-1.04,6.3,2.39,6.71,5.73s-.8,6.66-.96,10.02,1.35,7.34,4.65,8c3.93.78,7.47-3.65,11.41-2.95,2.37.42,4.06,2.64,4.73,4.95s.55,4.76.71,7.17c.44,6.73,3.15,13.29,7.59,18.37,2,2.29,4.32,4.28,6.34,6.55s3.76,4.93,4.25,7.93c.49,3-.5,6.38-3.01,8.09-2.36,1.61-4.87.86-7.19-.27-2.33-1.14-4.27-1.09-6.84-1.4-5.71-.69-11.24-2.97-15.72-6.59Z" style="fill:url(#linear-gradient-7);"/><path d="m101.98,69.86l.04.09c-.77-.4-1.55-.71-1.98-.9-1.88-.82-3.91-1.31-5.95-1.45,1.98.58,3.74,1.73,5.53,2.76,1.27.73,2.99,2.01,4.54,1.84,1.27,1.36,2.51,2.73,3.74,4.12-1.05-.26-2.01-.41-2.58-.46-3.16-.31-6.39.48-8.99,2.19,2.92-.92,6.1.19,9.02,1.26.97.36,4.65,1.86,6.46,1.53.06.06.11.13.17.2,2.75,3.28,5.36,6.66,7.73,10.12-.68-.45-1.34-.82-1.72-1.04-3.54-2.04-7.81-2.85-11.78-2.04,2.08-.04,4.08.87,5.86,1.99,1.77,1.12,3.4,2.46,5.26,3.45.7.37,3.66,1.68,4.74,1.23,1.25,1.99,2.4,4.01,3.43,6.04.56,1.1,1.08,2.19,1.57,3.29-1.54-1.83-3.39-3.39-5.46-4.61-2.49-1.48-5.3-2.46-8.17-2.79,2.22.26,4.63,2.57,6.2,4,1.92,1.74,3.7,3.66,5.84,5.16.58.41,1.96,1.64,2.64,1.07.04-.03.08-.07.1-.1.77,1.93,1.46,3.85,2.09,5.77.64,1.95,1.23,3.9,1.77,5.84.33,1.18.63,4.07,1.61,5.13.94-.51.33-3.53.22-4.72-.21-2.2-.65-4.37-1.22-6.52-.3-1.13-.85-2.15-1.13-3.22l.2.18c-.11-.33-.23-.67-.35-1-.03-.26-.03-.54,0-.82.43-4.73,2.1-9.5,4.26-13.67-2.5,1.44-4.4,3.85-5.2,6.61-.43,1.48-.54,3.04-.35,4.58-.88-2.09-1.9-4.18-3.04-6.25-.14-.26-.29-.53-.44-.8.45-.49.59-2.09.78-2.67,1.08-3.18,2.98-6.08,5.49-8.33-1.48.56-2.87,1.36-4.09,2.35-1.41,1.13-2.63,2.57-3.18,4.28-.16.51-.33,1.28-.35,2.05-.89-1.47-1.83-2.93-2.82-4.36,0-.01-.01-.02-.02-.03.39-2.54.2-4.94,1.24-7.46,1.06-2.56,2.73-4.87,4.9-6.62-3.04.94-5.77,3.02-7.07,5.87-.77,1.67-1.09,4.08-.56,6.12-1.21-1.68-2.5-3.33-3.84-4.95.92-.65.81-4.22,1.09-5.36.53-2.09,1.33-4.1,2.38-5.97-1.54,1.06-3.04,2.2-4.2,3.66-1.03,1.31-1.8,2.94-1.84,4.64-.6-.68-1.2-1.35-1.81-2.01-.29-.33-.6-.65-.9-.98-.6-.64-1.21-1.28-1.83-1.91-.4-1.32-.36-3.28-.37-4.32-.02-1.86.35-3.75,1.34-5.31-1.8,1.17-3,3.17-3.18,5.3-.07.75,0,1.51.17,2.25-2.08-2.07-4.23-4.07-6.42-6.01h0c-.64-1.32-1.18-2.71-1.6-4.09-1.08-3.52-1.41-7.24-.91-10.85-1.91,2.27-2.77,5.37-2.3,8.33.16,1.02.48,2.01.93,2.95-.5-.36-1.03-.69-1.58-.98-.12-.06-.23-.12-.35-.18-.84-.42-1.72-.75-2.61-1.01-2.73-.77-5.61-.84-8.41-.57,2.6.56,5.03,1.1,7.49,2.06,2.11.82,4.23,1.63,6.35,2.45,1.14,1.18,2.27,2.38,3.4,3.57h0Z" style="fill:#93c360;"/><path d="m150.21,86.24c-5.19,8.14-7.42,17.76-9.58,27.18,3.14-8.6,9.96-15.78,18.38-19.36-6.03,6.26-11.19,13.34-15.3,20.99,1.94-4.06,5.52-7.22,9.62-9.08,4.1-1.86,8.69-2.49,13.18-2.3-7.98,2.33-15.11,7.44-19.9,14.23,3.09-3.34,7.72-4.93,12.26-5.25s9.08.52,13.56,1.34c-4.96.89-9.95,1.79-14.68,3.53-4.73,1.74-9.23,4.39-12.46,8.27,6.66-2.71,14.21-1.14,21.22.47-6.28-.54-12.72.87-18.19,3.99,2.72-.3,5.49-.13,8.16.49-3.68-.1-7.39,1.14-10.27,3.45-1.22.98-2.34,2.16-3.81,2.69-2.27.81-4.9-.2-6.51-1.99-2.23-2.49-2.34-4.9-1.83-7.93.59-3.51.42-7.13,1.06-10.66,1.3-7.13,3.9-14.01,7.65-20.22,2.13-3.52,4.62-6.83,7.45-9.82Z" style="fill:#93c360;"/><path d="m142.76,130.26c-1.23-8.43-.43-17.15,2.33-25.21-5.03,5.1-7.46,12.64-6.37,19.72-4.25-9.42-9.82-18.44-17.64-25.21,5.23,7.2,9.48,15.12,12.59,23.45-8.1-13.22-22.99-22.02-38.48-22.74,5.98,1.01,11.5,3.98,16.2,7.81,4.7,3.83,8.62,8.52,12.28,13.36-8.45-6.74-19.48-10.17-30.26-9.4,10.43,1.31,19.52,7.49,28.07,13.6-7.92-4.1-18.04-3.57-25.48,1.34,9.04-.18,18.09.8,26.89,2.88-4.19-.9-8.75.06-12.23,2.57,4.88-.37,9.85.62,14.22,2.81-1.61.2-3.15.97-4.28,2.14,1.69-.64,3.61-.24,5.28.45,1.67.7,3.22,1.69,4.93,2.28,3.18,1.1,6.8.55,9.66-1.17,1.17-.7,3.17-2.06,3.62-3.43s-1.1-3.63-1.33-5.26Z" style="fill:#93c360;"/><path d="m183.71,200h-117.98c-.31-13.02,3-25.68,15.35-30.58.85-.34,1.75-.64,2.69-.9,15.48-4.3,22.03-5.99,24.6-6.58,2.4-.54,1.36-.11.86.08,1.54-.5,10.98-3.13,15.49,6.24,4.51-9.37,13.95-6.74,15.49-6.24.02,0,.05,0,.07.02s.03.01.04.02c.02,0,.03,0,.04.01.05-.08.1-.16.15-.24,2.12.44,8.42,2.04,25.16,6.69.41.11.82.24,1.21.37,13.57,4.45,17.15,17.58,16.83,31.11Z" style="fill:#fc8ea7;"/></svg>
