<?xml version="1.0" encoding="UTF-8"?><svg id="Layer_1" xmlns="http://www.w3.org/2000/svg" width="260" height="205" xmlns:xlink="http://www.w3.org/1999/xlink" viewBox="0 0 250 200"><defs><linearGradient id="linear-gradient" x1="125" y1="200" x2="125" y2="0" gradientUnits="userSpaceOnUse"><stop offset=".21" stop-color="#004445"/><stop offset=".45" stop-color="#00494b"/><stop offset=".78" stop-color="#00595c"/><stop offset="1" stop-color="#01696c"/></linearGradient><linearGradient id="linear-gradient-2" x1="2139.32" y1="1616.91" x2="2067.37" y2="1541.98" gradientTransform="translate(442.05 -2553.32) rotate(59.75)" gradientUnits="userSpaceOnUse"><stop offset=".21" stop-color="#1c3740"/><stop offset=".37" stop-color="#1d3d42"/><stop offset=".59" stop-color="#214e4a"/><stop offset=".83" stop-color="#276a57"/><stop offset="1" stop-color="#2d8263"/></linearGradient><linearGradient id="linear-gradient-3" x1="618.01" y1="628.77" x2="568.71" y2="538.51" gradientTransform="translate(-368.74 -663.16) rotate(14.52) scale(1.1 1.02)" gradientUnits="userSpaceOnUse"><stop offset=".35" stop-color="#10603d"/><stop offset=".49" stop-color="#277143"/><stop offset=".78" stop-color="#639e53"/><stop offset="1" stop-color="#93c360"/></linearGradient><linearGradient id="linear-gradient-4" x1="1407.04" y1="1418.39" x2="1370.84" y2="1341.3" gradientTransform="translate(-63.59 -1883.17) rotate(38.87)" xlink:href="#linear-gradient-3"/><linearGradient id="linear-gradient-5" x1="322.8" y1="-2556.79" x2="365.58" y2="-2612.85" gradientTransform="translate(2007.4 1850.67) rotate(-55)" gradientUnits="userSpaceOnUse"><stop offset=".22" stop-color="#1c3740"/><stop offset=".38" stop-color="#1d3c42"/><stop offset=".58" stop-color="#204c49"/><stop offset=".81" stop-color="#266555"/><stop offset="1" stop-color="#2d8263"/></linearGradient><linearGradient id="linear-gradient-6" x1="869.3" y1="-3043.48" x2="919.94" y2="-3115.63" gradientTransform="translate(2966.22 1537.98) rotate(-79.95)" gradientUnits="userSpaceOnUse"><stop offset=".24" stop-color="#2d8263"/><stop offset=".68" stop-color="#75cab1"/><stop offset=".93" stop-color="#9df2db"/></linearGradient><linearGradient id="linear-gradient-7" x1="19.75" y1="-839.89" x2="80.76" y2="-905.38" gradientTransform="translate(447.89 918.1) rotate(-22.36)" xlink:href="#linear-gradient-6"/></defs><rect width="250" height="200" rx="40" ry="40" style="fill:url(#linear-gradient);"/><polygon points="33.87 25.49 33.18 179.45 120.31 164.13 215.42 177.77 214.43 26.51 123.01 50.97 33.87 25.49" style="fill:#f7e9de;"/><polygon points="123.01 50.97 207.02 32.16 207.69 170.35 120.31 164.13 215.42 177.77 214.43 26.51 123.01 50.97" style="fill:#fc8ea7;"/><polygon points="123.01 50.97 40.37 32.16 40.11 171.84 120.31 164.13 33.18 179.45 33.87 25.49 123.01 50.97" style="fill:#fc8ea7;"/><polygon points="123.01 50.97 120.31 164.13 142.56 165.71 123.01 50.97" style="fill:#e3c8bf;"/><path d="m104.98,110.37c1.74-6.21,5.29-12.15,4.83-18.58-.3-4.21-2.32-8.08-4.2-11.87-1.88-3.79-3.69-7.8-3.55-12.03.14-4.22,2.87-8.66,7.04-9.34,4.14-.67,9.12,2.2,12.18-.66,1.71-1.6,1.79-4.35.97-6.54s-2.36-4.02-3.61-5.99c-2.54-4.02-3.89-8.77-3.86-13.52.02-2.37.42-4.85,1.89-6.71s4.23-2.84,6.3-1.69c2.55,1.42,3.21,5.38,6.03,6.11,2.85.73,5.12-2.47,5.88-5.31.68-2.56.91-5.24,1.84-7.72.93-2.48,2.77-4.85,5.36-5.42s5.7,1.48,5.43,4.12c-.15,1.42-1.19,2.73-.97,4.14.22,1.47,1.8,2.43,3.28,2.41s2.84-.82,4.01-1.73c3.13-2.44,5.41-5.89,8.73-8.06,3.32-2.17,8.52-2.47,10.65.87,1.64,2.57.66,6.08-1.18,8.53s-4.4,4.24-6.36,6.58c-1.97,2.34-3.32,5.63-2.11,8.44,1.61,3.75,7.05,5.1,7.82,9.11.55,2.86-1.71,5.55-4.22,7.03-2.51,1.48-5.43,2.28-7.7,4.11s-3.7,5.3-2,7.67c1.86,2.59,6.09,2.24,8.2,4.63,2.45,2.77.33,7.4-2.86,9.27-3.19,1.87-7.07,2.1-10.53,3.4-3.46,1.31-6.82,4.57-6.04,8.18.93,4.31,6.94,5.95,7.96,10.23.61,2.57-.89,5.25-2.93,6.94-2.04,1.69-4.57,2.64-6.92,3.85-6.6,3.39-12.04,8.98-15.24,15.68-1.44,3.02-2.43,6.23-3.85,9.26s-3.34,5.94-6.15,7.75c-2.81,1.8-6.66,2.28-9.48.49-2.66-1.68-2.99-4.54-2.86-7.37s-.76-4.78-1.57-7.52c-1.8-6.07-1.91-12.64-.2-18.74Z" style="fill:url(#linear-gradient-2);"/><path d="m113.22,150.92c-3.19-4.61-4.31-10.16-4.68-15.57-.37-5.4-.05-10.82-.69-16.22-2.11-17.86-14.3-33.49-20.02-50.76-4.02-12.14-4.77-25.12-2.16-37.38.27-1.24.68-2.63,1.89-3.19,1.2-.56,3.11.69,2.45,1.79.07-2.06.16-4.18,1.06-6.04s2.82-3.4,5.03-3.3,4.25,2.39,3.44,4.28c4.89-4.41,13.09-5.2,19.12-1.84-2.53,1.74-3.6,4.88-3.49,7.87.11,2.99,1.23,5.89,2.39,8.72,5.83,14.21,12.89,28.18,15.81,43.07,2.42,12.36,1.9,24.94,1.36,37.4-.49,11.35.4,17.53-.09,28.88-.22,5.24-.6,7.29-5.7,5.13-4.99-2.11-12.54,1.74-15.72-2.86Z" style="fill:url(#linear-gradient-3);"/><path d="m149.87,100.61c5.84-9.12,13.08-17.5,17-27.59,2.87-7.39,3.82-15.35,4.75-23.22.8-6.76,1.6-13.52,2.4-20.28.2-1.66.02-3.89-1.61-4.26-1.55-.35-2.68,1.4-3.29,2.86-1.3,3.08-2.61,6.16-3.91,9.24-1.3-.9-1.47-2.82-.92-4.3s1.65-2.68,2.51-4.01c.86-1.32,1.52-2.96,1.04-4.47s-2.54-2.49-3.73-1.44c-.66.59-.82,1.55-.94,2.42-.68,5.03-1.36,10.05-2.04,15.08-2.35-1.09-2.71-4.36-1.96-6.84s2.25-4.77,2.41-7.36c.11-1.69-.67-3.69-2.33-4.04-2.41-.52-3.88,2.54-4.37,4.95-2.3,11.53-3.2,23.29-5.11,34.89-1.91,11.6-4.92,23.23-11.03,33.27-5.09,8.36-12.19,15.38-17.02,23.9-4.83,8.51-7.04,19.61-1.8,27.87,1.44,2.27,3.54,4.31,6.18,4.87,8.56,1.85,7.79-11.1,8.96-16.23,1.83-7.97,4.53-15.74,8.04-23.13,2-4.2,4.26-8.27,6.77-12.19Z" style="fill:url(#linear-gradient-4);"/><path d="m97.55,128.63c-8.16-7.47-14.86-16.38-21.5-25.24-6.39-8.51-12.77-17.03-19.16-25.54-1.61-2.14-3.25-4.36-3.89-6.97-.63-2.6,0-5.71,2.22-7.22,2.22-1.51,5.96-.4,6.34,2.26-.84-2.57-1.67-5.41-.65-7.92s4.86-3.84,6.47-1.66c-.11-6.26,2.22-12.52,6.39-17.19,1.6-1.79,3.99-3.46,6.22-2.59,1.05.4,1.82,1.3,2.51,2.19,3.39,4.38,5.83,9.49,7.11,14.88,1.26,5.33,1.39,10.89,2.78,16.18,2.1,8.01,6.96,14.96,11.72,21.73,5.07,7.21,10.14,14.41,15.2,21.62,4.33,6.16,8.69,12.36,11.8,19.22,3.11,6.86,4.94,14.48,3.93,21.95-.23,1.71-.66,3.5-1.85,4.76-3.9,4.09-6.15-1.83-7.85-4.43-2.28-3.47-5.1-6.56-8.11-9.41-6.24-5.91-13.35-10.82-19.69-16.62Z" style="fill:url(#linear-gradient-5);"/><path d="m109.34,151.07c-8.87-2.45-18.07-4.22-26.12-8.68-12.4-6.86-20.66-19.29-27.27-31.83-.58-1.09-1.16-2.23-1.26-3.46s.38-2.6,1.47-3.17,2.74.05,2.88,1.28c-3.13-3.83-4.45-9.08-3.49-13.93.24-1.23.69-2.52,1.74-3.2s2.8-.26,3.01.97c-1.8-3.91-.73-8.67,1.71-12.22s6.06-6.09,9.69-8.39c-4.44,3.14-5.45,9.65-3.49,14.72s6.25,8.88,10.79,11.87c4.54,2.99,9.48,5.38,13.75,8.74,6.31,4.98,10.82,11.83,15.22,18.56,5.55,8.49,11.09,16.97,16.64,25.46,2.17,3.31,4.33,6.62,6.5,9.94,2.77,4.24-.08,1.89-2.87-.07-5.31-3.74-12.47-5.44-18.9-6.58Z" style="fill:url(#linear-gradient-6);"/><path d="m129,121.66c-.49-3.47-1.05-6.98-.69-10.47s1.76-7.03,4.53-9.18c4.04-3.14,10.59-3.18,12.94-7.73,1.72-3.33.14-7.44-2.12-10.43-1.63-2.15-3.73-4.79-2.54-7.22,1.15-2.34,4.49-2.4,6.97-1.6,2.48.8,5.06,2.12,7.56,1.36,2.75-.84,4.18-3.95,4.38-6.82.2-2.87-.49-5.74-.36-8.61.13-2.87,1.38-6.02,4.06-7.06,2.09-.81,4.61-.05,6.12,1.61s2.05,4.06,1.7,6.28c-.16,1.03-.5,2.04-.47,3.08s.53,2.17,1.51,2.51c1.14.39,2.37-.45,3.04-1.46s1.01-2.21,1.76-3.17c1.9-2.43,5.99-2.28,8.2-.13,2.2,2.16,2.64,5.68,1.74,8.62s-2.95,5.41-5.16,7.56-4.66,4.06-6.69,6.39c-.93,1.07-1.77,2.74-.83,3.81,1.16,1.31,3.21.02,4.87-.55,3.82-1.32,8.02,2.4,8.3,6.43s-2.3,7.79-5.48,10.29c-4.55,3.57-10.27,5.23-15.35,7.98-5.08,2.75-9.9,7.37-10.02,13.15-.04,2.1.54,4.16.63,6.26.16,4.09-1.6,7.98-3.32,11.7-1.31,2.82-2.66,5.72-4.89,7.88-2.2,2.13-5.07,3.4-7.91,4.55-2.63,1.06-9.56,5.23-12.08,2.71-2.14-2.15.44-8.6.72-11.32.9-8.8.12-17.68-1.11-26.4Z" style="fill:url(#linear-gradient-7);"/><path d="m172.21,95.62c-11.91,8.18-20.63,20.11-29.1,31.81,9.36-10,22.95-15.9,36.65-15.9-11.96,5.09-23.22,11.82-33.36,19.94,5.05-4.46,11.84-6.71,18.57-6.87,6.74-.16,13.42,1.66,19.5,4.55-12.35-1.46-25.17,1.39-35.74,7.94,6.21-2.79,13.52-2.27,19.96-.05,6.44,2.23,12.2,6.03,17.88,9.79-7.35-1.68-14.75-3.36-22.29-3.74s-15.29.63-21.99,4.09c10.76.17,20.23,6.75,28.94,13.07-8.33-4.42-18.02-6.25-27.39-5.16,3.92,1.18,7.64,3.04,10.94,5.45-5.02-2.3-10.85-2.75-16.16-1.27-2.25.63-4.48,1.6-6.81,1.47-3.6-.2-6.63-3.14-7.8-6.55-1.62-4.74-.35-8.12,2.12-12,2.86-4.49,4.75-9.57,7.7-14.06,5.96-9.05,13.58-17.01,22.37-23.36,4.99-3.61,10.36-6.7,16.01-9.16Z" style="fill:#93c360;"/><path d="m138.85,148.2c-1.9-8.47-1.76-17.39.42-25.8-4.72,5.57-6.61,13.42-4.95,20.53-5.05-9.25-11.41-17.99-19.87-24.26,5.87,6.92,10.8,14.63,14.61,22.86-9.25-12.81-25.06-20.6-40.85-20.14,6.15.56,12,3.15,17.07,6.69,5.07,3.53,9.42,7.99,13.51,12.63-9.11-6.2-20.58-8.83-31.48-7.21,10.7.53,20.41,6.11,29.57,11.66-8.36-3.56-18.6-2.24-25.79,3.33,9.17-.88,18.45-.59,27.55.85-4.33-.59-8.89.73-12.23,3.56,4.93-.75,10.05-.13,14.67,1.76-1.63.32-3.13,1.23-4.18,2.51,1.67-.79,3.65-.53,5.4.05,1.75.58,3.4,1.47,5.18,1.94,3.32.87,6.95.03,9.72-1.93,1.13-.8,3.07-2.34,3.42-3.77s-1.39-3.6-1.76-5.24Z" style="fill:#93c360;"/><path d="m115.23,65.64l.04.11c.37-.99.81-1.92,1.04-2.44,1.02-2.29,2.45-4.4,4.2-6.2-1.32,2.15-1.94,4.64-2.7,7.04-.54,1.71-1.02,4.28-2.58,5.4,0,2.28.04,4.54.1,6.81.73-1.09,1.49-2.02,1.97-2.54,2.63-2.87,6.26-4.81,10.11-5.39-3.46,1.56-5.43,5.18-7.18,8.53-.59,1.12-2.66,5.5-4.61,6.69,0,.11,0,.21.01.32.3,5.23.8,10.44,1.59,15.52.24-.97.52-1.84.69-2.35,1.5-4.75,4.71-8.99,9.03-11.51-1.94,1.67-2.99,4.14-3.65,6.61-.66,2.47-1.01,5.03-1.86,7.45-.32.91-1.91,4.53-3.28,5.01.57,2.83,1.24,5.61,2.03,8.3.43,1.45.89,2.88,1.38,4.27-.16-2.92.2-5.86,1.05-8.66,1.02-3.39,2.75-6.58,5.08-9.23-1.81,2.05-2.04,6.13-2.25,8.71-.27,3.16-.25,6.35-.92,9.47-.18.85-.39,3.1-1.5,3.14-.07,0-.13,0-.18,0,.95,2.38,1.96,4.7,3.02,6.95,1.09,2.3,2.22,4.55,3.39,6.76.71,1.35,2.92,4.21,2.92,5.98-1.29.31-3.33-2.93-4.24-4.11-1.69-2.17-3.16-4.5-4.46-6.92-.7-1.28-1.06-2.65-1.73-3.85l-.03.33c-.18-.39-.36-.79-.54-1.2-.2-.26-.43-.51-.7-.75-4.45-3.94-10.06-6.9-15.61-8.91,3.53-.74,7.33-.11,10.42,1.74,1.66.99,3.1,2.32,4.25,3.87-.98-2.62-1.84-5.35-2.58-8.16-.09-.36-.19-.72-.28-1.08-.84-.08-2.33-1.41-3.01-1.78-3.72-2-7.94-3.08-12.17-3.07,1.84-.71,3.79-1.12,5.76-1.23,2.26-.13,4.61.18,6.59,1.28.58.33,1.4.89,2.08,1.58-.45-2.06-.84-4.15-1.16-6.27,0-.02,0-.03-.01-.05-2.53-1.99-4.42-4.32-7.53-5.75-3.16-1.45-6.67-2.18-10.16-2,3.59-1.63,7.87-1.99,11.51-.46,2.14.89,4.49,2.81,5.76,5.1-.33-2.52-.57-5.07-.73-7.64-1.4.17-4.36-3.17-5.59-3.97-2.28-1.46-4.73-2.63-7.3-3.47,2.32-.29,4.67-.49,6.98-.12,2.07.35,4.17,1.19,5.66,2.71-.04-1.11-.06-2.21-.07-3.31-.01-.54-.01-1.08-.01-1.63,0-1.07.01-2.15.04-3.23-.76-1.53-2.48-3.28-3.36-4.23-1.58-1.7-3.53-3.12-5.77-3.72,2.65-.41,5.46.42,7.46,2.2.7.63,1.3,1.37,1.77,2.19.14-3.58.39-7.16.73-10.72h0c-.54-1.73-1.24-3.43-2.04-5.03-2.02-4.08-4.92-7.72-8.46-10.6,3.7.49,7.14,2.6,9.24,5.67.73,1.06,1.29,2.22,1.67,3.44.14-.74.35-1.47.61-2.18.06-.15.11-.3.17-.45.41-1.06.93-2.09,1.53-3.05,1.83-2.94,4.41-5.36,7.2-7.41-1.9,2.64-3.66,5.12-5.09,8.02-1.23,2.48-2.47,4.95-3.71,7.43-.02,2.01-.04,4.02-.05,6.03h0Z" style="fill:#93c360;"/></svg>
