<?xml version="1.0" encoding="UTF-8"?><svg id="Layer_1" xmlns="http://www.w3.org/2000/svg" width="260" height="205" xmlns:xlink="http://www.w3.org/1999/xlink" viewBox="0 0 250 200"><defs><linearGradient id="linear-gradient" x1="125" y1="200" x2="125" y2="0" gradientUnits="userSpaceOnUse"><stop offset=".21" stop-color="#004445"/><stop offset=".45" stop-color="#00494b"/><stop offset=".78" stop-color="#00595c"/><stop offset="1" stop-color="#01696c"/></linearGradient><linearGradient id="linear-gradient-2" x1="1633.78" y1="1436.1" x2="1572.4" y2="1323.74" gradientTransform="translate(221.62 -2024.61) rotate(50.74)" gradientUnits="userSpaceOnUse"><stop offset=".22" stop-color="#1c3740"/><stop offset=".38" stop-color="#1d3c42"/><stop offset=".58" stop-color="#204c49"/><stop offset=".81" stop-color="#266555"/><stop offset="1" stop-color="#2d8263"/></linearGradient><linearGradient id="linear-gradient-3" x1="494.13" y1="709.04" x2="442.67" y2="655.45" gradientTransform="translate(-108.52 -690.69) rotate(19.97)" xlink:href="#linear-gradient-2"/><linearGradient id="linear-gradient-4" x1="4505.74" y1="-196.17" x2="4552.7" y2="-263.07" gradientTransform="translate(4604.48 -242.82) rotate(172.21) scale(1 -1)" gradientUnits="userSpaceOnUse"><stop offset=".38" stop-color="#2d8263"/><stop offset=".45" stop-color="#34896a"/><stop offset=".56" stop-color="#489d80"/><stop offset=".69" stop-color="#68bda2"/><stop offset=".84" stop-color="#95ead3"/><stop offset=".87" stop-color="#9df2db"/></linearGradient><linearGradient id="linear-gradient-5" x1="135.18" y1="161.63" x2="174.42" y2="110.21" gradientTransform="translate(7.66 -38.52) rotate(3.33)" gradientUnits="userSpaceOnUse"><stop offset=".35" stop-color="#10603d"/><stop offset=".49" stop-color="#277143"/><stop offset=".78" stop-color="#639e53"/><stop offset="1" stop-color="#93c360"/></linearGradient><linearGradient id="linear-gradient-6" x1="465.4" y1="525.93" x2="538.1" y2="447.9" gradientTransform="translate(-185.82 -495.22) rotate(14.73) scale(1.04 1.03)" gradientUnits="userSpaceOnUse"><stop offset=".24" stop-color="#2d8263"/><stop offset=".68" stop-color="#75cab1"/><stop offset=".93" stop-color="#9df2db"/></linearGradient><linearGradient id="linear-gradient-7" x1="45.62" y1="12.76" x2="184.01" y2="246.95" gradientUnits="userSpaceOnUse"><stop offset="0" stop-color="#9df2db"/><stop offset=".81" stop-color="#89cfc6" stop-opacity="0"/></linearGradient></defs><path d="m250,40v120c0,15.63-8.96,29.16-22.03,35.74-5.41,2.73-11.51,4.26-17.97,4.26H40c-22.1,0-40-17.91-40-40V40c0-5.59,1.15-10.9,3.22-15.73C7.45,14.37,15.57,6.53,25.65,2.66c4.45-1.72,9.29-2.66,14.35-2.66h170c22.09,0,40,17.91,40,40Z" style="fill:url(#linear-gradient);"/><path d="m116.07,160.01c.4-6.36,3.35-12.29,6.87-17.6,3.52-5.31,7.67-10.2,10.94-15.67,10.82-18.12,10.95-40.56,18.09-60.42,5.02-13.97,13.6-26.64,24.7-36.49,1.13-1,2.49-2.03,3.98-1.79,1.49.24,2.32,2.63.94,3.24,1.54-1.89,3.13-3.82,5.26-4.99,2.14-1.17,4.98-1.39,6.9.1,1.92,1.5,2.14,4.95.06,6.21,7.56-1.03,15.55,3.45,18.61,10.45-3.53.02-6.74,2.29-8.77,5.17-2.03,2.88-3.09,6.32-4.05,9.71-4.86,17.06-8.43,34.68-16.42,50.52-6.62,13.15-16.07,24.63-25.43,36-8.53,10.35-17.06,20.7-25.59,31.05-3.94,4.78-7.56,5.28-10.63,0-3.01-5.16-5.85-9.14-5.44-15.49Z" style="fill:url(#linear-gradient-2);"/><path d="m104.3,153.38c-1.88-4.21-2.65-9.1-5.85-12.42-2.1-2.18-4.98-3.38-7.74-4.6s-5.6-2.6-7.46-4.99c-1.85-2.39-2.39-6.07-.4-8.35,1.97-2.26,6.02-2.96,6.39-5.94.21-1.66-1-3.21-2.46-4.04-1.45-.83-3.13-1.13-4.73-1.64-3.23-1.05-6.15-3.04-8.31-5.66-1.07-1.31-1.99-2.86-2.03-4.55s1.03-3.5,2.69-3.81c2.05-.39,4.22,1.49,6.11.59,1.9-.9,1.69-3.7.8-5.61-.8-1.72-1.9-3.3-2.52-5.09-.63-1.79-.69-3.93.47-5.43s3.81-1.79,4.87-.22c.57.85.6,2.04,1.36,2.72.79.7,2.1.51,2.91-.18s1.19-1.75,1.41-2.79c.6-2.77.28-5.71,1.11-8.43.83-2.71,3.55-5.25,6.26-4.39,2.08.66,3.15,3.04,3.26,5.22s-.47,4.35-.48,6.53.75,4.61,2.7,5.61c2.6,1.32,6.21-.42,8.47,1.43,1.61,1.32,1.6,3.83.9,5.8-.7,1.96-1.94,3.74-2.35,5.78-.41,2.04.39,4.61,2.41,5.13,2.21.57,4.37-1.56,6.63-1.21,2.62.4,3.57,3.91,2.67,6.4-.9,2.49-2.93,4.39-4.23,6.69-1.31,2.3-1.66,5.63.42,7.26,2.48,1.94,6.54.09,9.06,1.98,1.52,1.13,1.91,3.29,1.56,5.15-.35,1.86-1.3,3.54-2.04,5.28-2.08,4.88-2.51,10.45-1.2,15.59.59,2.32,1.52,4.54,2.12,6.85s.89,4.79.17,7.07-2.62,4.3-4.99,4.61c-2.23.29-3.72-1.13-4.95-2.74s-2.61-2.28-4.3-3.41c-3.76-2.51-6.84-6.07-8.69-10.21Z" style="fill:url(#linear-gradient-3);"/><path d="m131.44,73.07l.02.15c.74-1.14,1.55-2.17,1.99-2.77,1.93-2.58,4.31-4.82,7.01-6.59-2.26,2.33-3.73,5.27-5.37,8.07-1.16,1.99-2.48,5.08-4.76,6.05-.63,2.86-1.23,5.71-1.79,8.57,1.23-1.16,2.44-2.12,3.18-2.63,4.11-2.86,9.2-4.27,14.19-3.91-4.78.98-8.26,4.96-11.4,8.68-1.05,1.25-4.89,6.15-7.66,7.09-.03.14-.05.27-.07.41-1.1,6.65-1.93,13.32-2.37,19.91.58-1.14,1.17-2.16,1.52-2.76,3.21-5.54,8.43-9.95,14.57-11.89-2.9,1.55-4.91,4.35-6.44,7.26-1.53,2.91-2.68,6.02-4.42,8.81-.66,1.05-3.67,5.14-5.53,5.36-.09,3.71-.03,7.38.21,10.98.13,1.94.31,3.86.53,5.74.62-3.7,1.91-7.29,3.75-10.56,2.23-3.96,5.3-7.47,8.97-10.14-2.85,2.06-4.28,7.12-5.28,10.29-1.22,3.88-2.11,7.9-3.82,11.61-.47,1.02-1.36,3.78-2.76,3.51-.09-.01-.16-.03-.23-.06.52,3.26,1.14,6.45,1.83,9.57.71,3.19,1.51,6.33,2.34,9.43.51,1.89,2.47,6.1,1.98,8.33-1.71.02-3.35-4.61-4.16-6.35-1.51-3.2-2.69-6.54-3.65-9.93-.51-1.8-.58-3.62-1.08-5.31l-.13.41c-.12-.54-.23-1.1-.33-1.65-.18-.39-.39-.76-.66-1.14-4.47-6.19-10.67-11.48-17.06-15.57,4.64.06,9.22,1.93,12.58,5.12,1.8,1.71,3.24,3.78,4.24,6.04-.49-3.56-.8-7.23-.93-10.96-.02-.47-.03-.96-.05-1.44-1.03-.33-2.52-2.43-3.27-3.08-4.1-3.56-9.09-6.1-14.39-7.27,2.51-.37,5.07-.33,7.56.09,2.88.48,5.73,1.52,7.9,3.46.64.57,1.5,1.51,2.16,2.56.02-2.7.12-5.44.31-8.19,0-.02,0-.04,0-.06-2.61-3.21-4.32-6.66-7.82-9.33-3.55-2.71-7.76-4.61-12.18-5.37,4.96-1.04,10.42-.28,14.56,2.66,2.43,1.71,4.84,4.79,5.78,8.02.3-3.25.72-6.52,1.23-9.78-1.8-.18-4.57-5.21-5.89-6.55-2.44-2.47-5.19-4.64-8.17-6.41,2.99.28,6,.7,8.78,1.81,2.5,1.02,4.89,2.67,6.34,4.99.26-1.4.54-2.79.85-4.18.14-.68.29-1.36.44-2.04.3-1.34.62-2.7.96-4.04-.53-2.14-2.19-4.81-3.02-6.25-1.5-2.58-3.55-4.91-6.19-6.29,3.44.23,6.73,2.06,8.73,4.86.7.98,1.25,2.08,1.61,3.24,1.18-4.46,2.5-8.87,3.94-13.24h0c-.2-2.32-.6-4.65-1.14-6.88-1.38-5.69-3.99-11.07-7.62-15.67,4.5,1.65,8.22,5.27,9.99,9.72.62,1.54.99,3.14,1.13,4.79.39-.89.85-1.74,1.37-2.56.11-.17.22-.34.34-.51.81-1.22,1.75-2.36,2.78-3.4,3.13-3.17,7.04-5.47,11.12-7.27-3.13,2.78-6.03,5.39-8.64,8.62-2.24,2.77-4.49,5.51-6.74,8.27-.59,2.51-1.19,5.03-1.76,7.54h0Z" style="fill:#2d8263;"/><path d="m114.37,162.64c-1.94-8.28-3.24-16.85-7.07-24.45-5.89-11.71-17.07-19.79-28.42-26.36-.99-.57-2.02-1.15-3.15-1.29-1.13-.14-2.41.26-2.99,1.25s-.06,2.53,1.07,2.71c-3.42-3.03-8.23-4.44-12.75-3.74-1.14.18-2.36.55-3.02,1.49s-.35,2.58.78,2.82c-3.54-1.81-7.99-.99-11.35,1.13-3.36,2.13-5.85,5.37-8.1,8.65,3.06-3.99,9.12-4.69,13.73-2.69,4.61,1.99,7.98,6.1,10.58,10.4,2.6,4.3,4.62,8.96,7.58,13.02,4.37,6.01,10.54,10.43,16.6,14.74,7.64,5.43,15.28,10.87,22.92,16.3,2.98,2.12,5.96,4.24,8.95,6.36,3.82,2.72,3.12-.03,1.41-2.67-3.26-5.05-5.95-11.71-6.77-17.69Z" style="fill:url(#linear-gradient-4);"/><path d="m126.13,134.53c1.9-9.97,5.64-19.49,9.35-28.93,3.57-9.08,7.14-18.17,10.71-27.25.9-2.29,1.84-4.64,3.57-6.39,1.73-1.75,4.46-2.75,6.7-1.74s3.18,4.46,1.29,6.04c1.6-1.89,3.42-3.91,5.87-4.31,2.45-.4,5.33,1.95,4.41,4.25,4.83-3.1,10.84-4.29,16.49-3.29,2.16.39,4.62,1.45,5.02,3.61.19,1.01-.14,2.05-.5,3.01-1.79,4.76-4.6,9.12-8.19,12.71-3.55,3.55-7.83,6.33-11.29,9.96-5.24,5.5-8.33,12.63-11.33,19.61-3.18,7.42-6.37,14.85-9.55,22.27-2.72,6.35-5.47,12.74-9.32,18.47-3.85,5.73-8.93,10.83-15.24,13.63-1.45.64-3.05,1.17-4.6.84-5.07-1.07-1.53-5.68-.32-8.26,1.61-3.45,2.67-7.14,3.44-10.86,1.61-7.72,2.02-15.63,3.5-23.37Z" style="fill:url(#linear-gradient-5);"/><path d="m136.7,126.57c2.1-3.76,4.16-7.6,7.12-10.74,2.95-3.14,6.98-5.55,11.33-5.6,6.35-.07,12.86,4.76,18.57,2.06,4.18-1.98,5.68-7.17,5.67-11.77,0-3.31-.12-7.45,2.86-8.94,2.88-1.43,6.24.99,8.1,3.62,1.86,2.62,3.44,5.83,6.48,6.94,3.35,1.22,7.09-.76,9.42-3.41,2.33-2.65,3.79-5.97,6.06-8.68,2.27-2.71,5.85-4.86,9.28-3.88,2.68.76,4.6,3.38,4.86,6.12s-1,5.49-2.99,7.4c-.92.89-2.01,1.62-2.76,2.66-.75,1.03-1.09,2.51-.37,3.58.84,1.24,2.68,1.32,4.09.83,1.41-.49,2.65-1.41,4.1-1.79,3.69-.97,7.64,2.22,8.21,5.97.58,3.75-1.61,7.51-4.7,9.72s-6.95,3.1-10.75,3.55c-3.79.45-7.64.51-11.38,1.27-1.73.35-3.8,1.36-3.65,3.1.18,2.15,3.17,2.41,5.24,3.08,4.77,1.55,6.15,8.3,3.43,12.45-2.72,4.15-8.08,5.9-13.09,5.97-7.16.11-14.07-2.53-21.15-3.61-7.09-1.09-15.3-.16-19.72,5.4-1.61,2.02-2.56,4.47-4.04,6.58-2.89,4.11-7.53,6.61-12,8.96-3.4,1.79-6.89,3.61-10.72,4.07-3.76.45-7.55-.45-11.22-1.43-3.39-.91-13.37-1.99-13.99-6.33-.52-3.69,6.84-8.07,9.14-10.52,7.44-7.93,13.28-17.18,18.57-26.62Z" style="fill:url(#linear-gradient-6);"/><path d="m98.98,122.05c10.05,9.85,16.41,22.77,22.57,35.42-7.3-11.17-19.35-19.12-32.49-21.42,10.62,6.89,20.29,15.24,28.66,24.75-4.09-5.13-10.23-8.43-16.66-9.72-6.44-1.29-13.16-.66-19.48,1.09,12.1.68,23.92,5.57,32.96,13.63-5.49-3.73-12.59-4.46-19.14-3.4-6.55,1.05-12.72,3.73-18.8,6.39,7.34-.37,14.72-.75,22.02.16,7.29.91,14.56,3.18,20.42,7.62-10.36-1.65-20.55,3.08-29.97,7.68,8.74-2.84,18.34-2.96,27.15-.35-3.96.48-7.84,1.63-11.42,3.39,5.2-1.36,11.21-1.41,15.72,1.5,1.38.89,3.12,3.25,8.81,4.43,3.44.71,4.37-3.77,6.06-6.85,2.35-4.28,1.7-7.73-.02-11.87-1.99-4.79-2.94-9.98-5.03-14.79-4.2-9.69-10.17-18.61-17.53-26.18-4.18-4.3-8.82-8.17-13.82-11.48Z" style="fill:#93c360;"/><path d="m121.94,181.34c-1.1-12.37-5.18-24.46-11.81-34.97,8.85,5.54,14.85,15.4,15.69,25.81,2.85-14.8,7.71-29.47,16.51-41.71-4.98,11.98-4.79,15.95-6.4,28.82,7.01-14.36,21.63-30.3,43.35-36.54-8.14,3.45-14.98,9.52-20.34,16.54-5.37,7.02-9.36,15-12.91,23.09,9.71-12.41,24.2-20.99,39.75-23.54-14.34,5.38-25.15,17.21-35.22,28.76,9.84-8.49,24.37-11.15,36.59-6.69-7.41.14-18.18-.73-37.16,13.16,5.64-2.7,12.43-2.87,18.21-.48-7.04,1.13-13.76,4.2-19.22,8.78,2.36-.27,4.8.31,6.79,1.6-2.62-.34-5.2.87-7.34,2.43-2.13,1.56-3.99,3.48-6.22,4.89-4.14,2.63-9.46,3.07-14.09,1.6-1.89-.6-5.19-1.85-6.3-3.65s.33-5.52.12-7.91Z" style="fill:#93c360;"/><path d="m51.65,31.94l-7.49,9.88L3.22,24.27C7.45,14.37,15.57,6.53,25.65,2.66l26,29.28Z" style="fill:#fc8ea7;"/><polygon points="44.16 41.82 48.49 66.7 79.43 34.37 51.65 31.94 44.16 41.82" style="fill:#fc8ea7;"/><path d="m69.14,56.61c-7.04,8.05-21.01,15.13-20.64,10.1.4-5.56,3.76-13.49,11.2-21.15,6.24-6.42,13.65-10.5,19.73-11.19,4.84-.54-3.25,14.18-10.29,22.24Z" style="fill:#f7e9de;"/><path d="m227.97,195.74c-5.41,2.73-11.51,4.26-17.97,4.26h-127.96l-4.41-31.26-.06-.38-2.59-18.4-5.38-38.1-5.87-41.61,18.72-20.42,42.15,42.26,3.22,3.24,8.1,8.12.29.28.69.69,4.46,4.48,4.78,4.79,10.9,10.93,5.51,5.52,2.38,2.39,1.37,1.38,7.97,7.99,1.82,1.82,2.49,2.49,49.39,49.53Z" style="fill:url(#linear-gradient-7);"/></svg>
