<?xml version="1.0" encoding="UTF-8"?><svg id="Layer_1" xmlns="http://www.w3.org/2000/svg" width="260" height="205" xmlns:xlink="http://www.w3.org/1999/xlink" viewBox="0 0 260 205"><defs><linearGradient id="linear-gradient" x1="130" y1="205" x2="130" y2="0" gradientUnits="userSpaceOnUse"><stop offset=".21" stop-color="#004445"/><stop offset=".45" stop-color="#00494b"/><stop offset=".78" stop-color="#00595c"/><stop offset="1" stop-color="#01696c"/></linearGradient><linearGradient id="linear-gradient-2" x1="7314.16" y1="-127.21" x2="7278.26" y2="-183.02" gradientTransform="translate(7440.35 -254.79) rotate(176.33) scale(1 -1)" gradientUnits="userSpaceOnUse"><stop offset=".21" stop-color="#1c3740"/><stop offset=".37" stop-color="#1d3d42"/><stop offset=".59" stop-color="#214e4a"/><stop offset=".83" stop-color="#276a57"/><stop offset="1" stop-color="#2d8263"/></linearGradient><linearGradient id="linear-gradient-3" x1="7316.3" y1="-125.04" x2="7354.82" y2="-175.53" gradientTransform="translate(7440.35 -254.79) rotate(176.33) scale(1 -1)" gradientUnits="userSpaceOnUse"><stop offset=".22" stop-color="#1c3740"/><stop offset=".38" stop-color="#1d3c42"/><stop offset=".58" stop-color="#204c49"/><stop offset=".81" stop-color="#266555"/><stop offset="1" stop-color="#2d8263"/></linearGradient><linearGradient id="linear-gradient-4" x1="7314.32" y1="-99.58" x2="7366.9" y2="-174.49" gradientTransform="translate(7440.35 -254.79) rotate(176.33) scale(1 -1)" gradientUnits="userSpaceOnUse"><stop offset=".43" stop-color="#10603d"/><stop offset=".51" stop-color="#1a673f"/><stop offset=".65" stop-color="#357c47"/><stop offset=".83" stop-color="#619d52"/><stop offset="1" stop-color="#93c360"/></linearGradient><linearGradient id="linear-gradient-5" x1="7334.05" y1="-90.66" x2="7393.98" y2="-154.98" gradientTransform="translate(7440.35 -254.79) rotate(176.33) scale(1 -1)" gradientUnits="userSpaceOnUse"><stop offset=".19" stop-color="#2d8263"/><stop offset=".31" stop-color="#489d80"/><stop offset=".5" stop-color="#6cc1a7"/><stop offset=".67" stop-color="#87dcc3"/><stop offset=".82" stop-color="#97ecd4"/><stop offset=".93" stop-color="#9df2db"/></linearGradient><linearGradient id="linear-gradient-6" x1="7078.87" y1="535.99" x2="7032.62" y2="451.32" gradientTransform="translate(7216.63 400) rotate(-173.36) scale(1 -1)" gradientUnits="userSpaceOnUse"><stop offset="0" stop-color="#10603d"/><stop offset=".22" stop-color="#277143"/><stop offset=".67" stop-color="#639e53"/><stop offset="1" stop-color="#93c360"/></linearGradient><linearGradient id="linear-gradient-7" x1="145.08" y1="128.64" x2="206.05" y2="46.51" gradientUnits="userSpaceOnUse"><stop offset=".11" stop-color="#2d8263"/><stop offset=".23" stop-color="#368b6d"/><stop offset=".43" stop-color="#51a68a"/><stop offset=".7" stop-color="#7cd1b8"/><stop offset=".88" stop-color="#9df2db"/></linearGradient></defs><path d="m260,41v123c0,16.02-9.32,29.89-22.91,36.63-5.62,2.8-11.96,4.37-18.69,4.37H41.6c-22.98,0-41.6-18.36-41.6-41V41c0-5.73,1.19-11.18,3.34-16.12C7.75,14.73,16.18,6.69,26.68,2.73c4.63-1.76,9.66-2.73,14.92-2.73h176.8c22.97,0,41.6,18.36,41.6,41Z" style="fill:url(#linear-gradient);"/><polygon points="50.03 87.43 113.53 130.57 129.97 117.77 145.99 130.57 209.5 87.43 129.97 33.44 50.03 87.43" style="fill:#f7e9de;"/><path d="m134.83,133.42c-5.51-.19-9.72-5.83-12.25-11.54-4.63-10.44-6.12-22.47-5.83-34.23.29-11.75,2.26-23.35,4.22-34.88,2.13-12.61,4.62-26.05,12.51-35.02,4.74-5.38,11.1-8.63,17.66-9.66,6.55-1.03,13.28.07,19.54,2.56-6.11-2.18-12.94-1.47-18.62,1.95-5.68,3.42-10.13,9.5-12.14,16.57,4.16-7.75,12.77-11.85,20.4-9.72-7.14,3.59-13.1,10.3-16.42,18.5,2.83-4.2,6.9-7.25,11.36-8.5-2.06,3.28-3.46,7.13-4.05,11.14.85-1.07,1.7-2.15,2.55-3.22-2.22,24.89-1.06,50.02-1.98,75.02-.14,3.92-.35,7.9-1.46,11.6-1.11,3.71-3.24,7.16-6.32,8.76-.81-.98-1.61-1.96-2.42-2.94.19.2,4.7-3.37,5.17-3.7-3.06,3.7-7.29,7.48-11.93,7.32Z" style="fill:url(#linear-gradient-2);"/><path d="m135.99,92.67c-1.75-10.34-5.12-20.19-8.47-29.97-3.23-9.41-6.45-18.81-9.68-28.22-.81-2.37-1.66-4.8-3.21-6.61s-3.98-2.82-5.98-1.77c-1.99,1.06-2.8,4.65-1.12,6.27-1.44-1.96-3.06-4.04-5.25-4.44-2.18-.4-4.74,2.06-3.9,4.44-4.32-3.18-9.68-4.39-14.7-3.31-1.92.41-4.1,1.53-4.45,3.78-.16,1.05.13,2.13.46,3.13,1.61,4.92,4.14,9.44,7.36,13.14,3.18,3.66,7,6.52,10.1,10.27,4.69,5.67,7.48,13.06,10.19,20.28,2.87,7.69,5.75,15.37,8.62,23.06,2.46,6.57,4.93,13.18,8.4,19.11,3.46,5.92,8.01,11.18,13.64,14.05,1.29.66,2.72,1.2,4.1.85,4.51-1.14,1.33-5.9.25-8.58-1.45-3.57-2.41-7.39-3.12-11.25-1.47-8-1.88-16.21-3.23-24.23Z" style="fill:url(#linear-gradient-3);"/><path d="m131.72,104.1c-1.37-10.04-2.08-20.37-5.43-29.76-5.16-14.47-16.01-25.07-27.13-33.87-.97-.77-1.98-1.54-3.13-1.81-1.15-.27-2.49.1-3.15,1.23-.66,1.13-.24,3.02.9,3.33-3.28-3.91-8.09-6-12.76-5.55-1.18.11-2.45.45-3.2,1.52s-.54,3.05.59,3.43c-3.49-2.46-8.1-1.87-11.7.37-3.6,2.24-6.38,5.91-8.93,9.62,3.42-4.49,9.67-4.8,14.25-2.03,4.57,2.77,7.71,7.96,10.05,13.31,2.34,5.35,4.07,11.08,6.79,16.18,4.03,7.55,10.01,13.34,15.89,19,7.41,7.14,14.83,14.27,22.24,21.41,2.89,2.79,5.79,5.57,8.68,8.36,3.71,3.57,3.2.24,1.64-3.06-2.96-6.3-5.22-14.47-5.62-21.67Z" style="fill:url(#linear-gradient-4);"/><path d="m120.11,102.94c-.99-3.54-2.84-6.06-4.53-9.21-1.69-3.16-5.15-4.92-8.28-5.68-4.56-1.11-8.1-.13-11.83-3.38-2.73-2.37-2.7-6.95-4.26-10.63-2.62-6.17-8.6-2.25-10.94-1.82-2.58.48-4.99-1.82-6.3-4.46-1.31-2.64-1.89-5.69-3.14-8.37-1.25-2.68-3.53-5.09-6.14-4.84-2.03.2-3.78,2.1-4.35,4.38-.57,2.28-.05,4.82,1.11,6.77.54.91,1.22,1.71,1.62,2.71s.43,2.31-.23,3.1c-.78.91-2.11.68-3.06.03-.95-.65-1.71-1.64-2.7-2.2-2.52-1.44-5.81.61-6.75,3.69s.1,6.64,2.02,9.02c1.92,2.39,4.57,3.79,7.23,4.8s5.43,1.7,8.01,2.98c1.19.59,2.54,1.79,2.19,3.24-.43,1.79-2.62,1.51-4.2,1.74-3.65.52-3.65,5.78-2.27,9.76,1.38,3.98,6.95,8.43,13.37,10.75,6.78,2.45,4.84,1.59,10.1,1.85,5.25.26,6.51-.21,10.94,4.64,1.39,1.52,2.61,2.78,3.38,4.81,1.5,3.97,4.49,6.86,7.38,9.6,2.19,2.08,4.45,4.21,7.14,5.23,2.64,1.01,5.5.88,8.27.65,2.57-.21,9.9.54,10.95-3.04.89-3.05-3.79-7.98-5.1-10.45-4.24-7.96-7.15-16.78-9.63-25.66Z" style="fill:url(#linear-gradient-5);"/><path d="m130.01,138.42c3.48-2.97,5.79-7.45,7.53-12.05,1.74-4.6,3.02-9.44,4.94-13.94,6.38-14.9,19.13-24.54,27.85-37.74,6.13-9.28,10.23-20.37,11.79-31.94.16-1.17.25-2.52-.43-3.41s-2.35-.42-2.19.75c.52-1.83,1.04-3.71.92-5.62-.11-1.92-1.02-3.9-2.58-4.54-1.55-.64-3.61.68-3.56,2.6-2.17-5.47-7.64-8.87-12.75-7.92,1.27,2.35,1.15,5.45.25,8.03s-2.48,4.74-4.06,6.83c-7.95,10.49-16.7,20.36-22.82,32.41-5.08,10-8.18,21.16-11.24,32.23-2.79,10.07-5.58,20.15-8.36,30.22-1.29,4.65-.25,7.27,3.88,7.07s7.35,0,10.82-2.97Z" style="fill:url(#linear-gradient-6);"/><path d="m209.28,88.77c-.81,2.04-2.46,3.47-4.18,4.5-3.44,2.09-7.4,2.99-11.26,2.58-1.9-.2-3.8-.72-5.7-.46-1.9.25-3.87,1.52-4.39,3.65-.92,3.78,2.87,6.71,3.99,10.42.02.06.04.12.06.19.16.57.24,1.15.26,1.73.12,3.31-1.87,6.62-4.44,8.28-3.02,1.95-6.62,2.15-10.07,2.2-3.4.05-6.92.01-10.07,1.52-.04.02-.08.04-.12.06-1.48.73-2.78,1.76-4,2.95-1.51,1.49-2.88,3.24-4.25,4.99-.15.2-.31.39-.46.59-.45.57-.9,1.14-1.36,1.69-.54.66-1.09,1.3-1.65,1.91-.94,1.01-1.93,1.93-2.98,2.77-.86.69-1.76,1.32-2.68,1.89-1.28.8-2.62,1.47-4,2.03-.97.39-1.96.72-2.96.99-.33.09-.67.17-1.01.24-.03,0-.05.01-.08.02-.09.02-.18.04-.26.06-.64.04-1.27.12-1.89.24-2.83.52-5.58,1.62-8.44,1.92-.81.09-1.62.1-2.42.05-1.01-.9-1.74-2.18-2.18-3.6-.1-.31-.18-.62-.24-.94-.03-.15-.06-.31-.09-.46-.15-.93-.19-1.89-.11-2.82.27-3.17,1.67-6.06,3.35-8.57.24-.36.48-.71.73-1.05.31-.44.63-.87.96-1.3.08-.11.16-.22.25-.33.24-.31.47-.62.71-.93.08-.1.16-.2.23-.3.27-.34.53-.69.79-1.03.25-.33.5-.68.75-1.02.31-.42.6-.86.89-1.3.48-.73.93-1.48,1.35-2.26.59-1.08,1.12-2.2,1.6-3.35.62-1.5,1.14-3.05,1.56-4.65.45-1.71.78-3.47.99-5.24.08-.7.14-1.41.18-2.11.01-.2.02-.41.03-.62.02-.49.03-.98.03-1.47v-.14c0-.87-.03-1.75-.05-2.63,0-.28-.01-.55-.01-.83,0-.49,0-.98.02-1.46,0-.05,0-.11,0-.16.04-.78.11-1.55.26-2.31.05-.25.1-.5.17-.74.1-.37.22-.73.36-1.08.05-.14.11-.27.17-.4.3-.68.69-1.31,1.14-1.83.09-.1.18-.2.27-.3.53-.54,1.15-.93,1.85-1.13.36-.1.72-.15,1.08-.15.59,0,1.17.12,1.76.31.65.21,1.29.5,1.93.81.64.31,1.28.63,1.92.9,1.24.52,2.47.83,3.71.45.33-.1.63-.24.92-.42,2.24-1.42,3.09-5.13,2.79-8.24-.07-.73-.18-1.45-.31-2.17-.03-.19-.07-.38-.11-.57-.03-.14-.05-.27-.08-.4-.04-.21-.08-.42-.12-.63-.45-2.2-.93-4.39-.82-6.63.18-3.52,2.76-7.31,5.68-6.44,2.52.75,3.84,4.5,6.41,4.95,2.35.41,4.35-2.3,4.83-5.01.48-2.72-.02-5.54.13-8.31.15-2.77,1.26-5.85,3.54-6.62,2.01-.68,3.95.66,5.93,1.68,1.17.6,2.36,1.1,3.6,1,2.49-.2,4.38-2.77,5.35-5.44.97-2.68,1.33-5.63,2.42-8.24,1.09-2.61,3.28-4.97,5.76-4.69,3.23.36,4.94,4.9,4.59,8.65-.34,3.76-2,7.19-2.62,10.89-.23,1.38-.3,2.88.23,4.15.53,1.27,1.82,2.19,2.97,1.74,1.11-.43,1.67-1.87,2.65-2.62,1.81-1.38,4.47.37,5.01,2.82.55,2.44-.49,5.03-1.95,6.89-1.46,1.86-3.32,3.22-4.93,4.9-1.79,1.87-3.27,5.18-1.68,7.28,1.58,2.08,4.7.93,6.68,2.47,1.61,1.25,1.92,4.02,1.11,6.07Z" style="fill:url(#linear-gradient-7);"/><path d="m170.38,124.51c1.77.36,3.53.84,5.25,1.42-1.68-.21-3.36-.28-5.03-.25-8.61.17-17.1,3.25-25.26,6.63-.83.34-1.65.69-2.47,1.03.77-.2,1.54-.35,2.32-.47,2.9-.45,5.79-.7,8.71-.36,3.62.42,10.33,2.06,14.84,7.07-3.74-1.05-6.38-1.9-10.25-1.82-10.18.19-11.95,3.45-19.54,7.03-.8.37-2.26,1.04-4.2,1.51-4.93,1.35-7.63,1.06-7.63,1.06l.02-.03c-5.68-.36-11.71-4.17-14.3-6.95-.06-.07-.12-.13-.18-.2-3.42-3.61-8.31-4.15-9.35-4.22-.13,0-.2-.01-.2-.01-6.05-.25-13.12.81-17.35,1.69,4.72-2.4,12.89-6.95,27.77-5.2-11.56-5.62-20.23-6.71-29.08-5.92,7.82-3.2,22.56-4.57,33.3,2.39-7.97-11.18-18.49-12.83-26.46-12.54,4.91-2.45,17.34-4.19,26.94,4.59-3.4-7.77-9.66-14.51-17.45-18.79,4.66.95,18.29,8.16,19.82,12.6-2.47-8.25-4.93-12.46-9.71-19.95,7.96,5.6,13.39,14.26,14.65,23.35-.03-9.62-.1-19.47-3.6-28.64,2.25,3.61,4.08,7.43,5.47,11.37,2.11,5.99,3.22,12.24,3.28,18.48,3.07-8.76,6.8-20.18,7.34-25.22,0,0-.26,9.62-1.27,20.3.09-.09.19-.18.28-.26.2-.19.41-.38.62-.57.56-.52,1.13-1.02,1.71-1.52,2.22-1.9,4.54-3.66,6.98-5.23.47-.3.95-.6,1.43-.89.73-.44,1.46-.86,2.2-1.26-4.77,5.08-8.93,11.67-11.35,15.83.4-.28.81-.56,1.22-.82,2.06-1.34,4.21-2.52,6.43-3.54.33-.15.67-.31,1.01-.45,9.28-4.03,19.66-5.29,29.51-3.24-6.5-.5-13.02,1.28-18.9,4.24-4.19,2.11-8.08,4.8-11.8,7.75-1.5,1.19-2.97,2.42-4.42,3.67,1.42-.7,2.87-1.31,4.35-1.85,7.79-2.82,16.29-3.43,24.37-1.77Z" style="fill:#93c360;"/><polygon points="50.03 177.74 129.97 117.01 209.5 177.74 50.03 177.74" style="fill:#f7e9de;"/><polygon points="50.03 87.43 113.53 129.5 50.03 177.74 50.03 87.43" style="fill:#fc8ea7;"/><polygon points="209.5 87.43 145.99 129.5 209.5 177.74 209.5 87.43" style="fill:#fc8ea7;"/></svg>